<?xml version="1.0" encoding="utf-8"?>
<!-- Generator: Adobe Illustrator 15.1.0, SVG Export Plug-In . SVG Version: 6.00 Build 0)  -->
<svg version="1.2" baseProfile="tiny" id="Layer_1" xmlns="http://www.w3.org/2000/svg" xmlns:xlink="http://www.w3.org/1999/xlink"
	 x="0px" y="0px" width="50px" height="50px" viewBox="0 0 50 50" overflow="inherit" xml:space="preserve">
<g>
	<path d="M42.599,37.17c1.839-0.602,2.829-2.557,2.224-4.381l-1.333,0.426c0.364,1.093-0.242,2.272-1.332,2.633L7.128,47.689
		L7.579,49L42.599,37.17z"/>
	<path d="M10.343,16.708c1.922-0.557,3.022-2.567,2.461-4.479c-0.562-1.911-2.582-3.004-4.51-2.447
		c-1.927,0.557-3.039,2.567-2.466,4.479C6.39,16.173,8.405,17.266,10.343,16.708z"/>
	<path d="M8.856,21.711c-1.917-3.626,3.584-6.564,5.61-3.047l3.95,7.451l7.521-2.121c1.244-0.35,2.963,0.995,2.963,2.578
		l0.042,10.619c0.012,2.632-3.93,2.643-3.93-0.021c-0.012-2.47-0.077-7.734-0.077-7.734l-7.848,2.337
		c-1.718,0.492-3.139-0.359-3.81-1.616L8.856,21.711z"/>
	<polygon points="21,23.394 21,1 19,1 19,23.82 	"/>
	<path d="M5.244,26.551c-1.079-2.108,1.707-3.506,2.786-1.398l3.397,6.598c0.738,1.365,2.181,2.295,3.844,2.295
		c0.517,0,1.001-0.132,1.475-0.23l4.28-1.244c2.269-0.678,3.149,2.292,0.86,2.961l-4.502,1.298
		c-0.671,0.208-1.398,0.316-2.147,0.316c-2.896,0-5.401-1.627-6.634-4.008L5.244,26.551z"/>
</g>
</svg>
