<?xml version="1.0" encoding="utf-8"?>
<!-- Generator: Adobe Illustrator 15.1.0, SVG Export Plug-In . SVG Version: 6.00 Build 0)  -->
<svg version="1.2" baseProfile="tiny" id="Layer_1" xmlns="http://www.w3.org/2000/svg" xmlns:xlink="http://www.w3.org/1999/xlink"
	 x="0px" y="0px" width="50px" height="50px" viewBox="0 0 50 50" overflow="inherit" xml:space="preserve">
<g>
	<ellipse fill="#231F20" cx="36.615" cy="6.695" rx="3.683" ry="3.695"/>
	<path fill="#231F20" d="M13.26,42.202L1,29.869l0.005,2.154l11.411,11.487c1.311,1.425,3.557-0.223,3.557-0.223l-1.077-1.157
		c0,0-1.061,0.698-1.61,0.104L13.26,42.202z"/>
	<rect x="1" y="19" fill="#231F20" width="13" height="1"/>
	<polygon fill="#231F20" points="47.57,15.494 49,16.171 34.755,45 33.178,45 	"/>
	<path fill="#231F20" d="M23.931,13.134l-5.733,6.638c-0.337,0.42-0.854,0.682-1.431,0.682c-1.028,0-1.854-0.834-1.854-1.86
		c0-0.556,0.239-1.052,0.625-1.391l6.179-7.14c0.342-0.409,0.854-0.671,1.43-0.671l8.948-0.005c0.658,0,1.246,0.268,1.681,0.682
		l5.705,5.722l4.727-4.729c0.332-0.283,0.763-0.453,1.229-0.453c1.061,0,1.915,0.862,1.915,1.92c0,0.463-0.158,0.883-0.43,1.216
		l-5.7,5.76c-1.729,1.735-3.123,0.262-3.123,0.262l-3.496-3.523l-5.467,6.338l5.009,5.023c0,0,1.055,0.982,0.452,2.94l-2.807,12.546
		C31.567,44.182,30.604,45,29.457,45c-1.315,0-2.383-1.068-2.383-2.389c0-0.208,0.021-0.409,0.077-0.601l2.306-10.297l-5.689-5.543
		l-4.895,5.471c0,0-0.794,0.982-2.894,0.906l-9.926,0.017c-1.11,0.021-2.116-0.743-2.366-1.866c-0.294-1.287,0.5-2.553,1.784-2.836
		c0.201-0.045,0.402-0.066,0.598-0.055l8.54,0.021l12.625-14.678L23.931,13.134z"/>
</g>
<path fill="#231F20" d="M45.825,45.168C45.822,46.135,45.021,47,44.06,47H15v1h29.056c1.617,0.009,2.936-1.239,2.944-2.864
	L45.825,45.168z"/>
</svg>
