<?xml version="1.0" encoding="utf-8"?>
<!-- Generator: Adobe Illustrator 15.1.0, SVG Export Plug-In . SVG Version: 6.00 Build 0)  -->
<svg version="1.2" baseProfile="tiny" id="Layer_1" xmlns="http://www.w3.org/2000/svg" xmlns:xlink="http://www.w3.org/1999/xlink"
	 x="0px" y="0px" width="50px" height="50px" viewBox="0 0 50 50" overflow="inherit" xml:space="preserve">
<g>
	<path d="M49,47.395c-11,0.161-22.9-1.992-31.994-9.25l0,0c-0.047-0.058,0.074-0.115,0.074-0.209c0-0.161,0.218-0.3,0.392-0.3
		l8.981,0.012c0.443,0,0.813-0.348,0.813-0.788c0-0.323-0.143-0.544-0.479-0.718l-8.089-3.843c-0.163-0.093-0.253-0.255-0.253-0.451
		c0-0.151-0.252-0.278-0.159-0.371l0,0c0,0,9.713-8.67,30.713-8.473V47.395z M30.639,33.664c1.061,0,1.922-0.856,1.922-1.908
		c0-1.055-0.861-1.9-1.922-1.9c-1.049,0-1.91,0.846-1.91,1.9C28.729,32.808,29.59,33.664,30.639,33.664z"/>
	<rect x="1" y="2" width="9" height="7"/>
	<rect x="19" y="2" width="30" height="7"/>
	<path d="M14,12.5c-1,0.243-1.299,0.961-1.299,1.793c0,0.834,0.299,1.552,1.299,1.818v11.75c0,1.516-1.442,2.731-2.968,2.731
		c-1.514,0-2.85-1.216-2.85-2.731c0-0.37,0.013-0.729,0.153-1.054l0.088,0.093l0.953,0.881l-0.613-5.361l-1.576,3.613
		c-0.477,1.111-0.363,1.828-0.363,1.828c0,2.188,1.883,3.971,4.084,3.971c2.213,0,4.09-1.783,4.09-3.971V16.088
		c1-0.267,1.281-0.972,1.281-1.795c0-0.833-0.281-1.551-1.281-1.816V2h-1V12.5z"/>
</g>
</svg>
