<?xml version="1.0" encoding="utf-8"?>
<!-- Generator: Adobe Illustrator 15.1.0, SVG Export Plug-In . SVG Version: 6.00 Build 0)  -->
<svg version="1.2" baseProfile="tiny" id="Layer_1" xmlns="http://www.w3.org/2000/svg" xmlns:xlink="http://www.w3.org/1999/xlink"
	 x="0px" y="0px" width="50px" height="50px" viewBox="0 0 50 50" overflow="inherit" xml:space="preserve">
<g>
	<path fill="#231F20" d="M44.17,18.642c2.118,0,3.83-1.732,3.83-3.864c0-2.13-1.712-3.852-3.83-3.852
		c-2.108,0-3.824,1.721-3.824,3.852C40.346,16.909,42.062,18.642,44.17,18.642z"/>
	<path fill="#231F20" d="M43.091,45.08L2.79,21.217L2,22.579l40.283,23.869c1.847,1.105,4.231,0.502,5.332-1.367l-1.337-0.811
		C45.621,45.387,44.187,45.742,43.091,45.08z"/>
	<path fill="#231F20" d="M46.966,27.166l-6.854-4.034l-0.791-10.336c-0.118-1.237-0.785-2.347-1.756-3.031l-9.871-5.892
		c-2.328-1.579-5.475-0.958-7.045,1.402c-0.864,1.288-1.102,2.917-0.678,4.239l2.678,8.844l-8.079,2.598
		c-1.011,0.41-1.792,1.367-1.927,2.541c-0.209,1.721,1.062,2.861,2.774,3.064c0.39,0.047,0.649-0.066,1.011-0.158l11.028-3.681
		c0.809-0.296,1.693-1.106,1.779-1.812c0.063-0.513,0.226-0.946,0.119-1.254l-1.678-6.051l6.632,3.978l0.802,5.801
		c0.069,1.014,0.527,1.743,1.301,2.176l8.667,5.105c0.948,0.525,2.146,0.172,2.665-0.797C48.271,28.908,47.914,27.689,46.966,27.166
		z"/>
</g>
</svg>
