<?xml version="1.0" encoding="utf-8"?>
<!-- Generator: Adobe Illustrator 15.1.0, SVG Export Plug-In . SVG Version: 6.00 Build 0)  -->
<svg version="1.2" baseProfile="tiny" id="Layer_1" xmlns="http://www.w3.org/2000/svg" xmlns:xlink="http://www.w3.org/1999/xlink"
	 x="0px" y="0px" width="50px" height="50px" viewBox="0 0 50 50" overflow="inherit" xml:space="preserve">
<g>
	<path fill="#231F20" d="M42.973,33.484c2.517,0,4.563-2.119,4.563-4.738c0-2.605-2.047-4.714-4.563-4.714
		c-2.529,0-4.565,2.108-4.565,4.714C38.407,31.365,40.443,33.484,42.973,33.484z"/>
	<path fill="#231F20" d="M46.475,44.051c0.205,0.072,0.302,0.107,0.53,0.107c1.168,0,2.056-0.982,2.056-2.191
		c0-0.912-0.577-1.705-1.346-2.025l-6.33-2.547l-4.605-8.459c0,0-0.382-0.934-1.709-1.445L19.99,21.236l-8.961-15.72
		C10.508,4.616,9.552,4,8.454,4C6.795,4,5.456,5.397,5.456,7.115c0,0.545,0.138,1.055,0.378,1.505l11.125,19.534L9.906,25.24
		l-1.773,1.192L36.313,38h-0.012l1.155,1.807c0,0,0.457,0.973,1.82,1.529l3.5,1.388c-2.277,2.357-5.469,1.329-5.469,1.329
		L2.899,29.736L1,30.905l36.174,14.711C41.35,47.192,45,43.412,45,43.412v0.012L46.475,44.051z"/>
</g>
</svg>
