<?xml version="1.0" encoding="utf-8"?>
<!-- Generator: Adobe Illustrator 15.1.0, SVG Export Plug-In . SVG Version: 6.00 Build 0)  -->
<svg version="1.2" baseProfile="tiny" id="Layer_1" xmlns="http://www.w3.org/2000/svg" xmlns:xlink="http://www.w3.org/1999/xlink"
	 x="0px" y="0px" width="50px" height="50px" viewBox="0 0 50 50" overflow="inherit" xml:space="preserve">
<g>
	<ellipse cx="38.524" cy="7.554" rx="3.842" ry="3.781"/>
	<path d="M47.376,21.784l-10.824-9.792c-0.363-0.345-0.781-0.625-1.247-0.826l-8.433-2.954l-3.831-5.466
		c-0.294-0.389-0.746-0.667-1.278-0.735c-1.009-0.111-1.915,0.602-2.041,1.595c-0.045,0.423,0.057,0.825,0.272,1.159l3.908,5.565
		c0.181,0.233,0.408,0.412,0.68,0.535l4.535,1.762l-7.457,3.747c-1.032,0.591-1.779,1.606-1.983,2.811l0.045,6.703l-6.885,3.056
		c-0.782,0.356-1.338,1.126-1.373,2.028c-0.023,0.534,0.145,1.028,0.433,1.435l-3.713-1.39c-0.697-0.263-1.241-0.819-1.478-1.527
		c-0.425-1.245-1.797-1.914-3.061-1.494c-1.264,0.418-1.943,1.767-1.519,3.012c0.703,2.055,2.29,3.68,4.341,4.448L38.716,47.52
		c2.063,0.777,4.343,0.604,6.234-0.471c1.157-0.653,1.553-2.103,0.896-3.24c-0.669-1.139-2.143-1.528-3.297-0.877
		c-0.635,0.362-1.419,0.421-2.121,0.153l-7.996-2.993c0.831-0.281,1.462-1.005,1.582-1.892l1.259-10.026
		c0.01-0.045,0.01-0.09,0.01-0.135c0.035-0.702-0.25-1.349-0.738-1.794l-5.416-4.729l8.161-3.958l7.581,6.868
		c0.342,0.324,0.795,0.525,1.304,0.525c1.021-0.011,1.837-0.826,1.826-1.829C48,22.586,47.749,22.106,47.376,21.784z M30.363,28.819
		l-1.078,8.801c0,0.043-0.01,0.1-0.01,0.154c-0.02,0.457,0.098,0.884,0.312,1.252l-15.193-5.686
		c0.172-0.042,0.341-0.096,0.495-0.172l8.435-3.749c0.601-0.321,1.054-0.889,1.202-1.571l-0.022-4.169L30.363,28.819z"/>
</g>
</svg>
