<?xml version="1.0" encoding="utf-8"?>
<!-- Generator: Adobe Illustrator 15.1.0, SVG Export Plug-In . SVG Version: 6.00 Build 0)  -->
<svg version="1.2" baseProfile="tiny" id="Layer_1" xmlns="http://www.w3.org/2000/svg" xmlns:xlink="http://www.w3.org/1999/xlink"
	 x="0px" y="0px" width="50px" height="50px" viewBox="0 0 50 50" overflow="inherit" xml:space="preserve">
<path d="M23,47.689v-6.342l-3.357,1.992L18,42.305v-2.229l5-2.986v-4.168l-4,2.451v-4.416l-4,2.094v5.99l-1.653,1.23L12,39.16
	v-4.012L6.426,38.27L4,37.271v-2.529l5.685-3.17L6,29.75v-2.32l2.123-1.127l5.214,3.068l3.612-2.084l-0.082-0.065l-3.665-2.123
	l3.568-2.228l-3.577-2.083L7.98,23.84L6,22.871v-2.307l3.542-1.978L4,15.533v-2.529l2.321-1.114L12,15.087v-4.076l1.485-1.127
	l1.943,1.18l-0.056,6.105l3.673,2.122l0.033-4.311L23,17.079v-4.167l-5-2.988V7.71l1.643-1.05L23,8.652V2.324L24.994,1L27,2.324
	v6.328l3.906-2.031L33,7.84v1.992l-6,3.08v4.167l4-2.267v4.534l4-2.084v-6.524l1.455-0.866L38,10.737v4.167l5.842-3.08L46,13.042
	v2.359l-5.495,3.17L44,20.525v2.254l-1.83,0.996l-5.327-3.158l-3.679,2.346l3.549,2.228l-3.659,2.122l3.772,1.992l5.389-2.986
	L44,27.535v2.15l-3.32,1.887l5.32,3.17v2.49l-2.522,1.037L38,35.281v3.955l-1.52,1.049L35,39.236v-6.002l-4-2.213v4.168l-4-2.268
	v4.168l5,2.986v2.359l-1.647,0.904L27,41.348v6.342L24.994,49L23,47.689z M21.534,25.092L23.42,28h3.514l1.613-2.908L26.843,22
	h-3.514L21.534,25.092z"/>
</svg>
