<svg version="1.2" baseProfile="tiny" xmlns="http://www.w3.org/2000/svg" width="50" height="50" viewBox="0 0 50 50" overflow="inherit"><path d="M35.009 25.542c-.327-1.293-1.973-2.314-3.21-1.716l-4.799 2.174v-8.584l8.433-13.243c.612-.967.376-2.249-.609-2.869-.973-.609-2.24-.326-2.787.62l-7.067 11.255-4.261.011c-.273 0-.544.044-.818.152l-7.366 2.869-3.795-5.715c-.624-.956-1.914-1.239-2.887-.62s-1.257 1.912-.633 2.879l4.736 7.127c.536.826 1.662 1.195 2.613.804l5.441-2.097v9.411l-7.397 16.387c-.558 1.251.054 2.625 1.356 3.354 1.302.729 2.801.304 3.342-.945l5.951-13.582c.524.152 1.093.219 1.673.219.536 0 1.061-.098 1.531-.272l6.681-3.108 1.464 5.857c.326 1.303 1.656 2.097 2.97 1.771 1.312-.326 2.098-1.642 1.77-2.945l-2.332-9.194zm-6.009-3.454v1.553c10-5.018 13.878-22.206 13.878-23.641h-1.399c-.525 3.585-4.479 17.926-12.479 22.088zm-7.092-9.658c2.046 0 3.708-1.64 3.708-3.672 0-2.031-1.662-3.684-3.708-3.684-2.046 0-3.708 1.652-3.708 3.684s1.662 3.672 3.708 3.672zm3.092 37.57h2v-16.568l-2 1.568z"/></svg>