<svg version="1.2" baseProfile="tiny" xmlns="http://www.w3.org/2000/svg" width="50" height="50" viewBox="0 0 50 50" overflow="inherit"><path d="M41 1h-32c-2.2 0-4 1.8-4 4v40c0 2.2 1.8 4 4 4h32c2.2 0 4-1.8 4-4v-40c0-2.2-1.8-4-4-4zm-24 40c0 1.1-.9 2-2 2h-4c-1.1 0-2-.9-2-2v-1c0-1.1.9-2 2-2h4c1.1 0 2 .9 2 2v1zm0-8c0 1.1-.9 2-2 2h-4c-1.1 0-2-.9-2-2v-1c0-1.1.9-2 2-2h4c1.1 0 2 .9 2 2v1zm0-8c0 1.1-.9 2-2 2h-4c-1.1 0-2-.9-2-2v-1c0-1.1.9-2 2-2h4c1.1 0 2 .9 2 2v1zm12 16c0 1.1-.9 2-2 2h-4c-1.1 0-2-.9-2-2v-1c0-1.1.9-2 2-2h4c1.1 0 2 .9 2 2v1zm0-8c0 1.1-.9 2-2 2h-4c-1.1 0-2-.9-2-2v-1c0-1.1.9-2 2-2h4c1.1 0 2 .9 2 2v1zm0-8c0 1.1-.9 2-2 2h-4c-1.1 0-2-.9-2-2v-1c0-1.1.9-2 2-2h4c1.1 0 2 .9 2 2v1zm12 16c0 1.1-.9 2-2 2h-4c-1.1 0-2-.9-2-2v-1c0-1.1.9-2 2-2h4c1.1 0 2 .9 2 2v1zm0-8c0 1.1-.9 2-2 2h-4c-1.1 0-2-.9-2-2v-1c0-1.1.9-2 2-2h4c1.1 0 2 .9 2 2v1zm0-8c0 1.1-.9 2-2 2h-4c-1.1 0-2-.9-2-2v-1c0-1.1.9-2 2-2h4c1.1 0 2 .9 2 2v1zm0-9c0 1.1-.9 2-2 2h-28c-1.1 0-2-.9-2-2v-8c0-1.1.9-2 2-2h28c1.1 0 2 .9 2 2v8z"/></svg>