<svg version="1.2" baseProfile="tiny" xmlns="http://www.w3.org/2000/svg" width="50" height="50" viewBox="0 0 50 50" overflow="inherit"><path d="M48.049 36.31c.523.169.951-.142.951-.692v-3.494c0-.55-.387-1.23-.859-1.512l-18.282-10.895c-.472-.281-.859-.962-.859-1.511v-12.206c0-.55-.168-1.417-.374-1.928 0 0-1.091-2.708-3-3.01-.204-.036-.411-.062-.619-.062h-.01c-.241-.002-.479.028-.713.072l-.216.048-.328.102c-1.588.53-2.406 2.835-2.406 2.835-.184.519-.334 1.393-.334 1.943v12.206c0 .55-.387 1.23-.859 1.512l-18.282 10.894c-.472.282-.859.962-.859 1.512v3.494c0 .55.428.861.951.691l18.098-5.875c.523-.169.951.142.951.692v9.533c0 .55-.36 1.271-.8 1.601l-2.4 1.802c-.44.33-.8 1.051-.8 1.601v2.337c0 .55.433.876.961.724l6.075-1.745c.528-.152 1.394-.152 1.922 0l6.081 1.745c.528.152.961-.174.961-.724v-2.338c0-.55-.36-1.271-.8-1.601l-2.4-1.802c-.439-.33-.8-1.051-.8-1.601v-9.533c0-.55.428-.861.951-.691l18.098 5.876z"/></svg>