<svg version="1.2" baseProfile="tiny" xmlns="http://www.w3.org/2000/svg" width="50" height="50" viewBox="0 0 50 50" overflow="inherit"><path d="M39.922 28.087c.463.227 1.027.223 1.253-.011.229-.233.031-.601-.438-.817l-8.178-3.788c-.469-.218-1.257-.273-1.749-.125l-2.925.877c-.497.149-1.145.271-1.439.271-.294 0-.539-.414-.539-.922v-8.919c0-.507.423-.923.941-.923h21.209c.52 0 .942-.415.942-.923v-2.995c0-.508-.407-1.042-.902-1.187l-22.335-6.517c-.495-.145-1.307-.145-1.802.002l-22.061 6.514c-.494.145-.899.681-.899 1.188v2.994c0 .508.423.923.94.923h20.93c.518 0 .941.416.941.923v8.924c0 .507-.423.923-.941.924h-.38c-.518.001-1.244-.289-1.616-.643l-5.046-4.819c-.373-.355-1.099-.644-1.617-.644h-2.334c-.516 0-1.139-.305-1.382-.676-.241-.372-.803-.674-1.248-.674s-.582.348-.302.776l.044.067c.28.427.281 1.13.006 1.559l-2.524 3.924c-.274.431-.189 1.061.196 1.402l.179.161c.385.34 1.071.428 1.53.191l2.704-1.407c.46-.238 1.061-.083 1.34.344l2.967 4.542c.281.428.187 1.048-.208 1.376l-1.357 1.133c-.395.328-.625 1.001-.511 1.498l1.759 7.652c.114.497.619.8 1.121.675l1.223-.302c.503-.126.819-.632.709-1.128l-1.191-5.175c-.114-.495.201-1.013.702-1.146l3.007-.806c.498-.134 1.331-.241 1.849-.241h.38c.518 0 .941.415.941.92v9.177c0 .506-.423.921-.941.921h-20.93c-.517 0-.94.414-.94.924v2.992c0 .513.423.927.94.927h45.728c.518 0 .94-.414.94-.925v-2.992c0-.51-.423-.924-.94-.924h-20.819c-.519 0-.941-.415-.941-.921v-9.177c0-.505.423-.92.941-.92h1.084c.518 0 1.345.107 1.848.241l3.007.806c.502.133.818.65.702 1.146l-1.188 5.175c-.116.496.202 1.002.705 1.128l1.225.302c.503.125 1.004-.178 1.12-.675l1.761-7.652c.117-.497-.105-1.16-.488-1.482-.382-.318-.719-.996-.749-1.502l-.153-2.707c-.031-.506.326-.735.79-.507l3.409 1.673z"/></svg>