<svg version="1.2" baseProfile="tiny" xmlns="http://www.w3.org/2000/svg" width="50" height="50" viewBox="0 0 50 50" overflow="inherit"><path d="M1 6.381s2.257 4 2.257 6.556l-2.244 6.355c0 .594.401.796.876.456l7.383-5.296c1.491 1.101 4.412 2.562 6.533 3.762v4.286l4.735-2.696c1.52.345 3.062.564 4.713.564 9.949 0 18.026-6.455 18.026-7.531 0-.935-6.074-5.933-14.201-7.223l-9.036-4.614v4.987c-4.236 1.174-8.569 3.609-10.769 5.234l-7.41-5.296c-.474-.341-.863-.138-.863.456m34.251 7.766c-1.171 0-2.122-.963-2.122-2.153s.951-2.152 2.122-2.152c1.173 0 2.118.962 2.118 2.152s-.945 2.153-2.118 2.153m13.749 18.733c0-.595-.389-.798-.863-.456l-7.374 5.298c-2.2-1.625-6.489-4.06-10.731-5.233v-4.989l-9.072 4.613c-8.13 1.289-14.221 6.289-14.221 7.224 0 1.076 8.069 7.534 18.017 7.534 1.65 0 3.229-.224 4.747-.57l4.77 2.699v-4.285c2.118-1.203 5.005-2.662 6.489-3.767l7.364 5.297c.479.345.869.139.869-.451 0 0-2.248-3.799-2.248-6.357.001-2.558 2.253-6.557 2.253-6.557m-32.785 6.388c-1.172 0-2.119-.961-2.119-2.153 0-1.188.947-2.148 2.119-2.148 1.17 0 2.12.961 2.12 2.148 0 1.192-.949 2.153-2.12 2.153"/></svg>