<svg version="1.2" baseProfile="tiny" xmlns="http://www.w3.org/2000/svg" width="50" height="50" viewBox="0 0 50 50" overflow="inherit"><path d="M18.855 10.597c2.242 0 4.041-1.854 4.041-4.138 0-2.285-1.799-4.139-4.041-4.139-2.225 0-4.042 1.854-4.042 4.139 0 2.284 1.817 4.138 4.042 4.138zm1.145 1.403h-12c-2 0-2 3 0 3h12c2 0 2-3 0-3zm19 1.254c0-4.587-1.605-8.969-4.53-12.422.013-.012-.738-.832-.738-.832l-11.38 11.648-.194.192.108.146c.175.319.272.674.312 1.028.012.146 0 .297-.017.448-.022.308-.08.61-.209.896l-.012.029-.073.174-.074.146c-.5.786-1.356 1.293-2.396 1.293h-6.797v16l-2.187 15.233c-.239 1.255.717 2.476 1.943 2.72 1.226.257 2.994-.685 3.244-1.953l2-17h1l3.39 17.128c.25 1.268 2.002 2.082 3.239 1.825 1.216-.244 1.894-1.465 1.655-2.72l-3.284-16.264v-13.612l9.326 9.135s.953-.825.953-.836c2.911-3.45 4.721-7.833 4.721-12.402zm-2.061 1.746c-.334 3-2.082 6.628-4.273 9.282-2.025-2.067-6.666-5.96-8.666-8.511v-.771h12.939zm0-3h-13.037c2.395-3 6.873-7.033 9.168-9.375 2.201 2.65 3.547 5.375 3.869 9.375z"/></svg>