<svg version="1.2" baseProfile="tiny" xmlns="http://www.w3.org/2000/svg" width="50" height="50" viewBox="0 0 50 50" overflow="inherit"><path d="M40.909 22.651c-1.266 0-2.469.26-3.562.727l-3.076-5.271 2.318-3.973c.315-.542.132-1.238-.409-1.555-.238-.138-.503-.388-.754-.347l-.197-.232h-4.547c-.627 0-1.136.873-1.136 1.5 0 .628.509 1.5 1.136 1.5h2.947l-1.327 2h-13.278l2.652-5h1.051c.627 0 1.136-.372 1.136-1s-.509-1-1.136-1h-5.683c-.626 0-1.136.372-1.136 1s.509 1 1.136 1h1.999l-6.389 11.165c-1.094-.467-2.299-.62-3.564-.62-5.02 0-9.09 4.124-9.09 9.144 0 5.021 4.07 9.117 9.091 9.117s9.091-4.057 9.091-9.078c0-2.94-1.402-5.541-3.57-7.204l2.433-4.166 6.974 11.956.027.038.03.045.023.034.09.104.011.013.031.028.032.026.088.07.037.024.029.019.012.007.004.004.096.047.011.005.023.012.008.002.073.026.068.022.014.004.025.004.044.009.204.021.001.062.004.059h6.891c.562 4 4.378 7.895 9.013 7.895 5.021 0 9.091-4.101 9.091-9.122.001-5.02-4.069-9.121-9.09-9.121zm-25 9.091c0 3.767-3.052 6.819-6.818 6.819-3.766 0-6.818-3.053-6.818-6.819 0-3.765 3.052-6.817 6.818-6.817.847 0 1.655.161 2.403.444l-3.385 5.802c-.316.541-.132 1.237.41 1.555.18.104.377.154.571.154.391 0 .771-.202.983-.563l3.386-5.806c1.496 1.251 2.45 3.13 2.45 5.231zm9.091-2.498l-5.976-10.244h11.953l-5.977 10.244zm7.954-8.685l2.434 4.268c-1.882 1.444-3.182 3.173-3.492 6.173h-4.918l5.976-10.441zm3.587 6.345l2.391 4.096h-4.738c.274-2 1.126-3.075 2.347-4.096zm4.368 11.719c-3.377 0-6.175-2.623-6.716-5.623h6.713l.005-.059.203-.053.046-.023.189-.066.021-.016.113-.058.027-.021.101-.073.078-.066.076-.083.068-.085.057-.092.052-.095.039-.104.031-.104.017-.104.013-.123.003-.035-.005-.064-.014-.124-.023-.106-.033-.104-.052-.113-.027-.059-3.385-5.802c.75-.283 1.557-.444 2.403-.444 3.767 0 6.819 3.083 6.819 6.848.001 3.767-3.052 6.851-6.819 6.851z"/></svg>