<svg version="1.2" baseProfile="tiny" xmlns="http://www.w3.org/2000/svg" width="50" height="50" viewBox="0 0 50 50" overflow="inherit"><g fill="#231F20"><path d="M8.5 7.092l9.565 2.639 5.309-3.731 1.847.455-5.259 3.742 28.985 8.053-2.121 7.882-29.093-8.031c-11.271-3.399-9.216-11.009-9.216-11.009"/><path d="M33.957 27.258c-.035-.658-.16-1.285-.375-1.877l13.281 3.697-.426 1.639-12.48-3.459zm-12.066-3.332c.358-.521.782-.991 1.264-1.398l-22.155-6.12v1.763l20.891 5.755zm5.486 5.836c1.191 0 2.158-.969 2.158-2.16 0-1.195-.967-2.162-2.158-2.162-1.195 0-2.161.967-2.161 2.162 0 1.191.966 2.16 2.161 2.16zm21.623 13.238c-1.051 0-2.051-.238-2.943-.648-.928-.42-1.963-.672-3.047-.672-1.08 0-2.121.252-3.035.672-.905.41-1.903.648-2.955.648-1.051 0-2.053-.238-2.955-.648-.92-.42-1.953-.672-3.035-.672-1.086 0-2.119.252-3.045.672-.893.41-1.905.648-2.951.648-1.045 0-2.051-.238-2.949-.648-.926-.42-1.967-.672-3.046-.672-1.08 0-2.12.252-3.035.672-.898.41-1.909.648-2.956.648-1.045 0-2.051-.238-2.955-.648-.916-.42-1.956-.672-3.036-.672-1.079 0-2.119.252-3.04.672-.897.41-1.909.648-2.949.648l-.068-17.605 24.227 6.686c-1.67-.807-2.83-2.5-2.83-4.479 0-2.754 2.227-4.983 4.979-4.983 2.744 0 4.977 2.229 4.977 4.983 0 2.752-2.232 4.98-4.977 4.98l-.49-.047 22.078 6.088.036 4.377z"/></g></svg>