<svg version="1.2" baseProfile="tiny" xmlns="http://www.w3.org/2000/svg" width="50" height="50" viewBox="0 0 50 50" overflow="inherit"><path fill="#231F20" d="M48 41c-1 0-1.854-.226-2.734-.615-.916-.411-1.852-.652-2.923-.652-1.066 0-2.052.241-2.954.652-.892.389-1.859.615-2.897.615-1.032 0-2.017-.226-2.908-.615-.909-.411-1.925-.652-2.991-.652-1.07 0-2.091.241-3.007.652-.88.39-1.877.615-2.91.615-1.033 0-2.03-.226-2.912-.615-.915-.411-1.936-.652-3.002-.652-1.072 0-2.099.241-3.002.652-.887.389-1.88.615-2.913.615-1.038 0-2.031-.226-2.923-.615-.904-.411-1.931-.652-2.997-.652-1.066 0-2.099.241-3.008.652-.888.389-1.919.615-2.919.615v-4.27c1 0 2.031-.23 2.918-.621.91-.41 1.939-.652 3.005-.652 1.066 0 2.095.242 2.999.652.893.391 1.886.621 2.924.621 1.034 0 2.026-.23 2.913-.621.903-.41 1.931-.652 3.003-.652 1.066 0 2.087.242 3.002.652.881.391 1.88.621 2.913.621s2.032-.23 2.912-.621c.916-.41 1.938-.652 3.009-.652 1.066 0 2.088.242 2.997.652.892.391 1.887.621 2.919.621 1.038 0 2.026-.23 2.918-.621.902-.41 1.931-.652 2.997-.652 1.071 0 1.921.242 2.837.652.88.391 1.734.621 2.734.621v4.27zm-46.972-18l-.017 9.91c1.033 0 2.026-.311 2.913-.701.91-.412 1.937-.697 3.002-.697 1.066 0 2.093.219 2.997.631.893.391 1.885.604 2.923.604 1.034 0 2.026-.229 2.913-.619.903-.412 1.931-.656 3.002-.656 1.066 0 2.087.239 3.002.651.881.391 1.88.614 2.913.614s2.032-.225 2.912-.615c.916-.412 1.938-.653 3.009-.653 1.066 0 2.088.241 2.997.653.892.391 1.887.614 2.919.614.292 0 .572-.061.858-.093.521-.109 1.049-.159 1.555-.356l.034-.017c3.76-1.492 7.003-5.011 9.028-7.766l1.012-1.504h-47.972zm26.776-11h7.044c.079 0 1.902-.281 2.514 1.053l2.647 5.947h-9.023l-3.182-7zm-18.804 6.382c0 .466-.384.618-.855.618h-3.873c-.472 0-1.272-.152-1.272-.618v-5.729c0-.46.8-.653 1.272-.653h3.872c.472 0 .856.193.856.653v5.729zm16 0c0 .466-.418.618-.895.618h-3.867c-.477 0-1.238-.152-1.238-.618v-5.729c0-.46.761-.653 1.238-.653h3.867c.477 0 .895.193.895.653v5.729zm-8 0c0 .466-.416.618-.892.618h-3.844c-.478 0-1.264-.152-1.264-.618v-5.729c0-.46.786-.653 1.264-.653h3.844c.476 0 .892.193.892.653v5.729zm21.545-7.077c-1.151-2.502-4.266-2.305-4.266-2.305h-33.274l-.005 12h41.715l-4.17-9.695z"/></svg>