<svg version="1.2" baseProfile="tiny" xmlns="http://www.w3.org/2000/svg" width="50" height="50" viewBox="0 0 50 50" overflow="inherit"><path d="M50 40c-1 0-2.007-.236-2.876-.637-.893-.424-1.901-.674-2.944-.674-1.057 0-2.063.25-2.958.674-.88.4-1.854.637-2.875.637-1.008 0-1.995-.236-2.863-.637-.895-.424-1.902-.674-2.956-.674-1.045 0-2.054.25-2.945.674-.883.401-1.857.637-2.877.637-1.02 0-1.995-.236-2.864-.637-.893-.424-1.902-.674-2.954-.674-1.056 0-2.052.25-2.946.674-.88.401-1.853.637-2.874.637-1.021 0-1.988-.236-2.858-.637-.904-.424-1.902-.674-2.957-.674s-1.768.25-2.673.674c-.869.401-1.58.637-2.58.637v-4.378c1 0 1.711-.236 2.58-.637.904-.413 1.76-.663 2.815-.663s1.981.25 2.886.663c.87.4 1.802.637 2.823.637s1.976-.236 2.857-.637c.894-.413 1.881-.663 2.937-.663 1.052 0 2.056.25 2.949.663.869.4 1.841.637 2.861.637 1.02 0 1.993-.236 2.875-.637.892-.413 1.899-.663 2.944-.663 1.054 0 2.062.25 2.956.663.868.4 1.855.637 2.863.637 1.021 0 1.995-.236 2.875-.637.895-.413 1.901-.663 2.958-.663 1.043 0 2.052.25 2.944.663.869.4 1.876.637 2.876.637v4.378zm-11.712-18.286l8.466.673-.639-4.403-6.215-.447c-1.68-.083-1.438 1.629-1.438 1.629l-.174 2.548zm-15.699-1.003c1.555 0 2.807-1.274 2.807-2.855 0-1.582-1.251-2.855-2.807-2.855-1.553 0-2.802 1.274-2.802 2.855s1.249 2.855 2.802 2.855zm-17.324 11.005c.359-.106.708-.247 1.032-.401.905-.424 1.902-.673 2.957-.673s2.053.249 2.957.673c.87.401 1.837.637 2.858.637 1.021 0 1.994-.235 2.875-.637.894-.424 1.89-.673 2.946-.673 1.052 0 2.061.249 2.954.673.869.401 1.844.637 2.864.637 1.02 0 1.994-.235 2.876-.637.892-.424 1.9-.673 2.945-.673 1.054 0 2.062.249 2.956.673.868.401 1.855.637 2.863.637 1.021 0 1.995-.235 2.875-.637.895-.424 1.901-.673 2.958-.673 1.043 0 2.052.249 2.944.673.869.401 1.844.637 2.865.637l-.952-7.807-35.188-2.998 5.311-5.452-2.331-.212-5.304 5.464-11.525-.968c-.07 4 4.312 10.651 5.264 11.737z"/></svg>