<svg version="1.2" baseProfile="tiny" xmlns="http://www.w3.org/2000/svg" width="50" height="50" viewBox="0 0 50 50" overflow="inherit"><path fill="#231F20" d="M17.437 12.885c2.464 0 4.45-1.993 4.45-4.446 0-2.452-1.987-4.439-4.45-4.439-2.459 0-4.451 1.987-4.451 4.439-.001 2.453 1.992 4.446 4.451 4.446zm-16.437 24.282c1 0 2.049-.24 2.947-.643.922-.426 1.967-.676 3.048-.676 1.082 0 2.125.25 3.042.676.904.402 1.913.637 2.965.637 1.047 0 2.055-.234 2.954-.637.916-.426 1.958-.676 3.046-.676 1.081 0 2.116.25 3.044.676.894.402 1.907.637 2.954.637 1.047 0 2.06-.234 2.953-.637.928-.426 1.965-.676 3.051-.676 1.082 0 2.117.25 3.039.676.904.402 1.913.637 2.961.637 1.05 0 2.055-.234 2.959-.637.916-.426 1.957-.676 3.038-.676.928 0 1.828.177 2.64.494 1.322-1.441 2.142-3.36 2.142-5.461 0-4.474-3.631-8.096-8.11-8.096l-.909.097c-.997 4.037-5.044 4.207-5.044 4.207l-18.52-.005-1.548-.909 3.733-6.25 4.087 2.356c2.447 1.583 3.721-.636 3.721-.636l4.098-6.666c1.781-2.896-1.997-5.218-3.767-2.311l-2.869 4.672-6.818-3.764c-4.725-2.629-6.727 1.726-6.727 1.726l-5.355 9.152c-.911 1.902-.104 2.719-.104 2.719l-2.651-.004v9.998zm48 8.833c-1.048 0-2.055-.232-2.948-.636-.927-.426-1.964-.675-3.051-.675-1.081 0-2.122.249-3.038.675-.904.404-1.909.636-2.959.636-1.048 0-2.057-.232-2.961-.636-.922-.426-1.957-.675-3.039-.675-1.086 0-2.123.249-3.051.675-.893.404-1.906.636-2.953.636-1.046 0-2.06-.232-2.954-.636-.928-.426-1.963-.675-3.044-.675-1.087 0-2.129.249-3.045.675-.899.404-1.907.636-2.954.636-1.053 0-2.061-.232-2.965-.636-.917-.426-1.958-.675-3.04-.675-1.081 0-2.123.249-3.044.675-.899.404-1.907.636-2.954.636v-4.417c1.047 0 2.055-.238 2.954-.642.922-.425 1.963-.675 3.044-.675 1.082 0 2.124.25 3.04.675.904.403 1.912.642 2.965.642 1.047 0 2.055-.238 2.954-.642.916-.425 1.958-.675 3.045-.675 1.081 0 2.116.25 3.044.675.894.403 1.907.642 2.954.642 1.047 0 2.06-.238 2.953-.642.928-.425 1.965-.675 3.051-.675 1.082 0 2.117.25 3.039.675.904.403 1.913.642 2.961.642 1.05 0 2.055-.238 2.959-.642.916-.425 1.957-.675 3.038-.675 1.087 0 2.124.25 3.051.675.894.403 1.9.642 2.948.642v4.417z"/></svg>