<svg version="1.2" baseProfile="tiny" xmlns="http://www.w3.org/2000/svg" width="50" height="50" viewBox="0 0 50 50" overflow="inherit"><path d="M41 4h-18.923c-1.503-2-3.966-3.752-6.752-3.752-4.577 0-8.287 3.576-8.287 8.153 0 4.578 3.71 8.037 8.287 8.037 3.481 0 6.459-2.438 7.688-5.438h2.755l1.997-1.998 1.996 1.998h1.245l1.996-1.998 1.997 1.998h1.244l1.997-1.998 1.997 1.998h.763v.281l-.174.041 3.94-3.862-3.766-3.46zm-28.357 6.61c-1.324 0-2.399-1.075-2.399-2.401s1.075-2.4 2.399-2.4c1.326 0 2.401 1.074 2.401 2.4s-1.075 2.401-2.401 2.401zm30.357 19.39h-.553l-6.144-11.125c-.265-.481-.933-.875-1.483-.875h-18.64c-.55 0-1.218.394-1.483.875l-6.145 11.125h-.552c-1.1 0-2 .9-2 2v10c0 1.1.9 2 2 2h2v3c0 1.65 1.35 3 3 3h1c1.65 0 3-1.35 3-3v-3h17v3c0 1.65 1.35 3 3 3h1c1.65 0 3-1.35 3-3v-3h2c1.1 0 2-.9 2-2v-10c0-1.1-.9-2-2-2zm-31.5 8c-1.381 0-2.5-1.119-2.5-2.5s1.119-2.5 2.5-2.5 2.5 1.119 2.5 2.5-1.119 2.5-2.5 2.5zm2-8l4.053-8.105c.246-.493.897-.895 1.447-.895h13c.55 0 1.201.402 1.447.895l4.053 8.105h-24zm26 8c-1.381 0-2.5-1.119-2.5-2.5s1.119-2.5 2.5-2.5 2.5 1.119 2.5 2.5-1.119 2.5-2.5 2.5z"/></svg>