<svg version="1.2" baseProfile="tiny" xmlns="http://www.w3.org/2000/svg" width="50" height="50" viewBox="0 0 50 50" overflow="inherit"><path d="M42.599 37.17c1.839-.602 2.829-2.557 2.224-4.381l-1.333.426c.364 1.093-.242 2.272-1.332 2.633l-35.03 11.841.451 1.311 35.02-11.83zm-32.256-20.462c1.922-.557 3.022-2.567 2.461-4.479-.562-1.911-2.582-3.004-4.51-2.447-1.927.557-3.039 2.567-2.466 4.479.562 1.912 2.577 3.005 4.515 2.447zm-1.487 5.003c-1.917-3.626 3.584-6.564 5.61-3.047l3.95 7.451 7.521-2.121c1.244-.35 2.963.995 2.963 2.578l.042 10.619c.012 2.632-3.93 2.643-3.93-.021-.012-2.47-.077-7.734-.077-7.734l-7.848 2.337c-1.718.492-3.139-.359-3.81-1.616l-4.421-8.446zm12.144 1.683v-22.394h-2v22.82zm-15.756 3.157c-1.079-2.108 1.707-3.506 2.786-1.398l3.397 6.598c.738 1.365 2.181 2.295 3.844 2.295.517 0 1.001-.132 1.475-.23l4.28-1.244c2.269-.678 3.149 2.292.86 2.961l-4.502 1.298c-.671.208-1.398.316-2.147.316-2.896 0-5.401-1.627-6.634-4.008l-3.359-6.588z"/></svg>