<svg version="1.2" baseProfile="tiny" xmlns="http://www.w3.org/2000/svg" width="50" height="50" viewBox="0 0 50 50" overflow="inherit"><path d="M6.432 21.55c-.217.445-.375.938-.458 1.468-.037.263-.061.529-.061.793l.193 12.125-4.205 9.024c-.145.266-.253.576-.301.902-.23 1.492.797 2.876 2.295 3.105 1.16.18 2.271-.409 2.803-1.386l4.626-9.864c.096-.229.182-.47.217-.734l.025-.372-.036-7.496 7.109 3.092 1.148 7.326c.229 1.071 1.111 1.927 2.259 2.106 1.498.216 2.887-.807 3.118-2.285.035-.253.035-.506.011-.746l-1.401-8.844c-.169-.854-.736-1.588-1.534-1.962l-6.354-2.812 4.046-7.014 2.007 2.539c.205.228.471.421.772.541l7.648 2.225c1.016.217 2.055-.311 2.452-1.286.447-1.107-.083-2.358-1.183-2.803l-.109-.036-6.645-1.949-5.002-5.979c-.749-.794-1.752-1.359-2.911-1.541-2.03-.3-3.957.662-4.972 2.298l-5.557 9.565zm21.939 17.384l-.483 3.633-13.156 3.187.127 2.246h32.086c1.137 0 2.055-.912 2.055-2.043l-.036-43.069-4.396-1.022-2.526 11.323-4.223 1.768-3.745 10.441 3.558 7.989-1.002 3.067-8.259 2.48zm-8.933-29.777c2.259 0 4.095-1.828 4.095-4.078-.001-2.249-1.836-4.079-4.095-4.079s-4.096 1.83-4.096 4.079c-.001 2.25 1.836 4.078 4.096 4.078zm-8.149.638c.314-.553.132-1.275-.435-1.588l-1.982-1.155c-.567-.313-1.281-.132-1.607.433l-6.112 10.504c-.314.553-.133 1.263.434 1.588l1.994 1.144c.555.324 1.269.132 1.594-.422l6.114-10.504z"/></svg>