<svg version="1.2" baseProfile="tiny" xmlns="http://www.w3.org/2000/svg" width="50" height="50" viewBox="0 0 50 50" overflow="inherit"><path d="M47.36 14.75c.08.29-.021.61-.19.86l-5.39 8.02c-.2.31-.62.48-.971.48-.1 0-.38-.02-.489-.05l-4.32-1.06v19c0 .58-.41 1-1 1h-21c-.59 0-1-.42-1-1v-19l-3.88 1.07c-.45.14-.84-.04-1.09-.43l-5.35-8c-.17-.26-.22-.55-.14-.84.07-.3.28-.5.55-.64l10.91-5.16h5c.59 0 1 .41 1 1 0 2.06 2.89 3.52 4.95 3.52s5.05-1.45 5.05-3.52c0-.58.41-1 1-1h5l10.8 5.06c.28.14.48.39.56.69z"/></svg>