<svg version="1.2" baseProfile="tiny" xmlns="http://www.w3.org/2000/svg" width="50" height="50" viewBox="0 0 50 50" overflow="inherit"><path d="M25 49c-13.234 0-24-10.767-24-24 0-13.234 10.766-24 24-24 13.233 0 24 10.766 24 24 0 13.233-10.767 24-24 24zm0-44c-11.028 0-20 8.972-20 20s8.972 20 20 20 20-8.972 20-20-8.972-20-20-20zm.045 3.25s-7.045 12.071-7.045 15.75v2c0 3.678 7.066 16 7.066 16s6.934-12.066 6.934-15.744v-2.262c0-3.679-6.955-15.744-6.955-15.744zm-.045 20.75c-2.209 0-4-1.791-4-4s1.791-4 4-4 4 1.791 4 4-1.791 4-4 4z"/></svg>