<svg version="1.2" baseProfile="tiny" xmlns="http://www.w3.org/2000/svg" width="50" height="50" viewBox="0 0 50 50" overflow="inherit"><path d="M41 19h-.272c-.074-.128-.16-.252-.266-.365l-11.544-12.368c.051-.247.082-.503.082-.767 0-1.933-1.424-3.5-3.182-3.5h-3.637c-1.757 0-3.181 1.567-3.181 3.5 0 .264.032.52.082.767l-11.544 12.368c-.105.113-.191.237-.266.365h-5.272v7h2v15c0 2.762 2.239 5 5 5h32c2.762 0 5-2.238 5-5v-15h2v-7h-7zm-18.818-10h3.637l.163-.018 9.349 10.018h-22.662l9.35-10.018.163.018zm-9.182 31c0 1.1-.9 2-2 2s-2-.9-2-2v-12c0-1.1.9-2 2-2s2 .9 2 2v12zm9 0c0 1.1-.9 2-2 2s-2-.9-2-2v-12c0-1.1.9-2 2-2s2 .9 2 2v12zm10 0c0 1.1-.9 2-2 2s-2-.9-2-2v-12c0-1.1.9-2 2-2s2 .9 2 2v12zm9 0c0 1.1-.9 2-2 2s-2-.9-2-2v-12c0-1.1.9-2 2-2s2 .9 2 2v12z"/></svg>