<svg version="1.2" baseProfile="tiny" xmlns="http://www.w3.org/2000/svg" width="50" height="50" viewBox="0 0 50 50" overflow="inherit"><path d="M18.1 24.543l-9.204-5.19 3.199-5.61 9.206 5.187zm18.37 4.788l-15.552-8.76-1.599 2.808 15.55 8.761zm1.888 1.065l-1.604 2.806 8.02 4.514 1.604-2.803zm-2.16 2.806c-.123.219-.459.271-.751.111-.291-.164-.42-.475-.296-.697l1.875-3.285c.129-.223.465-.277.754-.111.287.164.417.482.293.705l-1.875 3.277zm11.832 1.799c-.319-.176-.671-.258-1.011-.248l-2.051 3.592c.165.301.411.564.735.74.904.512 2.041.217 2.538-.652l.526-.93c.498-.875.17-1.99-.737-2.502zm-25.839-17.152c-.241.436-.79.582-1.225.342l-8.056-4.542c-.436-.242-.583-.787-.339-1.223.245-.428.795-.581 1.23-.334l8.054 4.536c.432.247.586.793.336 1.221zm1.129-1.972c-.248.435-.797.582-1.227.34l-8.059-4.541c-.433-.242-.585-.788-.337-1.217.242-.435.792-.586 1.23-.341l8.056 4.537c.435.245.583.792.337 1.222zm-6.808 11.944c-.248.43-.797.576-1.229.334l-8.062-4.542c-.432-.24-.583-.787-.338-1.223.245-.422.802-.581 1.229-.334l8.058 4.542c.433.241.583.788.342 1.223zm1.126-1.979c-.245.435-.794.581-1.234.335l-8.056-4.537c-.43-.247-.583-.793-.339-1.223.249-.434.798-.581 1.231-.335l8.055 4.537c.432.246.588.794.343 1.223zm-13.519 8.079h14.204v1.633h-14.204zm17.306 3.406c-.091-.545-.562-.963-1.135-.963h-18.134c-.572 0-1.046.418-1.135.963h-.021v2.674h20.446v-2.674h-.021z"/></svg>