<svg version="1.2" baseProfile="tiny" xmlns="http://www.w3.org/2000/svg" width="50" height="50" viewBox="0 0 50 50" overflow="inherit"><g fill="#231F20"><ellipse cx="36.615" cy="6.695" rx="3.683" ry="3.695"/><path d="M13.26 42.202l-12.26-12.333.005 2.154 11.411 11.487c1.311 1.425 3.557-.223 3.557-.223l-1.077-1.157s-1.061.698-1.61.104l-.026-.032zm-12.26-23.202h13v1h-13zm46.57-3.506l1.43.677-14.245 28.829h-1.577zm-23.639-2.36l-5.733 6.638c-.337.42-.854.682-1.431.682-1.028 0-1.854-.834-1.854-1.86 0-.556.239-1.052.625-1.391l6.179-7.14c.342-.409.854-.671 1.43-.671l8.948-.005c.658 0 1.246.268 1.681.682l5.705 5.722 4.727-4.729c.332-.283.763-.453 1.229-.453 1.061 0 1.915.862 1.915 1.92 0 .463-.158.883-.43 1.216l-5.7 5.76c-1.729 1.735-3.123.262-3.123.262l-3.496-3.523-5.467 6.338 5.009 5.023s1.055.982.452 2.94l-2.807 12.546c-.223 1.091-1.186 1.909-2.333 1.909-1.315 0-2.383-1.068-2.383-2.389 0-.208.021-.409.077-.601l2.306-10.297-5.689-5.543-4.895 5.471s-.794.982-2.894.906l-9.926.017c-1.11.021-2.116-.743-2.366-1.866-.294-1.287.5-2.553 1.784-2.836.201-.045.402-.066.598-.055l8.54.021 12.625-14.678-3.303-.016z"/></g><path fill="#231F20" d="M45.825 45.168c-.003.967-.804 1.832-1.765 1.832h-29.06v1h29.056c1.617.009 2.936-1.239 2.944-2.864l-1.175.032z"/></svg>