<svg version="1.2" baseProfile="tiny" xmlns="http://www.w3.org/2000/svg" width="50" height="50" viewBox="0 0 50 50" overflow="inherit"><path d="M47 48.001c-.963 0-1.885-.219-2.706-.59-.845-.393-1.799-.621-2.793-.621-.995 0-1.939.229-2.794.621-.82.371-1.739.59-2.706.59-.963 0-1.885-.219-2.707-.59-.854-.393-1.795-.621-2.794-.621-.996 0-1.948.229-2.794.621-.819.371-1.741.59-2.704.59-.966 0-1.886-.219-2.718-.59-.844-.393-1.794-.621-2.781-.621-.996 0-1.95.229-2.792.621-.822.371-1.743.59-2.702.59-.963 0-1.883-.219-2.717-.59-.843-.393-1.796-.621-2.782-.621-.998 0-1.95.229-2.794.621-.822.371-1.753.59-2.717.59v-4.051c.963 0 1.895-.219 2.717-.59.844-.381 1.797-.611 2.794-.611.985 0 1.938.23 2.782.611.834.371 1.754.59 2.717.59.959 0 1.879-.219 2.702-.59.843-.381 1.796-.611 2.792-.611.986 0 1.937.23 2.781.611.832.371 1.752.59 2.718.59.963 0 1.884-.219 2.704-.59.846-.381 1.798-.611 2.794-.611.999 0 1.939.23 2.794.611.822.371 1.744.59 2.707.59.967 0 1.886-.219 2.706-.59.854-.381 1.799-.611 2.794-.611.994 0 1.948.23 2.793.611.821.371 1.743.59 2.706.59v4.051zm-31.549-19.859c2.049 0 3.713-1.659 3.713-3.702 0-2.042-1.664-3.691-3.713-3.691-2.044 0-3.708 1.649-3.708 3.691s1.664 3.702 3.708 3.702zm.526 12.795c-.581.994-1.863 1.333-2.854.744-.996-.578-1.336-1.857-.756-2.852l8.606-14.771c.314-.557.775-1.016 1.322-1.321l11.066-6.682 7.515-12.751c.713-1.245 2.3-1.67 3.551-.961 1.236.721 1.664 2.304.95 3.538l-9.004 15.273c-.307.558-.767 1.016-1.325 1.321l-13.059 8.091-6.012 10.371z"/></svg>