<svg version="1.2" baseProfile="tiny" xmlns="http://www.w3.org/2000/svg" width="50" height="50" viewBox="0 0 50 50" overflow="inherit"><path d="M24.718 49c-11.54 0-20.929-9.389-20.929-20.93 0-7.386 3.776-14.083 10.102-17.913 1.356-.821 3.118-.387 3.938.967.82 1.354.386 3.117-.967 3.938-4.595 2.782-7.338 7.646-7.338 13.008 0 8.379 6.816 15.195 15.195 15.195 8.379 0 15.194-6.816 15.194-15.195 0-5.45-2.944-10.515-7.687-13.215-1.377-.784-1.856-2.534-1.073-3.91.784-1.375 2.534-1.855 3.91-1.072 6.53 3.718 10.585 10.692 10.585 18.198-.001 11.54-9.388 20.929-20.93 20.929zm-.218-21.216c-1.583 0-3.5-1.284-3.5-2.867v-20.643c0-1.583 1.917-2.867 3.5-2.867s3.5 1.284 3.5 2.867v20.643c0 1.583-1.917 2.867-3.5 2.867z"/></svg>