<svg version="1.2" baseProfile="tiny" xmlns="http://www.w3.org/2000/svg" width="50" height="50" viewBox="0 0 50 50" overflow="inherit"><path d="M11.462 1c-1.363 0-2.462 1.127-2.462 2.526v42.946c0 1.262 1.231 2.527 2.462 2.527 1.23 0 2.461-1.266 2.461-2.527v-25.894c.841-.367 1.659-.632 2.462-.632 4.923 0 12.185 6.317 17.231 6.317 2.151 0 5.231-.871 7.384-2.527v-17.684c-2.442 1.879-4.916 3.79-7.384 3.79-4.923 0-12.291-6.316-17.231-6.316-.83 0-1.64.152-2.462.316v-.316c0-1.399-1.099-2.526-2.461-2.526z"/></svg>