<svg version="1.2" baseProfile="tiny" xmlns="http://www.w3.org/2000/svg" width="50" height="50" viewBox="0 0 50 50" overflow="inherit"><path d="M25.076 7.556c1.773 0 3.203-1.426 3.203-3.194 0-1.755-1.43-3.193-3.203-3.193s-3.203 1.438-3.203 3.193c0 1.767 1.43 3.194 3.203 3.194zm20.088 36.608c-.883-.41-1.877-.649-2.918-.649-1.029 0-2.023.239-2.918.649-.857.377-1.818.605-2.824.605s-1.979-.229-2.838-.605c-.881-.41-1.875-.649-2.916-.649s-2.037.239-2.918.649c-.869.377-1.83.605-2.836.605-1.007 0-1.968-.229-2.837-.605-.881-.41-1.876-.649-2.917-.649-1.029 0-2.024.239-2.917.649-.858.377-1.816.605-2.817.605-1.006 0-1.979-.229-2.837-.605-.881-.41-1.876-.649-2.917-.649s-2.036.239-2.917.649c-.869.377-1.83.606-2.837.606v4.23c1.007 0 1.968-.217 2.837-.605.881-.41 1.876-.649 2.917-.649s2.036.239 2.917.649c.857.388 1.831.605 2.837.605 1.001 0 1.959-.217 2.817-.605.893-.41 1.887-.649 2.917-.649 1.041 0 2.036.239 2.917.649.869.388 1.83.605 2.837.605 1.006 0 1.967-.217 2.836-.605.881-.41 1.877-.649 2.918-.649s2.035.239 2.916.649c.859.388 1.832.605 2.838.605s1.967-.217 2.824-.605c.895-.41 1.889-.649 2.918-.649 1.041 0 2.035.239 2.918.649.867.388 1.83.605 2.836.605v-4.23c-1.006 0-1.969-.229-2.836-.606zm.264-43.121c-.23-.091-.578-.035-.762.137l-11.717 11.796c-.183-.08-.426.024-.644.024h-4.426c-.756-1-4.759-4.906-4.759-4.906-.205-.206-.469-.395-.732-.463-.915-.799-2.299-.825-3.18.053l-6.848 6.87c-.263.262-.36.608-.36.996v4.45h-10v2h10v11.523c0 1.426 1.068 2.578 2.493 2.578 1.416 0 2.507-1.152 2.507-2.578v-11.523h7v15h-22v3h24v-18h3v-2h-12v-.824l6.475-6.431 2.643 2.711c.284.296.696.544 1.12.544h5.066c.872 0 1.696-.133 1.696-1 0-.206.066-.817 0-1 2.768-2.76 10-9.547 11-10.927v36.927h1v-38.387c0-.251-.344-.467-.572-.57z"/></svg>