<svg version="1.2" baseProfile="tiny" xmlns="http://www.w3.org/2000/svg" width="50" height="50" viewBox="0 0 50 50" overflow="inherit"><path d="M2.425 33.614l-.045-.119c0-.097.068-.179.169-.179l4.862.013c.247 0 .438-.203.438-.454 0-.191-.09-.323-.27-.43l-4.414-2.232c-.078-.059-.135-.154-.135-.263 0-.084.034-.168.079-.216 0 0 11.584-10.886 37.208-.332l7.041-3.654c.067-.037.147-.061.236-.061.291 0 .54.264.54.574 0 .119-.034.215-.08.297l-4.154 5.491 4.154 5.493c.046.083.08.19.08.297 0 .322-.249.585-.54.585-.089 0-.169-.024-.236-.059l-7.041-3.665c.001.001-24.5 10.362-37.892-1.086zm7.816-2.243c.932 0 1.668-.79 1.668-1.772 0-.999-.736-1.785-1.668-1.785-.92 0-1.656.786-1.656 1.785 0 .982.736 1.772 1.656 1.772zm21.759-18.371v6h14.17c1.56 0 2.83-1.341 2.83-3 0-1.672-1.27-3-2.83-3h-14.17zm-26.104 4.32l1.292-.573.808 1.469 1.303-1.003.932 1.385 1.247-1.075 1.011 1.314 1.179-1.146 1.072 1.252 1.135-1.205 1.134 1.205 1.134-1.205 1.123 1.205 1.135-1.205 1.13 1.205 1.135-1.205 1.134 1.205 1.123-1.205 1.135 1.205 1.135-1.205 1.134 1.205 1.327-1.205 1.346 1.206v-5.944h-30v.036c1 1.73 3.021 3.199 4.896 4.284z"/></svg>