<svg version="1.2" baseProfile="tiny" xmlns="http://www.w3.org/2000/svg" width="50" height="50" viewBox="0 0 50 50" overflow="inherit"><ellipse cx="25.015" cy="25.003" rx="2.674" ry="2.688" fill="none"/><path d="M25.554 36.172c3.601 16.811 23.919 3.049 3.74-8.661 22.24 12.908 22.293-17.916.045-5.018 22.248-12.897-4.317-28.315-4.322-2.509.005-25.806-26.564-10.4-4.327 2.509-22.237-12.91-22.263 17.915-.019 5.016-20.19 11.704.082 25.482 3.684 8.637l1.199.026zm-3.213-11.169c0-1.486 1.198-2.688 2.674-2.688 1.477 0 2.673 1.202 2.673 2.688 0 1.484-1.196 2.688-2.673 2.688-1.475-.001-2.674-1.204-2.674-2.688z"/></svg>