<svg version="1.2" baseProfile="tiny" xmlns="http://www.w3.org/2000/svg" width="50" height="50" viewBox="0 0 50 50" overflow="inherit"><path d="M46.495 11h-42.974c-1.382 0-2.513 1.257-2.513 2.5s1.131 2.499 2.513 2.499h.607v5h41.821v-5h.546c1.383 0 2.513-1.256 2.513-2.499s-1.13-2.5-2.513-2.5zm-21.487 7.52c-.694 0-1.256-.579-1.256-1.292s.562-1.292 1.256-1.292c.695 0 1.256.579 1.256 1.292s-.561 1.292-1.256 1.292zm-20.88 12.478h41.821v-7.998h-41.821v7.998zm20.88-5.374c.695 0 1.256.578 1.256 1.291 0 .714-.561 1.292-1.256 1.292-.694 0-1.256-.578-1.256-1.292-.001-.713.562-1.291 1.256-1.291zm-20.88 12.271v5.814c0 .71.089 1.292.78 1.292h5.024c.691 0 1.004-.582 1.004-1.292v-3.71h28.205v3.71c0 .71.252 1.292.942 1.292h5.025c.689 0 .84-.582.84-1.292v-10.709h-41.82v4.895zm20.88-2.583c.695 0 1.256.579 1.256 1.291 0 .715-.561 1.291-1.256 1.291-.694 0-1.256-.576-1.256-1.291-.001-.711.562-1.291 1.256-1.291z"/></svg>