<svg version="1.2" baseProfile="tiny" xmlns="http://www.w3.org/2000/svg" width="50" height="50" viewBox="0 0 50 50" overflow="inherit"><path d="M42.233 25.31c.347-.427 1.058-.918 1.579-1.09l4.294-1.753c.492-.247.894-.899.894-1.448v-12.249c0-.55-.421-1.16-.935-1.355 0 0-8.983-3.415-15.001-3.415-5.6 0-13.342 2.953-13.342 2.953-.514.196-1.381.411-1.927.479l-15.802 1.698c-.546.067-.993.572-.993 1.122v8.314c0 .55.442 1.083.983 1.184l15.795 2.549c.542.09 1.405.33 1.916.533l10.817 2.767c.543.082 1.136.574 1.315 1.095l6.359 18.361c.18.521.754.802 1.275.627l6.723-2.261c.521-.175.801-.743.621-1.264l-4.414-12.733c-.18-.521-.332-.976-.339-1.013l-.008-.038c-.529-2.174.19-3.063.19-3.063zm-7.674-6.609c-2.51 0-4.537-2-4.537-4.465 0-2.466 2.027-4.465 4.537-4.465 2.502 0 4.535 2 4.535 4.465s-2.033 4.465-4.535 4.465z"/></svg>