<svg version="1.2" baseProfile="tiny" xmlns="http://www.w3.org/2000/svg" width="50" height="50" viewBox="0 0 50 50" overflow="inherit"><path d="M43.633 9.803c2.417 0 4.367-1.975 4.367-4.402 0-2.432-1.95-4.401-4.367-4.401-2.404 0-4.354 1.969-4.354 4.401-.001 2.427 1.95 4.402 4.354 4.402zm-12.633 38.197h12s1-.103 1-1v-1h1s.411 2.709-1.857 3h-12.143v-1zm-28-9l8 8s.659.248 1.291-.384l.632-.637 1.077 1.021s-1.795 2.62-3.604 1.207l-8.396-8.48 1-.727zm30.905-3.248l.014 7.968c0 1.498 1.056 2.711 2.54 2.711 1.361 0 2.541-1.585 2.541-2.711v-11.088c0-.772-.174-1.473-.688-1.967l-6.38-6.488 8.586-8.63c1.607-2.024.778-4.451.778-4.451-.883-2.692-3.902-2.785-3.902-2.785l-22.029-.006c-1.171 0-2.126.959-2.126 2.147 0 1.195.958 2.148 2.13 2.148l15.212.024-6.402 6.438c-.919.947-1.385 2.012-1.385 3.404 0 1.337.527 2.532 1.411 3.405l9.7 9.881zm-11.063-8.666c-.208-.198-.393-.414-.563-.644l-12.712 12.858c-.962.78-1.275 2.154-.698 3.299.662 1.312 2.263 1.833 3.562 1.158.178-.094.338-.205.491-.328l13.048-13.192-3.128-3.151z" fill="#231F20"/></svg>