<svg version="1.2" baseProfile="tiny" xmlns="http://www.w3.org/2000/svg" width="50" height="50" viewBox="0 0 50 50" overflow="inherit"><path d="M35.179 1c-2.256 0-4.087 1.859-4.087 4.139 0 2.289 1.831 4.137 4.087 4.137 2.269 0 4.107-1.848 4.107-4.137 0-2.28-1.839-4.139-4.107-4.139zm-30.942 28.54c-.354-.576-1.098-.751-1.664-.395-.571.359-.743 1.109-.388 1.686.356.565 1.097.739 1.676.389.559-.361.73-1.11.376-1.68zm.842 3.376c-.354-.565-1.098-.74-1.675-.381-.56.352-.731 1.107-.377 1.672.355.585 1.099.751 1.658.395.571-.36.744-1.111.394-1.686zm.837 3.387c-.349-.582-1.108-.75-1.669-.391-.577.356-.743 1.105-.387 1.686.349.564 1.107.736 1.668.38.572-.355.743-1.111.388-1.675zm.832 3.376c-.354-.565-1.098-.739-1.657-.396-.578.37-.744 1.119-.395 1.69.355.576 1.099.75 1.675.391.56-.359.732-1.11.377-1.685zm19.669 6.881c-.643.216-.999.901-.793 1.547.212.649.894.995 1.527.795.637-.209.991-.896.792-1.534-.207-.646-.889-.998-1.526-.808zm3.444.03c-.64.195-.987.891-.783 1.527.206.65.892 1.008 1.526.799.631-.204.985-.899.781-1.538-.21-.638-.879-.997-1.524-.788zm3.465.011c-.648.206-1.004.891-.792 1.54.204.637.887.995 1.526.787.632-.195.984-.887.773-1.537-.192-.639-.876-1-1.507-.79zm3.439.014c-.631.209-.986.896-.783 1.536.211.644.895.995 1.526.791.636-.21.984-.887.783-1.531-.206-.649-.892-.996-1.526-.796zm8.233-29.615h-7.156l-3.539-5.787c-.611-1.307-1.891-2.206-3.403-2.267-.295-.015-.562.029-.833.089l-17.988 4.273c-1.088.257-1.77 1.347-1.51 2.455.244 1.098 1.315 1.777 2.402 1.529l12.011-2.188-9.129 15.896h-9.765l2.162 7.893c.073.256.073-.026.157.109.304.502.954.491 1.44.185.266-.157.439-.518.488-.804l1.293-4.019.049-.184 6.017-.035c1.198 0 2.224-.335 2.833-1.35l2.768-4.633 6.161 6.323-2.611 10.515h9.043c.582 0 1.059-.609 1.059-1.189 0-.459-.281-.841-.63-1.036l-3.904-2.216 1.874-7.475s.465-1.589-1.009-3.044l-5.04-5.103s2.693-4.472 4.419-7.345l2.343 3.408h9.961c1.123 0 2.028-.873 2.039-1.993.01-1.134-.893-2.007-2.002-2.007z"/></svg>