<svg version="1.2" baseProfile="tiny" xmlns="http://www.w3.org/2000/svg" width="50" height="50" viewBox="0 0 50 50" overflow="inherit"><path d="M16.48 11.888c2.132-.257 3.645-2.231 3.393-4.403-.252-2.173-2.189-3.714-4.321-3.458-2.132.271-3.639 2.231-3.387 4.403.264 2.174 2.183 3.715 4.315 3.458zm31.942 18.662c-.206-.105-16.047-8.303-16.047-8.303l-4.022-5.279-.249-.059c-.549-.513-1.104-.466-2.104.094v.012c0 .42-.222 1.039.055 1.542l3.08 3.923.061.036-2.45 5.78-6.552-1.671-.28-2.395 5.399-.664c.241-.011.494-.082.723-.21.895-.478 1.239-1.612.769-2.522-.367-.701-1.1-1.075-1.822-.993l-5.499.677-.493-4.157c-.263-2.161-2.201-3.714-4.321-3.457-2.125.269-3.65 2.244-3.398 4.415l1.146 9.611c.138 1.227.854 2.289 1.805 2.908l-8.637 1.051-2.693 6.796.309-.104c1.112-.526 2.35-.807 3.565-.807 1.215 0 2.441.28 3.542.794.699.326 1.467.49 2.212.49.751 0 1.507-.164 2.195-.478 1.112-.526 2.338-.807 3.565-.807 1.215 0 2.438.28 3.528.794.71.326 1.478.49 2.224.49.756 0 1.501-.164 2.2-.478 1.112-.526 2.351-.807 3.565-.807s2.441.28 3.53.794c.264.116.551.198.837.28 4.413-1.182 12.23-3.457 14.338-5.384.618-.558.734-1.504-.081-1.912zm-47.422 15.45c1.009 0 1.983-.233 2.843-.63.882-.421 1.88-.665 2.923-.665s2.029.244 2.923.665c.859.397 1.822.63 2.831.63 1.003 0 1.966-.233 2.837-.63.882-.421 1.879-.665 2.923-.665 1.032 0 2.029.244 2.92.665.86.396 1.823.63 2.832.63 1.008 0 1.971-.233 2.842-.63.884-.421 1.88-.665 2.924-.665 1.031 0 2.029.244 2.911.665.87.397 1.833.63 2.841.63 1.01 0 1.972-.233 2.832-.63.895-.421 1.892-.665 2.923-.665 1.042 0 2.006.244 2.887.665.86.397 1.808.63 2.808.63v-4.333c-1 0-1.948-.231-2.809-.629-.881-.422-1.862-.655-2.904-.655-1.031 0-2.02.233-2.914.655-.86.397-1.818.629-2.828.629-1.008 0-1.968-.231-2.839-.629-.882-.422-1.879-.655-2.91-.655-1.044 0-2.04.233-2.924.655-.871.397-1.833.629-2.841.629-1.009 0-1.971-.231-2.831-.629-.891-.422-1.888-.655-2.92-.655-1.043 0-2.041.233-2.923.655-.871.397-1.834.629-2.837.629-1.009 0-1.972-.231-2.831-.629-.894-.422-1.88-.655-2.923-.655s-2.041.233-2.923.655c-.86.398-1.834.629-2.843.629v4.333z"/></svg>