<svg version="1.2" baseProfile="tiny" xmlns="http://www.w3.org/2000/svg" width="50" height="50" viewBox="0 0 50 50" overflow="inherit"><path d="M41.446 30.82c-.997 0-1.949.238-2.793.648-.834.375-1.753.602-2.718.602-.962 0-1.882-.227-2.715-.602-.845-.41-1.797-.648-2.793-.648-.986 0-1.939.238-2.794.648-.823.375-1.741.602-2.705.602-.965 0-1.896-.227-2.72-.602-.844-.41-1.796-.648-2.794-.648-.996 0-1.948.238-2.792.648-.833.375-1.752.602-2.711.602-.964 0-1.884-.227-2.717-.602-.843-.41-1.785-.648-2.781-.648-.998 0-1.902.238-2.747.648-.831.376-1.666.602-2.666.602v4.212c1 0 1.835-.229 2.668-.603.844-.409 1.773-.647 2.771-.647.996 0 1.926.238 2.769.647.702.318 1.473.498 2.273.557l-3.376 3.483c-1.074-.691-2.5-.567-3.431.399l-3.867 4.006c-1.074 1.113-1.075 2.916 0 4.04 1.084 1.113 2.826 1.113 3.898 0l3.868-4.005c.877-.911 1.029-2.271.481-3.35l4.65-4.812c.318-.104.624-.182.92-.318.844-.409 1.797-.647 2.792-.647.998 0 1.95.238 2.794.647.824.374 1.755.603 2.72.603.964 0 1.881-.229 2.705-.603.854-.409 1.808-.647 2.794-.647.996 0 1.948.238 2.793.647.833.374 1.753.603 2.715.603.965 0 1.884-.229 2.718-.603.844-.409 1.796-.647 2.793-.647.995 0 1.961.238 2.815.647.82.375 1.737.603 2.737.603v-4.212c-1 0-1.917-.227-2.738-.602-.855-.409-1.821-.648-2.816-.648zm1.873-20.596l3.867-4.007c1.084-1.123 1.084-2.929 0-4.042-1.074-1.123-2.827-1.123-3.9 0l-3.866 4.007c-.932.965-1.051 2.441-.372 3.542l-4.809 4.99-9.552-3.667c-.251-.148-.515-.272-.81-.364-2.084-.646-4.286.579-4.911 2.737l-2.935 10.225-.059.355h-12.972v5.407c1 0 1.403-.171 2.05-.465 1.062-.511 2.224-.784 3.386-.784 1.16 0 2.322.273 3.363.774.689.317 1.396.475 2.119.475.729 0 1.437-.157 2.095-.465 1.073-.511 2.245-.784 3.404-.784 1.173 0 2.322.261 3.387.774.668.317 1.402.475 2.125.475.724 0 1.433-.157 2.101-.465 1.063-.511 2.246-.784 3.397-.784 1.182 0 2.322.261 3.383.774.68.317 1.415.475 2.125.475.725 0 1.447-.157 2.104-.465 1.063-.511 2.246-.784 3.407-.784.195 0 .995.063 1.786-.481 1.401-.635 1.928-.998 3.153-1.776 1.01-.641 1.808-1.901-.385-1.901h-19l5.869-5.802.745.294c.942.352 1.993-.147 2.344-1.124.241-.691.056-1.441-.405-1.94l4.535-4.717c1.04.569 2.353.42 3.231-.487zm-17.986 13.776h-1.171l2.365-8.199 4.886 1.889-6.08 6.31zm-.032-18.087l-.504 1.016c-.329.691-1.007 1.071-1.786 1.071h-1.185c.681 1 1.989 1.632 3.248 1.632 2.059 0 3.926-1.741 3.926-3.876v.244h-3.523l-.176-.087zm-2.29 1.087c.406 0 .768-.253.932-.615l.493-.897c.186-.421.58-.488 1.041-.488h3.854c-.505-2-2.311-3.782-4.446-3.782-2.533 0-4.582 2.018-4.582 4.65 0 .42.044 1.132.154 1.132h2.554z"/></svg>