<svg version="1.2" baseProfile="tiny" xmlns="http://www.w3.org/2000/svg" width="50" height="50" viewBox="0 0 50 50" overflow="inherit"><path d="M.295 27.581c.41 3.175 3.117 5.626 6.405 5.626 3.284 0 5.989-2.451 6.4-5.626h-12.805zm34.887 12.999c0 .553-.446 1.003-.998 1.003h-18.656c-.548 0-1-.45-1-1.003 0-.549.451-.993 1-.993h18.655c.552 0 .999.444.999.993zm-20.545 1.514h20.437v2.887h-20.437zm22.263-14.513c.409 3.175 3.119 5.626 6.402 5.626 3.285 0 5.991-2.451 6.399-5.626h-12.801zm12.449-2.009l-5.243-7.222h2.803c.682 0 1.231-.559 1.231-1.25 0-.685-.55-1.238-1.231-1.238h-14.848c-.885-2.441-3.021-4.275-5.634-4.732v-3.897c0-.693-.556-1.246-1.245-1.246l-.116.013-.116-.013c-.689 0-1.243.553-1.243 1.246v3.895c-2.613.457-4.748 2.291-5.632 4.732h-14.851c-.677 0-1.229.553-1.229 1.238 0 .692.552 1.25 1.229 1.25h2.675l-5.244 7.222h-.655v1.334h13.398v-1.334h-.658l-5.242-7.22h12.169c0-.282.031-.559.073-.824.043-.125.072-.252.072-.383.458-1.93 1.966-3.463 3.895-3.933v13.697h-.052c-.107 5.152-2.558 9.645-6.194 12.17h15.214c-3.637-2.525-6.086-7.018-6.199-12.17h-.048v-13.697c1.926.47 3.439 2.003 3.894 3.933.004.131.031.258.075.383.04.266.065.542.065.824h12.042l-5.244 7.222h-.654v1.334h13.394v-1.334h-.651zm-43.184 0h-4.185l4.185-5.765v5.765zm1.071 0v-5.765l4.185 5.765h-4.185zm35.532 0h-4.187l4.187-5.765v5.765zm1.066 0v-5.765l4.19 5.765h-4.19zm-35.893-11.448c0 .679-.556 1.239-1.24 1.239-.687 0-1.245-.56-1.245-1.239 0-.686.558-1.246 1.245-1.246.684-.001 1.24.56 1.24 1.246zm36.604-.066c0 .691-.556 1.239-1.242 1.239-.689 0-1.242-.548-1.242-1.239 0-.686.553-1.245 1.242-1.245.686 0 1.242.559 1.242 1.245z"/></svg>