<svg version="1.2" baseProfile="tiny" xmlns="http://www.w3.org/2000/svg" width="50" height="50" viewBox="0 0 50 50" overflow="inherit"><path d="M46 29v20h-15v-4h-13v4h-14v-20zm-9.051-3.645c-.574-2.509-1.869-4.715-3.91-6.401-1.977-1.643-4.316-1.954-7.029-2.954h-.01v-6.328l.524-.141 1.147-.425c.441-.149.84-.274 1.256-.362.408-.097.691-.138.885-.138.377 0 .854.06 1.412.182.568.138 1.173.287 1.788.456.641.194 1.213.341 1.768.466.529.121.972.171 1.339.171.584.001.881-.08 1.881-.258v-7.242c-1 .238-1.177.369-1.882.369-.367 0-.821-.056-1.351-.19-.553-.106-1.123-.271-1.764-.457-.615-.187-1.196-.328-1.733-.446-.543-.129-.896-.191-1.28-.191-1.273 0-2.99.301-3.99.856v-1.322h-2v15h-.063c-2.692 1-5.049 1.368-7.024 3.011-2.002 1.688-3.302 3.751-3.917 6.261 0 0-1.917-.272-1.917 1.728h27.97c0-2-2.1-1.645-2.1-1.645z"/></svg>