<svg version="1.2" baseProfile="tiny" xmlns="http://www.w3.org/2000/svg" width="50" height="50" viewBox="0 0 50 50" overflow="inherit"><path d="M22.132 4.262c.022-2.056-1.668-3.758-3.729-3.736-2.106-.022-3.808 1.68-3.797 3.736-.011 2.105 1.691 3.791 3.797 3.796 2.06-.005 3.751-1.691 3.729-3.796zm10.842 20.63l-12.062-14.633c-.627-.93-4.122-1.321-5.6-.134l-5.869 10.679 1.444 9.027c1.468 2.357 4.38-.028 3.562-1.316l-.985-6.395 2.536-5.12v12l-6 16c-1.042 3.494 3.969 5.365 5 2l7-18v-9l-2.937-4.062c-.146-.174-.124-.437.056-.588.179-.146.437-.123.583.05l10.034 11.866c1.615 2.207 4.851-.14 3.238-2.374zm-4.615 20.298l-5.925-14.743-2.434 6.553 3.477 10.169c1.399 3.275 6.316 1.359 4.882-1.979zm15.713 3.383l.022.034c.235.28.65.308.93.078.246-.213.292-.588.123-.856l-11.166-19.387-.033-.039c-.225-.27-.639-.309-.919-.073-.246.213-.269.571-.111.856l11.154 19.387z"/></svg>