<svg version="1.2" baseProfile="tiny" xmlns="http://www.w3.org/2000/svg" width="50" height="50" viewBox="0 0 50 50" overflow="inherit"><path fill="#231F20" d="M25.117 10.335c-1.475 0-2.691-1.222-2.691-2.72 0-1.508 1.216-2.719 2.691-2.719 1.501 0 2.705 1.211 2.705 2.719 0 1.498-1.204 2.72-2.705 2.72zm21.836 23.806l-1.441-9.027c-.164-.844-.898-1.486-1.771-1.486-.531 0-1.004.226-1.347.595l-6.639 6.26c-.104.095-.211.201-.307.333-.624.854-.446 2.066.404 2.708.162.117.342.201.519.273l1.663.559c-1.602 4.559-6.216 8.683-11.034 9.644v-30c2.361-1.01 4.695-3.652 4.695-6.385 0-3.658-2.942-6.615-6.578-6.615-3.623 0-6.576 2.957-6.576 6.615 0 2.733 2.108 5.375 4.458 6.385v30c-4.924-.891-9.406-5-11.048-9.645l1.678-.559c.177-.072.353-.156.519-.273.849-.642 1.038-1.854.402-2.708-.096-.132-.189-.238-.308-.333l-6.638-6.26c-.331-.369-.815-.595-1.335-.595-.885 0-1.63.642-1.783 1.486l-1.441 9.027c-.033.143-.045.297-.045.453 0 1.066.862 1.936 1.926 1.936.2 0 .389-.025.566-.085l1.559-.51c2.48 7.578 9.575 13.066 17.949 13.066 8.373 0 15.471-5.488 17.951-13.078l1.56.521c.175.06.367.085.565.085 1.063 0 1.925-.869 1.925-1.936-.001-.155-.012-.309-.048-.451z"/></svg>