<svg version="1.2" baseProfile="tiny" xmlns="http://www.w3.org/2000/svg" width="50" height="50" viewBox="0 0 50 50" overflow="inherit"><path d="M48.022 26.652c-1.396 6.519-6.192 11.874-12.516 13.976-1.94.646-3.95.973-5.975.973-8.149 0-15.354-5.19-17.93-12.914-1.595-4.781-1.229-9.896 1.03-14.404 2.259-4.507 6.141-7.867 10.93-9.46 4.505-1.496 9.397-1.246 13.71.689l.935-1.763c-6.263-3.869-14.064-4.795-21.078-2.462-6.343 2.109-11.484 6.559-14.476 12.528-2.992 5.97-3.476 12.746-1.364 19.08 3.412 10.231 12.955 17.105 23.747 17.105 2.682 0 5.343-.433 7.911-1.286 9.573-3.184 16.266-11.73 17.052-21.774l-1.976-.288zm-12.325-12.049l-5.014-9.384-2.55 10.477-10.429 2.05 9.547 5.421-1.642 10.796 8.107-7.374 10.046 4.82-5.131-10.027 8.124-7.842z"/></svg>