<svg version="1.2" baseProfile="tiny" xmlns="http://www.w3.org/2000/svg" width="50" height="50" viewBox="0 0 50 50" overflow="inherit"><path d="M25.507 22.572c-1.512 0-2.741 1.229-2.741 2.74 0 1.511 1.229 2.74 2.741 2.74 1.511 0 2.741-1.229 2.741-2.74 0-1.511-1.23-2.74-2.741-2.74zm16.317-18.499c0-1.145-.928-2.073-2.072-2.073h-29.679c-1.145 0-2.073.928-2.073 2.073v41.856c0 1.144.928 2.071 2.073 2.071h29.679c1.145 0 2.072-.927 2.072-2.071v-41.856zm-16.317 34.342c-7.225 0-13.103-5.877-13.103-13.103 0-7.224 5.878-13.102 13.103-13.102 7.224 0 13.101 5.878 13.101 13.102-.001 7.226-5.878 13.103-13.101 13.103z"/></svg>