<svg version="1.2" baseProfile="tiny" xmlns="http://www.w3.org/2000/svg" width="50" height="50" viewBox="0 0 50 50" overflow="inherit"><path d="M8.524 30.795c-1.978 0-3.585 1.617-3.585 3.604 0 1.988 1.608 3.601 3.585 3.601 1.982 0 3.59-1.613 3.59-3.602 0-1.986-1.607-3.603-3.59-3.603zm0 5.461c-.988 0-1.792-.807-1.792-1.803 0-.992.804-1.801 1.792-1.801.993 0 1.797.809 1.797 1.801.001.996-.803 1.803-1.797 1.803zm31.543-5.461c-1.981 0-3.587 1.617-3.587 3.604 0 1.988 1.605 3.602 3.587 3.602 1.98 0 3.59-1.613 3.59-3.602 0-1.987-1.609-3.604-3.59-3.604zm0 5.461c-.989 0-1.794-.807-1.794-1.803.001-.992.805-1.801 1.794-1.801.992 0 1.797.809 1.797 1.801 0 .996-.804 1.803-1.797 1.803zm7.94-22.256h-31.546c-.547 0-.993.446-.993.997v9.042h-1.987v-5.551c0-.552-.445-.997-.994-.997h-6.768c-1.18 0-2.234.872-2.423 2.12v-.065l-1.056 5.987.002.021c-.717.122-1.242.745-1.242 1.476l.033.32-.033-.009 1.49 6.735h1.552v-.061c0-2.414 1.975-4.369 4.41-4.369 2.433 0 4.409 1.955 4.409 4.369v.061h22.726v-.061c0-2.414 1.976-4.369 4.407-4.369 2.435 0 4.411 1.955 4.411 4.369l-.004.061h4.599v-19.079c0-.55-.444-.997-.993-.997zm-38.004 5.111v4.928h-5.96l.745-4.181c.062-.5.497-.869.931-.869h4.284v.122z"/></svg>