<svg version="1.2" baseProfile="tiny" xmlns="http://www.w3.org/2000/svg" width="50" height="50" viewBox="0 0 50 50" overflow="inherit"><path d="M12 1h9v7h-9zm18.723 28.822c-.873 0-1.723-.891-1.723-1.77v-18.052h14.187l5.829 24.878-.016 1.476v11.056c0 .85-.707 1.59-1.549 1.59h-13.421c-.833 0-1.03-.74-1.03-1.59v-17.41h-2m-11.719-.158c.866 0 1.719-.859 1.719-1.744v-18.098h-14.178l-5.836 24.892.014 1.508v11.053c0 .854.707 1.547 1.548 1.547h13.405c.854 0 1.047-.693 1.047-1.547v-17.453h2"/><path d="M23 10h4v17h-4zm6-9h10v7h-10z"/></svg>