<svg version="1.2" baseProfile="tiny" xmlns="http://www.w3.org/2000/svg" width="50" height="50" viewBox="0 0 50 50" overflow="inherit"><path d="M31 25.002c-3.309 0-5.996 2.685-5.996 5.998 0 3.316 2.688 6 5.996 6 3.31 0 5.998-2.684 5.998-6 0-3.312-2.688-5.998-5.998-5.998zm12.001-12.005l-4.941-9.967c-.399-1.182-1.518-2.03-2.839-2.03h-8.241c-1.344 0-2.465.872-2.854 2.075l-5.119 9.925h-12.008c-3.308 0-5.999 2.688-5.999 6.001v29.999h48v-29.999c0-3.313-2.689-6.004-5.999-6.004zm-33.001 12.005c-1.66 0-3.001-1.342-3.001-2.998 0-1.662 1.342-3.003 3.001-3.003s2.999 1.341 2.999 3.003c0 1.656-1.339 2.998-2.999 2.998zm21 18.004c-6.625 0-12.001-5.377-12.001-12.006 0-6.626 5.375-11.999 12.001-11.999 6.626 0 12.001 5.372 12.001 11.999 0 6.629-5.375 12.006-12.001 12.006z"/></svg>