<svg version="1.2" baseProfile="tiny" xmlns="http://www.w3.org/2000/svg" width="50" height="50" viewBox="0 0 50 50" overflow="inherit"><path d="M12.333 22h2.667v16h4v-14h4v14h4v-14h4v14h4v-16h2.666c.736 0 1.334-.736 1.334-1.399 0-.401-.221-.853-.555-1.071l.002-.052-.021-.037.134-.033-12.56-6.469v-1.892c2 1.059 3.951-.765 7 .332v-4.179c-3.051-1.096-5 .727-7-.332v-.268c0-.331-.631-.6-1-.6s-1 .269-1 .6v6.339l-12.559 6.456.271.021.288.011v.002c-1 .218-.776.77-.776 1.171-.001.664.373 1.4 1.109 1.4zm1.667 17l-3 3h28l-3-3zm22-16v15h.885l.391.553 2.666 2.499.943.948h8.115v-19h-13zm6 12h-3v-3h3v3zm0-6h-3v-3h3v3zm4 6h-2v-3h2v3zm0-6h-2v-3h2v3zm-32.886 9h.886v-15h-13v19h8.114l.942-.848 2.667-2.6.391-.552zm-7.114-3h-2v-3h2v3zm0-6h-2v-3h2v3zm5 6h-3v-3h3v3zm0-6h-3v-3h3v3z"/></svg>