<svg version="1.2" baseProfile="tiny" xmlns="http://www.w3.org/2000/svg" width="50" height="50" viewBox="0 0 50 50" overflow="inherit"><path d="M27.984 30.729c-2.251 0-4.078 1.85-4.078 4.135 0 2.284 1.828 4.137 4.078 4.137 2.252 0 4.077-1.853 4.077-4.137.001-2.286-1.825-4.135-4.077-4.135zm0 6.324c-1.195 0-2.16-.979-2.16-2.189 0-1.209.965-2.193 2.16-2.193 1.191 0 2.161.984 2.161 2.193.001 1.21-.969 2.189-2.161 2.189zm16.873-24.559c-1.443-.498-10.755-1.494-16.885-1.494-6.129 0-16 1.009-17.461 1.441-.151.044-4.511 1.246-4.511 5.973v12.616c0 .857.321 1.97.795 1.97h-5.795v2h21.965c0-3 2.262-5.122 5.048-5.122 2.79 0 5.051 2.122 5.051 5.122h12.231c2.049 0 3.705-1.896 3.705-3.97v-13.287c0-2.075-1.56-4.356-4.143-5.249zm-24.821 9.879c0 .394-.281.627-.667.627h-6.583c-.389 0-.786-.148-.786-.542v-4.662c0-.392.397-.796.785-.796h6.583c.386 0 .632.404.632.796v4.662l.036-.085zm23.964.085c0 .394-.31.542-.7.542h-14.566c-.389 0-.734-.148-.734-.542v-4.662c0-.392.345-.796.734-.796h14.566c.391 0 .7.404.7.796v4.662z"/></svg>