<svg version="1.2" baseProfile="tiny" xmlns="http://www.w3.org/2000/svg" width="50" height="50" viewBox="0 0 50 50" overflow="inherit"><path d="M42.56 17.108c.278-3.306 1.275-6.341 3.03-9.124l-6.734-6.484c-2.127 1.763-4.551 2.74-7.295 2.912-2.516.219-4.9-.241-7.144-1.383-2.306 1.104-4.681 1.567-7.156 1.383-2.562-.22-4.873-1.095-6.943-2.644l-6.751 6.482c1.661 2.822 2.586 5.775 2.767 8.858.086 1.419-.334 3.375-1.279 5.9-.494 1.4-.867 2.615-1.123 3.63-.236 1.009-.383 1.827-.433 2.442-.034 2.691.75 5.121 2.358 7.282 1.257 1.577 3.33 3.319 6.208 5.224 3.148 1.543 5.585 2.544 7.292 2.971l1.416.635c.445.204.922.405 1.419.623 1.075.62 1.828 1.291 2.225 1.984.488-.751 1.259-1.404 2.283-1.984.722-.304 1.335-.565 1.826-.797l1.069-.46c.365-.173.842-.373 1.422-.594.582-.221 1.305-.491 2.164-.791 1.663-.566 2.874-1.103 3.643-1.587 2.792-1.904 4.833-3.619 6.132-5.15 1.665-2.168 2.475-4.61 2.438-7.354-.099-1.23-.64-3.196-1.622-5.875-.934-2.611-1.347-4.637-1.212-6.099z"/></svg>