<svg version="1.2" baseProfile="tiny" xmlns="http://www.w3.org/2000/svg" width="50" height="50" viewBox="0 0 50 50" overflow="inherit"><path d="M25.577 8.938c2.297.169 4.306-1.468 4.488-3.648.184-2.191-1.53-4.108-3.827-4.277-2.3-.167-4.309 1.46-4.487 3.651-.179 2.19 1.536 4.103 3.826 4.274zm17.206 32.062l-1.388-12h-2.252c.021-1 .018-1.111-.051-1.718-.067-.621-.264-1.075-.585-1.218.263-.28.438-.636.472-1.037.051-.632-.245-1.223-.74-1.575l-5.732-3.768-4.22-7.946c-.699-1.04-1.883-1.879-3.312-1.999-1.098-.076-2.108.287-2.925.827l-8.374 6.482c-.276.222-.483.514-.577.865l-1.951 7.851-.148.233v.003h-.016c-.327 0-.625.312-.739.725-.11.405-.245.94-.245 1.373v.902h-2.174l-1.388 12h5.609l-2.459 3.935c-.16.305-.348.736-.381 1.152-.121 1.49 1.039 2.785 2.594 2.904 1.111.074 2.067-.462 2.648-1.318l4.15-6.673h.543l-.085-.737 1.151-1.852c.125-.248.522-.855.566-1.143l1.406-6.11 6.001 6.273 1.884 9.431c.301 1.115 1.263 2.035 2.543 2.129 1.557.118 2.92-.981 3.044-2.468l-.017-.548-.984-4.975h8.132zm-31.826-13.01c.056-.473.233-.742.545-.742l.117-.002c.315.381.783.642 1.323.686.619.048 1.175-.219 1.553-.633.084.071.151.178.197.326.083.287.131.616.131.887 0 .162-.008.488-.019.488h-3.876c-.013 0-.009-.643.029-1.01zm5.731 1.01h-1.185c.025-1 .018-1.111-.047-1.718-.056-.52-.203-.922-.436-1.128l1.479-6.442 2.917-2.257-2.728 11.545zm21.758 0h-3.879c-.016 0-.011-.643.029-1.01.052-.473.232-.742.545-.742.449 0 .856-.014 1.217-.022.363-.013.858-.031 1.481-.031.239 0 .401.142.491.431.086.287.132.616.132.887l-.016.487zm-12.546-2.283l1.88-7.936 1.581 2.983c.125.205.273.374.468.533l5.647 3.703h-.853c-.327 0-.447.312-.56.725-.107.405-.063.94-.063 1.373v.902h-2.532l-.409 3.53-5.159-5.813z"/></svg>