<svg version="1.2" baseProfile="tiny" xmlns="http://www.w3.org/2000/svg" width="50" height="50" viewBox="0 0 50 50" overflow="inherit"><path d="M33.856 8.581c2.079 0 3.749-1.691 3.749-3.785s-1.669-3.796-3.749-3.796c-2.07 0-3.742 1.702-3.742 3.796s1.672 3.785 3.742 3.785zm-15.902 15.372l13.477-8.812c1.76-1.13 2.292-3.482 1.174-5.262-1.105-1.781-3.441-2.318-5.202-1.187l-9.936 6.493c-.564.37-1.007.852-1.294 1.411l-10.344 20.625c-.609 1.221-.132 2.699 1.063 3.315 1.195.614 2.667.134 3.275-1.076l7.787-15.507zm26.25-1.444c1.782-1.131 2.336-3.504 1.217-5.308l-1.307.806c.675 1.086.344 2.508-.729 3.18l-41.385 26.502.819 1.311 41.385-26.491z"/></svg>