<svg version="1.2" baseProfile="tiny" xmlns="http://www.w3.org/2000/svg" width="50" height="50" viewBox="0 0 50 50" overflow="inherit"><path d="M44.17 18.642c2.118 0 3.83-1.732 3.83-3.864 0-2.13-1.712-3.852-3.83-3.852-2.108 0-3.824 1.721-3.824 3.852s1.716 3.864 3.824 3.864zm-1.079 26.438l-40.301-23.863-.79 1.362 40.283 23.869c1.847 1.105 4.231.502 5.332-1.367l-1.337-.811c-.657 1.117-2.091 1.472-3.187.81zm3.875-17.914l-6.854-4.034-.791-10.336c-.118-1.237-.785-2.347-1.756-3.031l-9.871-5.892c-2.328-1.579-5.475-.958-7.045 1.402-.864 1.288-1.102 2.917-.678 4.239l2.678 8.844-8.079 2.598c-1.011.41-1.792 1.367-1.927 2.541-.209 1.721 1.062 2.861 2.774 3.064.39.047.649-.066 1.011-.158l11.028-3.681c.809-.296 1.693-1.106 1.779-1.812.063-.513.226-.946.119-1.254l-1.678-6.051 6.632 3.978.802 5.801c.069 1.014.527 1.743 1.301 2.176l8.667 5.105c.948.525 2.146.172 2.665-.797.528-.96.171-2.179-.777-2.702z" fill="#231F20"/></svg>