<svg version="1.2" baseProfile="tiny" xmlns="http://www.w3.org/2000/svg" width="50" height="50" viewBox="0 0 50 50" overflow="inherit"><path d="M42.973 33.484c2.517 0 4.563-2.119 4.563-4.738 0-2.605-2.047-4.714-4.563-4.714-2.529 0-4.565 2.108-4.565 4.714-.001 2.619 2.035 4.738 4.565 4.738zm3.502 10.567c.205.072.302.107.53.107 1.168 0 2.056-.982 2.056-2.191 0-.912-.577-1.705-1.346-2.025l-6.33-2.547-4.605-8.459s-.382-.934-1.709-1.445l-15.081-6.255-8.961-15.72c-.521-.9-1.477-1.516-2.575-1.516-1.659 0-2.998 1.397-2.998 3.115 0 .545.138 1.055.378 1.505l11.125 19.534-7.053-2.914-1.773 1.192 28.18 11.568h-.012l1.155 1.807s.457.973 1.82 1.529l3.5 1.388c-2.277 2.357-5.469 1.329-5.469 1.329l-34.408-14.317-1.899 1.169 36.174 14.711c4.176 1.576 7.826-2.204 7.826-2.204v.012l1.475.627z" fill="#231F20"/></svg>