<svg version="1.2" baseProfile="tiny" xmlns="http://www.w3.org/2000/svg" width="50" height="50" viewBox="0 0 50 50" overflow="inherit"><ellipse cx="38.524" cy="7.554" rx="3.842" ry="3.781"/><path d="M47.376 21.784l-10.824-9.792c-.363-.345-.781-.625-1.247-.826l-8.433-2.954-3.831-5.466c-.294-.389-.746-.667-1.278-.735-1.009-.111-1.915.602-2.041 1.595-.045.423.057.825.272 1.159l3.908 5.565c.181.233.408.412.68.535l4.535 1.762-7.457 3.747c-1.032.591-1.779 1.606-1.983 2.811l.045 6.703-6.885 3.056c-.782.356-1.338 1.126-1.373 2.028-.023.534.145 1.028.433 1.435l-3.713-1.39c-.697-.263-1.241-.819-1.478-1.527-.425-1.245-1.797-1.914-3.061-1.494-1.264.418-1.943 1.767-1.519 3.012.703 2.055 2.29 3.68 4.341 4.448l32.249 12.064c2.063.777 4.343.604 6.234-.471 1.157-.653 1.553-2.103.896-3.24-.669-1.139-2.143-1.528-3.297-.877-.635.362-1.419.421-2.121.153l-7.996-2.993c.831-.281 1.462-1.005 1.582-1.892l1.259-10.026.01-.135c.035-.702-.25-1.349-.738-1.794l-5.416-4.729 8.161-3.958 7.581 6.868c.342.324.795.525 1.304.525 1.021-.011 1.837-.826 1.826-1.829-.001-.536-.252-1.016-.625-1.338zm-17.013 7.035l-1.078 8.801-.01.154c-.02.457.098.884.312 1.252l-15.193-5.686c.172-.042.341-.096.495-.172l8.435-3.749c.601-.321 1.054-.889 1.202-1.571l-.022-4.169 5.859 5.14z"/></svg>