<svg version="1.2" baseProfile="tiny" xmlns="http://www.w3.org/2000/svg" width="50" height="50" viewBox="0 0 50 50" overflow="inherit"><path d="M50 50l-.015-25.059c0-13.781-11.186-24.946-24.967-24.946-13.781 0-24.967 11.173-24.967 24.955l.201 25.085 5.748-.014v-25.07c0-10.741 8.262-19.447 19-19.447 10.74 0 19 8.707 19 19.448v25.048h6zm-16.803-9.074l-.092-.168.048-.062.044-.062c.86-.355 1.641-.79 2.339-1.31.698-.522 1.106-1.286 1.348-2.296.027-.117.116-.389.116-.804v-20.853c0-.503-.089-1.025-.387-1.556-.296-.54-.637-1.023-1.09-1.452-.439-.425-.921-.721-1.472-1.006-.55-.282-1.064-.357-1.571-.357h-14.922c-.476 0-.988.067-1.54.335-.551.267-1.058.577-1.516.995-.459.413-.798.865-1.096 1.382-.294.527-.406 1.018-.406 1.528v21.164c0 .353.054.728.228 1.11.179.389.381.752.648 1.088.268.348.549.661.862.941.312.282.608.512.908.688.145.061.403.154.777.271.369.119.539.19.511.246l-6.105 9.252h3.561l4.458-6h12.302l4.452 6h3.606l-6.011-9.074zm-13.197-27.926c0-.55.45-1 1-1h8c.55 0 1 .45 1 1v1c0 .55-.45 1-1 1h-8c-.55 0-1-.45-1-1v-1zm-3.936 4.885c.133-.282.237-.538.444-.779.211-.238.422-.58.703-.729.281-.15.54-.377.837-.377h13.857c.267 0 .532.215.801.328.268.12.512.363.737.569.222.207.31.472.448.709.131.232.109.526.109.793v4.724c0 .27.013.521-.133.775-.148.26-.298.484-.538.677-.239.189-.466.238-.733.353-.268.126-.514.072-.778.072h-13.681c-.033 0-.107.093-.225.069l-.27-.039c-.503-.088-.812-.329-1.2-.775-.385-.449-.442-.907-.442-1.443v-4.054c0-.297-.068-.589.064-.873zm3.787 19.275c-.459.475-1.034.712-1.714.712-.683 0-1.241-.237-1.673-.712-.432-.474-.646-1.058-.646-1.739 0-.624.225-1.165.669-1.624.445-.462.996-.693 1.65-.693.68 0 1.254.219 1.714.643.461.438.692 1.002.692 1.721 0 .654-.231 1.219-.692 1.692zm10.203 0c-.458-.474-.689-1.058-.689-1.739 0-.686.243-1.237.734-1.675.493-.424 1.063-.643 1.72-.643.678 0 1.236.231 1.666.693.433.459.649 1 .649 1.624 0 .682-.221 1.266-.671 1.739-.444.475-1.009.712-1.693.712-.683.001-1.253-.236-1.716-.711z"/></svg>