<svg version="1.2" baseProfile="tiny" xmlns="http://www.w3.org/2000/svg" width="50" height="50" viewBox="0 0 50 50" overflow="inherit"><path d="M9.416 35.465c13.419 5.673 23.611 8.981 37.967 13.529.294.045.565-.159.61-.466.045-.295-.157-.58-.452-.637-22.613-7.151-40.364-15.075-44.414-16.917-.419-.169-.906.023-1.063.434-.17.421.011.875.418 1.034 1.007.454 2.002.897 2.964 1.318l-3.19 2.444c-.362.534-.204 1.217.328 1.58.396.273.962.239 1.346-.012l5.486-2.307zm37.038-14.319l-10.445-9.642.231.023c2.115 0 3.823-1.728 3.823-3.854s-1.708-3.853-3.823-3.853c-2.127 0-3.835 1.728-3.835 3.854 0 .812.253 1.564.68 2.187l-7.082-2.539-3.824-5.559c-.294-.41-.747-.683-1.276-.751-.995-.113-1.912.614-2.024 1.626-.045.421.057.83.26 1.171l3.899 5.684c.181.227.408.42.679.546l4.525 1.785-7.429 3.82c-1.04.591-1.776 1.637-1.979 2.854l.034 6.833-6.872 3.114c-.769.375-1.323 1.148-1.357 2.07-.056 1.319.962 2.421 2.274 2.479.407.021.803-.068 1.143-.24l8.408-3.818c.6-.319 1.052-.898 1.199-1.604l-.011-4.252 5.836 5.253-1.075 8.946-.011.171c-.057 1.318.963 2.433 2.274 2.49 1.232.045 2.284-.853 2.454-2.069l1.256-10.21.011-.137c.022-.716-.259-1.364-.735-1.818l-5.406-4.832 8.145-4.025 7.557 6.992c.339.33.803.534 1.301.534 1.018-.011 1.832-.841 1.822-1.853-.003-.546-.253-1.035-.627-1.376z"/></svg>