<svg version="1.2" baseProfile="tiny" xmlns="http://www.w3.org/2000/svg" width="50" height="50" viewBox="0 0 50 50" overflow="inherit"><path d="M49 40c-1.051 0-2.052-.232-2.952-.641-.917-.414-1.956-.664-3.042-.664-1.091 0-2.131.252-3.049.664-.899.409-1.901.641-2.953.641-1.05 0-2.056-.232-2.95-.641-.933-.414-1.974-.664-3.048-.664-1.087 0-2.128.252-3.049.664-.895.409-1.912.641-2.953.641-1.052 0-2.053-.232-2.96-.641-.921-.414-1.958-.664-3.036-.664-1.087 0-2.127.252-3.048.664-.895.409-1.912.641-2.964.641-1.036 0-2.053-.232-2.948-.641-.921-.414-1.962-.664-3.048-.664-1.079 0-2.114.252-3.037.664-.909.409-1.911.641-2.963.641v-4.396c1.051 0 2.053-.238 2.963-.631.923-.424 1.958-.674 3.037-.674 1.086 0 2.127.25 3.048.674.895.393 1.912.631 2.948.631 1.051 0 2.069-.238 2.964-.631.92-.424 1.961-.674 3.048-.674 1.078 0 2.114.25 3.036.674.907.393 1.908.631 2.96.631 1.041 0 2.057-.238 2.953-.631.921-.424 1.962-.674 3.049-.674 1.073 0 2.113.25 3.048.674.895.393 1.9.631 2.95.631 1.052 0 2.054-.238 2.953-.631.918-.424 1.958-.674 3.049-.674 1.086 0 2.125.25 3.042.674.9.393 1.901.631 2.952.631v4.396zm-6.952-12.436c3.152 0 5.71-2.55 5.71-5.678 0-3.131-2.558-5.668-5.71-5.668-3.157 0-5.712 2.538-5.712 5.668 0 3.128 2.328 5.678 5.712 5.678zm-33.257 3.192c.443.105.861.258 1.258.436.895.402 1.912.641 2.949.641 1.05 0 2.069-.238 2.963-.641.921-.414 1.961-.676 3.048-.676 1.078 0 2.116.262 3.036.676.906.402 1.908.641 2.96.641 1.04 0 2.058-.238 2.952-.641.922-.414 1.962-.676 3.049-.676 1.074 0 2.115.262 3.048.676.896.402 1.9.641 2.952.641.765 0 1.502-.129 2.197-.346l-9.525-17.056 11.079-2.007c1.626-.308 2.806-1.576 2.806-3.199 0-1.79-1.467-3.225-3.262-3.225l-.37.011-17.114 3.092c-1.201.273-2.792 2.019-1.886 4.161l.146.345 4.466 8.003-16.752 9.144z"/></svg>