<svg version="1.2" baseProfile="tiny" xmlns="http://www.w3.org/2000/svg" width="50" height="50" viewBox="0 0 50 50" overflow="inherit"><path d="M25 1l7.082 12.106 13.918.003-6.958 11.89 6.958 11.894-13.916.002-7.084 12.105-7.083-12.105-13.917-.002 6.958-11.894-6.958-11.89 13.918-.003 7.082-12.106zm-9.078 24.01l4.489 7.99h9.165l4.501-7.99-4.5-8.01h-9.151l-4.504 8.01zm18.617 7.99h4.041l-2.019-3.453-2.022 3.453zm-23.122 0h4.042l-2.022-3.454-2.02 3.454zm11.574-20h4.042l-2.021-3.452-2.021 3.452zm13.57 7.451l2.019-3.451h-4.041l2.022 3.451zm-23.124.002l2.021-3.453h-4.042l2.021 3.453zm11.575 19.997l2.021-3.45h-4.043l2.022 3.45z"/></svg>