<svg version="1.2" baseProfile="tiny" xmlns="http://www.w3.org/2000/svg" width="50" height="50" viewBox="0 0 50 50" overflow="inherit"><path d="M5.809 24.21c-1.011 0-1.838.827-1.838 1.835 0 1.007.828 1.82 1.838 1.82 1.01 0 1.826-.813 1.826-1.82 0-1.008-.816-1.835-1.826-1.835zm25.488-15.259c2.191 0 3.98-1.771 3.98-3.969s-1.789-3.982-3.98-3.982c-2.203 0-3.993 1.784-3.993 3.982 0 2.198 1.79 3.969 3.993 3.969zm17.131 35.412l-6.477-7.626s-2.023-11.774-2.023-11.799l-.303-1.335c.012.013-.814-3.714-1.447-6.627 1.01.582 1.922 1.104 1.971 1.129.049.108 3.432 6.53 3.432 6.53.258.475.686.827 1.195.983.523.158 1.072.11 1.547-.146.475-.242.828-.667.984-1.189.174-.509.121-1.057-.135-1.529l-3.709-7.054s-.148-.255-.342-.448c-.268-.267-.855-.595-.855-.595l-7.205-4.092c-.914-.461-1.924-.618-2.936-.4-.416.085-.803.243-1.24.486-.051.011-1.646.715-2.57 2.878l-3.7 7.429-5.833 1.129-.134.048-5.266-3.715c-1.181-.825-1.326-3.302-1.34-3.399-.145-1.699-1.12-3.302-2.678-4.407-1.411-.995-3.117-1.419-4.676-1.166-1.218.207-2.252.838-2.91 1.762-.51.716-.778 1.578-.778 2.5l.073.803c.269 1.564 1.23 3.021 2.643 4.029 1.424 1.007 3.117 1.433 4.675 1.166l.366-.073c.036-.024 2.374-.742 3.518.037 0 .011 3.938 2.779 4.986 3.52-.109.17-.304.545-.292.935 0 .122.013.242.037.363.207 1.094 1.277 1.822 2.374 1.604l6.987-1.361s.598-.182.854-.365c.33-.23.572-.715.572-.715l1.838-3.691s1.268 5.96 1.289 6.069c-.145.146-5.732 6.058-5.732 6.058l-.215.122c-.551.496-.973 1.151-.973 1.845v12.526c0 1.338 1.167 2.418 2.506 2.418 1.328 0 2.494-1.08 2.494-2.418v-10.463c1-.533 4.844-5.036 5.988-6.229.123.704 1.252 7.056 1.252 7.056.098.559.379 1.068.781 1.479 0 .014 7.699 9.071 7.699 9.071.428.482 1.013.788 1.657.848.646.049 1.269-.156 1.769-.568.559-.475.853-1.167.853-1.848 0-.557-.181-1.104-.571-1.565zm-38.406-27.314c-.426.595-1.083.983-1.899 1.129-1.145.193-2.424-.134-3.494-.911-1.083-.766-1.815-1.857-2.009-2.998l-.05-.571c0-.595.159-1.128.488-1.59 1.059-1.48 3.481-1.577 5.404-.218 1.913 1.36 2.619 3.678 1.56 5.159z"/></svg>