<svg version="1.2" baseProfile="tiny" xmlns="http://www.w3.org/2000/svg" width="50" height="50" viewBox="0 0 50 50" overflow="inherit"><path d="M6 47.5c0 1.233.768 2 2 2 1.235 0 2-.767 2-2v-18.5h2v18.5c0 1.231.767 2 2 2s2-.767 2-2v-31.5h1v11.314c0 2.395 3.006 2.395 3 0v-12.153c0-2.646-1.906-4.161-5-4.161h-8c-2.82 0-5 1.219-5 4.087v12.913c0 2 3 2 3 0v-12h1v31.5z"/><circle cx="10.875" cy="5.125" r="4.125"/><circle cx="35.875" cy="5.125" r="4.125"/><path d="M45.913 32.5l-5.909-16.237-.034-.167c0-.237.199-.429.447-.429.211 0 .388.141.435.329l4.017 10.504c.267.601 1.365 1 2.087 1 .965 0 1.065-1.895 1.044-2l-4.017-10.107c-.349-2.321-2.693-4.393-5.368-4.393h-5.235c-2.675 0-5.192 2.072-5.542 4.393l-3.837 10.232c-.087.199 0 1.938 1.044 1.938.811 0 1.89-.314 2.086-1.031l3.875-10.564c.062-.166.229-.292.422-.292.246 0 .445.188.445.424l-.027.151-5.758 16.251c-.012.048 0 1.2 0 1.249 0 .346.836 1.25 1.198 1.25h3.714v12.595c0 1.04.916 1.905 2 1.905s2-.866 2-1.905v-13.105c0-.283 2-.274 2 .009v13c0 1.04.917 2 2 2 1.086 0 2-.961 2-2v-12.5h3.869c.362 0 1.044-.904 1.044-1.25 0-.08.029-1.181 0-1.25z"/></svg>