<svg version="1.2" baseProfile="tiny" xmlns="http://www.w3.org/2000/svg" width="50" height="50" viewBox="0 0 50 50" overflow="inherit"><path d="M34.641 37.807l-.113-.216.057-.081.057-.081c1.051-.434 2.006-.971 2.861-1.604.854-.64 1.426-1.574 1.721-2.809l.215-.988v-25.521c0-.616-.184-1.255-.547-1.905-.363-.661-.816-1.252-1.365-1.777-.543-.52-1.148-.961-1.824-1.311-.676-.344-1.32-.514-1.939-.514h-18.265c-.583 0-1.212.16-1.885.487-.675.328-1.294.747-1.854 1.257-.562.505-1.027 1.08-1.39 1.713-.364.645-.547 1.267-.547 1.89v25.901c0 .436.115.891.327 1.363.22.474.492.917.818 1.331.326.426.685.807 1.067 1.15s.753.627 1.118.844c.176.074.499.188.957.333.448.144.658.251.624.321l-7.476 11.346h4.361l5.457-7.909h15.055l5.451 7.909h4.418l-7.359-11.129zm-14.347-34.628c0-.183.087-.37.273-.575.179-.199.36-.295.545-.295h6.982c.07 0 .221.07.438.213.215.146.324.291.324.436v2.672c0 .183-.092.351-.271.49-.184.15-.35.226-.49.226h-7.035l-.222-.173c-.105-.07-.227-.166-.353-.301-.128-.122-.191-.256-.191-.401v-2.292zm-7.037 7.472c0-.363.086-.719.247-1.066.162-.345.373-.66.627-.955.256-.292.556-.521.898-.704.348-.184.705-.274 1.068-.274h16.963c.322 0 .65.076.977.214.328.146.627.35.902.602.274.252.489.532.655.822.162.284.242.596.242.923v5.783c0 .328-.088.638-.27.95-.182.317-.418.591-.709.827-.295.232-.598.424-.928.564-.326.155-.654.22-.979.22h-16.744l-.276-.049c-.144-.038-.256-.074-.329-.113-.615-.106-1.159-.435-1.633-.982-.474-.546-.711-1.144-.711-1.797v-4.965zm5.049 22.526c-.563.581-1.268.871-2.1.871-.837 0-1.52-.29-2.05-.871-.526-.58-.789-1.294-.789-2.131 0-.763.274-1.424.821-1.986.544-.565 1.217-.851 2.018-.851.832 0 1.536.27 2.1.789.564.533.845 1.226.845 2.105 0 .801-.281 1.494-.845 2.074zm12.489 0c-.562-.58-.848-1.294-.848-2.131 0-.838.299-1.515.9-2.048.602-.52 1.301-.789 2.104-.789.83 0 1.516.285 2.043.851.525.562.793 1.224.793 1.986 0 .837-.275 1.551-.82 2.131-.549.581-1.236.871-2.076.871-.834 0-1.534-.29-2.096-.871z"/></svg>