<svg version="1.2" baseProfile="tiny" xmlns="http://www.w3.org/2000/svg" width="50" height="50" viewBox="0 0 50 50" overflow="inherit"><path d="M46 14h-12v-3.976c0-2.851-1.841-6.024-4.689-6.024h-9.592c-2.851 0-4.719 3.173-4.719 6.024v3.976h-11c-1.1 0-2 .9-2 2v29c0 1.1.9 2 2 2h42c1.1 0 2-.9 2-2v-29c0-1.1-.9-2-2-2zm-16 30h-11v-1.067c0-.023.613-.053.906-.088s.55-.094.761-.176c.375-.141.795-.343.948-.606s.385-.613.385-1.046v-10.23c0-.41-.248-.771-.436-1.081s-.499-.56-.78-.747c-.211-.141-.359-.275-.787-.404s-.997-.212-.997-.247v-1.283l8.175-.457-.175.263v13.957c0 .41.316.759.492 1.046s.542.501.87.642c.234.105.485.199.767.281s.871.14.871.176v1.067zm-9.381-23.761c0-.891.343-1.652 1.028-2.285s1.503-.949 2.452-.949 1.764.316 2.443.949 1.02 1.395 1.02 2.285-.343 1.649-1.028 2.276-1.497.94-2.435.94c-.949 0-1.767-.313-2.452-.94s-1.028-1.385-1.028-2.276zm10.381-6.239h-13v-3.976c0-1.067 1.08-3.024 2.147-3.024h8.052c1.065 0 2.801 1.957 2.801 3.024v3.976z"/></svg>