<svg version="1.2" baseProfile="tiny" xmlns="http://www.w3.org/2000/svg" width="50" height="50" viewBox="0 0 50 50" overflow="inherit"><path d="M17 21h2.682c.804 0 1.318-1.182 1.318-1.98v-8.444c0-.799-.514-.576-1.318-.576h-2.682v11zm0 16h2.682c.804 0 1.318.928 1.318 1.728v8.442c0 .794-.514 1.83-1.318 1.83h-2.682v-12zm-3.54-8c-.023-7.717 1.428-8 2.255-8h.285v-11h-.342c-1.473 0-8.658 2.421-8.658 19.499 0 17.079 7.185 19.501 8.658 19.501h.342v-12h-.285c-.827 0-2.233-.287-2.255-8zm9.736-16.621c.487.583.747 1.32.747 2.079 0 .759-.26 1.496-.747 2.08l1.597 1.314c.781-.952 1.214-2.158 1.214-3.394 0-1.235-.433-2.443-1.214-3.394l-1.597 1.315zm5.134 9.264c1.744-1.91 2.708-4.386 2.708-6.976 0-2.578-.952-5.054-2.697-6.958l-1.553 1.354c1.405 1.53 2.187 3.518 2.187 5.604 0 2.091-.781 4.086-2.21 5.622l1.565 1.354zm3.534 3.791c2.709-2.861 4.205-6.612 4.205-10.551 0-3.927-1.483-7.667-4.17-10.528l-1.53 1.394c2.334 2.477 3.627 5.724 3.627 9.135 0 3.423-1.293 6.675-3.65 9.157l1.518 1.393zm3.548 3.792c3.66-3.82 5.678-8.84 5.678-14.133 0-5.275-2.004-10.28-5.645-14.093l-1.494 1.428c3.274 3.428 5.076 7.927 5.076 12.665 0 4.76-1.813 9.271-5.11 12.697l1.495 1.436z"/></svg>