<svg version="1.2" baseProfile="tiny" xmlns="http://www.w3.org/2000/svg" width="50" height="50" viewBox="0 0 50 50" overflow="inherit"><path d="M29.609 43.438c.344-.058.688-.079 1.043-.079 1.072 0 2.1.244 3.012.668.887.386 1.879.62 2.918.62s2.045-.234 2.932-.62c.908-.424 1.936-.668 3-.668 1.076 0 1.884.244 2.792.668.887.386 1.694.62 2.694.62v4.353c-1 0-1.808-.234-2.694-.636-.908-.406-1.827-.656-2.903-.656-1.064 0-2.036.25-2.944.656-.888.402-1.865.636-2.904.636s-2.018-.234-2.904-.636c-.912-.406-1.933-.656-3.005-.656-1.064 0-2.091.25-3.013.656-.886.402-1.878.636-2.917.636-1.04 0-2.032-.234-2.918-.636-.908-.406-1.933-.656-3.008-.656-1.076 0-2.104.25-3.014.656-.885.402-1.879.636-2.912.636-1.04 0-2.033-.234-2.918-.636-.922-.406-1.951-.656-3.014-.656-1.075 0-2.104.25-3.012.656-.887.402-1.88.636-2.92.636v-4.353c1.04 0 2.033-.234 2.92-.62.908-.424 1.937-.668 3.012-.668 1.063 0 2.091.244 3.014.668.885.386 1.879.62 2.918.62 1.033 0 2.027-.234 2.912-.62.522-.234 1.064-.424 1.631-.527l27.648-4.893c.896-.211 2.115-.831 2.539-1.899.084-.203.377-.261.625-.25.451.026.781.412.781.859 0 .704-.545 2.675-3.566 3.284l-15.825 2.837zm-23.989-34.497c2.209 0 4.006-1.783 4.006-3.977 0-2.193-1.797-3.964-4.006-3.964-2.208 0-3.993 1.771-3.993 3.964 0 2.195 1.785 3.977 3.993 3.977zm11.632 32.094c.202.881 1.277 1.725 2.4 1.725l-.013.012c1.403 0 2.55-1.127 2.55-2.533l-.047-.412-3.046-12.984c-.26-.833-1.053-1.62-1.868-1.949l-4.483-2.674-2.044-8.75 12.598-.023c1.029 0 1.857-.695 1.857-1.717 0-1.02-.828-1.729-1.857-1.729h-18.188c-1.817 0-2.658 1.166-2.444 2.292l2.576 11.539c.202 1.091.921 1.975 1.892 2.457l.058.007 7.498 4.369 2.561 10.37zm8.748-29.035h23v1h-23z"/></svg>