<svg version="1.2" baseProfile="tiny" xmlns="http://www.w3.org/2000/svg" width="50" height="50" viewBox="0 0 50 50" overflow="inherit"><path d="M48 49c-1.006 0-1.971-.23-2.83-.622-.893-.415-1.889-.657-2.92-.657-1.041 0-2.039.242-2.92.657-.859.392-1.834.622-2.829.622-1.009 0-1.981-.23-2.841-.622-.883-.415-1.879-.657-2.92-.657-1.031 0-2.028.242-2.91.657-.858.392-1.832.622-2.84.622-1.008 0-1.97-.23-2.829-.622-.883-.415-1.876-.657-2.918-.657-1.031 0-2.029.242-2.921.657-.859.392-1.82.622-2.823.622-1.008 0-1.97-.23-2.829-.622-.881-.415-1.879-.657-2.92-.657-1.031 0-2.027.242-2.92.657-.86.392-1.822.622-2.83.622v-4.276c1.008 0 1.97-.231 2.829-.625.894-.401 1.889-.644 2.92-.644 1.042 0 2.039.242 2.92.644.859.394 1.821.625 2.829.625 1.003 0 1.964-.231 2.824-.625.892-.401 1.89-.644 2.921-.644 1.042 0 2.035.242 2.918.644.859.394 1.821.625 2.829.625 1.007 0 1.981-.231 2.84-.625.882-.401 1.879-.644 2.91-.644 1.041 0 2.037.242 2.92.644.859.394 1.832.625 2.841.625.995 0 1.97-.231 2.829-.625.881-.401 1.879-.644 2.92-.644 1.031 0 2.027.242 2.92.644.859.394 1.824.625 2.83.625v4.276zm-18.578-8.83c.436-.092.871-.138 1.318-.138 1.041 0 2.037.241 2.92.644.859.394 1.832.624 2.841.624.995 0 1.97-.23 2.829-.624.607-.274 1.26-.495 1.959-.587-.379-11.473-12.268-21.709-12.828-22.239-.584-.531-1.123-1.694-.744-3.067l2.839-9.453c.505-1.465.253-3.424-.445-4.012-.401-.323-1.249-.554-1.823.104l-7.682 8.772c-1.684 1.799-.274 3.724-.308 3.713-2.613-.946-5.681-.312-7.542.46l-6.346 3.241c-.63.265-.904 1.071-.572 1.613 1.054 1.696 4.547 1.707 11.825.911 11.759-1.269 11.771 17.698 11.759 20.038z"/></svg>