<svg version="1.2" baseProfile="tiny" xmlns="http://www.w3.org/2000/svg" width="50" height="50" viewBox="0 0 50 50" overflow="inherit"><path fill="#231F20" d="M16.783 9c2.219 0 4-1.805 4-4 0-2.219-1.781-4-4-4-2.206 0-4 1.782-4 4 0 2.195 1.794 4 4 4zm2.824 36.675c-6.812 0-12.336-5.601-12.336-12.537 0-3.797 1.689-7.185 4.324-9.489l-.219-3.922c-4.412 2.802-7.376 7.731-7.376 13.411 0 8.752 6.983 15.862 15.607 15.862 6.346 0 11.955-4.471 14.393-10l-2.376-3.272c-1.174 5.665-6.09 9.947-12.017 9.947zm24.393-7.675h-2l-8-11c-.433-.761-2-3-4-3h-9v-4h8c1.036 0 2.154-.441 2.154-1.506 0-1.057-1.089-1.494-2.154-1.494h-8v-4c-.147-2.218-2-3-3.99-2.954-2.01.046-3.01.954-3.01 2.954v14c.19 2.246 1.807 3 4 3h12l7 9c.451.746 2 3 2 3h5c1.032 0 2-.938 2-2 0-1.057-.936-2-2-2z"/></svg>