<svg version="1.2" baseProfile="tiny" xmlns="http://www.w3.org/2000/svg" width="50" height="50" viewBox="0 0 50 50" overflow="inherit"><path d="M48 49c-.996 0-1.97-.227-2.83-.609-.883-.406-1.878-.643-2.92-.643-1.031 0-2.027.236-2.91.643-.869.382-1.833.609-2.84.609-1.006 0-1.97-.227-2.831-.609-.883-.406-1.879-.643-2.921-.643-1.03 0-2.026.236-2.915.643-.859.382-1.826.609-2.834.609-1.002 0-1.971-.227-2.829-.609-.889-.406-1.879-.643-2.92-.643-1.037 0-2.027.236-2.915.643-.865.382-1.828.609-2.835.609-1.009 0-1.971-.227-2.834-.609-.881-.406-1.879-.643-2.916-.643-1.042 0-2.034.236-2.915.643-.864.382-1.827.609-2.835.609v-4.18c1.008 0 1.971-.227 2.834-.609.881-.396 1.874-.633 2.915-.633 1.037 0 2.034.236 2.916.633.864.383 1.826.609 2.834.609s1.97-.227 2.834-.609c.888-.396 1.878-.633 2.915-.633 1.042 0 2.032.236 2.92.633.858.383 1.827.609 2.829.609 1.008 0 1.975-.227 2.834-.609.889-.396 1.885-.633 2.915-.633 1.042 0 2.038.236 2.921.633.861.383 1.825.609 2.831.609 1.007 0 1.971-.227 2.84-.609.883-.396 1.879-.633 2.91-.633 1.042 0 2.037.236 2.92.633.86.383 1.834.609 2.83.609v4.18zm-41.063-24.187c1.54 0 2.789-1.228 2.789-2.739 0-1.509-1.249-2.738-2.789-2.738-1.536 0-2.784 1.229-2.784 2.738 0 1.512 1.248 2.739 2.784 2.739zm12.249 12.187h-7.972c-1.173 0-2.192-.563-2.651-1.558l-2.949-6.554c-.057-.225-.086-.419-.086-.657 0-1.588 1.306-2.858 2.916-2.858l6.476-.004 4.444-1.98c.069-.044.251-.087.447-.087.761 0 1.386.621 1.386 1.365 0 .463-.241.88-.596 1.128l-4.833 2.032c-.321.247-.928.173-.928.173h-2.91l2.44 6h5.389c.532 0 .905-.045 1.23.236l5.282 4.826c.738.674.778 1.756.091 2.488-.692.721-1.85.615-2.589-.061l-4.587-4.489zm24.841-8.715c.102.17.352.236.584.236.443 0 .812-.361.812-.811 0-.215-.105-.406-.207-.588-4.982-9.353-18.432-6.57-20.081-5.961-.274.102-.435.406-.435.711 0 .438.366.8.812.8.138 0 .206-.012.326-.045 13.193-2.919 17.489 4.475 18.189 5.658zm2.291.846l-16.87 10.469-15.359-38.6c13.744 1.792 31.219 12.296 32.229 28.131z" fill="#231F20"/></svg>