<?xml version="1.0" standalone="no"?>
<!DOCTYPE svg PUBLIC "-//W3C//DTD SVG 1.1//EN" "http://www.w3.org/Graphics/SVG/1.1/DTD/svg11.dtd" >
<svg xmlns="http://www.w3.org/2000/svg">
<metadata>
This is a custom SVG font generated by IcoMoon.
<iconset grid="16"></iconset>
</metadata>
<defs>
<font id="map-icons" horiz-adv-x="512" >
<font-face units-per-em="512" ascent="480" descent="-32" />
<missing-glyph horiz-adv-x="512" />
<glyph class="hidden" unicode="&#xf000;" d="M0,480L 512 -32L0 -32 z" horiz-adv-x="0" />
<glyph unicode="&#xe000;" d="M 354.724,92.856c0,0.348-0.399,1.065-1.157,2.212c0,0.328, 0.215,0.625, 0.584,0.829c 0.358,0.215, 0.584,0.44, 0.584,0.829
		c 10.762,4.444, 20.541,9.943, 29.297,16.425c 8.745,6.554, 14.602,16.118, 17.623,28.764c 0.317,1.495, 1.116,4.905, 2.202,10.117L 403.855,413.368 
		c0,6.308-1.884,12.851-5.601,19.507c-3.717,6.769-8.356,12.82-13.978,18.196c-5.56,5.325-11.756,9.841-18.678,13.425
		C 358.676,468.019, 352.082,469.76, 345.743,469.76L 158.71,469.76 c-5.97,0-12.411-1.638-19.302-4.987c-6.912-3.359-13.251-7.649-18.985-12.872
		c-5.755-5.171-10.516-11.059-14.234-17.541c-3.727-6.605-5.601-12.974-5.601-19.354l0-265.226 c0-4.465, 1.178-9.124, 3.348-13.957
		c 2.253-4.854, 5.038-9.39, 8.376-13.629c 3.338-4.362, 7.014-8.264, 10.926-11.776s 7.711-6.42, 11.448-8.643
		c 1.802-0.758, 5.11-1.925, 9.8-3.41c 4.588-1.475, 6.738-2.57, 6.39-3.287L 74.322-21.105l 44.657,0 l 55.88,80.988l 154.163,0 l 55.818-80.988L 430.080-21.105 
		L 354.724,92.856z M 207.811,447.447c0,1.874, 0.891,3.789, 2.796,5.888c 1.833,2.038, 3.686,3.021, 5.581,3.021l 71.496,0 
		c 0.717,0, 2.263-0.717, 4.485-2.181c 2.202-1.495, 3.318-2.98, 3.318-4.465l0-27.361 c0-1.874-0.942-3.594-2.775-5.018
		c-1.884-1.536-3.584-2.314-5.018-2.314l-72.038,0 c-1.167,0.778-1.874,1.331-2.273,1.772c-1.075,0.717-2.324,1.7-3.615,3.082
		c-1.311,1.249-1.956,2.621-1.956,4.106L 207.811,447.447 z M 135.752,370.934c0,3.717, 0.881,7.363, 2.529,10.916c 1.659,3.533, 3.82,6.758, 6.42,9.779
		c 2.621,2.99, 5.693,5.335, 9.196,7.209c 3.564,1.884, 7.219,2.806, 10.936,2.806l 173.701,0 c 3.297,0, 6.656-0.778, 10.004-2.191
		c 3.359-1.495, 6.42-3.584, 9.236-6.164C 360.581,390.707, 362.783,387.84, 364.483,384.87c 1.659-2.908, 2.478-6.103, 2.478-9.452l0-59.218 
		c0-3.359-0.901-6.533-2.765-9.728c-1.864-3.246-4.28-6.052-7.26-8.468c-3.021-2.376-6.124-4.342-9.503-5.775
		c-3.338-1.587-6.697-2.253-10.025-2.253L 165.949,289.976 c-0.41,0-1.341,0.174-2.826,0.502c-1.475,0.389-2.621,0.758-3.369,1.157
		c-6.298,1.085-11.868,4.454-16.722,10.056c-4.854,5.591-7.281,11.715-7.281,18.401L 135.752,370.934 z M 187.453,140.268
		c-5.765-5.949-12.984-8.919-21.504-8.919c-8.571,0-15.565,2.97-20.992,8.919c-5.386,5.939-8.079,13.251-8.079,21.821
		c0,7.813, 2.806,14.582, 8.407,20.337c 5.571,5.786, 12.462,8.714, 20.664,8.714c 8.52,0, 15.729-2.765, 21.504-8.079
		c 5.775-5.458, 8.653-12.554, 8.653-21.555C 196.106,153.303, 193.229,146.207, 187.453,140.268z M 315.341,140.268
		c-5.755,5.939-8.684,13.251-8.684,21.821c0,8.581, 3.062,15.514, 9.216,20.972c 6.164,5.325, 13.322,8.079, 21.545,8.079
		c 8.499,0, 15.524-2.918, 20.92-8.714c 5.376-5.755, 8.12-12.534, 8.12-20.337c0-8.571-2.816-15.882-8.397-21.821
		c-5.622-5.949-12.657-8.919-21.258-8.919C 328.264,131.348, 321.096,134.318, 315.341,140.268z"  />
<glyph unicode="&#xe001;" d="M 450.109,251.105l-43.469,103.598c-6.38,15.145-21.391,25.897-38.943,25.897l-76.534,0 c-0.154,10.465-0.737,49.203, 0.061,67.021
	c 0.809,17.439-69.806,17.469-69.806,0c-0.031-15.37,0-56.177,0-67.021l-76.8,0 c-17.469,0-32.512-10.752-38.676-25.897L 62.351,251.105
	c-24.207-6.748-42.127-29.041-42.127-55.665l0-121.795 l 37.724,0 l0-37.571 C 57.948,15.534, 74.486-1.28, 94.976-1.28c 20.593,0, 37.212,16.814, 37.212,37.356l0,37.571 
	l 248.074,0 l0-37.571 c0-20.552, 16.548-37.356, 37.1-37.356c 20.644,0, 37.181,16.814, 37.181,37.356l0,37.571 l 37.868,0 L 492.411,195.441 
	C 492.421,222.065, 474.593,244.357, 450.109,251.105z M 94.116,150.231c-17.080,0-31.13,13.865-31.13,31.171c0,17.162, 14.049,31.16, 31.13,31.16
	c 17.234,0, 31.099-13.998, 31.099-31.16C 125.215,164.096, 111.35,150.231, 94.116,150.231z M 99.84,253.225l 37.304,89.272
	c 1.587,4.628, 5.929,7.936, 10.967,7.936l 216.156,0 c 5.13,0, 9.421-3.308, 11.182-7.936l 37.13-89.272L 99.84,253.225 z M 415.836,150.231
	c-17.080,0-31.13,13.865-31.13,31.171c0,17.162, 14.049,31.16, 31.13,31.16c 17.336,0, 31.222-13.998, 31.222-31.16
	C 447.058,164.096, 433.183,150.231, 415.836,150.231z"  />
<glyph unicode="&#xe002;" d="M 327.107,46.479c0,0.236-0.246,0.727-0.788,1.526c0,0.225, 0.133,0.42, 0.41,0.594c 0.225,0.123, 0.379,0.266, 0.379,0.563
			c 7.465,3.082, 14.234,6.861, 20.275,11.356c 6.052,4.526, 10.097,11.151, 12.186,19.907c 0.236,1.014, 0.778,3.369, 1.495,6.984L 361.062,268.227 
			c0,4.362-1.26,8.888-3.85,13.496c-2.57,4.68-5.765,8.868-9.687,12.585c-3.83,3.686-8.12,6.82-12.902,9.288
			c-4.772,2.437-9.349,3.645-13.742,3.645L 191.498,307.241 c-4.127,0-8.571-1.137-13.353-3.451s-9.175-5.294-13.138-8.909
			c-3.983-3.584-7.27-7.639-9.851-12.134c-2.56-4.567-3.881-8.97-3.881-13.394l0-183.501 c0-3.072, 0.819-6.308, 2.324-9.626
			c 1.556-3.379, 3.471-6.523, 5.786-9.441c 2.324-3.021, 4.854-5.734, 7.567-8.161c 2.703-2.447, 5.325-4.444, 7.916-5.97
			c 1.26-0.522, 3.512-1.341, 6.758-2.355c 3.195-1.024, 4.68-1.792, 4.434-2.284l-52.931-80.374l 30.884,0 l 38.656,56.033l 106.67,0 l 38.615-56.033l 31.273,0 
			L 327.107,46.479z M 225.495,291.799c0,1.29, 0.604,2.611, 1.925,4.065c 1.28,1.423, 2.56,2.099, 3.871,2.099l 49.459,0 
			c 0.502,0, 1.546-0.492, 3.103-1.516c 1.495-1.034, 2.314-2.058, 2.314-3.082l0-18.934 c0-1.3-0.666-2.488-1.935-3.461
			c-1.29-1.065-2.458-1.608-3.471-1.608l-49.828,0 c-0.84,0.532-1.29,0.922-1.577,1.229c-0.758,0.492-1.608,1.167-2.509,2.13
			c-0.911,0.87-1.331,1.812-1.331,2.836L 225.516,291.799 z M 175.636,238.858c0,2.57, 0.584,5.1, 1.731,7.567c 1.157,2.447, 2.642,4.669, 4.444,6.758
			c 1.833,2.068, 3.953,3.697, 6.38,4.997c 2.447,1.29, 4.977,1.935, 7.557,1.935l 120.156,0 c 2.314,0, 4.608-0.543, 6.943-1.516
			c 2.324-1.044, 4.444-2.488, 6.39-4.27c 1.925-1.782, 3.451-3.758, 4.649-5.816c 1.137-2.007, 1.71-4.229, 1.71-6.543l0-40.96 
			c0-2.345-0.645-4.516-1.925-6.717c-1.28-2.263-2.959-4.198-5.038-5.868c-2.079-1.638-4.229-3-6.554-4.004
			c-2.324-1.085-4.649-1.556-6.932-1.556L 196.516,182.866 c-0.287,0-0.932,0.133-1.946,0.338c-1.024,0.276-1.823,0.553-2.345,0.809
			c-4.362,0.758-8.212,3.082-11.581,6.953c-3.348,3.891-5.018,8.1-5.018,12.749L 175.626,238.858 z M 211.384,79.278
			c-3.983-4.116-8.97-6.175-14.868-6.175c-5.919,0-10.762,2.048-14.51,6.175c-3.738,4.106-5.601,9.175-5.601,15.094
			c0,5.407, 1.946,10.086, 5.806,14.070c 3.86,4.014, 8.632,6.021, 14.305,6.021c 5.898,0, 10.875-1.905, 14.868-5.581
			c 3.994-3.779, 5.99-8.684, 5.99-14.92C 217.385,88.289, 215.378,83.395, 211.384,79.278z M 299.848,79.278
			c-3.973,4.106-5.98,9.175-5.98,15.094c0,5.939, 2.109,10.732, 6.369,14.51c 4.28,3.676, 9.216,5.581, 14.92,5.581
			c 5.868,0, 10.721-2.007, 14.438-6.021c 3.748-3.983, 5.632-8.663, 5.632-14.070c0-5.919-1.925-10.977-5.806-15.094
			c-3.86-4.116-8.745-6.175-14.694-6.175C 308.808,73.114, 303.872,75.162, 299.848,79.278zM 256.184,423.639c 109.978,0, 199.137-89.16, 199.137-199.148l0-256.717 L 512-32.225 l-0.154,256.717C 511.846,365.609, 397.312,480, 256.184,480
		C 115.067,480, 0.522,365.609, 0.522,224.492L 0.379-32.358l 56.668,0.143l0,256.717 C 57.047,334.49, 146.217,423.639, 256.184,423.639z"  />
<glyph unicode="&#xe003;" d="M 93.235,43.991l0-27.822 C 93.235,0.942, 80.957-11.52, 65.679-11.52c-15.196,0-27.464,12.462-27.464,27.689l0,27.822 L 10.24,43.991 L 10.24,134.298 l0,0
			c0,19.712, 13.302,36.239, 31.273,41.236l 32.276,76.79c 4.588,11.223, 15.739,19.19, 28.682,19.19l 165.366,0 c 13.005,0, 24.095-7.967, 28.815-19.19
			l 32.225-76.79c 18.135-4.997, 31.396-21.535, 31.396-41.236l0,0l0-90.307 l-28.109,0 l0-27.822 c0-15.227-12.247-27.689-27.535-27.689
			c-15.268,0-27.515,12.462-27.515,27.689l0,27.822 L 93.235,43.991 z M 65.044,100.782c 12.769,0, 23.050,10.26, 23.050,23.101c0,12.718-10.281,23.091-23.050,23.091
			c-12.657,0-23.091-10.373-23.091-23.091C 41.943,111.043, 52.378,100.782, 65.044,100.782z M 326.625,123.884c0,12.718-10.322,23.091-23.132,23.091
			c-12.667,0-23.101-10.373-23.101-23.091c0-12.841, 10.435-23.101, 23.101-23.101C 316.314,100.782, 326.625,111.043, 326.625,123.884z M 301.036,177.111
			l-27.464,66.15c-1.321,3.441-4.485,5.888-8.305,5.888L 105.052,249.149 c-3.727,0-6.953-2.447-8.131-5.888l-27.658-66.15L 301.036,177.111 zM 219.484,400.241l-27.167-34.918l-55.951,0 c 7.178-14.244, 30.679-38.779, 63.498-32.358c 9.728,0.655, 34.632,8.212, 48.22,4.997
		c 18.104-4.342, 18.483-5.939, 50.944-31.99l 159.273-130.58c 9.912-8.755, 25.098-7.823, 33.884,2.068c 8.765,9.912, 7.834,25.016-2.079,33.782
		L 289.3,374.661C 276.48,384.952, 265.144,403.917, 260.721,420.332c-8.591,28.211-34.714,49.070-65.761,49.070c-25.006,0-48.691-14.438-58.604-33.393
		l 55.101-0.102L 219.484,400.241zM-163.84,469.76L-163.84,469.76L-163.84,469.76L-163.84,469.76z"  />
<glyph unicode="&#xe004;" d="M 171.162,52.244l0-29.225 c0-15.073-14.694-27.392-29.819-27.392c-15.043,0-29.716,12.319-29.716,27.392l0,29.225 L 87.818,52.244 l0,87.695 l0,0
				c0,19.507, 11.602,35.881, 29.399,40.837l 31.171,77.343c 4.547,11.121, 14.797,20.347, 27.617,20.347l 163.676,0 c 12.882,0, 23.849-9.226, 28.539-20.347
				l 32.85-76.677c 17.951-4.956, 32.041-21.996, 32.041-41.513l0,0l0-87.695 l-23.798,0 l0-29.225 c0-15.073-14.653-27.392-29.788-27.392
				c-15.114,0-29.747,12.319-29.747,27.392l0,29.225 L 171.162,52.234 z M 138.957,106.783c 12.636,0, 22.815,10.158, 22.815,22.856
				c0,12.585-10.179,22.845-22.815,22.845c-12.534,0-22.866-10.271-22.866-22.845C 116.091,116.941, 126.423,106.783, 138.957,106.783z M 397.885,129.638
				c0,12.585-10.22,22.845-22.897,22.845c-12.554,0-22.856-10.271-22.856-22.845c0-12.698, 10.312-22.856, 22.856-22.856
				C 387.666,106.783, 397.885,116.941, 397.885,129.638z M 372.562,183.224l-27.187,65.556c-1.3,3.41-4.444,5.888-8.212,5.888L 178.555,254.669 
				c-3.686,0-6.881-2.478-8.049-5.888l-27.372-65.556L 372.562,183.224 zM 512-19.2L 488.182-19.2L 488.182,385.638L 23.818,385.638L 23.818-19.2L0-19.2L0,409.457L 512,409.457 		zM 65.495,454.103L 446.515,454.103L 446.515,340.982L 65.495,340.982zM-163.84,469.76L-163.84,469.76L-163.84,469.76L-163.84,469.76z"  />
<glyph unicode="&#xe005;" d="M 212.132,234.24L 32.348,234.24 c-5.243,0-9.554,3.215-9.554,8.346c0,0.85, 0.154,1.178, 0.328,1.946l 9.574,61.501
		C 33.495,310.374, 37.396,305.92, 42.086,305.92l 160.328,0 c 4.649,0, 8.581,4.219, 9.37-0.123l 9.585-65.526c 0.154-0.788, 0.338,1.27, 0.338,0.389
		C 221.706,235.571, 217.364,234.24, 212.132,234.24z M 204.933,156.733c-10.107,0-18.34,7.997-18.34,17.92c0,9.871, 8.223,17.818, 18.34,17.818
		c 10.056,0, 18.278-7.946, 18.278-17.818C 223.212,164.731, 214.999,156.733, 204.933,156.733z M 39.281,156.733c-10.025,0-18.248,7.997-18.248,17.92
		c0,9.871, 8.212,17.818, 18.248,17.818c 10.168,0, 18.371-7.946, 18.371-17.818C 57.651,164.731, 49.449,156.733, 39.281,156.733z M 61.44,357.12l 112.64,0 l0-30.72 L 61.44,326.4 
		C 51.2,326.4, 51.2,357.12, 61.44,357.12z M 232.428,329.441c-3.267,15.79-14.459,22.139-30.095,28.498c-15.606,6.339-52.562,13.926-79.749,13.926
		c-27.3,0-64.051-7.598-79.657-13.926c-15.616-6.359-26.982-12.708-30.249-28.498L0,241.521L0,121.6 l 18.278,0 l0,0c0-51.2, 34.417-51.2, 34.417,0l0,0l 137.636,0 l0,0
		c0-51.2, 34.406-51.2, 34.406,0l0,0L 245.76,121.6 L 245.76,241.521 L 232.428,329.441zM 463.718,136.479c0,0.236-0.236,0.676-0.727,1.434c0,0.215, 0.123,0.379, 0.369,0.532c 0.215,0.143, 0.358,0.276, 0.358,0.522
		c 6.892,2.867, 13.179,6.38, 18.78,10.516c 5.591,4.198, 9.349,10.322, 11.295,18.442c 0.205,0.942, 0.717,3.133, 1.413,6.482L 495.206,341.832 
		c0,4.035-1.208,8.223-3.594,12.493c-2.365,4.342-5.356,8.212-8.95,11.653c-3.584,3.42-7.537,6.308-11.971,8.602
		c-4.424,2.253-8.663,3.379-12.718,3.379L 338.145,377.958 c-3.83,0-7.956-1.065-12.36-3.195c-4.444-2.15-8.509-4.905-12.186-8.243
		c-3.676-3.308-6.728-7.086-9.114-11.233c-2.376-4.229-3.604-8.315-3.604-12.401l0-169.923 c0-2.857, 0.748-5.837, 2.15-8.94
		c 1.454-3.113, 3.236-6.031, 5.376-8.745c 2.14-2.785, 4.485-5.294, 6.994-7.557c 2.509-2.253, 4.936-4.106, 7.322-5.519
		c 1.167-0.502, 3.287-1.249, 6.287-2.181c 2.939-0.952, 4.311-1.659, 4.096-2.109l-49.039-74.445l 28.611,0 l 35.809,51.886l 98.775,0 l 35.758-51.886L 512,63.468 
		L 463.718,136.479z M 369.603,363.653c0,1.198, 0.584,2.427, 1.802,3.779c 1.167,1.3, 2.355,1.935, 3.584,1.935l 45.814,0 
		c 0.471,0, 1.444-0.471, 2.857-1.413c 1.423-0.952, 2.15-1.915, 2.15-2.867l0-17.531 c0-1.198-0.625-2.294-1.792-3.205
		c-1.198-0.993-2.304-1.485-3.215-1.485l-46.152,0 c-0.768,0.492-1.198,0.85-1.464,1.126c-0.696,0.461-1.495,1.085-2.314,1.976
		c-0.85,0.799-1.27,1.679-1.27,2.621L 369.603,363.653 z M 323.43,314.644c0,2.376, 0.573,4.721, 1.628,7.004
		c 1.065,2.253, 2.437,4.321, 4.106,6.267c 1.69,1.915, 3.625,3.42, 5.898,4.618c 2.284,1.198, 4.628,1.792, 7.004,1.792l 111.278,0 
		c 2.12,0, 4.26-0.492, 6.431-1.403c 2.14-0.952, 4.096-2.294, 5.919-3.942c 1.782-1.659, 3.195-3.492, 4.28-5.396
		c 1.065-1.864, 1.587-3.912, 1.587-6.062l0-37.939 c0-2.15-0.594-4.188-1.772-6.236c-1.198-2.068-2.755-3.871-4.649-5.417
		c-1.925-1.505-3.932-2.775-6.093-3.707c-2.14-1.024-4.28-1.444-6.41-1.444L 342.794,262.779 c-0.256,0-0.86,0.113-1.812,0.328
		c-0.942,0.246-1.69,0.481-2.171,0.748c-4.024,0.686-7.608,2.847-10.701,6.441c-3.113,3.584-4.68,7.496-4.68,11.786L 323.43,314.644 z
		 M 356.557,166.871c-3.697-3.83-8.315-5.724-13.773-5.724c-5.499,0-9.994,1.894-13.455,5.724c-3.451,3.799-5.171,8.479-5.171,13.967
		c0,5.007, 1.792,9.329, 5.376,13.036c 3.584,3.686, 7.977,5.581, 13.251,5.581c 5.448,0, 10.066-1.772, 13.773-5.181
		c 3.697-3.492, 5.54-8.049, 5.54-13.834C 362.097,175.196, 360.264,170.67, 356.557,166.871z M 438.487,166.871
		c-3.686,3.799-5.56,8.479-5.56,13.967c0,5.499, 1.966,9.953, 5.908,13.435c 3.953,3.41, 8.54,5.181, 13.814,5.181
		c 5.427,0, 9.933-1.894, 13.384-5.581c 3.471-3.707, 5.212-8.028, 5.212-13.036c0-5.489-1.812-10.168-5.376-13.967
		c-3.594-3.83-8.090-5.724-13.599-5.724C 446.781,161.147, 442.184,163.041, 438.487,166.871zM-163.84,469.76L-163.84,469.76L-163.84,469.76L-163.84,469.76z"  />
<glyph unicode="&#xe006;" d="M 226.171,445.972c 0.154,36.741, 55.634,36.741, 55.634-1.096l0-154.46 l 216.187-130.038l0-57.088 l-215.214,70.84l0-115.415 l 49.797-39.014l0-45.076 
		l-76.831,23.88l-76.769-23.88l0,45.076 l 49.275,39.014L 228.25,174.121 L 12.974,103.281l0,57.088 l 213.197,130.038L 226.171,445.972 z"  />
<glyph unicode="&#xe007;" d="M 464.189,376.781c 5.622,5.622, 12.36,11.735, 20.439,19.108L 491.52,402.145l-20.654,22.835L 464.077,418.765c-28.119-25.549-45.117-40.991-53.381-72.643
	c-8.202-31.468-8.561-63.324-7.7-93.102c 0.901-30.7, 2.038-50.954, 10.619-73.544l 3.226-8.325c 8.233-20.716, 20.685-52.009, 20.685-92.262
	c0-48.63-19.702-73.298-58.552-73.298c-35.348,0-54.415,23.593-56.648,70.205c-1.014,20.654, 4.782,46.152, 10.875,73.093
	c 5.151,22.743, 10.455,46.275, 13.066,71.25c 2.888,27.535-0.727,45.875-11.305,57.692c-13.578,15.155-34.478,15.155-52.89,15.155l-4.608,0 L 277.463,437.617 
	c0,12.288-9.912,22.231-22.129,22.231L 43.981,459.848 c-12.206,0-22.108-9.943-22.108-22.231l0-453.97 l 255.59,0 L 277.463,262.144 l 4.618,0 c 12.595,0, 25.641,0, 30.075-4.956
	c 2.376-2.662, 6.021-10.578, 3.615-33.833c-2.427-23.183-7.567-45.763-12.524-67.604c-6.564-29.071-12.79-56.545-11.561-81.469
	c 3.021-63.273, 34.857-99.553, 87.286-99.553c 55.88,0, 89.242,38.943, 89.242,104.172c0,46.172-14.285,82.166-22.856,103.721l-3.092,7.864
	c-6.164,16.271-7.547,31.365-8.397,57.672c 9.861,0.225, 21.801,0.461, 27.167,0.461c 12.278,0, 20.797,7.209, 23.429,19.671
	c 1.536,7.27, 1.505,16.804, 1.505,34.109l0,4.588 C 485.99,352.748, 476.641,365.814, 464.189,376.781z M 245.617,290.13L 53.75,290.13 L 53.75,416.461 l 191.877,0 L 245.627,290.13 z
	 M 455.291,302.377c0-8.94,0-17.49-0.297-22.927c-6.124-0.092-14.356-0.256-21.535-0.42c 0.266,19.753, 1.874,39.864, 6.922,59.228
	c 1.372,5.161, 3.031,9.708, 5.1,13.947c 5.458-5.253, 9.81-13.128, 9.81-45.23L 455.291,302.377 z"  />
<glyph unicode="&#xe008;" d="M 147.548,26.327l0-29.358 c0-16.046-12.769-29.194-28.662-29.194c-15.8,0-28.58,13.138-28.58,29.194l0,29.358 L 61.235,26.327 l0,95.252 l0,0
			c0,20.797, 13.834,38.195, 32.512,43.489l 33.567,80.978c 4.782,11.837, 16.374,20.244, 29.829,20.244l 171.981,0 c 13.517,0, 25.037-8.407, 29.983-20.244
			l 33.495-80.978c 18.862-5.294, 32.655-22.692, 32.655-43.489l0,0l0-95.252 l-29.235,0 l0-29.358 c0-16.046-12.728-29.194-28.641-29.194
			c-15.862,0-28.611,13.138-28.611,29.194l0,29.358 L 147.548,26.327 z M 118.221,86.231c 13.281,0, 23.972,10.834, 23.972,24.361c0,13.425-10.691,24.371-23.972,24.371
			c-13.169,0-24.023-10.947-24.023-24.371C 94.198,97.065, 105.052,86.231, 118.221,86.231z M 390.287,110.592c0,13.425-10.762,24.371-24.074,24.371
			c-13.199,0-24.044-10.947-24.044-24.371c0-13.527, 10.844-24.361, 24.044-24.361C 379.525,86.231, 390.287,97.065, 390.287,110.592z M 363.663,166.728
			l-28.549,69.765c-1.393,3.625-4.669,6.205-8.643,6.205L 159.826,242.698 c-3.871,0-7.219-2.58-8.448-6.205l-28.764-69.765L 363.663,166.728 zM 395.356,443.607L 395.356,444.119 L 205.588,444.119 C 190.198,464.548, 164.977,480, 136.448,480C 89.58,480, 51.589,442.112, 51.589,395.244c0-46.879, 37.99-85.432, 84.859-85.432
		c 35.645,0, 66.14,21.924, 78.725,52.562l 28.211,0 l 20.449,20.46l 20.439-20.46l 12.749,0 l 20.439,20.46l 20.449-20.46l 12.739,0 l 20.449,20.46l 20.449-20.46
		l 3.809,0 l0,2.109 l 0.215-0.42l 39.352,39.547L 395.356,443.607z M 108.984,371.354c-13.558,0-24.566,11.008-24.566,24.586s 11.008,24.576, 24.566,24.576
		c 13.578,0, 24.586-10.998, 24.586-24.576S 122.563,371.354, 108.984,371.354z"  />
<glyph unicode="&#xe009;" d="M 439.542,348.099l-49.367,0 L 390.175,400.394 C 390.175,438.651, 358.932,469.76, 320.573,469.76L 191.437,469.76 c-38.38,0-69.601-31.109-69.601-69.366l0-52.296 L 72.448,348.099 
		C 38.083,348.099, 10.24,320.348, 10.24,286.085l0-235.592 C 10.24,16.241, 38.083-11.52, 72.448-11.52l 367.094,0 C 473.897-11.52, 501.76,16.241, 501.76,50.504L 501.76,286.085 
		C 501.76,320.348, 473.897,348.099, 439.542,348.099z M 165.376,400.394c0,14.316, 11.694,25.969, 26.061,25.969l 129.137,0 c 14.326,0, 26.030-11.643, 26.030-25.969
		l0-52.296 L 165.376,348.099 L 165.376,400.394 L 165.376,400.394z M 362.26,130.744c0-0.717-1.198-1.321-2.662-1.321L 295.014,129.423 l0-64.358 c0-1.485-0.594-2.683-1.341-2.683
		l-75.346,0 c-0.727,0-1.331,1.198-1.331,2.683l0,64.358 l-64.584,0 c-1.485,0-2.683,0.604-2.683,1.362l0,75.039 c0,0.748, 1.198,1.352, 2.683,1.352
		l 64.584,0 l0,64.338 c0,1.485, 0.604,2.683, 1.331,2.683l 75.346,0 c 0.737,0, 1.331-1.198, 1.331-2.683l0-64.338 l 64.604,0 c 1.464,0, 2.662-0.604, 2.662-1.352
		L 362.271,130.744 L 362.26,130.744z"  />
<glyph unicode="&#xe00a;" d="M 174.070-21.76L 337.94-21.76L 337.746,141.978L 501.76,141.978L 501.76,306.022L 337.746,306.022L 337.94,469.76L 174.070,469.76L 174.316,306.022L 10.24,306.022L 10.24,141.978L 174.316,141.978 z"  />
<glyph unicode="&#xe00b;" d="M 254.433,200.776c 36.321,0, 53.156-27.546, 56.689-66.683c 0.829-9.359-0.010-23.009-1.229-38.82C 305.818,42.762, 301.128-21.76, 336.077-21.76
	c 29.594,0, 44.759,56.73, 53.545,121.405c 8.458,64.020-0.522,95.877, 3.912,124.314c 8.407,53.862, 55.419,102.154, 40.899,170.834
	c-8.049,38.103-29.041,56.013-49.807,63.56c-47.862,17.418-78.787-16.148-130.191-16.148c-51.395,0-82.299,33.567-130.181,16.148
	c-20.756-7.537-41.759-25.457-49.828-63.56c-14.49-68.68, 32.512-116.961, 40.95-170.834c 4.393-28.426-4.536-60.293, 3.912-124.314
	C 128.051,34.97, 143.247-21.76, 172.81-21.76c 34.929,0, 30.269,64.522, 26.194,117.033c-1.188,15.821-2.089,29.471-1.239,38.83
	C 201.288,173.23, 218.368,200.776, 254.433,200.776z"  />
<glyph unicode="&#xe00c;" d="M 368.558,469.76L 368.558,302.531L 143.473,302.531L 143.473,469.76L 30.72,469.76L 30.72-21.76L 143.473-21.76L 143.473,161.69L 368.558,161.69L 368.558-21.76L 481.321-21.76L 481.321,469.76 z"  />
<glyph unicode="&#xe00d;" d="M 402.964,310.231L 106.496,310.231 c-52.941,0-96.256-40.714-96.256-90.47s 43.315-90.481, 96.256-90.481l 296.468,0 c 52.92,0, 96.236,40.724, 96.236,90.481
	S 455.885,310.231, 402.964,310.231z M 402.995,152.381L 252.805,152.381 L 252.805,287.13 l 150.2,0 c 39.035,0, 71.004-30.669, 71.004-67.369
	C 473.999,183.050, 442.040,152.381, 402.995,152.381z"  />
<glyph unicode="&#xe00e;" d="M 359.434,372.951c 19.241,0, 34.806,16.005, 34.806,35.789c0,19.661-15.575,35.676-34.806,35.676c-19.098,0-34.683-16.005-34.683-35.676
		C 324.751,388.956, 340.326,372.951, 359.434,372.951zM 385.3,364.943l-50.698,0 l-86.405,88.893c-6.748,7.301-17.961,7.649-25.068,0.594c-7.096-6.943-7.444-18.483-0.676-25.784
		l 90.296-93.010l0-308.244 c0-11.182, 8.704-20.122, 19.456-20.122c 10.875,0, 19.569,8.94, 19.569,20.122L 351.775,194.58 l 15.79,0 l 0.123-167.199
		c0-11.182, 8.806-20.122, 19.558-20.122c 10.783,0, 19.466,8.94, 19.466,20.122L 406.6,335.616l 90.307,93.010c 6.748,7.301, 6.4,18.842-0.696,25.784
		c-7.086,7.055-18.309,6.717-25.068-0.594L 385.3,364.943zM 201.605,228.956c-5.263,5.54-12.483,8.827-20.48,8.827l-72.694,0 c-8.008,0-15.217-3.297-20.367-8.827l-72.919-75.008
		c-6.748-7.301-6.513-18.831, 0.584-25.784c 7.086-6.943, 18.432-6.707, 25.068,0.594l 56.535,58.163l0-77.701 L 33.925,109.22 
		c-11.663,0-21.074-9.646-21.074-21.668c0-6.236, 2.294-11.776, 6.42-15.78l 71.414-73.462c 6.298-9.544, 18.657-12.605, 28.508-6.707
		c 10.404,6.113, 13.855,19.651, 7.895,30.239l-40.745,41.81l 0.799-0.113l 116.972,0 l-40.858-41.8c-5.837-10.598-2.406-24.136, 7.885-30.249
		c 9.851-5.898, 22.333-2.847, 28.631,6.697l 71.414,73.462c 4.106,4.014, 6.41,9.554, 6.41,15.78c0,12.022-9.39,21.658-21.053,21.658l-63.304,0 
		l0,76.892 l 55.511-57.334c 6.758-7.311, 17.961-7.547, 25.057-0.594c 7.096,6.943, 7.342,18.483, 0.584,25.774L 201.605,228.956zM 145.531,245.443c 19.108,0, 34.56,15.995, 34.56,35.676c0,19.784-15.452,35.676-34.56,35.676c-19.128,0-34.703-15.892-34.703-35.676
		C 110.828,261.437, 126.413,245.443, 145.531,245.443z"  />
<glyph unicode="&#xe00f;" d="M 189.235,286.72c 23.859,4.055, 41.554,25.784, 44.247,51.743c 2.734,26.399, 8.899,132.485-30.925,125.737
		C 99.256,446.679, 106.506,272.691, 189.235,286.72zM 325.151,286.72c 82.708-14.029, 89.958,159.959-13.343,177.49c-39.813,6.748-33.659-99.338-30.935-125.737
		C 283.576,312.504, 301.292,290.775, 325.151,286.72zM 146.801,204.749c0,13.804-4.925,26.317-12.861,35.42c-13.056,17.060-54.559,51.558-64.748,42.721C 47.923,264.397, 48.609,218.88, 61.42,185.805
		c 6.584-18.391, 22.487-31.324, 41.073-31.324C 126.956,154.481, 146.801,176.988, 146.801,204.749zM 445.164,282.89c-10.168,8.837-51.671-25.661-64.727-42.721c-7.936-9.103-12.872-21.617-12.872-35.42
		c0-27.761, 19.866-50.268, 44.308-50.268c 18.596,0, 34.509,12.933, 41.093,31.324C 465.746,218.88, 466.452,264.397, 445.164,282.89zM 361.851,126.454c-37.642,18.77-36.475,54.917-45.036,87.9c-6.81,26.307-30.925,45.763-59.628,45.763
		c-28.088,0-51.784-18.647-59.177-44.155c-9.165-31.56-3.645-68.301-44.677-89.262c-33.331-10.865-46.828-26.716-46.828-64.205
		c0-30.454, 26.143-63.058, 59.884-67.113c 37.642-5.673, 67.011,1.741, 90.798,15.299c 23.788-13.558, 53.135-20.961, 90.839-15.299
		c 33.72,4.055, 59.873,36.536, 59.873,67.113C 407.89,100.803, 395.254,115.077, 361.851,126.454z M 317.44,80.64l-39.025,0 l 0.051-40.96l-42.557,0 l 0.061,40.96L 194.56,80.64 l0,40.96 
		l 41.421,0 l-0.061,40.96l 42.557,0 l-0.051-40.96L 317.44,121.6 L 317.44,80.64 z"  />
<glyph unicode="&#xe010;" d="M 317.44,223.98c-33.884,0-61.399-27.494-61.399-61.42c0-33.956, 27.525-61.44, 61.399-61.44c 33.894,0, 61.42,27.484, 61.42,61.44
		C 378.86,196.475, 351.334,223.98, 317.44,223.98zM 440.33,346.911L 389.734,448.973C 385.649,461.076, 374.19,469.76, 360.663,469.76l-84.388,0 c-13.763,0-25.242-8.919-29.225-21.238l-52.419-101.612L 71.67,346.911 
		C 37.796,346.911, 10.24,319.355, 10.24,285.43L 10.24-21.76 l 491.52,0 L 501.76,285.43 C 501.76,319.355, 474.225,346.911, 440.33,346.911z M 102.4,223.98c-16.998,0-30.73,13.742-30.73,30.7
		c0,17.019, 13.742,30.751, 30.73,30.751s 30.71-13.732, 30.71-30.751C 133.11,237.722, 119.398,223.98, 102.4,223.98z M 317.44,39.619
		c-67.84,0-122.89,55.060-122.89,122.941c0,67.85, 55.040,122.87, 122.89,122.87c 67.85,0, 122.89-55.009, 122.89-122.87
		C 440.33,94.679, 385.29,39.619, 317.44,39.619z"  />
<glyph unicode="&#xe011;" d="M 117.934,469.76L 211.405,469.76L 211.405,401.746L 117.934,401.746zM 316.887,176.435c-8.94,0-15.964,7.301-15.964,16.302L 300.923,380.426 l 141.302,0 L 501.76,124.262l-0.317-16.517L 501.443-5.478 
		c0-8.704-6.922-15.78-15.544-15.78L 348.467-21.258 c-8.53,0-15.626,7.076-15.626,15.78L 332.841,176.435 l-14.776,0 M 194.97,176.036c 8.868,0, 15.944,7.178, 15.944,16.241L 210.913,380.18 L 69.857,380.18 L 10.24,123.996L 10.527,107.264l0-113.183 c0-8.745, 6.953-15.841, 15.565-15.841
		l 137.267,0 c 8.745,0, 15.698,7.096, 15.698,15.841l0,181.965 l 14.694,0 M 231.578,380.18L 280.023,380.18L 280.023,205.711L 231.578,205.711zM 300.933,469.76L 394.445,469.76L 394.445,401.746L 300.933,401.746z"  />
<glyph unicode="&#xe012;" d="M 126.29,258.816l 27.3,0 l0-172.052 l 40.96,0 L 194.55,234.24 l 40.96,0 l0-147.466 l 40.96,0 L 276.47,234.24 l 40.96,0 l0-147.466 l 40.96,0 L 358.39,258.816 l 27.3,0 C 393.236,258.816, 399.36,264.315, 399.36,271.104
		c0,4.106-2.263,7.711-5.683,9.943l 0.020,0.020l-0.215,0.113c-0.123,0.072-0.236,0.143-0.338,0.215l-130.324,66.109l0,19.374 
		c 24.084-10.844, 43.889,7.834, 75.1-3.4L 337.92,406.272 c-31.242,11.223-51.036-7.444-75.1,3.4L 262.82,412.416 C 262.82,415.805, 259.779,418.56, 256,418.56
		s-6.83-2.755-6.83-6.144l0-64.911 l-130.314-66.109c-0.123-0.061-0.236-0.133-0.358-0.215l-0.195-0.123l0-0.020 
		c-3.41-2.232-5.663-5.837-5.663-9.943C 112.64,264.315, 118.753,258.816, 126.29,258.816zM 139.94,74.496L 112.64,49.93L 399.36,49.93L 372.060,74.496 	zM 372.060,246.528l0-159.764 l 5.642,0 l 4.004-3.604l 27.3-24.566L 418.662,49.92L 501.76,49.92 L 501.76,246.528 L 372.060,246.528 z M 426.66,117.504L 399.36,117.504 L 399.36,154.368 l 27.3,0 L 426.66,117.504 z
		 M 426.66,178.944L 399.36,178.944 l0,36.864 l 27.3,0 L 426.66,178.944 z M 474.44,117.504l-27.3,0 L 447.14,154.368 l 27.3,0 L 474.44,117.504 z M 474.44,178.944l-27.3,0 l0,36.864 l 27.3,0 L 474.44,178.944 zM 134.287,86.774l 5.642,0 L 139.93,246.528 L 10.24,246.528 L 10.24,49.92 l 83.087,0 l 9.646,8.684l 27.31,24.566L 134.287,86.774z M 64.85,117.504L 37.55,117.504 L 37.55,154.368 l 27.31,0 L 64.86,117.504 
		L 64.85,117.504z M 64.85,178.944L 37.55,178.944 l0,36.864 l 27.31,0 L 64.86,178.944 L 64.85,178.944z M 112.64,117.504L 85.33,117.504 L 85.33,154.368 L 112.64,154.368 L 112.64,117.504 z M 112.64,178.944L 85.33,178.944 l0,36.864 L 112.64,215.808 L 112.64,178.944 z"  />
<glyph unicode="&#xe013;" d="M 117.371,469.76c-13.957,0-25.211-11.54-25.211-25.866l0-25.866 l0-25.876 l0-155.208 l0-232.817 
		c0-12.923, 12.605-25.876, 25.211-25.876c 12.595,0, 25.201,12.964, 25.201,25.876l0,265.155 c 8.612,3.758, 16.988,6.472, 25.211,6.472
		c 50.412,0, 124.774-64.686, 176.445-64.686c 22.026,0, 53.565,8.919, 75.612,25.876l0,181.084 c-25.006-19.241-50.34-38.81-75.612-38.81
		c-50.412,0-125.86,64.676-176.445,64.676c-8.499,0-16.794-1.556-25.211-3.236l0,3.236 C 142.572,458.22, 131.318,469.76, 117.371,469.76z"  />
<glyph unicode="&#xe014;" d="M 79.288,256.768l 35.686,0 l0-229.376 l 53.545,0 L 168.52,224 l 53.545,0 l0-196.608 l 53.535,0 L 275.599,224 l 53.555,0 l0-196.608 l 53.545,0 L 382.7,256.768 l 35.676,0 c 9.861,0, 17.859,7.332, 17.859,16.384
		c0,5.468-2.949,10.281-7.444,13.251l 0.031,0.031l-0.266,0.154c-0.154,0.102-0.317,0.184-0.461,0.276l-170.342,88.156L 257.751,400.845 
		c 31.457-14.459, 57.354,10.445, 98.15-4.526L 355.901,453.366 c-40.817,14.971-66.703-9.912-98.15,4.536L 257.751,461.568 c0,4.536-3.983,8.192-8.919,8.192
		S 239.923,466.104, 239.923,461.568l0-86.548 L 69.581,286.884c-0.154-0.092-0.307-0.195-0.461-0.276l-0.256-0.174l0-0.031 
		c-4.475-2.97-7.414-7.793-7.414-13.251C 61.44,264.1, 69.437,256.768, 79.288,256.768zM 97.126,10.998L 61.44-21.76L 436.244-21.76L 400.538,10.998 	z"  />
<glyph unicode="&#xe015;" d="M 471.040,181.791L 471.040-21.76L 322.478-21.76L 322.478,15.165L 187.658,15.165L 187.658-21.76L 40.96-21.76L 40.96,181.791 	zM 378.358,219.197c-5.878,25.692-19.139,47.145-40.038,64.42c-20.244,16.824-44.196,26.532-71.977,29.112l-2.007,0 L 264.335,380.959 
		c 1.731,0.287, 3.727,0.512, 6.328,1.444c 3.676,1.28, 7.619,2.755, 12.216,4.352c 4.516,1.526, 8.837,2.806, 13.097,3.707
		c 4.178,0.993, 7.199,1.413, 9.175,1.413c 3.86,0, 8.796-0.614, 14.52-1.864c 5.816-1.413, 12.042-2.939, 18.34-4.669
		c 6.564-1.987, 12.442-3.492, 18.125-4.772c 5.417-1.239, 10.179-1.751, 13.937-1.751c 5.98,0, 12.38,0.829, 19.497,2.652L 389.571,455.619 
		c-5.878-2.437-12.278-3.779-19.497-3.779c-3.758,0-8.52,0.573-13.937,1.946c-5.663,1.085-11.561,2.775-18.125,4.68
		c-6.298,1.915-12.278,3.359-17.777,4.567c-5.56,1.321-10.138,1.956-14.080,1.956c-13.036,0-26.982-3.082-41.82-8.765L 264.335,469.76 l-18.156,0 l0-157.020 
		l-1.065,0 c-27.566-2.591-51.702-12.298-71.926-29.123c-20.5-17.285-33.812-38.717-40.11-64.43c0,0-19.63,3.185-19.63-18.002l 286.413,0 
		C 399.862,220.027, 378.358,219.197, 378.358,219.197z"  />
<glyph unicode="&#xe016;" d="M 190.904,12.984L 153.692-21.801L 10.24,132.823L 47.483,167.567 	zM 356.157,275.63L 201.216,130.888L 153.887,181.975L 308.797,326.707 	zM 238.52,57.487L 201.277,22.723L 57.897,177.336L 95.089,212.101 	zM 454.195,270.633L 416.963,235.868L 273.541,390.42L 310.825,425.236 	zM 501.76,315.075L 464.579,280.31L 321.198,434.944L 358.38,469.76 	z"  />
<glyph unicode="&#xe017;" d="M 483.645,58.266c0,0-75.93,0-165.765,0l0-38.84 L 317.88,19.2 c 39.352,0, 66.427,0, 66.427,0c 28.959,0, 41.513,0.225, 56.689,0.225l 44.339,0 
		c 13.804,0, 15.309,11.796, 15.309,11.796l0,9.933 C 500.664,41.165, 501.637,58.266, 483.645,58.266zM 460.657,68.25C 483.328,68.25, 501.76,86.702, 501.76,109.435c0,22.804-18.432,41.196-41.103,41.196c-22.641,0-41.021-18.401-41.021-41.196
		C 419.635,86.712, 438.016,68.25, 460.657,68.25zM 374.088,65.823c 21.565,0, 38.912,17.49, 38.912,39.025c-0.010,21.494-17.203,33.915-38.595,34.068l-56.525-6.042l0-67.052 L 374.088,65.823 L 374.088,65.823zM 189.676,337.326c 25.18,0, 45.548,20.48, 45.548,45.742C 235.223,408.33, 214.856,428.8, 189.676,428.8c-25.16,0-45.558-20.47-45.558-45.732
		C 144.118,357.806, 164.516,337.326, 189.676,337.326zM 143.165,189.297c-0.113,0.215-0.297,0.338-0.41,0.594l-20.644,48.947l-0.041-94.986l 61.696,0 l 13.476,13.445l-36.547,13.629
		C 152.044,174.182, 145.889,181.115, 143.165,189.297zM 156.242,193.608c 1.997-4.485, 5.693-8.12, 10.342-9.789l 70.42-26.102c 9.011-3.983, 19.538,0.154, 23.491,9.196
		c 3.953,9.103-0.154,19.702-9.175,23.665l-64.973,24.535l-20.070,48.138l 13.087,4.874l 17.070-41.247l 49.449-18.309l0,50.401 l 26.143-15.596
		l 13.025-65.823c 3.205-9.4, 13.343-14.346, 22.702-11.1c 9.267,3.215, 14.182,13.466, 10.998,22.825L 304.118,252.672
		c-0.963,3.553-3,6.656-5.755,8.98c-7.506,8.315-45.466,50.135-48.169,52.982c-3.973,3.973-13.036,10.537-30.157,10.537l-61.44,0 
		c-34.918,0-41.636-35.021-34.499-53.135L 156.242,193.608zM 307.732,136.315L 30.382,136.315 C 20.306,136.315, 10.24,126.157, 10.24,113.654c0-2.898, 0.010-8.202, 0.010-8.202L 10.24,19.425c0,0, 18.012,0, 23.859,0l 273.633,0 
		L 307.732,136.315 z"  />
<glyph unicode="&#xe018;" d="M 499.292,394.363c-2.478,11.141-2.632,11.213-27.648,11.213l-25.149,0 l-5.028,15.176c-6.636,20.040-28.938,39.823-51.159,45.394
	c-12.861,3.215-58.675,4.116-170.486,3.338C 79.258,468.511, 65.71,467.886, 51.804,461.64C 20.675,447.642, 3.523,412.457, 12.718,381.409
	c 6.42-21.647, 19.917-37.632, 39.086-46.244c 13.896-6.246, 27.443-6.881, 168.008-7.854c 111.8-0.788, 157.624,0.113, 170.476,3.338
	c 22.292,5.581, 44.534,25.375, 51.231,45.599c 5.048,15.206, 5.274,15.36, 21.76,14.275l 16.64-1.085l 1.106-52.49l 1.096-52.48l-48.773-11.52
	c-26.788-6.339-60.344-14.438-74.547-18.012c-14.193-3.564-48.589-11.93-76.431-18.586l-50.627-12.114l-0.010-26.583
	c-0.010-26.419-0.113-26.665-15.903-39.854l-15.872-13.261l0-83.149 l-0.010,0 L 199.946-21.76 l 39.7,0 l 39.7,0 l0,83.139 l0,83.149 l-16.087,13.435
	c-15.626,13.066-16.056,14.019-14.868,34.12l 1.188,20.664l 17.879,4.495c 9.841,2.488, 41.103,10.107, 69.489,16.978
	c 28.396,6.851, 77.097,18.616, 108.237,26.153L 501.76,274.053l0,54.559 C 501.76,358.595, 500.644,388.178, 499.292,394.363z M 253.696,22.927
	c0-8.622-1.628-10.404-10.394-11.315c-11.039-1.126-15.811,4.342-13.455,15.401c 0.922,4.311, 4.721,6.175, 12.585,6.175
	C 252.426,33.178, 253.696,32.010, 253.696,22.927z"  />
<glyph unicode="&#xe019;" d="M-163.84,469.76L-163.84,469.76L-163.84,469.76L-163.84,469.76zM 501.484,408.32l-160.051,0 c0,0-21.34-53.35, 10.67-170.711c 9.083-15.145, 32.266-22.958, 57.498-24.32L 409.6,111.36 l-7.7,0 l-39.127-30.72l 117.371,0 l-38.236,30.72L 440.32,111.36 
	L 440.32,214.774 c 21.504,3.215, 40.919,10.988, 50.493,22.835C 522.824,333.629, 501.484,408.32, 501.484,408.32z M 491.52,346.88L 348.16,346.88 L 348.16,398.080 l 143.36,0 L 491.52,346.88 zM 220.16,111.36L 163.84,111.36 l0,92.16 l-0.993,0 l 114.565,174.080L0,377.6 l 114.565-174.080L 112.64,203.52 l0-92.16 L 56.32,111.36 C 47.831,111.36, 40.96,104.479, 40.96,96S 47.831,80.64, 56.32,80.64l 163.84,0 
	c 8.489,0, 15.36,6.881, 15.36,15.36S 228.649,111.36, 220.16,111.36z"  />
<glyph unicode="&#xe01a;" d="M 261.755,452.413L 6.4,267.745l 59.853,0 l0-39.731 l0-183.439 l 38.595,0 L 104.847,191.754 l 76.554,0 l0-147.169 l 29.86,0 l 245.627,0 l0,4.076 L 456.888,228.024 l0,39.731 L 512,267.756 
		L 261.755,452.413z M 426.67,105.974l-194.56,0 l0,85.78 l 194.56,0 L 426.67,105.974 z M 426.67,229.673l-9.144-10.967l-10.086,12.063l-10.045-12.063l-10.056,12.063
		l-10.056-12.063l-10.066,12.063l-10.086-12.063l-0.328,0 l-10.076,12.063l-10.056-12.063l-10.056,12.063l-10.056-12.063l-10.045,12.063l-10.086-12.063
		l-10.025,12.063l-0.020,0 l-10.066-12.063l-10.086,12.063l-10.056-12.063l-10.066,12.063l-0.143-0.215l-0.174,0.215l-10.097-12.063l-10.086,12.063
		l-10.056-12.063l-10.035,12.063l-10.076-12.063l-10.056,12.063l-10.066-12.063l-10.086,12.063l-10.045-12.063l-10.045,12.063l-10.086-12.063l-0.328,0 
		l-10.076,12.063l-10.066-12.063l-9.974,12.032l0,41.626 l 322.161,0 L 426.772,229.673 z"  />
<glyph unicode="&#xe01b;" d="M 253.112-21.76C 134.943-21.76, 38.799,74.383, 38.799,192.563c0,75.633, 38.666,144.21, 103.444,183.429c 13.885,8.407, 31.928,3.963, 40.325-9.902
			c 8.397-13.865, 3.953-31.918-9.902-40.325c-47.053-28.488-75.141-78.295-75.141-133.202c0-85.801, 69.796-155.597, 155.597-155.597
			c 85.801,0, 155.587,69.796, 155.587,155.597c0,55.808-30.147,107.674-78.715,135.322c-14.1,8.028-19.005,25.948-10.988,40.038
			c 8.028,14.080, 25.948,18.995, 40.038,10.977c 66.867-38.072, 108.39-109.486, 108.39-186.348C 467.425,74.383, 371.302-21.76, 253.112-21.76zM 250.88,195.492c-16.21,0-35.84,13.148-35.84,29.358L 215.040,436.234 c0,16.21, 19.63,29.358, 35.84,29.358c 16.21,0, 35.84-13.148, 35.84-29.358l0-211.384 
			C 286.72,208.64, 267.090,195.492, 250.88,195.492z"  />
<glyph unicode="&#xe01c;" d="M 261.192,248.863c-15.483,0-28.068-12.585-28.068-28.058c0-15.473, 12.585-28.058, 28.068-28.058c 15.473,0, 28.068,12.585, 28.068,28.058
		C 289.26,236.278, 276.664,248.863, 261.192,248.863zM 428.278,438.292C 428.278,450.017, 418.775,459.52, 407.060,459.52L 103.148,459.52 C 91.423,459.52, 81.92,450.017, 81.92,438.292l0-428.605 C 81.92-2.028, 91.423-11.52, 103.148-11.52l 303.913,0 
		c 11.725,0, 21.217,9.492, 21.217,21.207L 428.278,438.292 z M 261.192,86.63c-73.984,0-134.175,60.18-134.175,134.175c0,73.974, 60.191,134.164, 134.175,134.164
		c 73.974,0, 134.154-60.191, 134.154-134.164C 395.336,146.811, 335.155,86.63, 261.192,86.63z"  />
<glyph unicode="&#xe01d;" d="M 201.38,345.129l-75.069,0 L 126.31,419.133 l 20.47,0 L 146.78,459.52 L 10.24,459.52 l0-40.387 l 20.48,0 l0-114.381 c0-29.737, 24.453-53.832, 54.61-53.832l 116.050,0 l0-20.193 l 40.97,0 L 242.35,365.302 l-40.97,0 
			L 201.38,345.129 zM 481.26,176.906l0,114.381 c0,29.727-24.443,53.832-54.569,53.832L 310.62,345.119 l0,20.173 l-40.97,0 l0-134.584 l 40.97,0 l0,20.204 l 75.080,0 l0-74.004 l-20.449,0 
			l0-40.387 L 501.76,136.52 l0,40.387 L 481.26,176.906 zM 470.743,25.385c0,20.419-37.253,77.486-37.253,77.486s-37.816-57.068-37.816-77.486c0-20.378, 16.814-36.905, 37.54-36.905
		C 453.929-11.52, 470.743,5.007, 470.743,25.385z"  />
<glyph unicode="&#xe01e;" d="M 305.981,387.338l0-332.216 L 65.116,55.122 L 65.116,387.338 L 305.981,387.338  M 350.71,431.657L 20.48,431.657 l0-420.864 l 330.23,0 L 350.71,431.657 L 350.71,431.657zM 92.518,357.837L 283.679,357.837L 283.679,320.829L 92.518,320.829zM 89.958,281.487L 281.149,281.487L 281.149,244.634L 89.958,244.634zM 89.958,202.803L 281.149,202.803L 281.149,165.816L 89.958,165.816zM 89.958,119.060L 281.149,119.060L 281.149,82.145L 89.958,82.145zM 408.965,357.837L 491.018,357.837L 491.018,73.554L 408.965,73.554zM 450.345,469.76c-22.467,0-40.704-18.074-40.704-40.315l0-40.325 l 81.275,0 L 490.916,429.445 C 490.906,451.686, 472.719,469.76, 450.345,469.76zM 408.965,43.643L 450.345-21.76L 491.52,43.643 	z"  />
<glyph unicode="&#xe01f;" d="M 185.344,228.68L 91.095,281.825L 123.853,339.272L 218.122,286.157 		zM 373.453,179.651L 214.2,269.353L 197.827,240.599L 357.059,150.886 		zM 392.786,168.745L 376.361,140.012L 458.486,93.788L 474.911,122.491 		zM 370.668,140.012c-1.26-2.243-4.7-2.775-7.69-1.137l0,0c-2.98,1.679-4.301,4.864-3.031,7.137l 19.2,33.638
			c 1.321,2.284, 4.762,2.836, 7.721,1.137l0,0c 2.939-1.679, 4.27-4.936, 3-7.219L 370.668,140.012zM 491.827,121.59c-3.267,1.802-6.871,2.642-10.353,2.54l-21.002-36.782c 1.69-3.082, 4.209-5.775, 7.526-7.578
			c 9.257-5.243, 20.9-2.222, 25.989,6.676l 5.386,9.523C 504.474,104.929, 501.115,116.347, 491.827,121.59zM 227.236,297.226c-2.468-4.465-8.090-5.96-12.544-3.502l-82.493,46.51c-4.465,2.478-5.97,8.059-3.471,12.524l0,0
			c 2.509,4.383, 8.141,5.949, 12.595,3.42l 82.473-46.449C 228.219,307.2, 229.796,301.609, 227.236,297.226L 227.236,297.226zM 238.797,317.42c-2.54-4.454-8.161-5.96-12.564-3.482l-82.524,46.5c-4.434,2.478-5.99,8.069-3.451,12.462l0,0
			c 2.478,4.454, 8.11,6.001, 12.595,3.492l 82.493-46.459C 239.8,327.424, 241.316,321.823, 238.797,317.42L 238.797,317.42zM 169.083,195.113c-2.54-4.403-8.161-5.898-12.585-3.42l-82.555,46.51c-4.424,2.458-5.97,8.059-3.461,12.524l0,0
			c 2.509,4.321, 8.212,5.949, 12.585,3.42l 82.514-46.51C 170.015,205.169, 171.551,199.567, 169.083,195.113L 169.083,195.113zM 180.613,215.378c-2.509-4.454-8.131-5.949-12.636-3.43L 85.484,258.406c-4.403,2.529-5.97,8.12-3.471,12.524l0,0
			c 2.55,4.444, 8.172,5.949, 12.605,3.43l 82.483-46.459C 181.524,225.382, 183.122,219.771, 180.613,215.378L 180.613,215.378zM 42.179,132.649L 187.628,132.649L 187.628,115.927L 42.179,115.927zM 219.392,97.772c-0.932,5.581-5.755,9.861-11.622,9.861L 22.077,107.633 c-5.857,0-10.711-4.28-11.622-9.861L 10.24,97.772 l0-27.382 l 209.367,0 l0,27.382 
			L 219.392,97.772 z"  />
<glyph unicode="&#xe020;" d="M 408.801,192.389c 4.741-2.324, 10.516-2.284, 12.831,0.113c 2.345,2.386, 0.317,6.154-4.485,8.366l-83.743,38.789
	c-4.803,2.232-12.872,2.796-17.91,1.28l-29.952-8.98c-5.089-1.526-11.725-2.775-14.735-2.775c-3.011,0-5.519,4.239-5.519,9.441l0,91.331 
	c0,5.192, 4.332,9.452, 9.636,9.452l 217.18,0 c 5.325,0, 9.646,4.25, 9.646,9.452L 501.75,379.525 c0,5.202-4.168,10.67-9.236,12.155L 263.803,458.414
	c-5.069,1.485-13.384,1.485-18.452-0.020L 19.446,391.69C 14.387,390.205, 10.24,384.717, 10.24,379.525l0-30.659 c0-5.202, 4.332-9.452, 9.626-9.452l 214.323,0 
	c 5.304,0, 9.636-4.26, 9.636-9.452l0-91.382 c0-5.192-4.332-9.452-9.636-9.462l-3.891,0 c-5.304-0.010-12.739,2.959-16.548,6.584l-51.671,49.347
	c-3.82,3.635-11.254,6.595-16.558,6.595l-23.9,0 c-5.284,0-11.663,3.123-14.152,6.922c-2.468,3.809-8.223,6.902-12.78,6.902
	s-5.96-3.564-3.092-7.946l 0.451-0.686c 2.867-4.372, 2.877-11.571, 0.061-15.964l-25.846-40.182c-2.806-4.413-1.935-10.865, 2.007-14.356
	l 1.833-1.649c 3.942-3.482, 10.967-4.383, 15.667-1.956l 27.689,14.408c 4.71,2.437, 10.865,0.85, 13.722-3.523l 30.382-46.51
	c 2.877-4.383, 1.915-10.732-2.13-14.090l-13.896-11.602c-4.045-3.359-6.4-10.25-5.233-15.34l 18.012-78.356
	c 1.167-5.089, 6.339-8.192, 11.479-6.912l 12.524,3.092c 5.151,1.29, 8.387,6.472, 7.26,11.551l-12.196,52.992
	c-1.167,5.069, 2.058,10.373, 7.188,11.735l 30.792,8.253c 5.1,1.372, 13.629,2.468, 18.934,2.468l 3.891,0 c 5.304,0, 9.636-4.25, 9.636-9.421l0-93.972 
	c0-5.181-4.332-9.431-9.636-9.431L 19.866,38.072 c-5.294,0-9.626-4.239-9.626-9.462l0-30.638 C 10.24-7.281, 14.572-11.52, 19.866-11.52l 468.255,0 
	c 5.304,0, 9.626,4.239, 9.626,9.472l0,30.638 c0,5.222-4.332,9.462-9.626,9.462L 274.934,38.052 c-5.315,0-9.636,4.25-9.636,9.431l0,93.972 
	c0,5.171, 4.332,9.421, 9.636,9.421l 11.1,0 c 5.304,0, 13.773-1.096, 18.924-2.468l 30.792-8.253c 5.14-1.362, 8.376-6.656, 7.188-11.735
	l-12.165-52.992c-1.188-5.079, 2.068-10.26, 7.219-11.551l 12.544-3.092c 5.151-1.28, 10.281,1.823, 11.469,6.912l 18.033,78.356
	c 1.198,5.089-1.075,11.878-4.997,15.176c-3.912,3.256-7.363,10.199-7.67,15.38l-1.567,27.72c-0.317,5.181, 3.338,7.526, 8.090,5.192
	L 408.801,192.389z"  />
<glyph unicode="&#xe021;" d="M 256,199.619c-55.357,0-104.868-16.097-137.841-41.329L 118.159,111.36 l 275.722,0 l0,46.93 C 360.888,183.521, 311.378,199.619, 256,199.619zM 501.76,223.703L 256,336.64L 10.24,223.703l 40.049-18.688l0-28.744 c-5.755-2.12-9.81-7.485-9.81-13.865c0-3.768, 1.475-7.148, 3.86-9.789
		l-13.783-28.959l 49.971,0 L 66.632,152.627c 2.335,2.642, 3.871,6.021, 3.871,9.789c0,6.369-4.106,11.735-9.81,13.865l0,23.931 l 49.326-22.999L 110.019,179.251 
		c 34.918,26.716, 87.327,43.674, 145.971,43.674c 58.655,0, 111.084-16.957, 146.012-43.674l0-2.038 L 501.76,223.703z"  />
<glyph unicode="&#xe022;" d="M 83.446,315.525l 62.054,0 l-0.543-36.608l-61.512-55.357L 83.446,315.525 L 83.446,315.525zM 255.048,335.79L 10.24,119.869L 36.045,90.88l 220.006,194.089L 476.017,90.88L 501.76,119.869L 256.993,335.79L 256,336.64L 255.048,335.79z"  />
<glyph unicode="&#xe023;" d="M 453.069,373.443c-25.815,25.713-43.93,38.523-81.162,38.523l-34.857,0 c-4.956-31.427-38.636-55.88-79.903-55.88
	c-41.236,0-74.957,24.453-79.913,55.88l-34.693,0 c-37.079,0-56.003-12.554-82.371-38.257C 33.71,347.945, 20.48,316.529, 20.48,279.388l0-93.624 l 90.051,0 l0,61.338 
	l 10.67-0.256l-0.051-224.010l 270.060,0 l 0.041,224.010l 10.291,0 l0-59.003 L 491.52,187.843 l0,91.279 C 491.52,316.262, 478.659,347.689, 453.069,373.443z"  />
<glyph unicode="&#xe024;" d="M 414.474,285.44L 298.097,410.644c 1.976,3.615, 3.185,7.475, 3.185,11.786c0,14.95-13.117,26.962-29.297,26.962
		c-5.622,0-10.721-1.618-15.145-4.116c-4.465,2.509-9.595,4.035-15.165,4.035c-16.2,0-29.286-12.145-29.286-27.095
		c0-4.352, 1.249-8.028, 3.246-11.694L 100.628,285.44L 30.72,285.44 l0-92.16 l 20.48,0 l0-148.285 C 51.2,20.603, 78.356-1.28, 105.482-1.28l 302.694,0 C 435.354-1.28, 460.8,20.603, 460.8,44.995L 460.8,193.28 l 20.48,0 l0,92.16 
		L 414.474,285.44 z M 233.021,397.015c 2.765-0.799, 5.632-1.556, 8.643-1.556c 5.571,0, 10.701,1.372, 15.165,3.86c 4.424-2.488, 9.523-4.035, 15.145-4.035
		c 3.072,0, 6.001,0.952, 8.806,1.792L 384.594,285.44L 130.376,285.44 L 233.021,397.015z M 133.12,45.609c0-7.67-7.68-13.906-15.391-13.906
		c-7.639,0-15.329,6.236-15.329,13.906L 102.4,170.291 c0,7.639, 7.69,13.834, 15.329,13.834c 7.711,0, 15.391-6.185, 15.391-13.834L 133.12,45.609 z M 184.32,45.609
		c0-7.67-7.68-13.906-15.35-13.906c-7.66,0-15.37,6.236-15.37,13.906L 153.6,170.291 c0,7.639, 7.721,13.834, 15.37,13.834
		c 7.67,0, 15.35-6.185, 15.35-13.834L 184.32,45.609 z M 245.76,45.609c0-7.67-7.639-13.906-15.319-13.906c-7.711,0-15.401,6.236-15.401,13.906L 215.040,170.291 
		c0,7.639, 7.69,13.834, 15.401,13.834c 7.68,0, 15.319-6.185, 15.319-13.834L 245.76,45.609 z M 296.96,45.609c0-7.67-2.519-13.906-10.281-13.906
		C 279.040,31.703, 276.48,37.939, 276.48,45.609L 276.48,170.291 c0,7.639, 2.56,13.834, 10.199,13.834c 7.762,0, 10.281-6.185, 10.281-13.834L 296.96,45.609 z M 358.4,45.609
		c0-7.67-7.68-13.906-15.319-13.906c-7.741,0-15.401,6.236-15.401,13.906L 327.68,170.291 c0,7.639, 7.66,13.834, 15.401,13.834
		c 7.639,0, 15.319-6.185, 15.319-13.834L 358.4,45.609 z M 409.6,45.609c0-7.67-2.55-13.906-10.271-13.906c-7.629,0-10.209,6.236-10.209,13.906L 389.12,170.291 
		c0,7.639, 2.58,13.834, 10.209,13.834c 7.721,0, 10.271-6.185, 10.271-13.834L 409.6,45.609 z"  />
<glyph unicode="&#xe025;" d="M 256,469.76C 154.235,469.76, 71.68,388.772, 71.68,288.881L 71.68-21.76 l 368.64,0 L 440.32,288.881 C 440.32,388.772, 357.827,469.76, 256,469.76z"  />
<glyph unicode="&#xe026;" d="M 423.987,255.867l-25.18,105.124c-4.413,18.34-22.999,29.86-41.441,25.334c-16.22-3.963-24.105-15.196-27.3-23.101
		c-3.779-9.329-20.644-51.599-24.586-60.334c-1.382-3.031-4.301-4.628-4.895-4.895c-3.348-1.485-36.864-15.626-36.864-15.626l0-0.061 
		c-6.615-3.103-11.203-9.718-11.203-17.439c0-10.68, 8.745-19.343, 19.528-19.343c 2.324,0, 4.536,0.481, 6.615,1.219
		c0-0.010-0.020-0.041,0-0.072c 0.215,0.092, 44.493,18.493, 44.493,18.493c 6.103,2.847, 9.083,6.451, 12.114,11.704
		c 1.27,2.212, 5.13,11.469, 8.274,19.067l 26.849-112.282C 370.381,121.498, 370.36,9.677, 370.36,9.677c-0.051-17.285, 11.889-31.375, 29.338-31.437
		c 17.469-0.061, 30.095,13.896, 30.208,31.212c0,0, 0.174,195.656, 0.174,205.343C 430.060,224.451, 426.22,247.398, 423.987,255.867zM 287.171,430.643A39.475,39.117 180 1 1 366.121,430.64300000000003A39.475,39.117 180 1 1 287.171,430.64300000000003zM 175.421,100.076l0-43.827 c 5.683,1.044, 10.281,3.645, 13.855,7.813c 3.543,4.168, 5.315,9.042, 5.315,14.653
		c0,5.018-1.485,9.349-4.454,12.995C 187.126,95.314, 182.221,98.099, 175.421,100.076zM 148.347,168.141c-2.662-3.584-4.004-7.557-4.004-11.899c0-3.994, 1.219-7.66, 3.625-11.059c 2.437-3.42, 6.113-6.185, 10.998-8.274
		l0,38.881 l0,0C 154.511,174.295, 150.958,171.735, 148.347,168.141zM 252.488,220.201l 0.041,0 l-61.184,122.747l-0.010-0.113c-4.495,9.298-14.039,15.718-25.139,15.718l-56.392,0 
		C 94.413,358.564, 81.92,346.194, 81.92,330.936l0-215.081 c0-0.031,0-0.061,0-0.092L 81.92-21.76 l 173.732,0 L 255.652,206.356 C 255.631,211.313, 254.495,216.003, 252.488,220.201z
		 M 209.971,48.486c-8.294-9.288-19.804-14.981-34.519-17.070l0-21.023 l-16.456,0 l0,20.46 c-13.087,1.567-23.685,6.41-31.877,14.49
		c-8.151,8.1-13.363,19.517-15.626,34.273l 29.594,3.164c 1.198-6.001, 3.461-11.172, 6.81-15.534c 3.308-4.342, 7.014-7.485, 11.090-9.431
		l0,47.084 c-14.807,4.198-25.692,10.557-32.584,19.026c-6.932,8.499-10.394,18.811-10.394,30.956c0,12.288, 3.901,22.61, 11.756,30.976
		c 7.823,8.346, 18.227,13.169, 31.232,14.428l0,11.131 l 16.456,0 l0-11.131 c 12.001-1.413, 21.576-5.478, 28.682-12.175c 7.086-6.687, 11.622-15.688, 13.599-26.921
		l-28.682-3.707c-1.751,8.827-6.277,14.838-13.599,17.981l0-43.93 c 18.135-4.884, 30.495-11.192, 37.079-18.934
		c 6.564-7.762, 9.861-17.705, 9.861-29.839C 222.392,69.202, 218.255,57.784, 209.971,48.486z"  />
<glyph unicode="&#xe027;" d="M 10.24,414.659c0,0, 23.112-40.96, 23.112-67.133s-22.979-65.075-22.979-65.075c0-6.083, 4.106-8.151, 8.97-4.669l 75.602,54.231
	c 15.268-11.274, 45.179-26.235, 66.898-38.523l0-43.889 l 48.486,27.607c 15.565-3.533, 31.355-5.775, 48.261-5.775c 101.878,0, 184.586,66.099, 184.586,77.117
	c0,9.574-62.198,60.754-145.418,73.964L 205.23,469.76l0-51.067 c-43.377-12.022-87.747-36.956-110.275-53.596l-75.878,54.231C 14.223,422.82, 10.24,420.741, 10.24,414.659
	 M 360.97,335.135c-11.991,0-21.729,9.861-21.729,22.047s 9.738,22.036, 21.729,22.036c 12.012,0, 21.688-9.851, 21.688-22.036
	S 372.982,335.135, 360.97,335.135 M 501.76,143.309c0,6.093-3.983,8.172-8.837,4.669l-75.51-54.252c-22.528,16.64-66.447,41.574-109.885,53.586L 307.528,198.4 
	l-92.897-47.237c-83.251-13.199-145.623-64.399-145.623-73.974c0-11.018, 82.627-77.148, 184.494-77.148c 16.896,0, 33.065,2.294, 48.609,5.837L 350.956-21.76
	l0,43.878 c 21.688,12.319, 51.251,27.259, 66.447,38.574l 75.407-54.241c 4.905-3.533, 8.899-1.423, 8.899,4.618c0,0-23.020,38.902-23.020,65.096
	C 478.7,102.359, 501.76,143.309, 501.76,143.309 M 166.042,77.896c-12.001,0-21.699,9.841-21.699,22.047c0,12.165, 9.697,21.996, 21.699,21.996
	c 11.981,0, 21.709-9.841, 21.709-21.996C 187.75,87.736, 178.033,77.896, 166.042,77.896"  />
<glyph unicode="&#xe028;" d="M 40.96,469.76l 57.344-462.643c 1.792-14.428, 14.326-28.877, 28.682-28.877l 258.028,0 c 14.346,0, 26.9,14.449, 28.662,28.877L 471.040,469.76
		L 40.96,469.76 z M 105.472,411.945l 301.046,0 l-13.435-115.661L 118.917,296.284 L 105.472,411.945z"  />
<glyph unicode="&#xe029;" d="M 271.145-21.76l-27.679,0 l0,53.678 c-37.14,3.942-64.901,11.663-83.2,23.214c-32.307,20.695-48.169,55.921-47.606,105.677l 76.483,0 
		c 2.621-22.641, 6.39-37.765, 11.059-45.568c 7.342-12.001, 21.77-19.825, 43.264-23.439L 243.466,206.776 l-22.856,6.502c-35.953,10.025-61.379,24.023-76.237,41.984
		c-14.735,17.951-22.159,39.506-22.159,64.85c0,16.691, 2.929,31.887, 8.684,45.435c 5.704,13.619, 13.783,25.395, 24.125,35.246
		c 13.353,12.8, 28.242,21.565, 44.636,26.46c 9.974,3.041, 24.607,5.263, 43.796,6.717L 243.456,469.76 l 27.679,0 l0-36.332 c 30.597-2.314, 54.579-9.492, 72.018-21.504
		c 31.693-19.21, 48.077-50.391, 49.244-93.512l-74.496,0 c-1.444,15.964-4.239,27.74-8.294,35c-7.045,12.841-19.886,19.835-38.472,21.115l0-102.605 
		c 44.759-14.746, 74.772-27.791, 90.235-39.086c 25.426-18.821, 37.99-45.414, 37.99-79.739c0-45.271-17.439-78.131-52.337-98.673
		c-21.299-12.472-46.623-19.927-75.878-22.006L 271.145-21.76 z M 243.456,374.057c-16.23-0.369-28.211-4.618-35.994-12.524
		c-7.864-8.11-11.786-18.954-11.786-32.758c0-15.145, 5.888-27.013, 17.541-35.84c 6.615-4.864, 16.691-9.349, 30.239-13.507L 243.456,374.057 z M 271.145,92.826
		c 14.756,1.649, 25.395,4.977, 32.123,9.677c 11.796,8.233, 17.664,22.456, 17.664,42.721c0,15.36-5.468,27.587-16.445,36.577
		c-6.513,5.212-17.613,10.578-33.331,16.159L 271.155,92.826 z"  />
<glyph unicode="&#xe02a;" d="M 258.478,459.52L 10.24,245.391l 59.116,0 L 69.356-11.52 l 367.37,0 L 436.726,245.391 L 501.76,245.391 L 258.478,459.52z M 346.747,169.83l-67.461,0 l0-120.812 l-3.277-0.092l-48.896,0 l-0.307,0.092L 226.806,169.83 
	l-67.482,0 l0,45.343 l 67.482,0 l0,90.675 l 52.48,0 l0-90.675 l 67.461,0 L 346.747,169.83 z"  />
<glyph unicode="&#xe02b;" d="M 476.109,367.36L 36.055,367.36 c-14.152,0-25.733-12.872-25.733-25.6c0-12.728, 11.581-25.59, 25.733-25.59l 6.216,0 l0-51.2 l 428.247,0 l0,51.2 l 5.591,0 
		c 14.162,0, 25.733,12.861, 25.733,25.59C 501.842,354.488, 490.271,367.36, 476.109,367.36z M 256.082,290.355c-7.107,0-12.861,5.929-12.861,13.23
		s 5.755,13.23, 12.861,13.23c 7.117,0, 12.861-5.929, 12.861-13.23S 263.199,290.355, 256.082,290.355zM 42.271,162.58l 428.247,0 L 470.518,244.48 L 42.271,244.48 L 42.271,162.58 z M 256.082,217.61c 7.117,0, 12.861-5.919, 12.861-13.22c0-7.311-5.745-13.23-12.861-13.23
		c-7.107,0-12.861,5.919-12.861,13.23C 243.21,211.692, 248.975,217.61, 256.082,217.61zM 42.271,91.955l0-26.47 l0-33.065 c0-7.27, 0.911-13.23, 7.987-13.23l 51.446,0 c 7.076,0, 10.281,5.96, 10.281,13.23l0,37.99 l 288.819,0 l0-37.99 
		c0-7.27, 2.58-13.23, 9.646-13.23l 51.456,0 c 7.055,0, 8.602,5.96, 8.602,13.23l0,33.065 l0,26.47 L 470.508,142.080 L 42.271,142.080 L 42.271,91.955 z M 256.082,118.405
		c 7.117,0, 12.861-5.929, 12.861-13.22c0-7.322-5.745-13.22-12.861-13.22c-7.107,0-12.861,5.898-12.861,13.22
		C 243.21,112.466, 248.975,118.405, 256.082,118.405z"  />
<glyph unicode="&#xe02c;" d="M 408.269,74.332L 127.836,74.332 l0,99.113 L 50.637,413.225C 49.725,413.819, 47.944,415.099, 45.343,417.126c-2.56,1.966-5.192,4.004-7.977,6.144
		c-2.724,2.161-5.325,4.168-7.782,6.164c-2.406,2.017-4.076,3.482-4.997,4.332C 21.791,436.244, 20.48,438.231, 20.48,439.757L 20.48,442.962 
		c0,0.584,0,1.628,0,3.174c0,1.434, 0.184,2.243, 0.43,2.243c 0.645,1.536, 1.843,3.185, 3.676,5.018C 26.419,455.219, 27.628,456.079, 28.252,455.69
		l 3.666-1.833c 0.266,0, 1.741-0.973, 4.321-2.918c 2.591-2.048, 5.734-4.393, 9.37-7.096c 3.676-2.796, 7.27-5.612, 10.936-8.694
		c 3.686-3.092, 6.717-5.437, 9.134-7.26C 67.256,426.629, 68.403,425.523, 69.12,424.663c 0.758-0.942, 1.454-2.263, 2.048-4.137l 22.385-69.868
		l 392.356-21.893l-47.043-162.12L 149.309,166.646 l0-72.274 L 408.269,94.372 L 408.269,74.332 z M 456.212,308.644c-7.905,1.198-15.933,2.007-24.013,2.243
		c-7.997,0.317-15.995,0.502-23.931,0.502l0-30.618 l 40.673,0 c 0.307,0, 0.573,0.502, 0.881,1.587c 0.328,1.065, 0.625,1.884, 0.891,2.529
		c 0.287,0.952, 0.778,2.284, 1.393,4.362c 0.625,1.966, 1.219,4.004, 1.823,6.144c 0.635,2.161, 1.137,4.127, 1.587,5.97
		c 0.522,1.812, 0.696,3.154, 0.696,4.024l0,1.485 L 456.212,308.644 z M 408.269,266.209l0-29.768 l 27.853,0 c 0.911,1.833, 1.516,3.031, 1.823,3.686
		c 0.317,0.86, 0.881,2.591, 1.608,5.048c 0.727,2.417, 1.423,4.966, 2.038,7.67c 0.635,2.796, 1.321,5.519, 2.017,8.038
		c 0.778,2.591, 1.352,4.393, 1.649,5.335L 408.269,266.22 z M 408.269,221.389l0-33.3 l 14.623,0 l 9.574,33.3L 408.269,221.389 z M 401.183-1.526
		C 394.045-8.182, 385.249-11.52, 374.927-11.52c-10.701,0-19.364,3.461-26.020,10.496c-6.707,6.973-10.076,15.841-10.076,26.47
		c0,9.4, 3.482,17.459, 10.527,24.238c 7.014,6.636, 15.329,10.025, 25.078,10.025c 10.383,0, 19.2-3.308, 26.501-9.8
		c 7.332-6.543, 10.977-15.063, 10.977-25.354C 411.924,13.865, 408.32,5.192, 401.183-1.526z M 387.932,313.17
		c-2.591,0.328-5.222,0.512-7.987,0.778c-2.755,0.113-5.335,0.236-7.813,0.389c-2.417,0.113-4.086,0.184-4.966,0.184
		c-0.625,0-1.587,0.123-2.99,0.307c-1.372,0.123-2.191,0.195-2.468,0.195l0-34.253 l 31.498,0 l0,31.98 
		C 392.274,312.75, 390.533,312.852, 387.932,313.17z M 361.697,266.209l0-29.768 l 31.498,0 l0,29.768 L 361.697,266.209 z M 361.697,221.389l0-33.3 l 31.498,0 l0,33.3 L 361.697,221.389 
		z M 312.801,280.771l 31.949,0 L 344.75,314.522 c0,0.379-1.423,0.768-4.321,1.188c-2.939,0.44-5.079,0.707-6.615,0.707
		c-1.792,0-5.345,0.051-10.486,0.184c-5.212,0.205-8.694,0.246-10.516,0.246L 312.812,280.771 z M 312.801,266.209l0-29.768 l 31.949,0 l0,29.768 L 312.801,266.209 z
		 M 312.801,221.389l0-33.3 l 31.949,0 l0,33.3 L 312.801,221.389 z M 266.23,318.167l0-37.396 l 31.98,0 l0,37.396 L 266.23,318.167 z M 266.23,266.209l0-29.768 l 31.98,0 l0,29.768 L 266.23,266.209 z
		 M 266.23,221.389l0-33.3 l 31.98,0 l0,33.3 L 266.23,221.389 z M 218.235,321.864l0-41.093 l 31.549,0 l0,39.7 C 239.38,321.393, 228.946,321.864, 218.235,321.864z
		 M 218.235,266.209l0-29.768 l 31.549,0 l0,29.768 L 218.235,266.209 z M 218.235,221.389l0-33.3 l 31.549,0 l0,33.3 L 218.235,221.389 z M 171.643,280.771l 32.010,0 l0,41.093 
		c0,0.307-0.799,0.625-2.304,0.983c-1.546,0.266-2.744,0.502-3.645,0.84c-0.922,0-2.621,0.143-5.028,0.256
		c-2.406,0.184-5.007,0.184-7.793,0.184c-2.703,0-5.376,0.051-7.987,0.236c-2.56,0.143-4.301,0.184-5.253,0.184L 171.643,280.771 z
		 M 171.643,266.209l0-29.768 l 32.010,0 l0,29.768 L 171.643,266.209 z M 171.643,221.389l0-33.3 l 32.010,0 l0,33.3 L 171.643,221.389 z M 198.615,9.247
		c-2.14-4.127-4.925-7.803-8.438-10.957c-3.533-3.236-7.547-5.642-12.134-7.352C 173.466-10.772, 168.776-11.52, 163.932-11.52
		c-4.588,0-9.124,0.881-13.486,2.724c-4.424,1.833-8.376,4.229-11.878,7.27c-3.492,3.123-6.359,6.717-8.448,10.957
		c-2.14,4.291-3.236,8.868-3.236,13.742s 1.085,9.585, 3.236,14.193c 2.089,4.547, 4.833,8.428, 8.192,11.643
		c 3.389,3.103, 7.25,5.755, 11.653,7.793c 4.403,1.925, 9.032,2.918, 13.967,2.918c 10.322,0, 19.241-3.574, 26.675-10.711
		c 7.496-7.127, 11.182-15.841, 11.182-25.825C 201.789,17.981, 200.735,13.353, 198.615,9.247z M 135.107,327.547
		c-5.181,0.184-11.54,0.246-19.18,0.246l-2.724,0 c-1.516,0-3.154-0.072-4.751-0.246c-1.7-0.143-3.318-0.184-4.844-0.184L 101.345,327.363 
		l 14.592-46.592l 38.81,0 l0,44.749 C 146.821,326.779, 140.308,327.414, 135.107,327.547z M 120.945,266.209c0-0.307, 0.195-0.932, 0.44-1.812
		c 0.348-0.993, 0.799-2.56, 1.393-4.905c 0.635-2.284, 1.393-4.69, 2.273-7.332c 0.963-2.499, 1.761-4.936, 2.54-7.229
		c 0.768-2.294, 1.29-3.942, 1.587-4.803c 0.317-0.645, 0.625-1.403, 0.942-2.284c 0.297-0.891, 0.604-1.403, 0.881-1.403l 23.747,0 l0,29.768 
		L 120.945,266.209 z M 135.997,221.389c0-3.359, 0.799-6.973, 2.314-10.967c 0.635-2.068, 1.556-5.11, 2.765-8.827c 1.198-3.881, 2.284-6.984, 3.195-9.452
		c 0.932-2.417, 1.362-3.809, 1.362-4.055l 9.114,0 l0,33.3 L 135.997,221.389 z"  />
<glyph unicode="&#xe02d;" d="M 471.040,152.32l0-81.92 l 40.96,0 L 512,193.28 L 40.96,193.28 L 40.96,360.602 c0,11.5-8.899,20.91-20.48,20.91l0,0c-11.54,0-20.48-9.4-20.48-20.91L0,70.4 l 40.96,0 l0,81.92 L 471.040,152.32 zM 105.779,276.716c 20.9,0, 37.755,16.927, 37.755,37.827c0,20.756-16.855,37.632-37.755,37.632c-20.869,0-37.714-16.865-37.714-37.632
		C 68.065,293.652, 84.91,276.716, 105.779,276.716zM 512,224l-0.143,49.879c-0.133,16.445-13.926,26.808-30.095,28.764L 185.242,331.653c-0.532,0.143-1.71,0.092-2.202,0.092
		c-10.301,0-19.2-8.54-19.2-18.79L 163.84,254.72 L 87.521,254.72 c-10.353,0-18.698-5.12-18.698-15.35C 68.823,228.977, 77.169,224, 87.521,224L 512,224 z"  />
<glyph unicode="&#xe02e;" d="M 238.858,264.54c0-5.857, 1.925-10.455, 6.226-13.865C 247.532,248.791, 256,247.060, 256,245.443L 256,282.061 c0-0.143-10.076-1.782-12.964-4.844
		C 240.138,274.084, 238.858,269.885, 238.858,264.54zM 266.691,213.944l0-40.694 c 10.691,0.635, 9.513,1.935, 11.991,3.738c 4.362,3.195, 6.605,8.704, 6.605,16.527
		c0,5.939-2.109,10.68-6.185,14.172C 276.695,209.705, 277.381,211.773, 266.691,213.944zM 10.24,357.12l0-266.24 l 491.52,0 L 501.76,357.12 L 10.24,357.12 z M 294.84,158.403c-7.895-4.823-17.459-7.721-28.15-8.52l0-16.384 L 256,133.499 l0,16.169 c-10.691,1.546-23.654,3.441-30.413,7.895
		c-11.96,8.018-17.459,18.524-17.265,39.813l 28.283,0 c 0.973-10.65, 2.007-13.537, 3.738-16.517c 2.714-4.669, 4.956-6.615, 15.647-7.997l0,44.493 
		l-8.1,2.499c-13.292,3.881-22.528,9.308-28.027,16.241c-5.437,6.953-8.090,15.288-8.090,25.098c0,6.451, 1.116,12.339, 3.246,17.572
		c 2.109,5.274, 5.12,9.83, 8.95,13.64c 4.925,4.966, 10.107,8.346, 16.159,10.24c 3.686,1.178, 5.171,2.038, 15.862,2.601L 255.99,314.522 l 10.691,0 l0-9.482 
		c 10.691-0.891, 20.306-3.318, 26.747-7.946c 11.725-7.444, 17.9-25.17, 18.33-35.82l-27.535,0 c-0.532,10.65-1.7,10.363-3.195,13.169
		c-2.601,4.977-3.645,7.311-14.336,7.813l0-39.711 c 21.371-5.704, 27.771-10.752, 33.495-15.114c 9.411-7.27, 14.1-17.592, 14.1-30.863
		C 314.276,179.057, 307.753,166.339, 294.84,158.403z"  />
<glyph unicode="&#xe02f;" d="M 489.38,248.269l0,100.997 c 5.56,2.601, 6.554,7.168, 6.554,12.39c0,8.11-6.625,14.684-14.643,14.684c-8.018,0-14.981-6.564-14.981-14.684
		c0-5.222, 0.778-9.789, 6.339-12.39l0-100.045 l-11.141,0 l0,90.163 l-77.998,0 l0,28.18 L 274.678,367.565 C 271.944,384.86, 257.157,398.080, 239.288,398.080
		c-17.879,0-32.645-13.22-35.41-30.505l-98.918,0 l0-28.18 L 15.811,339.395 l0-225.423 L 10.24,113.971 l0-22.528 l 163.86,0 C 187.095,78.868, 211.794,70.4, 240.169,70.4
		c 28.375,0, 53.064,8.468, 66.068,21.043l 160.86,0 l0,22.528 l-5.581,0 l0,90.173 l 16.835,0 c 12.79,0, 23.419,10.455, 23.419,23.409
		C 501.76,236.616, 494.94,244.378, 489.38,248.269z M 166.236,164.71L 43.663,164.71 L 43.663,311.224 l 122.573,0 L 166.236,164.71 z M 240.169,93.317c-31.171,0-56.453,6.205-56.453,13.865
		s 25.283,13.865, 56.453,13.865c 31.181,0, 56.453-6.205, 56.453-13.865S 271.35,93.317, 240.169,93.317z M 299.95,164.71l-122.573,0 L 177.377,311.224 l 122.573,0 L 299.95,164.71 z
		 M 433.664,164.71L 311.091,164.71 L 311.091,311.224 l 122.573,0 L 433.664,164.71 zM 86.241,249.344c 8.131-0.829, 14.981-4.321, 25.149-3.082c0,0-29.891-17.070-29.891-46.305l 42.916,0 c0,0-3.052,41.155, 20.941,66.058
		l-9.155,7.823c0,0-9.155-8.847-28.897-1.229c0,0-15.483,5.386-31.754-3.451l 0.031,4.045L 62.771,273.203 l0-35.584 l 12.206,0 
		C 74.988,237.619, 78.111,250.163, 86.241,249.344zM 222.331,249.344c 8.141-0.829, 14.981-4.321, 25.16-3.082c0,0-29.911-17.070-29.911-46.305l 42.926,0 c0,0-3.052,41.155, 20.951,66.058
		l-9.165,7.823c0,0-9.144-8.847-28.877-1.229c0,0-15.503,5.386-31.764-3.451l 0.041,4.045L 198.861,273.203 l0-35.584 l 12.206,0 
		C 211.067,237.619, 214.19,250.163, 222.331,249.344zM 357.806,249.344c 8.131-0.829, 14.981-4.321, 25.17-3.082c0,0-29.911-17.070-29.911-46.305l 42.906,0 c0,0-3.072,41.155, 20.961,66.058
		l-9.165,7.823c0,0-9.165-8.847-28.887-1.229c0,0-15.473,5.386-31.764-3.451l 0.051,4.045L 334.336,273.203 l0-35.584 l 12.216,0 
		C 346.563,237.619, 349.665,250.163, 357.806,249.344z"  />
<glyph unicode="&#xe030;" d="M 432.282,341.811l-58.102,0 l 58.46,58.583L 374.804,459.52l-81.859,0 l 58.644-58.573l-60.109-59.136l-69.519,0 l 59.781,58.583L 222.679,459.52l-83.261,0 l 58.644-58.573
		l-60.191-59.136L 78.94,341.811 l 59.812,58.583L 79.585,459.52L 20.48,459.52 l0-471.040 l 471.040,0 L 491.52,459.52 l-57.774,0 L 491.52,400.63L 432.282,341.811z M 432.64,47.985L 79.401,47.985 l0,58.88 L 432.64,106.865 L 432.64,47.985 z
		 M 432.64,165.14L 79.401,165.14 l0,58.921 L 432.64,224.061 L 432.64,165.14 z"  />
<glyph unicode="&#xe031;" d="M 323.277,171.192c0,0-19.22,48.056-37.868,93.942c0,0-6.246,27.576-1.362,64.174c0,0, 13.271,55.941, 5.888,82.391
		c0,0-11.336,22.661-34.888,24.238c0,0-32.502-2.294-38.574-33.915c0,0-1.587-18.227, 3.461-39.26c0,0, 18.196-69.601-1.761-115.026
		c0,0-27.843-58.173-30.054-71.496c0,0-10.424-56.996-0.164-98.97c0,0, 21.545-71.813, 37.315-95.601c0,0, 31.99-8.161, 59.433,0.727
		c0,0, 32.901,53.268, 39.475,101.407C 324.198,83.804, 332.411,134.666, 323.277,171.192z M 275.968,282.409c-13.435-4.137-27.433-4.137-40.878,0
		c-0.522,8.397, 1.526,16.445-0.215,25.057c 13.711,0, 27.546,0, 41.349,0C 274.391,298.854, 276.439,290.806, 275.968,282.409zM 425.769,205.025c0,0-19.21,48.067-37.939,93.932c0,0-6.236,27.587-1.372,64.123c0,0, 13.292,55.941, 5.888,82.452
		c0,0-11.284,22.661-34.857,24.218c0,0-32.512-2.284-38.574-33.894c0,0-1.597-18.237, 3.512-39.27c0,0, 18.207-69.663-1.812-115.016
		c0,0-4.321-9.124-9.708-20.818c 17.48-42.957, 34.273-84.92, 34.273-84.92l 0.266-0.727l 0.174-0.717c 9.605-38.205, 1.434-89.569, 1.137-91.474
		c-3.113-22.876-11.735-46.264-20.244-65.331c 0.379-0.686, 0.85-1.475, 1.26-2.079c0,0, 31.959-8.172, 59.433,0.778
		c0,0, 32.881,53.197, 39.465,101.366C 426.67,117.658, 434.913,168.509, 425.769,205.025z M 377.344,317.276c-13.435-4.209-27.464-4.209-40.899,0
		c-0.44,8.325, 1.587,16.384-0.225,24.996c 13.783,0, 27.556,0, 41.349,0C 375.726,333.65, 377.846,325.601, 377.344,317.276zM 196.864,252.099c 1.085,2.386, 1.987,5.018, 2.836,7.598c-4.997,12.411-10.445,25.743-15.821,39.035c0,0-6.308,27.648-1.372,64.174
		c0,0, 13.281,55.89, 5.908,82.401c0,0-11.336,22.671-34.898,24.228c0,0-32.532-2.345-38.564-33.833c0,0-1.577-18.309, 3.523-39.281
		c0,0, 18.207-69.642-1.812-115.067c0,0-27.843-58.184-30.065-71.496c0,0-10.435-57.006-0.164-98.97c0,0, 21.545-71.823, 37.304-95.549
		c0,0, 32-8.233, 59.433,0.737c0,0, 0.635,0.993, 1.71,2.847c-10.035,26.399-18.248,53.576-18.872,55.767c-10.67,43.745-0.399,101.079,0,103.27
		C 168.325,192.133, 192.215,242.473, 196.864,252.099z M 133.048,317.276c-0.451,8.325, 1.546,16.384-0.225,24.996c 13.793,0, 27.566,0, 41.349,0
		c-1.802-8.612, 0.225-16.66-0.215-24.996C 160.553,313.068, 146.493,313.068, 133.048,317.276z"  />
<glyph unicode="&#xe032;" d="M 348.16,367.36L 348.16,398.449 C 348.16,423.854, 326.564,449.28, 301.169,449.28l-85.432,0 C 190.351,449.28, 163.84,423.854, 163.84,398.449L 163.84,367.36 l-54.395,0 L 51.2,8.96l 411.515,0 l-59.167,358.4L 348.16,367.36 z
		 M 194.56,398.449C 194.56,407.962, 206.234,418.56, 215.736,418.56l 85.432,0 C 310.661,418.56, 317.44,407.962, 317.44,398.449L 317.44,367.36 L 194.56,367.36 L 194.56,398.449 z"  />
<glyph unicode="&#xe033;" d="M 175.104,213.76l 152.269,0 l-50.104,133.12l-51.948,0 L 175.104,213.76z M 92.16,346.88L 92.16,387.84 l 327.68,0 l0-40.96 l-80.599,0 l 50.227-133.12L 512,213.76 l0-40.96 L 408.197,172.8 l 58.665-143.36l-56.924,0 l-58.655,143.36L 161.608,172.8 
		L 103.219,29.44L 46.285,29.44 l 58.337,143.36L0,172.8 l0,40.96 l 123.31,0 l 50.186,133.12L 92.16,346.88 z"  />
<glyph unicode="&#xe034;" d="M 421.499,224L 93.614,224 c-9.554,0-17.418,8.212-17.418,17.551c0,1.556, 0.287,3.318, 0.604,4.731l 17.449,121.846
		C 95.734,376.044, 102.861,377.6, 111.391,377.6l 292.383,0 c 8.468,0, 15.657-1.423, 17.121-9.308l 17.449-124.068c 0.266-1.444, 0.614-2.294, 0.614-3.85
		C 438.948,231.035, 431.043,224, 421.499,224z M 408.381,87.347c-18.463,0-33.434,14.531-33.434,32.645c0,17.992, 14.971,32.502, 33.434,32.502
		c 18.34,0, 33.341-14.51, 33.341-32.502C 441.723,101.878, 426.721,87.347, 408.381,87.347z M 106.291,87.347c-18.33,0-33.311,14.531-33.311,32.645
		c0,17.992, 14.981,32.502, 33.311,32.502c 18.514,0, 33.464-14.51, 33.464-32.502C 139.756,101.878, 124.805,87.347, 106.291,87.347z M 163.84,449.28l 204.8,0 l0-30.72 L 163.84,418.56 
		C 143.36,418.56, 143.36,449.28, 163.84,449.28z M 452.628,402.278c-5.98,28.805-23.45,40.407-51.948,51.999c-28.447,11.551-94.372,25.395-143.954,25.395
		c-49.797,0-116.060-13.855-144.538-25.395C 83.702,442.675, 66.519,431.084, 60.59,402.278L 40.96,241.93L 40.96,19.2 l 30.72,0 l0-20.48 c0-40.96, 51.2-40.96, 51.2,0l0,20.48 l 256,0 l0-20.48 c0-40.96, 61.44-40.96, 61.44,0l0,20.48 l 30.72,0 
		L 471.040,241.93 L 452.628,402.278z"  />
<glyph unicode="&#xe035;" d="M 406.159,247.050c-3.645,8.745-9.851,15.329-18.616,19.354c 4.383-9.124, 5.847-14.971, 5.847-25.18c0,0,0-0.348-1.085-10.947
		l-1.096-7.67l-1.096-9.841l-0.727-6.584l 2.202-17.889l 0.348-9.841l 0.727-4.024l 3.277-4.762l 5.489-2.55l 8.018-4.004l 2.202-6.564
		l-1.485-6.226l0-8.376 l-0.717-4.751l-0.358-4.762l-0.737-4.004l-0.727-3.625L 406.528,112.753l-1.096-7.649l0-2.929 l0-2.181 l-0.369-1.454
		l-0.348-1.096l-0.727-1.485l-2.929-1.454l-4.741-1.454l-4.741,0 l-9.492,0.348l-3.287,0 l-10.588,0.727l-1.454,0 l-1.096,0.748l-1.454,2.171
		l-0.379,2.181l-0.358,4.383l 0.737,2.949l 1.085,1.802l 2.55,1.454l 2.918,0.727l 4.014,0.727l 2.202,0 l 1.454,0.369l 0.737,0.727
		l 1.096,1.823l 1.075,6.205l 1.823,9.134l 1.106,5.1l 0.358,6.205l0,0.727 l-0.358,2.202l-0.727,0.696l-1.464,0.768l-6.216,3.256
		l-17.152,11.684l-13.128,13.486l-2.202,3.666l-0.717,1.833l-1.085,2.55l-2.191,3.625l-1.833,2.55l-1.085,1.096L 335.36,189.389
		l-2.55-2.202l-2.191-4.383l-2.191-10.209l 0.717-7.66l 1.106-1.823l 2.56-2.58l 5.468-5.448l 0.358-3.277l-0.717-1.454l-1.475-2.929
		l-5.458-9.482l-3.656-8.755l-3.287-7.68l-1.812-7.68l-1.485-3.277l-1.065-6.195l0-4.383 l-2.191-4.014l-2.918-1.454l-4.393-1.454
		l-5.1,0 l-9.503,0.348l-2.918,0 l-10.947,0.727L 280.269,94.126 l-1.106,0.717l-1.075,2.202l-0.369,2.181l-0.358,4.383l 0.358,2.929l 1.454,1.823
		l 2.202,1.454l 1.096,0.379l 2.181,0.348l 2.171,0.379l 2.57,0 l 2.939,0.348l 0.707,0 l 1.843,1.853l 2.898,4.352l 4.751,10.578l 4.383,11.694
		l 0.727,3.625l 0.727,4.035l0,1.475 l-0.369,1.802l-1.464,2.202l-2.191,4.014l-2.191,6.195l-0.727,2.58l-5.1,20.070l-1.833,10.926
		l-1.454,17.162l-6.574-5.837l-6.195-5.847l-7.291-5.11l-11.336-7.301l-13.855-7.281l-11.684-3.656l-11.305-1.823l-11.315-2.181
		l-2.56-0.369l-1.823-1.485l-2.55-1.833l-5.468-7.997l 1.444-14.612l 1.126-11.663l 1.075-11.336l 1.475-11.684l0-5.827 L 205.824,103.27
		l-1.096-2.929l-1.075-2.918l-2.202-2.181l-1.475-1.075l-4.004-1.096l-14.213,0 l-14.612,0.727l-1.833,0.369l-1.085,0.727l-1.075,1.823
		l-0.399,2.181l-0.338,3.297l 0.737,4.383l 1.444,2.181l 2.181,1.454l 3.277,0.727l 2.56,0.369l 3.287,0.348l 4.372,0.727l 0.727,0.748L 181.002,114.227 
		l0,1.823 l0,2.929 l0,1.434 l-0.727,4.751l-2.171,8.755l-0.379,5.827l-2.181,6.953l-2.929,6.205l-1.823,6.554l-2.191,3.656l-1.464,4.731
		l-3.277,4.772l-1.833,4.362l-1.454,3.297l-1.823,1.802l-2.202,3.297l-4.751,1.464l-2.908-5.478l-3.277-8.745l-3.656-6.953
		l-4.024-11.305l-2.918-12.411l-2.56-5.079l-2.918-4.751l-2.929-6.943l-4.383-14.961l-2.171-5.847l-2.56-5.11l-2.191-4.024
		l-1.823-1.075l-3.635-1.096L 101.816,93.061 L 99.635,93.409L 96.707,93.409 l-13.496,0.379L 81.756,94.157l-1.106,0.727l-1.454,1.823L 78.848,98.888l-0.379,2.55
		l 0.727,2.929l 0.727,2.202l 1.464,2.181l 2.191,1.454l 6.205,0.727l 3.277,0.717L 95.232,112.384l 1.475,2.202l 1.096,5.827l 1.096,4.035
		l 2.181,9.851l 1.823,10.957l 2.181,13.486l 0.748,12.411l0,7.301 l-1.096,9.093l-6.584,1.116L 93.798,190.495l-5.837,0 l-5.478,2.55l-2.56,6.226
		l-8.018,1.782l-3.277,3.318l-10.23,4.014l-8.765-1.454l-4.004-1.106l-3.267-1.096L 39.424,203.274L 38.339,203.622l-2.56,2.929l-6.195,3.676
		L 26.655,214.579l-0.737,6.205l-2.56,1.833l-6.185,3.645l-2.929,4.352l-1.454,2.202l-1.823,2.191L 10.24,237.578l0,2.56 l0,3.277 l 0.727,2.908
		l 1.454,2.202l 19.343,19.702l 2.202,4.014l 1.085,4.372l 0.727,5.837l 0.737,2.202l-0.737,2.56l 0.737,1.464L 36.864,290.847l 1.106,2.202
		l 1.833,1.085l 0.717,2.202l 0.369,1.823l 1.085,1.823l 0.379,2.181l 0.727,1.833l 1.833,0.727l 1.085,1.454l 0.737,1.823l 1.464,0.727
		l 1.444,1.106l 1.106,1.075l 0.727,2.56l 1.085,1.485l 2.202,1.096l 1.085,1.085l 1.464,1.823l 2.55,0.737l 2.56,1.106l 2.191,1.444
		l 2.191,1.464l 2.56,0.717l 3.994,0.379l 2.939,1.106l 1.802,1.823l 2.56,0.727l 2.929,0 l 3.635,1.075l 3.645-0.358l 4.751,1.116l 5.468,0 
		l 4.372-0.379l 3.287,0 l 3.666-0.727l 4.372-0.369l 3.287,0.717l 2.898-0.717l 2.202-1.464l 4.024-1.096l 4.741-0.348l 3.645-1.485l 2.181-1.444
		l 1.823-1.475l 2.202-0.358l 1.454-1.096l 2.929-0.369l 2.56-0.358l 2.55-0.727l 2.55-2.191l 2.929-1.823l 2.929-0.727l 3.277-0.379
		l 2.898-1.802l 1.843-2.191l 2.56-0.727l 1.833-1.096l 2.181-0.727l 1.823,0 l 1.096-0.727l 0.727-1.096l 1.096-0.369l 2.191-0.358l 1.444,0.358
		l 1.475,0 l 1.464-0.358l 1.085-1.085l 2.929-1.116l 1.823,0 l 1.823-0.358l 3.645-0.737l 6.185-0.348l 5.857-0.727l 3.277-0.379l 5.478-0.717
		l 6.932-0.379l 9.482-0.727l 13.148-0.727l 11.305-0.358l 12.032,0 l 15.698,0.358l 16.425,1.106l 15.677,1.444l 11.694,1.464l 11.305,1.823l 5.1,0.727
		l 3.287,0.379l 1.464,0.358l 1.464,0 l 1.096,0 l0,0c 23.716,0, 45.251-14.244, 54.733-35.779c 16.056-37.96, 19.712-55.46, 20.797-96.686
		c0-11.325, 9.492-20.818, 21.166-20.818c 5.1,0, 9.482,1.485, 13.496,4.762c 2.56,1.823, 4.014,5.1, 4.014,8.397c0,1.812,0,2.56-0.717,4.014
		c-1.475,3.277-1.833,4.731-1.833,8.376s 1.096,7.311, 2.918,10.578l 12.39,20.818l-1.444-9.513l 8.018,14.612l-1.464-11.325l 8.755,13.507
		l-2.57-12.39l 6.216,6.564l-2.929-11.663L 501.76,203.274l-2.55-9.134c-1.833-6.195-1.833-6.932-1.833-7.66
		c-0.358-0.737-0.358-1.096-0.717-7.68c-0.369-6.554-4.024-12.411-9.503-16.415l-15.319-11.684c-5.827-4.383-12.042-6.564-18.975-6.564
		c-13.496,0-25.18,8.755-29.204,21.135c-1.085,3.656-0.717,2.212-1.085,5.857C 421.12,197.069, 415.283,222.966, 406.159,247.050"  />
<glyph unicode="&#xe036;" d="M 352.645,300.268c 35.82,0, 64.983,28.682, 64.983,64.215C 417.628,400.005, 388.475,428.8, 352.645,428.8c-35.963,0-65.178-28.795-65.178-64.317
		C 287.468,328.95, 316.692,300.268, 352.645,300.268zM 501.76,143.544l0,81.306 L 414.054,274.176c-14.858,7.455-31.375,9.984-47.882,6.502c-6.758-1.382-13.117-3.963-20.265-7.895
		c-0.778-0.215-26.819-11.571-41.953-46.5L 243.558,106.138c0,0-59.505-11.397-84.408-16.148c-1.966-1.3-4.076-2.355-6.093-3.594l-15.411,55.101
		c-6.38,22.405, 17.418,54.886, 18.309,56.207c 15.749,22.784, 20.060,52.797, 11.786,82.524c-7.537,26.88-24.699,49.541-47.043,62.29
		c-17.48,9.82-37.13,12.524-54.968,7.67c-13.855-3.758-26.204-11.817-35.748-23.398c-0.123-0.113-7.383-10.752-7.383-10.752
		c-12.841-22.354-15.8-50.371-8.376-77.394c 7.537-27.136, 24.504-49.705, 46.961-62.28l 5.376-2.816c 0.717-0.051, 37.704-14.961, 44.134-36.352
		c-0.082-0.113, 9.708-35.092, 17.695-63.601c-2.048-0.881-4.014-1.946-6.083-2.765c 0.297-0.215, 0.85-0.553, 1.188-0.788
		c-1.802-2.755-4.966-8.858-4.741-15.104c0-1.987, 0.164-3.973, 0.543-5.898c 3.41-17.664, 20.91-29.46, 38.789-25.866l 114.125,21.955
		c0,0, 9.708,2.918, 13.865,5.847c 5.356,3.758, 9.39,11.643, 9.39,11.643l 29.993,59.628c0,0, 20.675-96.358, 21.074-98.14
		c-0.348-0.266-2.028-2.099-4.762-4.905l 155.679,0 c-2.345,13.681-3.901,22.456-3.901,22.559c0,0.225-4.905,21.617-4.905,21.617
		c 0.164-0.154-13.353,60.027-23.685,107.131c 16.466-9.421, 31.386-17.797, 32.215-18.248C 497.295,151.992, 499.067,148.623, 501.76,143.544z M 109.435,192.963
		c-11.561-3.072-23.91-1.208-35.748,5.315c-16.486,9.216-29.225,26.368-34.683,47.063c-5.816,20.623-3.697,41.748, 5.693,58.030l 5.243,7.557
		c 6.185,7.506, 13.681,12.524, 22.671,15.012c 28.713,7.711, 60.334-15.78, 70.554-52.47C 153.231,236.943, 138.158,200.694, 109.435,192.963z"  />
<glyph unicode="&#xe037;" d="M 261.908,388.475c 23.521-1.731, 44.093,15.032, 45.957,37.356c 1.884,22.436-15.667,42.066-39.188,43.796c-23.552,1.71-44.124-14.95-45.947-37.386
		C 220.897,409.815, 238.459,390.226, 261.908,388.475zM 225.782,371.804c 8.366,5.53, 18.708,9.236, 29.952,8.468c 14.643-1.229, 26.757-9.82, 33.915-20.47l 43.213-81.367l 58.696-38.584
		c 5.069-3.615, 8.1-9.656, 7.578-16.128c-0.819-10.035-10.117-17.562-20.746-16.794c-3.205,0.123-5.714,1.321-8.817,2.703l-64.133,42.056
		c-1.987,1.638-3.512,3.369-4.792,5.458l-16.189,30.546l-19.251-81.265l 75.756-85.381c 1.679-2.662, 2.806-5.612, 3.523-8.714l 20.408-103.117
		c-0.061-2.273, 0.276-3.707, 0.174-5.612c-1.27-15.217-15.227-26.481-31.171-25.272c-13.107,0.963-22.958,10.383-26.040,21.801l-19.292,96.573
		l-61.45,64.236l-14.397-62.566c-0.451-2.939-4.506-9.165-5.796-11.704l-58.982-94.843c-5.949-8.765-15.749-14.264-27.116-13.496
		c-15.933,1.219-27.802,14.479-26.563,29.737c 0.348,4.26, 2.263,8.684, 3.901,11.796l 54.927,87.869l 45.701,193.526l-29.87-23.112l-15.831-68.987
		c-2.079-8.684-10.537-15.954-20.582-15.176c-10.496,0.86-18.493,9.564-17.715,19.814c 0.154,0.748, 0.256,1.608, 0.43,2.376l 18.893,80.394
		c 0.963,3.604, 3.082,6.595, 5.908,8.858L 225.782,371.804zM 181.832,184.156l-23.071,0 c 0.256,4.465, 0.184,9.667-0.481,15.882c-0.819,7.649-3.451,11.418-8.1,11.418l-37.693,0 
		c-3.348,0-5.612-2.038-6.779-6.267c-1.126-4.147-1.71-8.479-1.71-12.913c0-3.195,0-5.827,0-8.12L 80.138,184.156 L 65.925,59.914l 65.034,0 l 65.065,0 
		L 181.832,184.156z M 111.913,184.156c-0.143,2.836-0.102,6.021, 0.287,9.779c 0.573,4.844, 2.386,7.322, 5.581,7.322
		c 4.618,0, 8.765,0, 12.462,0.092c 3.748,0.133, 8.806,0.246, 15.145,0.246c 2.488,0, 4.127-1.495, 5.059-4.454
		c 0.85-2.929, 1.341-5.755, 1.341-8.53c0-1.659-0.082-3.113-0.195-4.465l-20.644,0 L 111.913,184.146 zM 423.895,184.156l-23.060,0 c 0.215,4.465, 0.184,9.667-0.522,15.882c-0.829,7.649-3.461,11.418-8.079,11.418l-37.693,0 
		c-3.348,0-5.632-2.038-6.779-6.267c-1.096-4.147-1.7-8.479-1.7-12.913c0-3.195,0-5.827,0-8.12l-23.828,0 l-14.244-124.252l 65.055,0 l 65.065,0 
		L 423.895,184.156z M 353.956,184.156c-0.164,2.836-0.113,6.021, 0.297,9.779c 0.532,4.844, 2.376,7.322, 5.581,7.322
		c 4.598,0, 8.765,0, 12.462,0.092c 3.717,0.133, 8.786,0.246, 15.165,0.246c 2.447,0, 4.106-1.495, 5.028-4.454
		c 0.881-2.929, 1.352-5.755, 1.352-8.53c0-1.659-0.092-3.113-0.164-4.465L 373.043,184.146 L 353.956,184.146 z"  />
<glyph unicode="&#xe038;" d="M 470.323,262.113c 0.276,0.748, 0.44,1.516, 0.563,2.324c 0.051,0.307, 0.092,0.614, 0.102,0.932C 470.989,265.574, 471.040,265.769, 471.040,265.964
	c0,0.737-0.092,1.434-0.225,2.109c-0.020,0.123,0,0.256-0.051,0.379c-0.215,1.044-0.604,2.038-1.085,2.97
	c-0.051,0.092-0.061,0.195-0.123,0.287l-60.242,109.056c-0.051,0.082-0.113,0.123-0.174,0.205c-0.543,0.932-1.188,1.802-1.976,2.591
	c-0.164,0.154-0.317,0.287-0.481,0.43c-0.635,0.614-1.403,1.137-2.191,1.628c-0.276,0.184-0.563,0.338-0.84,0.492
	c-0.225,0.123-0.451,0.276-0.676,0.41c-0.686,0.307-1.393,0.502-2.099,0.696c-0.133,0.061-0.276,0.113-0.43,0.164
	c-1.167,0.297-2.345,0.43-3.502,0.451C 396.81,387.809, 396.718,387.84, 396.616,387.84l-261.12,0 c-0.215,0-0.41-0.051-0.614-0.072
	c-0.717-0.031-1.454-0.113-2.181-0.236c-0.369-0.082-0.737-0.133-1.106-0.225c-0.195-0.041-0.389-0.061-0.584-0.102
	c-0.553-0.184-1.044-0.42-1.546-0.625c-0.276-0.143-0.563-0.215-0.829-0.348c-0.942-0.471-1.823-1.034-2.601-1.659
	c-0.102-0.072-0.195-0.215-0.297-0.297c-0.666-0.573-1.26-1.188-1.782-1.864c-0.072-0.102-0.184-0.174-0.256-0.276L 43.397,273.152
	c0,0,0-0.010-0.010-0.020l-0.031-0.041c-0.020-0.020-0.020-0.041-0.031-0.082c-0.686-0.922-1.188-1.976-1.587-3.072
	c-0.082-0.246-0.174-0.471-0.246-0.727C 41.175,268.165, 40.96,267.090, 40.96,265.964c0-0.041, 0.010-0.072, 0.010-0.123
	c0-0.113, 0.031-0.246, 0.041-0.369c 0.051-1.065, 0.246-2.068, 0.563-3.062c 0.082-0.246, 0.164-0.461, 0.256-0.727
	c 0.43-1.085, 0.993-2.13, 1.71-3.052c 0.010-0.031, 0.020-0.082, 0.051-0.123l 200.745-254.259c 0.010-0.010, 0.010-0.010, 0.020-0.031
	l 0.102-0.133c 0.778-1.004, 1.72-1.833, 2.755-2.55c 0.276-0.205, 0.594-0.369, 0.901-0.563c 0.85-0.532, 1.741-0.952, 2.693-1.29
	c 0.369-0.123, 0.737-0.276, 1.106-0.389C 253.235-1.034, 254.597-1.28, 256-1.28c 1.434,0, 2.775,0.246, 4.096,0.594
	c 0.369,0.113, 0.717,0.256, 1.096,0.389c 0.952,0.338, 1.843,0.758, 2.693,1.29c 0.297,0.195, 0.625,0.358, 0.932,0.563
	c 1.024,0.727, 1.946,1.546, 2.724,2.55l 0.113,0.133c 0.020,0.020, 0.020,0.020, 0.020,0.031l 200.745,254.259
	c 0.031,0.041, 0.041,0.082, 0.072,0.123c 0.645,0.85, 1.178,1.772, 1.597,2.765C 470.18,261.642, 470.252,261.878, 470.323,262.113z
	 M 131.205,346.102l 24.791-67.297L 81.623,278.804 L 131.205,346.102z M 202.138,278.794L 256,351.898l 53.873-73.103L 202.138,278.794 z M 317.583,253.153L 256,58.214l-61.542,194.949
	L 317.583,253.164 z M 282.481,362.199l 91.208,0 l-39.076-70.728L 282.481,362.199z M 179.948,294.892l-24.791,67.308l 74.373,0 L 179.948,294.892z M 164.977,253.153
	l 54.856-173.742L 82.668,253.153L 164.977,253.153 z M 347.054,253.153l 82.289,0 L 292.178,79.411L 347.054,253.153z M 359.301,278.794l 37.335,67.553l 37.325-67.553
	L 359.301,278.794 z"  />
<glyph unicode="&#xe039;" d="M 303.278,480L 71.68,480 l0-512 l 112.64,0 L 184.32,131.84 l 118.958,0 c 127.631,0, 177.091,101.079, 177.091,184.525C 480.369,399.38, 430.909,480, 303.278,480z M 272.425,234.24L 184.32,234.24 L 184.32,387.84 l 88.105,0 
		c 52.357,0, 99-11.551, 99-76.667C 371.415,245.658, 324.782,234.24, 272.425,234.24zM-163.84,469.76L-163.84,469.76L-163.84,469.76L-163.84,469.76z"  />
<glyph unicode="&#xe03a;" d="M 501.76,250.665L 267.121,362.076L 267.121,410.112L 294.513,410.112L 294.513,432.445L 267.121,432.445L 267.121,469.76L 244.849,469.76L 244.849,432.445L 217.446,432.445L 217.446,410.112L 244.849,410.112L 244.849,362.076L 80.865,284.201L 80.865,284.201L 80.865,284.201L 10.24,250.665L 10.24,231.598L 80.865,231.598L 80.865-21.76L 208.015-21.76L 208.015,131.185L 303.974,131.185L 303.974-21.76L 431.135-21.76L 431.135,231.598L 501.76,231.598 	z"  />
<glyph unicode="&#xe03b;" d="M 387.41,328.325c 3.41-53.299-22.446-90.665-22.446-90.665c 3.359,41.052-13.281,97.792-13.281,97.792c-14.213,2.785-36.925-0.205-36.925-0.205
	c 3.277-44.278-19.241-82.944-35.871-97.178c 8.223,49.101-4.864,86.252-4.864,86.252c-22.497,5.673-54.743,2.202-54.743,2.202
	c 7.004-52.234-21.811-90.665-21.811-90.665c 4.772,36.413-14.684,83.118-14.684,83.118c-16.517,1.075-42.834-4.301-42.834-4.301
	c 13.875-24.791, 2.796-79.278, 2.796-79.278c-7.567,44.554-33.004,70.83-33.004,70.83C-36.116,244.111, 2.304,158.536, 73.626,133.048
	c 67.287-24.003, 284.099-35.83, 381.102,6.257C 551.741,181.412, 483.43,299.735, 387.41,328.325z"  />
<glyph unicode="&#xe03c;" d="M 179.251,325.304c-2.714,0-5.448,1.085-7.516,3.195c-4.055,4.229-4.035,11.018, 0.113,15.186
				c 13.148,13.179, 14.879,30.607, 4.628,46.612c-18.012,28.16-16.947,55.204, 2.99,76.196c 4.045,4.229, 10.721,4.372, 14.92,0.246
				c 4.198-4.116, 4.291-10.906, 0.256-15.176c-4.762-5.007-19.21-20.234-0.471-49.551c 15.657-24.453, 12.687-53.361-7.496-73.605
				C 184.617,326.339, 181.944,325.304, 179.251,325.304L 179.251,325.304zM 229.284,325.304c-2.734,0-5.458,1.085-7.506,3.195c-4.106,4.229-4.055,11.018, 0.092,15.186
				c 13.158,13.179, 14.879,30.607, 4.639,46.612c-18.012,28.16-16.957,55.204, 2.98,76.196c 4.055,4.229, 10.732,4.372, 14.92,0.246
				c 4.188-4.116, 4.28-10.906, 0.256-15.176c-4.772-5.007-19.22-20.234-0.471-49.551c 15.636-24.453, 12.698-53.361-7.506-73.605
				C 234.619,326.339, 231.956,325.304, 229.284,325.304L 229.284,325.304zM 279.296,325.304c-2.734,0-5.448,1.085-7.516,3.195c-4.076,4.229-4.035,11.018, 0.113,15.186
				c 13.128,13.179, 14.868,30.607, 4.618,46.612c-18.002,28.16-16.957,55.204, 2.98,76.196c 4.055,4.229, 10.721,4.372, 14.93,0.246
				c 4.188-4.116, 4.291-10.906, 0.236-15.176c-4.751-5.007-19.21-20.234-0.471-49.551c 15.667-24.453, 12.718-53.361-7.475-73.605
				C 284.662,326.339, 281.999,325.304, 279.296,325.304L 279.296,325.304zM 20.48,17.347l0-6.902 C 20.48-7.26, 34.744-21.76, 52.152-21.76L 415.744-21.76 c 17.418,0, 31.662,14.5, 31.662,32.215l0,6.902 L 20.48,17.357 zM 454.922,286.505l-60.959,0 c-0.461,0-0.891-0.113-1.341-0.133c-0.451,0.031-0.86,0.133-1.321,0.133L 64.44,286.505 
		c-11.612,0-21.105-9.667-21.105-21.473l0-67.523 c0-76.8, 50.586-131.881, 122.9-156.18l 123.3,0 c 66.007,22.19, 113.9,70.001, 121.733,136.602l 43.674,0 
		c 20.111,0, 36.577,16.763, 36.577,37.233L 491.52,249.293 C 491.51,269.752, 475.054,286.505, 454.922,286.505z M 464.077,215.163c0-5.038-4.198-9.308-9.144-9.308
		l-42.527,0 l0,52.736 l 42.527,0 c 4.946,0, 9.144-4.26, 9.144-9.308L 464.077,215.163 z"  />
<glyph unicode="&#xe03d;" d="M 345.62,405.545c-16.282-10.947-24.76-29.768-43.182-38.574c-10.824,16.486-29.379,25.088-38.113,43.725c 13.773,11.776, 26.47,24.637, 38.113,38.595
		C 320,437.903, 334.397,423.342, 345.62,405.545zM 203.346,400.415c 37.079-49.439, 152.3-84.705, 188.037-10.291c 17.121-9.247, 27.761-25.047, 40.643-38.584
		C 376.76,267.295, 225.802,323.42, 203.346,400.415zM 208.425,215.214c 30.136-31.918, 71.455-71.578, 71.148-133.734c-0.543-106.742-133.417-97.495-188.017-43.735
		C 47.462,81.121, 19.814,145.224, 10.24,204.923c 12.872-9.523, 15.35-28.457, 22.856-43.725c 21.678-43.96, 61.532-111.503, 121.958-115.743
		c 38.011-2.662, 73.083,15.401, 83.855,46.285c 16.753,48.005-18.125,82.278-35.574,110.602c-9.103-12.216-18.483-24.115-27.955-36.004
		c-16.558,14.94-32.236,30.781-48.261,46.285c 11.561,17.388, 27.587,22.036, 40.653,36.045c 16.077,17.203, 36.403,66.284-5.089,74.588
		c-27.699,5.54-52.152-13.23-71.127-28.293c-8.366-6.625-28.928-33.26-33.034-33.444c-14.152-0.604-35.195,41.062-43.203,46.295
		c 37.181,26.47, 66.028,73.124, 127.048,61.737C 203.305,358.154, 244.767,278.927, 208.425,215.214zM 365.957,194.642c 43.54-50.944, 138.322,8.243, 101.642,66.867c-69.499,16.056-156.477-140.892-221.051-33.434
		c 70.769-23.398, 93.45,55.265, 170.23,72.018c 21.76,4.751, 63.416-11.786, 73.677-30.874c 21.043-39.066, 15.043-139.090-38.124-141.466
		C 417.556,126.177, 375.716,165.745, 365.957,194.642z"  />
<glyph unicode="&#xe03e;" d="M 143.36,316.16c 30.72-10.24, 51.2-36.332, 51.2-70.738l0-264.366 C 194.56-27.075, 202.783-32, 194.386-32L 42.824-32 C 34.447-32, 30.72-27.075, 30.72-18.954L 30.72,245.422 
		C 30.72,279.91, 51.2,308.439, 81.92,316.16L 81.92,439.040 l 61.44,0 L 143.36,316.16 zM 81.92,480L 143.36,480L 143.36,459.52L 81.92,459.52zM 361.011,431.002c-4.68,0.666-8.274,4.465-8.274,9.042c0,3.348, 2.007,6.267, 4.925,7.926c-2.918,1.536-4.925,6.943-4.925,10.322
		C 352.737,463.37, 357.018,469.76, 362.322,469.76l 47.964,0 c 5.335,0, 9.585-6.39, 9.585-11.459c0-3.533-1.997-7.649-5.038-9.134
		c 2.918-1.587, 5.038-5.059, 5.038-8.53c0-4.588-3.461-8.673-8.12-9.288l 61.082-149.504C 476.416,272.128, 481.28,261.202, 481.28,250.47L 481.28-11.52 
		c0-9.994, 0.266-20.48-10.24-20.48L 316.529-32 C 305.859-32, 307.2-21.514, 307.2-11.52L 307.2,254.72 c0,10.721, 1.997,17.265, 5.601,26.993L 361.011,431.002zM-163.84,469.76L-163.84,469.76L-163.84,469.76L-163.84,469.76z"  />
<glyph unicode="&#xe03f;" d="M 256,260.116c 28.713,0, 52.818-19.456, 59.628-45.763c 8.561-32.983, 7.404-69.13, 45.036-87.9c 33.403-11.366, 46.039-25.651, 46.039-63.949
	c0-30.566-26.153-63.058-59.873-67.113c-37.704-5.663-67.052,1.741-90.839,15.299c-23.788-13.558-53.146-20.972-90.798-15.299
	c-33.741,4.055-59.884,36.659-59.884,67.113c0,37.478, 13.486,53.34, 46.828,64.205c 41.032,20.961, 35.523,57.702, 44.677,89.262
	C 204.216,241.469, 227.912,260.116, 256,260.116L 256,260.116z M 443.976,282.89c-10.168,8.837-51.671-25.661-64.727-42.721
	c-7.936-9.103-12.872-21.617-12.872-35.42c0-27.761, 19.866-50.268, 44.308-50.268c 18.596,0, 34.509,12.933, 41.093,31.324
	C 464.568,218.88, 465.275,264.397, 443.976,282.89L 443.976,282.89z M 68.004,282.89C 46.735,264.397, 47.421,218.88, 60.232,185.805
	c 6.584-18.391, 22.487-31.324, 41.073-31.324c 24.463,0, 44.308,22.508, 44.308,50.268c0,13.804-4.925,26.317-12.861,35.42
	C 119.685,257.229, 78.193,291.727, 68.004,282.89L 68.004,282.89z M 310.63,464.21c 103.301-17.531, 96.051-191.508, 13.343-177.49
	c-23.859,4.055-41.574,25.784-44.268,51.743C 276.972,364.861, 270.817,470.948, 310.63,464.21L 310.63,464.21z M 201.37,464.21
	c 39.823,6.748, 33.659-99.338, 30.925-125.737c-2.693-25.969-20.388-47.688-44.247-51.743C 105.318,272.691, 98.079,446.679, 201.37,464.21z"  />
<glyph unicode="&#xe040;" d="M 113.859,40.172l0-26.644 c0-14.582-11.745-26.511-26.378-26.511c-14.551,0-26.296,11.93-26.296,26.511l0,26.644 L 34.406,40.172 l0,86.436 l0,0
		c0,18.872, 12.728,34.703, 29.932,39.485l 30.894,73.513c 4.393,10.742, 15.073,18.371, 27.464,18.371l 158.3,0 c 12.462,0, 23.081-7.639, 27.597-18.371
		l 30.863-73.513c 17.357-4.792, 30.054-20.623, 30.054-39.485l0,0l0-86.436 l-26.9,0 l0-26.644 c0-14.582-11.725-26.511-26.358-26.511
		c-14.623,0-26.337,11.93-26.337,26.511l0,26.644 L 113.859,40.172 z M 86.866,94.525c 12.227,0, 22.067,9.82, 22.067,22.108c0,12.175-9.841,22.108-22.067,22.108
		c-12.124,0-22.108-9.933-22.108-22.108C 64.758,104.346, 74.752,94.525, 86.866,94.525z M 337.295,116.644c0,12.175-9.882,22.108-22.159,22.108
		c-12.124,0-22.108-9.933-22.108-22.108c0-12.288, 9.994-22.108, 22.108-22.108C 327.424,94.525, 337.295,104.346, 337.295,116.644z M 312.801,167.588
		l-26.286,63.345c-1.26,3.297-4.291,5.632-7.936,5.632l-153.395,0 c-3.564,0-6.656-2.345-7.782-5.632l-26.47-63.345L 312.801,167.588 zM 403.845,201.687l-14.51,0 l0,29.553 c-19.466,2.181-34.038,6.431-43.633,12.78c-16.947,11.407-25.262,30.781-24.975,58.184l 40.12,0 
		c 1.372-12.452, 3.328-20.808, 5.786-25.068c 3.86-6.615, 11.407-10.936, 22.702-12.933L 389.335,327.526 l-12.001,3.564
		c-18.842,5.519-32.184,13.251-39.967,23.122c-7.731,9.871-11.612,21.75-11.612,35.707c0,9.185, 1.526,17.551, 4.536,24.996
		c 2.99,7.516, 7.219,14.008, 12.646,19.415c 7.014,7.066, 14.817,11.889, 23.429,14.592c 5.192,1.659, 12.892,2.888, 22.958,3.686L 389.325,472.32 l 14.51,0 l0-20.019 
		c 16.036-1.26, 28.621-5.222, 37.765-11.827c 16.65-10.578, 25.221-27.74, 25.815-51.476l-39.055,0 c-0.748,8.776-2.222,15.268-4.362,19.272
		c-3.697,7.055-10.424,10.916-20.163,11.612l0-56.504 c 23.46-8.1, 39.209-15.288, 47.309-21.504c 13.353-10.373, 19.937-25.006, 19.937-43.909
		c0-24.934-9.144-43.028-27.464-54.323c-11.172-6.871-24.453-10.977-39.793-12.124L 403.825,201.687 z M 389.335,419.615
		c-8.52-0.205-14.797-2.529-18.872-6.881c-4.137-4.465-6.185-10.435-6.185-18.053c0-8.315, 3.082-14.858, 9.196-19.722
		c 3.461-2.673, 8.745-5.14, 15.852-7.434L 389.325,419.615 z M 403.845,264.776c 7.741,0.911, 13.322,2.744, 16.855,5.335
		c 6.164,4.547, 9.236,12.37, 9.236,23.511c0,8.479-2.857,15.217-8.612,20.152c-3.42,2.867-9.236,5.827-17.48,8.899L 403.845,264.776 z"  />
<glyph unicode="&#xe041;" d="M 418.908,248.054c-12.964,0-25.283-2.662-36.475-7.444l-31.498,53.975l 23.736,40.684c 3.226,5.55, 1.352,12.677-4.188,15.923
	c-2.437,1.413-5.151,3.973-7.721,3.553C 362.086,354.857, 361.431,357.12, 360.745,357.12l-46.561,0 c-6.42,0-11.633-8.94-11.633-15.36
	c0-6.431, 5.212-15.36, 11.633-15.36l 30.177,0 l-13.588-20.48L 194.806,305.92 l 27.156,51.2l 10.762,0 c 6.42,0, 11.633,3.809, 11.633,10.24s-5.212,10.24-11.633,10.24l-58.194,0 
	c-6.41,0-11.633-3.809-11.633-10.24s 5.212-10.24, 11.633-10.24l 20.47,0 l-65.423-114.33c-11.203,4.782-23.542,6.349-36.495,6.349
	C 41.677,249.139,0,206.909,0,155.505c0-51.415, 41.677-93.358, 93.092-93.358s 93.092,41.544, 93.092,92.959c0,30.106-14.356,56.74-36.557,73.769l 24.914,42.66
	l 71.414-122.429c 0.082-0.133, 0.184-0.256, 0.276-0.389c 0.092-0.174, 0.205-0.317, 0.307-0.461c 0.082-0.133, 0.143-0.236, 0.236-0.348
	c 0.287-0.379, 0.604-0.727, 0.922-1.065c 0.031-0.041, 0.072-0.082, 0.113-0.133c 0.102-0.102, 0.205-0.195, 0.317-0.287
	c 0.102-0.092, 0.215-0.184, 0.328-0.266c 0.287-0.246, 0.594-0.502, 0.901-0.717c 0.123-0.092, 0.246-0.164, 0.379-0.246
	c 0.102-0.061, 0.195-0.123, 0.297-0.195c 0.041-0.020, 0.072-0.051, 0.123-0.072c 0.010-0.020, 0.031-0.020, 0.041-0.041
	c 0.317-0.174, 0.645-0.328, 0.983-0.481c 0.041-0.031, 0.072-0.041, 0.113-0.051c 0.072-0.031, 0.154-0.092, 0.236-0.123
	c 0.020,0, 0.051-0.020, 0.082-0.020c 0.236-0.102, 0.502-0.184, 0.748-0.266c 0.236-0.082, 0.461-0.174, 0.696-0.225
	c 0.051-0.010, 0.102-0.010, 0.143-0.041c 0.092-0.010, 0.174-0.020, 0.256-0.041c 0.143-0.031, 0.297-0.051, 0.451-0.092
	c 0.696-0.133, 1.382-0.215, 2.089-0.215l0,0 c 0.010,0, 0.010-0.635, 0.010-0.635c 0.020,0, 0.031-0.604, 0.041-0.604l 70.564,0 
	c 5.755-40.96, 44.831-80.845, 92.293-80.845c 51.415,0, 93.092,41.994, 93.092,93.409C 512,206.060, 470.323,248.054, 418.908,248.054z M 162.908,154.962
	c0-38.574-31.252-69.827-69.816-69.827c-38.564,0-69.816,31.263-69.816,69.827c0,38.554, 31.252,69.806, 69.816,69.806
	c 8.673,0, 16.947-1.649, 24.607-4.547l-34.662-59.412c-3.236-5.54-1.352-12.667, 4.198-15.923c 1.843-1.065, 3.86-1.577, 5.847-1.577
	c 4.004,0, 7.895,2.068, 10.066,5.765l 34.673,59.453C 153.139,195.717, 162.908,176.476, 162.908,154.962z M 256,180.541L 194.806,285.44l 122.399,0 L 256,180.541z
	 M 337.449,269.476l 24.924-43.704C 343.101,210.985, 329.789,193.28, 326.615,162.56l-50.36,0 L 337.449,269.476z M 374.18,204.503L 398.664,162.56l-48.517,0 
	C 352.952,183.040, 361.677,194.048, 374.18,204.503z M 418.908,84.5c-34.58,0-63.232,26.86-68.772,57.58l 68.741,0 c 0.031,0, 0.031,0.604, 0.051,0.604
	c 0.696,0, 1.393,0.41, 2.079,0.543c 0.164,0.041, 0.307,0.215, 0.471,0.236c 0.635,0.154, 1.28,0.42, 1.935,0.676
	c 0.061,0.031, 0.133,0.133, 0.215,0.164c 0.379,0.174, 0.768,0.379, 1.157,0.594c 0.092,0.051, 0.174,0.154, 0.276,0.215
	c 0.348,0.225, 0.676,0.492, 1.034,0.748c 0.266,0.225, 0.573,0.44, 0.799,0.676c 0.287,0.256, 0.532,0.553, 0.778,0.85
	c 0.236,0.266, 0.502,0.553, 0.696,0.87c 0.205,0.276, 0.41,0.625, 0.584,0.942c 0.184,0.328, 0.369,0.635, 0.532,0.973
	c 0.154,0.348, 0.266,0.707, 0.399,1.065c 0.123,0.348, 0.236,0.696, 0.317,1.065c 0.092,0.369, 0.123,0.696, 0.174,1.065
	c 0.061,0.44, 0.113,0.819, 0.133,1.26c0,0.123, 0.031,0.236, 0.031,0.358c0,0.215-0.051,0.43-0.051,0.655
	c-0.041,0.44-0.072,0.84-0.143,1.27c-0.051,0.379-0.154,0.707-0.236,1.085c-0.102,0.358-0.195,0.707-0.338,1.065
	c-0.164,0.399-0.338,0.778-0.532,1.157c-0.102,0.205-0.174,0.41-0.276,0.604l-34.662,59.412c 7.68,2.898, 15.944,4.547, 24.607,4.547
	c 38.574,0, 69.827-31.57, 69.827-70.124C 488.745,116.081, 457.482,84.5, 418.908,84.5z"  />
<glyph unicode="&#xe042;" d="M 366.817,54.252c-106.772-35.502-222.177,22.139-257.731,128.758C 73.533,289.618, 131.277,404.828, 238.049,440.33
		C 288.512,457.114, 340.89,453.079, 385.864,432.896C 325.97,469.893, 250.675,481.065, 178.616,457.114C 49.695,414.228-20.029,275.118, 22.907,146.391
		C 65.843,17.644, 205.179-51.968, 334.131-9.114C 430.879,23.060, 494.295,109.435, 501.76,204.943C 487.158,136.765, 437.873,77.865, 366.817,54.252zM 350.812,409.631L 392.735,331.172L 483.574,339.907L 416.010,274.698L 458.179,192.287L 376.474,231.506L 309.709,170.783L 323.236,259.748L 243.354,305.111L 329.492,322.048 	z"  />
<glyph unicode="&#xe043;" d="M 500.675,324.823L 460.38,8.96L 324.28,8.96 l-40.131,315.863l 166.154,0 L 483.144,439.040L 501.76,433.828L 470.252,324.864L 500.675,324.823zM 264.909,140.882c0,0, 5.089,45.906-65.485,45.906L 87.030,186.788 c-70.472,0-65.485-45.906-65.485-45.906L 264.909,140.882 zM 21.545,54.979c0,0-4.987-46.019, 65.485-46.019l 112.404,0 c 70.574,0, 65.485,46.019, 65.485,46.019L 21.545,54.979 zM 254.351,77.261c 11.551,0, 20.879,9.4, 20.879,20.736c0,11.407-9.329,20.756-20.879,20.756L 31.13,118.753 
		C 19.63,118.764, 10.24,109.414, 10.24,97.997c0-11.336, 9.39-20.736, 20.89-20.736L 254.351,77.261 z"  />
<glyph unicode="&#xe044;" d="M 232.468,309.35c0-16.015-15.852-33.044-36.147-33.044l0-269.394 c0-38.246-56.709-38.246-56.709,0L 139.612,276.306 
		c-19.835,0-37.212,14.090-37.212,35.461L 102.4,459.971 c0,12.892, 20.265,13.404, 20.265-0.553l0-109.578 l 16.957,0 l 19.466,0 l-1.475,0 L 157.614,460.216 
		c0,12.39, 18.954,12.841, 18.954-0.338l0-110.049 l 36.157,0 L 212.726,460.216 c0,12.227, 19.732,12.718, 19.732-0.338L 232.458,309.35 zM 409.6,425.39l0-418.314 c0-37.468-56.678-36.884-56.678,0L 352.922,173.015 l-30.136,0 L 322.785,425.39 C 322.775,484.116, 409.6,484.116, 409.6,425.39z"  />
<glyph unicode="&#xe045;" d="M 443.187,337.705L 255.57,469.76l-42.24-29.778l 0.635-0.492L 48.742,322.038l0,0l0,0L 10.24,295.342l0-62.495 l 39.311,26.491L 49.551-21.76 l 3.973,0 l 42.854,0 l 6.359,0 
		l 303.237,0 l 13.23,0 l 39.465,0 l 3.789,0 L 462.459,261.847 L 501.76,232.847l0,62.495 L 443.187,337.705z M 403.456,38.124L 101.99,38.124 L 101.99,297.134 L 256.174,408.125L 403.456,302.131L 403.456,38.124 zM 186.726,267.356c 10.977,0, 20.050,9.042, 20.050,20.347c0,11.284-9.073,20.419-20.050,20.419c-11.11,0-20.101-9.144-20.101-20.419
		C 166.625,276.398, 175.616,267.356, 186.726,267.356zM 159.355,70.676c0-6.277, 4.485-12.196, 10.68-12.196c 6.226,0, 10.588,4.495, 10.588,10.803l0,95.242 l 13.117,0 l0-95.242 
		c0-6.298, 3.84-11.5, 10.035-11.5c 6.226,0, 10.742,6.615, 10.742,12.902l-0.502,167.035l 12.472,0 l0-66.529 c0-6.656, 13.107-6.656, 13.107,0l0,65.044 
		c0,13.548-10.547,26.778-26.235,26.778l-53.217,0.123c-14.223,0-25.395-11.858-25.395-26.573l0-65.372 c0-6.656, 13.097-6.656, 13.097,0l0,66.529 l 11.653,0 
		L 159.355,70.676zM 329.134,267.356c 11.018,0, 20.101,9.042, 20.101,20.347c0,11.284-9.083,20.419-20.101,20.419c-11.049,0-20.142-9.144-20.142-20.419
		C 308.992,276.398, 318.075,267.356, 329.134,267.356zM 301.814,70.676c0-6.277, 5.263-12.196, 11.459-12.196c 6.277,0, 11.54,4.495, 11.54,10.803l0,95.242 l 6.564,0 l0-95.242 
		c0-6.298, 6.195-11.5, 12.431-11.5c 6.236,0, 11.94,6.615, 11.94,12.902l 0.696,167.035l 7.711,0 l0-66.529 c0-6.656, 19.651-6.656, 19.651,0l0,65.044 
		c0,13.548-11.438,26.778-27.105,26.778l-52.746,0.123c-14.254,0-24.996-11.858-24.996-26.573l0-65.372 c0-6.656, 13.107-6.656, 13.107,0l0,66.529 l 9.841,0 
		L 301.814,70.676z"  />
<glyph unicode="&#xe046;" d="M 143.452,35.123L 143.514,49.92c 19.712,0, 147.876,0, 200.264,0c-2.888,0-5.11-11.418-6.267-17.818c-1.536-8.776-0.758-16.579, 1.28-24.361
	l-167.567,0.307C 155.924,8.049, 143.452,20.081, 143.452,35.123z M 364.78,392.806c0-28.221-0.256-281.446-0.328-301.926
	c-20.541,0-142.807,0-191.242,0l 119.788,95.119L 292.721,392.899C 303.606,392.868, 354.673,392.806, 364.78,392.806z M 383.386,8.96l-7.864,0 
	c-4.628,0-6.257,9.544-4.946,17.377C 372.89,39.26, 382.433,49.92, 386.908,49.92l-0.072,0 c 6.472,0, 11.213,9.615, 11.213,16.722l 0.369,338.647
	c0,9.032-7.537,16.763-16.753,16.794c0,0-69.745,0.266-88.893,0.358C 292.864,438.395, 292.905,460.339, 292.905,460.339c0,6.646-4.035,12.677-10.301,15.217
	c-6.267,2.58-13.435,1.208-18.289-3.461L 147.61,358.543c-20.531-19.937-36.731-57.743-36.792-86.088l-0.881-236.38
	c-0.082-33.116, 27.32-60.211, 61.164-60.324L 382.976-24.883c 9.196,0, 16.384,7.342, 16.384,16.374c0,0.051,0,0.051,0,0.051
	C 399.36,0.635, 392.673,8.96, 383.386,8.96z"  />
<glyph unicode="&#xe047;" d="M 297.144,114.555c-20.675-14.92-33.075-37.571-37.089-63.529l 85.217,61.46c 1.362,0.983, 3.287,0.655, 4.25-0.625
		c 0.993-1.372, 0.696-3.246-0.666-4.239l-85.207-61.471c 26.307-4.065, 52.019,0.737, 72.694,15.657c 21.75,15.647, 34.345,39.977, 37.622,67.635
		C 346.204,134.687, 318.904,130.212, 297.144,114.555zM 157.501,112.486l 85.268-61.46c-4.035,25.958-16.415,48.609-37.079,63.529c-21.77,15.647-49.091,20.132-76.841,14.899
		c 3.277-27.658, 15.882-51.968, 37.663-67.635c 20.664-14.92, 46.346-19.732, 72.663-15.657l-85.248,61.471c-1.362,0.973-1.638,2.867-0.666,4.229
		C 154.266,113.152, 156.16,113.469, 157.501,112.486zM 288.287,342.016c 189.788,107.909-36.833,236.882-36.874,20.992c 0.041,215.89-226.611,87.009-36.915-20.992
		c-189.696,108.001-189.757-149.873,0-41.974c-172.237-97.915-1.464-213.176, 31.58-72.253l0-254.597 c0-2.836, 2.376-5.202, 5.315-5.202
		c 2.939,0, 5.335,2.355, 5.335,5.202L 256.727,227.584 c 33.116-140.636, 203.694-25.508, 31.549,72.458C 477.993,192.051, 478.085,449.925, 288.287,342.016z
		 M 251.402,298.547c-12.585,0-22.815,10.056-22.815,22.487s 10.22,22.487, 22.815,22.487c 12.605,0, 22.815-10.056, 22.815-22.487
		S 264.008,298.547, 251.402,298.547z"  />
<glyph unicode="&#xe048;" d="M 128.522-26.726c-3.482-6.103-13.394-7.066-22.139-2.048l-54.743,31.16c-8.704,4.966-12.954,13.947-9.462,20.040L 275.005,391.506
				c 33.485,54.129-83.558,49.357-112.292,33.423C 184.443,463.892, 253.696,476.754, 298.609,480l 13.066-0.85c 25.385-12.646, 61.788-31.621, 85.78-47.534
				c 17.623-27.679, 36.209-42.25, 62.525-42.179c 34.345-26.317-19.302-98.109-53.053-64.86c 0.184,16.425-47.473,58.921-80.855,23.91L 128.522-26.726z"  />
<glyph unicode="&#xe049;" d="M 256,469.76l 72.52-123.965L 471.040,345.764l-71.25-121.754L 471.040,102.216l-142.5-0.020L 256-21.76l-72.53,123.955L 40.96,102.216l 71.25,121.795L 40.96,345.764
	l 142.52,0.031L 256,469.76z M 163.041,224.010l 45.957-78.643l 93.85,0 l 46.090,78.643l-46.070,78.848l-93.706,0 L 163.041,224.010z M 353.679,145.254l 41.38,0 
	l-20.675,35.359L 353.679,145.254z M 116.91,145.377l 41.39,0 l-20.705,35.369L 116.91,145.377z M 235.428,346.88l 41.39,0 l-20.695,35.348L 235.428,346.88z
	 M 374.385,267.479l 20.685,35.338l-41.38,0 L 374.385,267.479z M 137.595,267.325l 20.705,35.359l-41.39,0 L 137.595,267.325z M 256.123,65.874l 20.695,35.328
	L 235.418,101.202 L 256.123,65.874z"  />
<glyph unicode="&#xe04a;" d="M 256,418.56c-12.933,0-18.78-6.308-22.63-13.169L 72.499,102.574L 37.734,102.574 c-15.176,0-27.494-11.725-27.494-26.327
		c0-14.572, 12.319-26.317, 27.494-26.317l 50.125,0 l 336.302,0 l 50.125,0 c 15.165,0, 27.494,11.745, 27.494,26.317c0,14.612-12.319,26.327-27.494,26.327L 439.501,102.574 
		l-160.86,302.828C 274.78,412.252, 268.943,418.56, 256,418.56L 256,418.56z M 256,286.904l 90.542-184.33L 165.458,102.574 L 256,286.904z"  />
<glyph unicode="&#xe04b;" d="M 61.44,377.6l0-355.738 C 61.44,6.81, 74.107-11.52, 89.702-11.52l 340.152,0 C 445.409-11.52, 460.8,6.81, 460.8,21.862L 460.8,377.6 L 61.44,377.6 z M 260.71,93.174
		c-60.006,0-108.657,47.043-108.657,105.093c0,58.051, 48.65,105.093, 108.657,105.093s 108.657-47.043, 108.657-105.093
		C 369.367,140.206, 320.717,93.174, 260.71,93.174zM 429.855,469.76L 89.702,469.76 C 74.107,469.76, 61.44,459.182, 61.44,444.109L 61.44,387.84 l 399.36,0 L 460.8,444.109 C 460.8,459.182, 445.409,469.76, 429.855,469.76z M 194.56,408.32L 81.92,408.32 L 81.92,449.28 l 112.64,0 L 194.56,408.32 z M 390.615,411.187
		c-12.79,0-23.122,10.025-23.122,22.405c0,12.36, 10.332,22.385, 23.122,22.385s 23.153-10.025, 23.153-22.385C 413.757,421.222, 403.405,411.187, 390.615,411.187z
		"  />
<glyph unicode="&#xe04c;" d="M 30.116,402.35c-30.116,0-15.053-10.107,0-22.344L 256,207.022l 225.884,172.984c 15.073,12.237, 30.116,22.344,0,22.344
		L 240.937,402.35 L 30.116,402.35 z M0,357.673l0-253.215 c0-14.899, 15.237-29.788, 27.29-29.788l 457.421,0 c 12.063,0, 27.29,14.889, 27.29,29.788l0,253.215 l-256-195.328
		L0,357.673z"  />
<glyph unicode="&#xe04d;" d="M 337.92,346.88l0,28.293 C 337.92,400.558, 321.976,428.8, 296.612,428.8l-85.381,0 C 185.856,428.8, 163.84,400.558, 163.84,375.173L 163.84,346.88 L 51.2,346.88 l0-296.96 l 409.6,0 L 460.8,346.88 L 337.92,346.88 z M 194.56,375.173
			C 194.56,384.676, 201.728,398.080, 211.231,398.080l 85.381,0 C 306.094,398.080, 307.2,384.676, 307.2,375.173L 307.2,346.88 L 194.56,346.88 L 194.56,375.173 z M 250.593,93.655c-58.829,0-106.568,47.729-106.568,106.598
			c0,58.829, 47.739,106.527, 106.568,106.527s 106.537-47.698, 106.537-106.527C 357.13,141.384, 309.422,93.655, 250.593,93.655zM 250.614,282.665c-45.578,0-82.545-36.884-82.545-82.412c0-45.609, 36.966-82.504, 82.545-82.504c 45.527,0, 82.442,36.895, 82.442,82.504
		C 333.056,245.78, 296.141,282.665, 250.614,282.665z M 266.24,142.080l-30.72,0 l0,81.92 l 30.72,0 L 266.24,142.080 z M 250.88,234.24c-8.489,0-15.36,6.871-15.36,15.36
		c0,0.44, 0.092,0.86, 0.133,1.3c-0.010,0.256-0.154,0.481-0.154,0.748c0,6.687, 5.048,11.96, 11.489,12.749
		C 248.238,264.735, 249.528,264.96, 250.88,264.96c 8.489,0, 15.36-6.871, 15.36-15.36S 259.369,234.24, 250.88,234.24z"  />
</font>
</defs>
</svg>
