<?xml version="1.0" encoding="utf-8"?>
<!-- Generator: Adobe Illustrator 15.1.0, SVG Export Plug-In . SVG Version: 6.00 Build 0)  -->
<svg version="1.2" baseProfile="tiny" id="Layer_1" xmlns="http://www.w3.org/2000/svg" xmlns:xlink="http://www.w3.org/1999/xlink"
	 x="0px" y="0px" width="50px" height="50px" viewBox="0 0 50 50" overflow="inherit" xml:space="preserve">
<g>
	<path fill="#231F20" d="M43.633,9.803C46.05,9.803,48,7.828,48,5.401C48,2.969,46.05,1,43.633,1c-2.404,0-4.354,1.969-4.354,4.401
		C39.278,7.828,41.229,9.803,43.633,9.803z"/>
	<path fill="#231F20" d="M31,48h12c0,0,1-0.103,1-1v-1h1c0,0,0.411,2.709-1.857,3H31V48z"/>
	<path fill="#231F20" d="M3,39l8,8c0,0,0.659,0.248,1.291-0.384l0.632-0.637L14,47c0,0-1.795,2.62-3.604,1.207L2,39.727L3,39z"/>
	<path fill="#231F20" d="M33.905,35.752l0.014,7.968c0,1.498,1.056,2.711,2.54,2.711c1.361,0,2.541-1.585,2.541-2.711V32.632
		c0-0.772-0.174-1.473-0.688-1.967l-6.38-6.488l8.586-8.63c1.607-2.024,0.778-4.451,0.778-4.451
		c-0.883-2.692-3.902-2.785-3.902-2.785L15.365,8.305c-1.171,0-2.126,0.959-2.126,2.147c0,1.195,0.958,2.148,2.13,2.148
		l15.212,0.024l-6.402,6.438c-0.919,0.947-1.385,2.012-1.385,3.404c0,1.337,0.527,2.532,1.411,3.405L33.905,35.752z"/>
	<path fill="#231F20" d="M22.842,27.086c-0.208-0.198-0.393-0.414-0.563-0.644L9.567,39.3c-0.962,0.78-1.275,2.154-0.698,3.299
		c0.662,1.312,2.263,1.833,3.562,1.158c0.178-0.094,0.338-0.205,0.491-0.328L25.97,30.237L22.842,27.086z"/>
</g>
</svg>
