<?xml version="1.0" encoding="utf-8"?>
<!-- Generator: Adobe Illustrator 15.1.0, SVG Export Plug-In . SVG Version: 6.00 Build 0)  -->
<svg version="1.2" baseProfile="tiny" id="Layer_1" xmlns="http://www.w3.org/2000/svg" xmlns:xlink="http://www.w3.org/1999/xlink"
	 x="0px" y="0px" width="50px" height="50px" viewBox="0 0 50 50" overflow="inherit" xml:space="preserve">
<path d="M33.856,8.581c2.079,0,3.749-1.691,3.749-3.785S35.936,1,33.856,1c-2.07,0-3.742,1.702-3.742,3.796
	S31.786,8.581,33.856,8.581z"/>
<path d="M17.954,23.953l13.477-8.812c1.76-1.13,2.292-3.482,1.174-5.262c-1.105-1.781-3.441-2.318-5.202-1.187l-9.936,6.493
	c-0.564,0.37-1.007,0.852-1.294,1.411L5.829,37.221c-0.609,1.221-0.132,2.699,1.063,3.315c1.195,0.614,2.667,0.134,3.275-1.076
	L17.954,23.953z"/>
<path d="M44.204,22.509c1.782-1.131,2.336-3.504,1.217-5.308l-1.307,0.806c0.675,1.086,0.344,2.508-0.729,3.18L2,47.689L2.819,49
	L44.204,22.509z"/>
</svg>
