<?xml version="1.0" encoding="utf-8"?>
<!-- Generator: Adobe Illustrator 15.1.0, SVG Export Plug-In . SVG Version: 6.00 Build 0)  -->
<svg version="1.2" baseProfile="tiny" id="Layer_1" xmlns="http://www.w3.org/2000/svg" xmlns:xlink="http://www.w3.org/1999/xlink"
	 x="0px" y="0px" width="50px" height="50px" viewBox="0 0 50 50" overflow="inherit" xml:space="preserve">
<g>
	<path fill="#231F20" d="M20.689,12.393c1.98,0,3.581-1.649,3.581-3.702C24.27,6.66,22.669,5,20.689,5
		C18.708,5,17.1,6.66,17.1,8.691C17.1,10.744,18.708,12.393,20.689,12.393z"/>
	<path fill="#231F20" d="M24.906,42h17.059c0,0,1.103,0.2,3.296-1.612L49,37.574v3.32l-3.814,2.938c0,0-1.133,0.949-3.042,1.168
		H23.476L24.906,42z"/>
	<polygon fill="#231F20" points="1.143,45 18.21,45 19.629,42 19.492,42 2.425,42 1,45 	"/>
	<path fill="#231F20" d="M22.491,17.018c0-2.112-1.768-3.828-3.744-3.828c-1.979,0-3.747,1.716-3.747,3.828v9.359
		C15,27.562,15.866,29,16.664,29H8.646l-4.335,8.583c-0.095,0.191-0.137,0.599-0.137,0.825C4.173,39.176,5.281,40,6,40h29
		c0,0,1.309,0.115,3.222-1.49l7.675-6.077L43,27c0,0-0.656-1.321-3.107-1.718l-5.794-1.045l-3.108-5.546l-0.133-0.058
		C30.403,18.08,30,18.022,29,18.496v0.012c0,0.361-0.511,0.948-0.309,1.467L31,24.086v0.033l-3.037,5.25L22,26.996V25h5.089
		c0.224,0,0.456-0.188,0.677-0.289c0.879-0.348,1.312-1.48,0.973-2.407c-0.251-0.723-0.889-1.193-1.553-1.204l-4.705-0.032
		L22.491,17.018"/>
</g>
</svg>
