<?xml version="1.0" encoding="utf-8"?>
<!-- Generator: Adobe Illustrator 15.1.0, SVG Export Plug-In . SVG Version: 6.00 Build 0)  -->
<svg version="1.2" baseProfile="tiny" id="Layer_1" xmlns="http://www.w3.org/2000/svg" xmlns:xlink="http://www.w3.org/1999/xlink"
	 x="0px" y="0px" width="50px" height="50px" viewBox="0 0 50 50" overflow="inherit" xml:space="preserve">
<path d="M39.922,28.087c0.463,0.227,1.027,0.223,1.253-0.011c0.229-0.233,0.031-0.601-0.438-0.817l-8.178-3.788
	c-0.469-0.218-1.257-0.273-1.749-0.125l-2.925,0.877c-0.497,0.149-1.145,0.271-1.439,0.271c-0.294,0-0.539-0.414-0.539-0.922v-8.919
	c0-0.507,0.423-0.923,0.941-0.923h21.209c0.52,0,0.942-0.415,0.942-0.923V9.812c0-0.508-0.407-1.042-0.902-1.187L25.762,2.108
	c-0.495-0.145-1.307-0.145-1.802,0.002L1.899,8.624C1.405,8.769,1,9.305,1,9.812v2.994c0,0.508,0.423,0.923,0.94,0.923h20.93
	c0.518,0,0.941,0.416,0.941,0.923v8.924c0,0.507-0.423,0.923-0.941,0.924h-0.38c-0.518,0.001-1.244-0.289-1.616-0.643l-5.046-4.819
	c-0.373-0.355-1.099-0.644-1.617-0.644h-2.334c-0.516,0-1.139-0.305-1.382-0.676c-0.241-0.372-0.803-0.674-1.248-0.674
	s-0.582,0.348-0.302,0.776l0.044,0.067c0.28,0.427,0.281,1.13,0.006,1.559l-2.524,3.924c-0.274,0.431-0.189,1.061,0.196,1.402
	l0.179,0.161c0.385,0.34,1.071,0.428,1.53,0.191l2.704-1.407c0.46-0.238,1.061-0.083,1.34,0.344l2.967,4.542
	c0.281,0.428,0.187,1.048-0.208,1.376l-1.357,1.133c-0.395,0.328-0.625,1.001-0.511,1.498l1.759,7.652
	c0.114,0.497,0.619,0.8,1.121,0.675l1.223-0.302c0.503-0.126,0.819-0.632,0.709-1.128l-1.191-5.175
	c-0.114-0.495,0.201-1.013,0.702-1.146l3.007-0.806c0.498-0.134,1.331-0.241,1.849-0.241h0.38c0.518,0,0.941,0.415,0.941,0.92v9.177
	c0,0.506-0.423,0.921-0.941,0.921H1.94c-0.517,0-0.94,0.414-0.94,0.924v2.992C1,47.586,1.423,48,1.94,48h45.728
	c0.518,0,0.94-0.414,0.94-0.925v-2.992c0-0.51-0.423-0.924-0.94-0.924H26.849c-0.519,0-0.941-0.415-0.941-0.921v-9.177
	c0-0.505,0.423-0.92,0.941-0.92h1.084c0.518,0,1.345,0.107,1.848,0.241l3.007,0.806c0.502,0.133,0.818,0.65,0.702,1.146
	l-1.188,5.175c-0.116,0.496,0.202,1.002,0.705,1.128l1.225,0.302c0.503,0.125,1.004-0.178,1.12-0.675l1.761-7.652
	c0.117-0.497-0.105-1.16-0.488-1.482c-0.382-0.318-0.719-0.996-0.749-1.502l-0.153-2.707c-0.031-0.506,0.326-0.735,0.79-0.507
	L39.922,28.087z"/>
</svg>
