<?xml version="1.0" encoding="utf-8"?>
<!-- Generator: Adobe Illustrator 15.1.0, SVG Export Plug-In . SVG Version: 6.00 Build 0)  -->
<svg version="1.2" baseProfile="tiny" id="Layer_1" xmlns="http://www.w3.org/2000/svg" xmlns:xlink="http://www.w3.org/1999/xlink"
	 x="0px" y="0px" width="50px" height="50px" viewBox="0 0 50 50" overflow="inherit" xml:space="preserve">
<path d="M1,6.381c0,0,2.257,4,2.257,6.556s-2.244,6.355-2.244,6.355c0,0.594,0.401,0.796,0.876,0.456l7.383-5.296
	c1.491,1.101,4.412,2.562,6.533,3.762v4.286l4.735-2.696c1.52,0.345,3.062,0.564,4.713,0.564c9.949,0,18.026-6.455,18.026-7.531
	c0-0.935-6.074-5.933-14.201-7.223L20.042,1v4.987c-4.236,1.174-8.569,3.609-10.769,5.234l-7.41-5.296C1.389,5.584,1,5.787,1,6.381
	 M35.251,14.147c-1.171,0-2.122-0.963-2.122-2.153s0.951-2.152,2.122-2.152c1.173,0,2.118,0.962,2.118,2.152
	S36.424,14.147,35.251,14.147 M49,32.88c0-0.595-0.389-0.798-0.863-0.456l-7.374,5.298c-2.2-1.625-6.489-4.06-10.731-5.233V27.5
	l-9.072,4.613c-8.13,1.289-14.221,6.289-14.221,7.224c0,1.076,8.069,7.534,18.017,7.534c1.65,0,3.229-0.224,4.747-0.57L34.273,49
	v-4.285c2.118-1.203,5.005-2.662,6.489-3.767l7.364,5.297c0.479,0.345,0.869,0.139,0.869-0.451c0,0-2.248-3.799-2.248-6.357
	C46.748,36.879,49,32.88,49,32.88 M16.215,39.268c-1.172,0-2.119-0.961-2.119-2.153c0-1.188,0.947-2.148,2.119-2.148
	c1.17,0,2.12,0.961,2.12,2.148C18.335,38.307,17.386,39.268,16.215,39.268"/>
</svg>
