<?xml version="1.0" encoding="utf-8"?>
<!-- Generator: Adobe Illustrator 15.1.0, SVG Export Plug-In . SVG Version: 6.00 Build 0)  -->
<svg version="1.2" baseProfile="tiny" id="Layer_1" xmlns="http://www.w3.org/2000/svg" xmlns:xlink="http://www.w3.org/1999/xlink"
	 x="0px" y="0px" width="50px" height="50px" viewBox="0 0 50 50" overflow="inherit" xml:space="preserve">
<g>
	<path d="M41.405,21.888l-2.459-10.266c-0.431-1.791-2.246-2.916-4.047-2.474c-1.584,0.387-2.354,1.484-2.666,2.256
		c-0.369,0.911-2.016,5.039-2.401,5.892c-0.135,0.296-0.42,0.452-0.478,0.478c-0.327,0.145-3.6,1.526-3.6,1.526v0.006
		c-0.646,0.303-1.094,0.949-1.094,1.703c0,1.043,0.854,1.889,1.907,1.889c0.227,0,0.443-0.047,0.646-0.119
		c0,0.001-0.002,0.004,0,0.007c0.021-0.009,4.345-1.806,4.345-1.806c0.596-0.278,0.887-0.63,1.183-1.143
		c0.124-0.216,0.501-1.12,0.808-1.862l2.622,10.965C36.17,35.01,36.168,45.93,36.168,45.93c-0.005,1.688,1.161,3.064,2.865,3.07
		c1.706,0.006,2.939-1.357,2.95-3.048c0,0,0.017-19.107,0.017-20.053C41.998,24.956,41.623,22.715,41.405,21.888z"/>
	<ellipse cx="31.899" cy="4.82" rx="3.855" ry="3.82"/>
	<path d="M17.131,37.102v4.28c0.555-0.102,1.004-0.356,1.353-0.763c0.346-0.407,0.519-0.883,0.519-1.431
		c0-0.49-0.145-0.913-0.435-1.269C18.274,37.567,17.795,37.295,17.131,37.102z"/>
	<path d="M14.487,30.455c-0.26,0.35-0.391,0.738-0.391,1.162c0,0.39,0.119,0.748,0.354,1.08c0.238,0.334,0.597,0.604,1.074,0.808
		v-3.797l0,0C15.089,29.854,14.742,30.104,14.487,30.455z"/>
	<path d="M24.657,25.371h0.004l-5.975-11.987l-0.001,0.011c-0.439-0.908-1.371-1.535-2.455-1.535h-5.507
		C9.22,11.859,8,13.067,8,14.557v21.004c0,0.003,0,0.006,0,0.009V49h16.966V26.723C24.964,26.239,24.853,25.781,24.657,25.371z
		 M20.505,42.14c-0.81,0.907-1.934,1.463-3.371,1.667v2.053h-1.607v-1.998c-1.278-0.153-2.313-0.626-3.113-1.415
		c-0.796-0.791-1.305-1.906-1.526-3.347l2.89-0.309c0.117,0.586,0.338,1.091,0.665,1.517c0.323,0.424,0.685,0.731,1.083,0.921
		v-4.598c-1.446-0.41-2.509-1.031-3.182-1.858c-0.677-0.83-1.015-1.837-1.015-3.023c0-1.2,0.381-2.208,1.148-3.025
		c0.764-0.815,1.78-1.286,3.05-1.409v-1.087h1.607v1.087c1.172,0.138,2.107,0.535,2.801,1.189c0.692,0.653,1.135,1.532,1.328,2.629
		l-2.801,0.362c-0.171-0.862-0.613-1.449-1.328-1.756v4.29c1.771,0.477,2.978,1.093,3.621,1.849
		c0.641,0.758,0.963,1.729,0.963,2.914C21.718,40.117,21.314,41.232,20.505,42.14z"/>
</g>
</svg>
