<?xml version="1.0" encoding="utf-8"?>
<!-- Generator: Adobe Illustrator 15.1.0, SVG Export Plug-In . SVG Version: 6.00 Build 0)  -->
<svg version="1.2" baseProfile="tiny" id="Layer_1" xmlns="http://www.w3.org/2000/svg" xmlns:xlink="http://www.w3.org/1999/xlink"
	 x="0px" y="0px" width="50px" height="50px" viewBox="0 0 50 50" overflow="inherit" xml:space="preserve">
<path d="M34.682,25.801c-1.438-1.134-3.596-2.04-6.474-2.717L26,22.563v-9.43c0.098,0.043,0.205,0.075,0.299,0.122
	C28.173,14.204,29.18,16,29.318,18h7.516c-0.137-4-1.615-6.958-4.434-9.048C30.527,7.563,28.391,6.67,26,6.22V1h-7v5.06
	c-3.237,0.4-5.804,1.442-7.689,3.136c-2.468,2.218-3.701,5.002-3.701,8.354c0,3.673,1.261,6.373,3.783,8.1
	c1.412,0.979,3.957,1.888,7.607,2.73v10.216c-1.331-0.367-2.374-0.971-3.109-1.844C15.182,35.904,14.707,35,14.465,33H7
	c0,4,1.411,6.87,4.234,9.096c2.038,1.606,4.632,2.582,7.766,3.005V49h7v-3.833c3.333-0.399,6.024-1.463,8.062-3.204
	c2.643-2.26,3.965-5.1,3.965-8.519C38.027,30.109,36.912,27.562,34.682,25.801z M16.668,19.984c-1.215-0.66-1.822-1.662-1.822-3
	c0-1.456,0.616-2.597,1.848-3.409c0.65-0.429,1.424-0.741,2.306-0.947v8.224C17.915,20.536,17.132,20.246,16.668,19.984z
	 M27.143,38.391c-0.347,0.12-0.734,0.219-1.143,0.306V30c1.205,0.357,2.156,0.746,2.848,1.164c1.092,0.677,1.639,1.64,1.639,2.875
	C30.486,36.155,29.371,37.612,27.143,38.391z"/>
</svg>
