<?xml version="1.0" encoding="utf-8"?>
<!-- Generator: Adobe Illustrator 15.1.0, SVG Export Plug-In . SVG Version: 6.00 Build 0)  -->
<svg version="1.2" baseProfile="tiny" id="Layer_1" xmlns="http://www.w3.org/2000/svg" xmlns:xlink="http://www.w3.org/1999/xlink"
	 x="0px" y="0px" width="50px" height="50px" viewBox="0 0 50 50" overflow="inherit" xml:space="preserve">
<path d="M40.909,22.651c-1.266,0-2.469,0.26-3.562,0.727l-3.076-5.271l2.318-3.973c0.315-0.542,0.132-1.238-0.409-1.555
	c-0.238-0.138-0.503-0.388-0.754-0.347C35.36,12.221,35.296,12,35.229,12h-4.547c-0.627,0-1.136,0.873-1.136,1.5
	c0,0.628,0.509,1.5,1.136,1.5h2.947l-1.327,2H19.024l2.652-5h1.051c0.627,0,1.136-0.372,1.136-1s-0.509-1-1.136-1h-5.683
	c-0.626,0-1.136,0.372-1.136,1s0.509,1,1.136,1h1.999l-6.389,11.165c-1.094-0.467-2.299-0.62-3.564-0.62
	C4.07,22.545,0,26.669,0,31.689c0,5.021,4.07,9.117,9.091,9.117s9.091-4.057,9.091-9.078c0-2.94-1.402-5.541-3.57-7.204l2.433-4.166
	l6.974,11.956c0.008,0.013,0.018,0.025,0.027,0.038c0.009,0.017,0.02,0.031,0.03,0.045c0.008,0.013,0.014,0.023,0.023,0.034
	c0.028,0.037,0.059,0.071,0.09,0.104c0.003,0.004,0.007,0.008,0.011,0.013c0.01,0.01,0.02,0.019,0.031,0.028
	c0.01,0.009,0.021,0.018,0.032,0.026c0.028,0.024,0.058,0.049,0.088,0.07c0.012,0.009,0.024,0.016,0.037,0.024
	c0.01,0.006,0.019,0.012,0.029,0.019c0.004,0.002,0.007,0.005,0.012,0.007c0.001,0.002,0.003,0.002,0.004,0.004
	c0.031,0.017,0.063,0.032,0.096,0.047c0.004,0.003,0.007,0.004,0.011,0.005c0.007,0.003,0.015,0.009,0.023,0.012
	c0.002,0,0.005,0.002,0.008,0.002c0.023,0.01,0.049,0.018,0.073,0.026c0.023,0.008,0.045,0.017,0.068,0.022
	c0.005,0.001,0.01,0.001,0.014,0.004c0.009,0.001,0.017,0.002,0.025,0.004c0.014,0.003,0.029,0.005,0.044,0.009
	c0.068,0.013,0.135,0.021,0.204,0.021h0c0.001,0,0.001,0.062,0.001,0.062c0.002,0,0.003,0.059,0.004,0.059h6.891
	c0.562,4,4.378,7.895,9.013,7.895c5.021,0,9.091-4.101,9.091-9.122C50,26.752,45.93,22.651,40.909,22.651z M15.909,31.742
	c0,3.767-3.052,6.819-6.818,6.819c-3.766,0-6.818-3.053-6.818-6.819c0-3.765,3.052-6.817,6.818-6.817
	c0.847,0,1.655,0.161,2.403,0.444l-3.385,5.802c-0.316,0.541-0.132,1.237,0.41,1.555c0.18,0.104,0.377,0.154,0.571,0.154
	c0.391,0,0.771-0.202,0.983-0.563l3.386-5.806C14.955,27.762,15.909,29.641,15.909,31.742z M25,29.244L19.024,19h11.953L25,29.244z
	 M32.954,20.559l2.434,4.268C33.506,26.271,32.206,28,31.896,31h-4.918L32.954,20.559z M36.541,26.904L38.932,31h-4.738
	C34.468,29,35.32,27.925,36.541,26.904z M40.909,38.623c-3.377,0-6.175-2.623-6.716-5.623h6.713c0.003,0,0.003-0.059,0.005-0.059
	c0.068,0,0.136-0.04,0.203-0.053c0.016-0.004,0.03-0.021,0.046-0.023c0.062-0.015,0.125-0.041,0.189-0.066
	c0.006-0.003,0.013-0.013,0.021-0.016c0.037-0.017,0.075-0.037,0.113-0.058c0.009-0.005,0.017-0.015,0.027-0.021
	c0.034-0.022,0.066-0.048,0.101-0.073c0.026-0.022,0.056-0.043,0.078-0.066c0.028-0.025,0.052-0.054,0.076-0.083
	c0.023-0.026,0.049-0.054,0.068-0.085c0.02-0.027,0.04-0.061,0.057-0.092c0.018-0.032,0.036-0.062,0.052-0.095
	c0.015-0.034,0.026-0.069,0.039-0.104c0.012-0.034,0.023-0.068,0.031-0.104c0.009-0.036,0.012-0.068,0.017-0.104
	c0.006-0.043,0.011-0.08,0.013-0.123c0-0.012,0.003-0.023,0.003-0.035c0-0.021-0.005-0.042-0.005-0.064
	c-0.004-0.043-0.007-0.082-0.014-0.124c-0.005-0.037-0.015-0.069-0.023-0.106c-0.01-0.035-0.019-0.069-0.033-0.104
	c-0.016-0.039-0.033-0.076-0.052-0.113c-0.01-0.02-0.017-0.04-0.027-0.059l-3.385-5.802c0.75-0.283,1.557-0.444,2.403-0.444
	c3.767,0,6.819,3.083,6.819,6.848C47.729,35.539,44.676,38.623,40.909,38.623z"/>
</svg>
