<?xml version="1.0" encoding="utf-8"?>
<!-- Generator: Adobe Illustrator 15.1.0, SVG Export Plug-In . SVG Version: 6.00 Build 0)  -->
<svg version="1.2" baseProfile="tiny" id="Layer_1" xmlns="http://www.w3.org/2000/svg" xmlns:xlink="http://www.w3.org/1999/xlink"
	 x="0px" y="0px" width="50px" height="50px" viewBox="0 0 50 50" overflow="inherit" xml:space="preserve">
<g>
	<path d="M41.162,25H9.142c-0.933,0-1.701-0.802-1.701-1.714c0-0.152,0.028-0.324,0.059-0.462l1.704-11.899
		C9.349,10.152,10.045,10,10.878,10h28.553c0.827,0,1.529,0.139,1.672,0.909l1.704,12.116c0.026,0.141,0.06,0.224,0.06,0.376
		C42.866,24.313,42.094,25,41.162,25z M39.881,38.345c-1.803,0-3.265-1.419-3.265-3.188c0-1.757,1.462-3.174,3.265-3.174
		c1.791,0,3.256,1.417,3.256,3.174C43.137,36.926,41.672,38.345,39.881,38.345z M10.38,38.345c-1.79,0-3.253-1.419-3.253-3.188
		c0-1.757,1.463-3.174,3.253-3.174c1.808,0,3.268,1.417,3.268,3.174C13.648,36.926,12.188,38.345,10.38,38.345z M16,3h20v3H16
		C14,6,14,3,16,3z M44.202,7.59c-0.584-2.813-2.29-3.946-5.073-5.078c-2.778-1.128-9.216-2.48-14.058-2.48
		c-4.863,0-11.334,1.353-14.115,2.48C8.174,3.645,6.496,4.777,5.917,7.59L4,23.249V45h3v2c0,4,5,4,5,0v-2h25v2c0,4,6,4,6,0v-2h3
		V23.249L44.202,7.59z"/>
</g>
</svg>
