<?xml version="1.0" encoding="utf-8"?>
<!-- Generator: Adobe Illustrator 15.1.0, SVG Export Plug-In . SVG Version: 6.00 Build 0)  -->
<svg version="1.2" baseProfile="tiny" id="Layer_1" xmlns="http://www.w3.org/2000/svg" xmlns:xlink="http://www.w3.org/1999/xlink"
	 x="0px" y="0px" width="50px" height="50px" viewBox="0 0 50 50" overflow="inherit" xml:space="preserve">
<path d="M37,7h-4H13H9v4v10v13c0,2.2,1.8,4,4,4h20c2.2,0,4-1.8,4-4v-5c6.076,0,11-4.925,11-11S43.076,7,37,7z M37,24v-3v-9
	c3.314,0,6,2.686,6,6C43,21.313,40.314,24,37,24z"/>
<path d="M2,40v2.301C2,44.197,4.069,45,6.6,45H43.4c2.53,0,4.6-0.803,4.6-2.699V40H2z"/>
</svg>
