<?xml version="1.0" encoding="utf-8"?>
<!-- Generator: Adobe Illustrator 15.1.0, SVG Export Plug-In . SVG Version: 6.00 Build 0)  -->
<svg version="1.2" baseProfile="tiny" id="Layer_1" xmlns="http://www.w3.org/2000/svg" xmlns:xlink="http://www.w3.org/1999/xlink"
	 x="0px" y="0px" width="50px" height="50px" viewBox="0 0 50 50" overflow="inherit" xml:space="preserve">
<rect x="-16" y="1" width="0" height="0"/>
<polygon points="43,6 43,2 7,2 7,6 0,6 0,49 4,49 4,10 7,10 7,14 43,14 43,10 46,10 46,49 50,49 50,6 "/>
<path d="M42.052,29L42.052,29l-6.525-11.125C35.268,17.394,34.617,17,34.081,17H15.918c-0.536,0-1.187,0.394-1.445,0.875L7.949,29
	l0,0C6.877,29,6,29.9,6,31v10c0,1.1,0.877,2,1.949,2H10v3c0,1.65,1.213,3,2.82,3h0.975C15.402,49,17,47.65,17,46v-3h16v3
	c0,1.65,1.597,3,3.205,3h0.975c1.607,0,2.82-1.35,2.82-3v-3h2.052C43.123,43,44,42.1,44,41V31C44,29.9,43.123,29,42.052,29z
	 M11.359,37c-1.345,0-2.436-1.119-2.436-2.5s1.091-2.5,2.436-2.5c1.346,0,2.436,1.119,2.436,2.5S12.705,37,11.359,37z M12.82,29
	l4.436-8.106c0.24-0.492,0.875-0.894,1.41-0.894h12.667c0.536,0,1.171,0.402,1.41,0.894L37.18,29H12.82z M38.641,37
	c-1.345,0-2.436-1.119-2.436-2.5s1.091-2.5,2.436-2.5c1.346,0,2.437,1.119,2.437,2.5S39.986,37,38.641,37z"/>
</svg>
