<?xml version="1.0" encoding="utf-8"?>
<!-- Generator: Adobe Illustrator 15.1.0, SVG Export Plug-In . SVG Version: 6.00 Build 0)  -->
<svg version="1.2" baseProfile="tiny" id="Layer_1" xmlns="http://www.w3.org/2000/svg" xmlns:xlink="http://www.w3.org/1999/xlink"
	 x="0px" y="0px" width="50px" height="50px" viewBox="0 0 50 50" overflow="inherit" xml:space="preserve">
<g>
	<path d="M7.743,21.8h3.485v22.4h5.229V25h5.229v19.2h5.228V25h5.23v19.2h5.229V21.8h3.484c0.963,0,1.744-0.716,1.744-1.6
		c0-0.534-0.288-1.004-0.727-1.294l0.003-0.003l-0.026-0.015c-0.015-0.01-0.031-0.018-0.045-0.027l-16.635-8.609V7.73
		c3.072,1.412,5.601-1.02,9.585,0.442V2.601c-3.986-1.462-6.514,0.968-9.585-0.443V1.8c0-0.443-0.389-0.8-0.871-0.8
		S23.43,1.357,23.43,1.8v8.452L6.795,18.859c-0.015,0.009-0.03,0.019-0.045,0.027l-0.025,0.017v0.003
		c-0.437,0.29-0.724,0.761-0.724,1.294C6,21.084,6.781,21.8,7.743,21.8z"/>
	<polygon points="9.485,45.801 6,49 42.602,49 39.115,45.801 	"/>
</g>
</svg>
