<?xml version="1.0" encoding="utf-8"?>
<!-- Generator: Adobe Illustrator 15.1.0, SVG Export Plug-In . SVG Version: 6.00 Build 0)  -->
<svg version="1.2" baseProfile="tiny" id="Layer_1" xmlns="http://www.w3.org/2000/svg" xmlns:xlink="http://www.w3.org/1999/xlink"
	 x="0px" y="0px" width="50px" height="50px" viewBox="0 0 50 50" overflow="inherit" xml:space="preserve">
<g>
	<g id="XMLID_1_">
		<g>
			<path d="M47.36,14.75c0.08,0.29-0.021,0.61-0.19,0.86l-5.39,8.02c-0.2,0.31-0.62,0.48-0.971,0.48c-0.1,0-0.38-0.02-0.489-0.05
				L36,23v19c0,0.58-0.41,1-1,1H14c-0.59,0-1-0.42-1-1V23l-3.88,1.07c-0.45,0.14-0.84-0.04-1.09-0.43l-5.35-8
				c-0.17-0.26-0.22-0.55-0.14-0.84c0.07-0.3,0.28-0.5,0.55-0.64L14,9c1,0,5,0,5,0c0.59,0,1,0.41,1,1c0,2.06,2.89,3.52,4.95,3.52
				c2.06,0,5.05-1.45,5.05-3.52c0-0.58,0.41-1,1-1c0,0,4,0,5,0l10.8,5.06C47.08,14.2,47.28,14.45,47.36,14.75z"/>
		</g>
		<g>
		</g>
	</g>
</g>
</svg>
