<?xml version="1.0" encoding="utf-8"?>
<!-- Generator: Adobe Illustrator 15.1.0, SVG Export Plug-In . SVG Version: 6.00 Build 0)  -->
<svg version="1.2" baseProfile="tiny" id="Layer_1" xmlns="http://www.w3.org/2000/svg" xmlns:xlink="http://www.w3.org/1999/xlink"
	 x="0px" y="0px" width="50px" height="50px" viewBox="0 0 50 50" overflow="inherit" xml:space="preserve">
<path d="M24.847,27.268c3.547,0,5.191,2.69,5.536,6.512c0.081,0.914-0.001,2.247-0.12,3.791C29.865,42.699,29.407,49,32.82,49
	c2.89,0,4.371-5.54,5.229-11.856c0.826-6.252-0.051-9.363,0.382-12.14c0.821-5.26,5.412-9.976,3.994-16.683
	c-0.786-3.721-2.836-5.47-4.864-6.207c-4.674-1.701-7.694,1.577-12.714,1.577c-5.019,0-8.037-3.278-12.713-1.577
	c-2.027,0.736-4.078,2.486-4.866,6.207c-1.415,6.707,3.175,11.422,3.999,16.683c0.429,2.776-0.443,5.888,0.382,12.14
	C12.505,43.46,13.989,49,16.876,49c3.411,0,2.956-6.301,2.558-11.429c-0.116-1.545-0.204-2.878-0.121-3.792
	C19.657,29.958,21.325,27.268,24.847,27.268z"/>
</svg>
