<?xml version="1.0" encoding="utf-8"?>
<!-- Generator: Adobe Illustrator 15.1.0, SVG Export Plug-In . SVG Version: 6.00 Build 0)  -->
<svg version="1.2" baseProfile="tiny" id="Layer_1" xmlns="http://www.w3.org/2000/svg" xmlns:xlink="http://www.w3.org/1999/xlink"
	 x="0px" y="0px" width="50px" height="50px" viewBox="0 0 50 50" overflow="inherit" xml:space="preserve">
<g>
	<g>
		<path d="M24.718,49C13.178,49,3.789,39.611,3.789,28.07c0-7.386,3.776-14.083,10.102-17.913c1.356-0.821,3.118-0.387,3.938,0.967
			c0.82,1.354,0.386,3.117-0.967,3.938c-4.595,2.782-7.338,7.646-7.338,13.008c0,8.379,6.816,15.195,15.195,15.195
			c8.379,0,15.194-6.816,15.194-15.195c0-5.45-2.944-10.515-7.687-13.215c-1.377-0.784-1.856-2.534-1.073-3.91
			c0.784-1.375,2.534-1.855,3.91-1.072c6.53,3.718,10.585,10.692,10.585,18.198C45.647,39.611,36.26,49,24.718,49z"/>
	</g>
	<g>
		<path d="M24.5,27.784c-1.583,0-3.5-1.284-3.5-2.867V4.274c0-1.583,1.917-2.867,3.5-2.867c1.583,0,3.5,1.284,3.5,2.867v20.643
			C28,26.5,26.083,27.784,24.5,27.784z"/>
	</g>
</g>
</svg>
