<?xml version="1.0" encoding="utf-8"?>
<!-- Generator: Adobe Illustrator 15.1.0, SVG Export Plug-In . SVG Version: 6.00 Build 0)  -->
<svg version="1.2" baseProfile="tiny" id="Layer_1" xmlns="http://www.w3.org/2000/svg" xmlns:xlink="http://www.w3.org/1999/xlink"
	 x="0px" y="0px" width="50px" height="50px" viewBox="0 0 50 50" overflow="inherit" xml:space="preserve">
<g id="layer1_4_" transform="translate(0,-952.362)">
	<path id="rect9498-4" d="M11.462,953.362c-1.363,0-2.462,1.127-2.462,2.526v2.526v2.527v15.157v22.736
		c0,1.262,1.231,2.527,2.462,2.527c1.23,0,2.461-1.266,2.461-2.527v-25.894c0.841-0.367,1.659-0.632,2.462-0.632
		c4.923,0,12.185,6.317,17.231,6.317c2.151,0,5.231-0.871,7.384-2.527v-17.684c-2.442,1.879-4.916,3.79-7.384,3.79
		c-4.923,0-12.291-6.316-17.231-6.316c-0.83,0-1.64,0.152-2.462,0.316v-0.316C13.923,954.489,12.824,953.362,11.462,953.362z"/>
</g>
</svg>
