<?xml version="1.0" encoding="utf-8"?>
<!-- Generator: Adobe Illustrator 15.1.0, SVG Export Plug-In . SVG Version: 6.00 Build 0)  -->
<svg version="1.2" baseProfile="tiny" id="Layer_1" xmlns="http://www.w3.org/2000/svg" xmlns:xlink="http://www.w3.org/1999/xlink"
	 x="0px" y="0px" width="50px" height="50px" viewBox="0 0 50 50" overflow="inherit" xml:space="preserve">
<g>
	<ellipse fill="none" cx="25.015" cy="25.003" rx="2.674" ry="2.688"/>
	<path d="M25.554,36.172c3.601,16.811,23.919,3.049,3.74-8.661c22.24,12.908,22.293-17.916,0.045-5.018
		c22.248-12.897-4.317-28.315-4.322-2.509c0.005-25.806-26.564-10.4-4.327,2.509c-22.237-12.91-22.263,17.915-0.019,5.016
		c-20.19,11.704,0.082,25.482,3.684,8.637L25.554,36.172z M22.341,25.003c0-1.486,1.198-2.688,2.674-2.688
		c1.477,0,2.673,1.202,2.673,2.688c0,1.484-1.196,2.688-2.673,2.688C23.54,27.69,22.341,26.487,22.341,25.003z"/>
</g>
</svg>
