<?xml version="1.0" encoding="utf-8"?>
<!-- Generator: Adobe Illustrator 15.1.0, SVG Export Plug-In . SVG Version: 6.00 Build 0)  -->
<svg version="1.2" baseProfile="tiny" id="Layer_1" xmlns="http://www.w3.org/2000/svg" xmlns:xlink="http://www.w3.org/1999/xlink"
	 x="0px" y="0px" width="50px" height="50px" viewBox="0 0 50 50" overflow="inherit" xml:space="preserve">
<g>
	<path d="M46.495,11H3.521c-1.382,0-2.513,1.257-2.513,2.5c0,1.243,1.131,2.499,2.513,2.499h0.607v5h41.821v-5h0.546
		c1.383,0,2.513-1.256,2.513-2.499C49.008,12.257,47.878,11,46.495,11z M25.008,18.52c-0.694,0-1.256-0.579-1.256-1.292
		s0.562-1.292,1.256-1.292c0.695,0,1.256,0.579,1.256,1.292S25.703,18.52,25.008,18.52z"/>
	<path d="M4.128,30.998h41.821V23H4.128V30.998z M25.008,25.624c0.695,0,1.256,0.578,1.256,1.291c0,0.714-0.561,1.292-1.256,1.292
		c-0.694,0-1.256-0.578-1.256-1.292C23.751,26.202,24.314,25.624,25.008,25.624z"/>
	<path d="M4.128,37.895v2.585v3.229c0,0.71,0.089,1.292,0.78,1.292h5.024c0.691,0,1.004-0.582,1.004-1.292v-3.71h28.205v3.71
		c0,0.71,0.252,1.292,0.942,1.292h5.025c0.689,0,0.84-0.582,0.84-1.292v-3.229v-2.585V33H4.128V37.895z M25.008,35.312
		c0.695,0,1.256,0.579,1.256,1.291c0,0.715-0.561,1.291-1.256,1.291c-0.694,0-1.256-0.576-1.256-1.291
		C23.751,35.892,24.314,35.312,25.008,35.312z"/>
</g>
</svg>
