<?xml version="1.0" encoding="utf-8"?>
<!-- Generator: Adobe Illustrator 15.1.0, SVG Export Plug-In . SVG Version: 6.00 Build 0)  -->
<svg version="1.2" baseProfile="tiny" id="Layer_1" xmlns="http://www.w3.org/2000/svg" xmlns:xlink="http://www.w3.org/1999/xlink"
	 x="0px" y="0px" width="50px" height="50px" viewBox="0 0 50 50" overflow="inherit" xml:space="preserve">
<g>
	<g>
		<path d="M35.484,15.034c-0.248,0-0.484-0.167-0.484-0.411v-6.18C35,8.199,34.866,8,34.617,8H15.382C15.133,8,15,8.199,15,8.443
			v6.18C15,14.867,14.731,15,14.481,15H1.449C1.203,15,1,15.267,1,15.508v6.87C1,22.62,1.203,23,1.449,23h20.986
			C22.684,23,23,22.62,23,22.378v-1.465C23,20.669,23.092,20,23.34,20h3.321C26.909,20,27,20.669,27,20.913v1.465
			C27,22.62,27.316,23,27.563,23h20.985C48.798,23,49,22.62,49,22.378v-6.87C49,15.266,48.798,15,48.549,15H35.518L35.484,15.034z
			 M18.093,15C17.845,15,18,14.867,18,14.624v-3.513C18,10.866,17.845,11,18.093,11h13.814C32.155,11,32,10.866,32,11.111v3.513
			C32,14.867,32.155,15,31.907,15H18.093z"/>
	</g>
	<g>
		<path d="M27.055,29.712c0,0.242-0.146,0.288-0.394,0.288H23.34C23.092,30,23,30.107,23,29.865v-4.938
			C23,24.685,22.684,24,22.436,24H1.449C1.203,24,1,24.685,1,24.927v14.629C1,39.799,1.203,40,1.449,40h47.1
			C48.798,40,49,39.799,49,39.557V24.927C49,24.685,48.798,24,48.549,24H27.563C27.316,24,27,24.685,27,24.927v4.938L27.055,29.712z
			"/>
	</g>
</g>
</svg>
