<?xml version="1.0" encoding="utf-8"?>
<!-- Generator: Adobe Illustrator 15.1.0, SVG Export Plug-In . SVG Version: 6.00 Build 0)  -->
<svg version="1.2" baseProfile="tiny" id="Layer_1" xmlns="http://www.w3.org/2000/svg" xmlns:xlink="http://www.w3.org/1999/xlink"
	 x="0px" y="0px" width="50px" height="50px" viewBox="0 0 50 50" overflow="inherit" xml:space="preserve">
<g>
	<circle cx="44" cy="42" r="4"/>
	<circle cx="15" cy="42" r="4"/>
	<path d="M47,33H15.771l0.667-1.082c0.286-0.464,0.37-1.025,0.233-1.553l-0.651-2.506l28.983-1.506C46.102,26.297,47,25.35,47,24.25
		V11c0-1.1-0.9-2-2-2H11.119l-0.391-1.503C10.499,6.615,9.703,6,8.792,6H2C0.896,6,0,6.896,0,8s0.896,2,2,2h5.246l5.34,20.545
		l-2.1,3.405c-0.38,0.617-0.397,1.392-0.043,2.024C10.795,36.607,11.463,37,12.188,37H47c1.104,0,2-0.896,2-2S48.104,33,47,33z"/>
</g>
</svg>
