<?xml version="1.0" encoding="utf-8"?>
<!-- Generator: Adobe Illustrator 15.1.0, SVG Export Plug-In . SVG Version: 6.00 Build 0)  -->
<svg version="1.2" baseProfile="tiny" id="Layer_1" xmlns="http://www.w3.org/2000/svg" xmlns:xlink="http://www.w3.org/1999/xlink"
	 x="0px" y="0px" width="50px" height="50px" viewBox="0 0 50 50" overflow="inherit" xml:space="preserve">
<g>
	<g>
		<path d="M17.962,44.874c0.374,0.403,0.352,1.041-0.05,1.416l-2.172,2.031c-0.402,0.375-1.037,0.353-1.411-0.051L1.68,34.638
			c-0.374-0.403-0.351-1.04,0.051-1.416l2.175-2.028c0.402-0.376,1.037-0.353,1.411,0.051L17.962,44.874z"/>
	</g>
	<g>
		<path d="M34.102,19.224c0.374,0.403,0.351,1.041-0.051,1.416L20.381,33.41c-0.402,0.375-1.037,0.353-1.411-0.051l-3.263-3.521
			c-0.374-0.403-0.351-1.041,0.051-1.416l13.667-12.77c0.401-0.375,1.036-0.353,1.41,0.051L34.102,19.224z"/>
	</g>
	<g>
		<path d="M22.613,40.527c0.374,0.403,0.351,1.04-0.051,1.416l-2.175,2.03c-0.402,0.376-1.037,0.353-1.411-0.051L6.334,30.29
			c-0.374-0.403-0.352-1.041,0.05-1.416l2.171-2.029c0.402-0.375,1.037-0.353,1.411,0.051L22.613,40.527z"/>
	</g>
	<g>
		<path d="M43.676,19.713c0.374,0.403,0.351,1.041-0.052,1.416l-2.174,2.03c-0.402,0.375-1.037,0.353-1.412-0.05L27.394,9.48
			c-0.375-0.403-0.352-1.04,0.05-1.416l2.18-2.035c0.401-0.375,1.036-0.353,1.41,0.051L43.676,19.713z"/>
	</g>
	<g>
		<path d="M48.32,15.373c0.374,0.403,0.351,1.041-0.051,1.417l-2.17,2.029c-0.401,0.376-1.036,0.353-1.41-0.05L32.047,5.134
			c-0.374-0.403-0.352-1.041,0.05-1.417l2.172-2.033c0.401-0.376,1.035-0.354,1.409,0.05L48.32,15.373z"/>
	</g>
</g>
</svg>
