<?xml version="1.0" encoding="utf-8"?>
<!-- Generator: Adobe Illustrator 15.1.0, SVG Export Plug-In . SVG Version: 6.00 Build 0)  -->
<svg version="1.2" baseProfile="tiny" id="Layer_1" xmlns="http://www.w3.org/2000/svg" xmlns:xlink="http://www.w3.org/1999/xlink"
	 x="0px" y="0px" width="50px" height="50px" viewBox="0 0 50 50" overflow="inherit" xml:space="preserve">
<path d="M42.233,25.31c0.347-0.427,1.058-0.918,1.579-1.09l4.294-1.753C48.598,22.22,49,21.568,49,21.019V8.77
	c0-0.55-0.421-1.16-0.935-1.355c0,0-8.983-3.415-15.001-3.415c-5.6,0-13.342,2.953-13.342,2.953
	c-0.514,0.196-1.381,0.411-1.927,0.479L1.993,9.13C1.447,9.197,1,9.702,1,10.252v8.314c0,0.55,0.442,1.083,0.983,1.184l15.795,2.549
	c0.542,0.09,1.405,0.33,1.916,0.533l10.817,2.767c0.543,0.082,1.136,0.574,1.315,1.095l6.359,18.361
	c0.18,0.521,0.754,0.802,1.275,0.627l6.723-2.261c0.521-0.175,0.801-0.743,0.621-1.264l-4.414-12.733
	c-0.18-0.521-0.332-0.976-0.339-1.013c0,0,0,0-0.008-0.038C41.514,26.199,42.233,25.31,42.233,25.31z M34.559,18.701
	c-2.51,0-4.537-2-4.537-4.465c0-2.466,2.027-4.465,4.537-4.465c2.502,0,4.535,2,4.535,4.465
	C39.094,16.701,37.061,18.701,34.559,18.701z"/>
</svg>
