<?xml version="1.0" encoding="utf-8"?>
<!-- Generator: Adobe Illustrator 15.1.0, SVG Export Plug-In . SVG Version: 6.00 Build 0)  -->
<svg version="1.2" baseProfile="tiny" id="Layer_1" xmlns="http://www.w3.org/2000/svg" xmlns:xlink="http://www.w3.org/1999/xlink"
	 x="0px" y="0px" width="50px" height="50px" viewBox="0 0 50 50" overflow="inherit" xml:space="preserve">
<g>
	<g id="XMLID_48_">
		<g>
			<path d="M12.551,49.485c-0.34,0.596-1.308,0.69-2.162,0.2l-5.346-3.043c-0.85-0.485-1.265-1.362-0.924-1.957L26.856,8.642
				c3.27-5.286-8.16-4.82-10.966-3.264C18.012,1.573,24.775,0.317,29.161,0l1.276,0.083c2.479,1.235,6.034,3.088,8.377,4.642
				c1.721,2.703,3.536,4.126,6.106,4.119c3.354,2.57-1.885,9.581-5.181,6.334c0.018-1.604-4.636-5.754-7.896-2.335L12.551,49.485z"
				/>
		</g>
	</g>
</g>
</svg>
