<?xml version="1.0" encoding="utf-8"?>
<!-- Generator: Adobe Illustrator 15.1.0, SVG Export Plug-In . SVG Version: 6.00 Build 0)  -->
<svg version="1.2" baseProfile="tiny" id="Layer_1" xmlns="http://www.w3.org/2000/svg" xmlns:xlink="http://www.w3.org/1999/xlink"
	 x="0px" y="0px" width="50px" height="50px" viewBox="0 0 50 50" overflow="inherit" xml:space="preserve">
<path d="M49,17c0-0.55-0.45-1-1-1H35c-0.55,0-1-0.45-1-1V2c0-0.55-0.45-1-1-1H17c-0.55,0-1,0.45-1,1v13c0,0.55-0.45,1-1,1H2
	c-0.55,0-1,0.45-1,1v16c0,0.55,0.45,1,1,1h13c0.55,0,1,0.45,1,1v13c0,0.55,0.45,1,1,1h16c0.55,0,1-0.45,1-1V35c0-0.55,0.45-1,1-1h13
	c0.55,0,1-0.45,1-1V17z"/>
</svg>
