<?xml version="1.0" encoding="utf-8"?>
<!-- Generator: Adobe Illustrator 15.1.0, SVG Export Plug-In . SVG Version: 6.00 Build 0)  -->
<svg version="1.2" baseProfile="tiny" id="Layer_1" xmlns="http://www.w3.org/2000/svg" xmlns:xlink="http://www.w3.org/1999/xlink"
	 x="0px" y="0px" width="50px" height="50px" viewBox="0 0 50 50" overflow="inherit" xml:space="preserve">
<g>
	<path d="M27.509,9.579c0.605,0.554,1.178,1.077,1.608,1.734l0.239,0.365l0.395-0.188c1.098-0.525,1.847-1.365,2.571-2.177
		c0.546-0.612,1.062-1.191,1.709-1.626l0.402-0.271l-0.259-0.411c-1.127-1.788-2.597-3.276-4.368-4.424l-0.371-0.241l-0.284,0.34
		c-1.114,1.335-2.347,2.583-3.664,3.709l-0.289,0.248l0.162,0.345C25.88,8.089,26.708,8.846,27.509,9.579z"/>
	<path d="M33.94,17.146c3.759,0,6.837-1.536,8.667-4.326l0.218-0.332l-0.273-0.288c-0.318-0.334-0.622-0.683-0.926-1.032
		c-0.907-1.041-1.846-2.117-3.168-2.831l-0.461-0.249L37.77,8.562c-1.546,3.22-4.539,3.896-6.777,3.896
		c-3.923,0-8.638-2.189-10.734-4.985l-1.65-2.201l0.771,2.641C20.813,12.832,27.618,17.146,33.94,17.146z"/>
	<path d="M20.968,25.779c1.562-2.972,1.627-6.452,0.165-9.607c-1.442-3.114-4.111-5.309-7.138-5.875
		c-0.641-0.12-1.273-0.179-1.879-0.179c-3.676,0-6.082,2.146-8.408,4.22c-0.847,0.755-1.647,1.473-2.501,2.082l-0.597,0.436
		l0.614,0.421c0.196,0.127,0.689,0.876,1.086,1.446C3.57,20.533,4.62,22,5.736,22c0,0,0.001,0,0.001,0
		c0.393,0,0.76-0.466,2.039-1.904c0.539-0.605,1.149-1.374,1.476-1.633c1.462-1.161,3.466-2.751,5.655-2.751
		c0.295,0,0.592,0.029,0.881,0.087c1.013,0.203,1.625,0.672,1.87,1.435c0.502,1.563-0.651,3.959-1.64,5.017
		c-0.499,0.535-1.045,0.92-1.624,1.328c-0.83,0.585-1.688,1.191-2.397,2.256l-0.23,0.346l0.299,0.29
		c0.432,0.418,0.861,0.838,1.29,1.258c1.11,1.087,2.258,2.211,3.436,3.273l0.395,0.356l0.332-0.416
		c0.747-0.937,1.535-1.934,2.308-2.953c0.208,0.309,0.429,0.625,0.656,0.949c1.705,2.438,3.638,5.201,2.377,8.812
		c-0.939,2.691-4.11,4.443-7.682,4.186c-4.224-0.296-7.984-3.902-11.497-11.024c-0.219-0.445-0.399-0.944-0.573-1.427
		c-0.407-1.13-0.829-2.298-1.811-3.024l-0.985-0.728l0.194,1.209c1.031,6.432,4.053,12.639,8.085,16.604
		c2.439,2.402,6.441,3.954,10.195,3.954c4.337,0,8.984-2.254,9.016-8.58c0.028-5.925-3.631-9.773-6.572-12.865L20.968,25.779z"/>
	<path d="M48.337,20.346c-1.165-2.167-5.545-3.747-7.742-3.266c-3.328,0.726-5.661,2.609-7.72,4.271
		c-2.107,1.702-3.928,3.171-6.358,3.171c-0.73,0-1.477-0.13-2.283-0.396l-1.28-0.423l0.694,1.155
		c1.594,2.653,3.455,3.943,5.689,3.943c1.815-0.001,3.673-0.871,5.514-1.998l0.413,1.224c0.935,2.769,5.005,6.876,8.71,6.876
		c0.074,0,0.148-0.002,0.222-0.006c1.617-0.072,2.967-0.983,3.905-2.637C50.023,28.873,49.806,23.074,48.337,20.346z M37.396,25.132
		c2.732-1.857,5.602-3.764,7.953-3.349c1.023,1.778,0.605,3.309,0.061,4.293c-1.038,1.873-3.312,3.182-5.532,3.182
		c-1.046,0-2.547-0.298-3.759-1.716l-0.853-0.997C35.979,26.094,36.69,25.611,37.396,25.132z"/>
</g>
</svg>
