<?xml version="1.0" encoding="utf-8"?>
<!-- Generator: Adobe Illustrator 15.1.0, SVG Export Plug-In . SVG Version: 6.00 Build 0)  -->
<svg version="1.2" baseProfile="tiny" id="Layer_1" xmlns="http://www.w3.org/2000/svg" xmlns:xlink="http://www.w3.org/1999/xlink"
	 x="0px" y="0px" width="50px" height="50px" viewBox="0 0 50 50" overflow="inherit" xml:space="preserve">
<path d="M37,1c-0.55,0-1,0.45-1,1v14c0,0.55-0.45,1-1,1H15c-0.55,0-1-0.45-1-1V2c0-0.55-0.45-1-1-1H4C3.45,1,3,1.45,3,2v46
	c0,0.55,0.45,1,1,1h9c0.55,0,1-0.45,1-1V32c0-0.55,0.45-1,1-1h20c0.55,0,1,0.45,1,1v16c0,0.55,0.45,1,1,1h9c0.55,0,1-0.45,1-1V2
	c0-0.55-0.45-1-1-1H37z"/>
</svg>
