<?xml version="1.0" encoding="utf-8"?>
<!-- Generator: Adobe Illustrator 15.1.0, SVG Export Plug-In . SVG Version: 6.00 Build 0)  -->
<svg version="1.2" baseProfile="tiny" id="Layer_1" xmlns="http://www.w3.org/2000/svg" xmlns:xlink="http://www.w3.org/1999/xlink"
	 x="0px" y="0px" width="50px" height="50px" viewBox="0 0 50 50" overflow="inherit" xml:space="preserve">
<g>
	<path d="M0.295,27.581c0.41,3.175,3.117,5.626,6.405,5.626c3.284,0,5.989-2.451,6.4-5.626H0.295z"/>
	<path d="M35.182,40.58c0,0.553-0.446,1.003-0.998,1.003H15.528c-0.548,0-1-0.45-1-1.003l0,0c0-0.549,0.451-0.993,1-0.993h18.655
		C34.735,39.587,35.182,40.031,35.182,40.58L35.182,40.58z"/>
	<rect x="14.637" y="42.094" width="20.437" height="2.887"/>
	<path d="M36.9,27.581c0.409,3.175,3.119,5.626,6.402,5.626c3.285,0,5.991-2.451,6.399-5.626H36.9z"/>
	<path d="M49.349,25.572l-5.243-7.222h2.803c0.682,0,1.231-0.559,1.231-1.25c0-0.685-0.55-1.238-1.231-1.238H32.061
		c-0.885-2.441-3.021-4.275-5.634-4.732V8.669V7.233c0-0.693-0.556-1.246-1.245-1.246c-0.038,0-0.075,0.008-0.116,0.013
		c-0.037-0.005-0.077-0.013-0.116-0.013c-0.689,0-1.243,0.553-1.243,1.246v1.436v2.459c-2.613,0.457-4.748,2.291-5.632,4.732H3.224
		c-0.677,0-1.229,0.553-1.229,1.238c0,0.692,0.552,1.25,1.229,1.25h2.675l-5.244,7.222H0v1.334h13.398v-1.334H12.74L7.498,18.35
		h10.131h0.957h1.081c0-0.282,0.031-0.559,0.073-0.824c0.043-0.125,0.072-0.252,0.072-0.383c0.458-1.93,1.966-3.463,3.895-3.933
		v9.512v4.185h-0.052c-0.107,5.152-2.558,9.645-6.194,12.17h7.266h0.34h0.681h6.927c-3.637-2.525-6.086-7.018-6.199-12.17h-0.048
		v-4.185v-9.512c1.926,0.47,3.439,2.003,3.894,3.933c0.004,0.131,0.031,0.258,0.075,0.383c0.04,0.266,0.065,0.542,0.065,0.824h1.088
		h0.956h9.998l-5.244,7.222h-0.654v1.334H50v-1.334H49.349z M6.165,25.572H1.98l4.185-5.765V25.572z M7.236,25.572v-5.765
		l4.185,5.765H7.236z M42.768,25.572h-4.187l4.187-5.765V25.572z M43.834,25.572v-5.765l4.19,5.765H43.834z"/>
	<path d="M7.941,14.124c0,0.679-0.556,1.239-1.24,1.239c-0.687,0-1.245-0.56-1.245-1.239c0-0.686,0.558-1.246,1.245-1.246
		C7.385,12.877,7.941,13.438,7.941,14.124z"/>
	<path d="M44.545,14.058c0,0.691-0.556,1.239-1.242,1.239c-0.689,0-1.242-0.548-1.242-1.239c0-0.686,0.553-1.245,1.242-1.245
		C43.989,12.813,44.545,13.372,44.545,14.058z"/>
</g>
</svg>
