<?xml version="1.0" encoding="utf-8"?>
<!-- Generator: Adobe Illustrator 15.1.0, SVG Export Plug-In . SVG Version: 6.00 Build 0)  -->
<svg version="1.2" baseProfile="tiny" id="Layer_1" xmlns="http://www.w3.org/2000/svg" xmlns:xlink="http://www.w3.org/1999/xlink"
	 x="0px" y="0px" width="50px" height="50px" viewBox="0 0 50 50" overflow="inherit" xml:space="preserve">
<g>
	<g>
		<path d="M25.154,17.347c3.953,0,7.144-3.217,7.144-7.183c0-3.958-3.19-7.164-7.144-7.164c-3.948,0-7.153,3.207-7.153,7.164
			C18.001,14.129,21.207,17.347,25.154,17.347z"/>
	</g>
	<g>
		<path d="M32.105,19c3.271,0,4.644,2.794,4.644,2.794l10.557,14.545c0.437,0.649,0.694,1.443,0.694,2.3
			c0,2.26-1.828,4.097-4.081,4.097c-0.539,0-1.061-0.117-1.519-0.295L36,40.667V47H14v-6.333l-6.402,1.777
			C7.148,42.62,6.63,42.74,6.089,42.74c-2.251,0-4.088-1.83-4.088-4.09c0-0.856,0.253-1.637,0.706-2.288l10.55-14.568
			c0,0,1.372-2.794,4.629-2.794H32.105z M25.006,42.588L25.006,42.588l8.246-2.74l-0.179-0.05c-5.705-1.672-3.518-9.228,2.173-7.537
			L36,32.529v-8.521l-10.989,3.623L14,24.008v8.521l0.754-0.269c5.688-1.69,7.898,5.865,2.197,7.537l-0.2,0.05L25.006,42.588
			L25.006,42.588z"/>
	</g>
</g>
</svg>
