<?xml version="1.0" encoding="utf-8"?>
<!-- Generator: Adobe Illustrator 15.1.0, SVG Export Plug-In . SVG Version: 6.00 Build 0)  -->
<svg version="1.2" baseProfile="tiny" id="Layer_1" xmlns="http://www.w3.org/2000/svg" xmlns:xlink="http://www.w3.org/1999/xlink"
	 x="0px" y="0px" width="50px" height="50px" viewBox="0 0 50 50" overflow="inherit" xml:space="preserve">
<g>
	<path d="M46,32v8h4V28H4V11.66c0-1.123-0.869-2.042-2-2.042l0,0c-1.127,0-2,0.918-2,2.042V40h4v-8H46z"/>
	<path d="M10.33,19.852c2.041,0,3.687-1.653,3.687-3.694c0-2.027-1.646-3.675-3.687-3.675c-2.038,0-3.683,1.647-3.683,3.675
		C6.647,18.198,8.292,19.852,10.33,19.852z"/>
	<path d="M50,25l-0.014-4.871c-0.013-1.606-1.36-2.618-2.939-2.809L18.09,14.487c-0.052-0.014-0.167-0.009-0.215-0.009
		c-1.006,0-1.875,0.834-1.875,1.835V22H8.547c-1.011,0-1.826,0.5-1.826,1.499C6.721,24.514,7.536,25,8.547,25H50z"/>
</g>
</svg>
