<?xml version="1.0" encoding="utf-8"?>
<!-- Generator: Adobe Illustrator 15.1.0, SVG Export Plug-In . SVG Version: 6.00 Build 0)  -->
<svg version="1.2" baseProfile="tiny" id="Layer_1" xmlns="http://www.w3.org/2000/svg" xmlns:xlink="http://www.w3.org/1999/xlink"
	 x="0px" y="0px" width="50px" height="50px" viewBox="0 0 50 50" overflow="inherit" xml:space="preserve">
<g>
	<path d="M35.101,10.454c1.879,0,3.399-1.563,3.399-3.495c0-1.92-1.521-3.484-3.399-3.484c-1.865,0-3.387,1.563-3.387,3.484
		C31.714,8.891,33.235,10.454,35.101,10.454z"/>
	<path d="M37.627,11.236h-4.951l-8.438-8.681c-0.659-0.713-1.754-0.747-2.448-0.058c-0.693,0.678-0.727,1.805-0.066,2.518
		l8.818,9.083v30.102c0,1.092,0.85,1.965,1.9,1.965c1.062,0,1.911-0.873,1.911-1.965V27.873h1.542l0.012,16.328
		c0,1.092,0.86,1.965,1.91,1.965c1.053,0,1.901-0.873,1.901-1.965L39.707,14.1l8.819-9.083c0.659-0.713,0.625-1.84-0.068-2.518
		c-0.692-0.689-1.788-0.656-2.448,0.058L37.627,11.236z"/>
	<path d="M19.688,24.516c-0.514-0.541-1.219-0.862-2-0.862h-7.099c-0.782,0-1.486,0.322-1.989,0.862l-7.121,7.325
		c-0.659,0.713-0.636,1.839,0.057,2.518c0.692,0.678,1.8,0.655,2.448-0.058l5.521-5.68v7.588H3.313
		c-1.139,0-2.058,0.942-2.058,2.116c0,0.609,0.224,1.15,0.627,1.541l6.974,7.174c0.615,0.932,1.822,1.231,2.784,0.655
		c1.016-0.597,1.353-1.919,0.771-2.953l-3.979-4.083l0.078,0.011h11.423l-3.99,4.082c-0.57,1.035-0.235,2.357,0.77,2.954
		c0.962,0.576,2.181,0.278,2.796-0.654l6.974-7.174c0.401-0.392,0.626-0.933,0.626-1.541c0-1.174-0.917-2.115-2.056-2.115h-6.182
		v-7.509l5.421,5.599c0.66,0.714,1.754,0.737,2.447,0.058c0.693-0.678,0.717-1.805,0.057-2.517L19.688,24.516z"/>
	<path d="M14.212,22.906c1.866,0,3.375-1.562,3.375-3.484c0-1.932-1.509-3.484-3.375-3.484c-1.868,0-3.389,1.552-3.389,3.484
		C10.823,21.344,12.345,22.906,14.212,22.906z"/>
</g>
</svg>
