<?xml version="1.0" encoding="utf-8"?>
<!-- Generator: Adobe Illustrator 15.1.0, SVG Export Plug-In . SVG Version: 6.00 Build 0)  -->
<svg version="1.2" baseProfile="tiny" id="Layer_1" xmlns="http://www.w3.org/2000/svg" xmlns:xlink="http://www.w3.org/1999/xlink"
	 x="0px" y="0px" width="50px" height="50px" viewBox="0 0 50 50" overflow="inherit" xml:space="preserve">
<g>
	<path d="M12.333,22H15v16h4V24h4v14h4V24h4v14h4V22h2.666C38.402,22,39,21.264,39,20.601c0-0.401-0.221-0.853-0.555-1.071
		l0.002-0.052l-0.021-0.037c-0.012-0.007,0.144-0.026,0.134-0.033L26,12.939v-1.892c2,1.059,3.951-0.765,7,0.332V7.2
		c-3.051-1.096-5,0.727-7-0.332V6.6C26,6.269,25.369,6,25,6s-1,0.269-1,0.6v6.339l-12.559,6.456
		c-0.012,0.006,0.283,0.013,0.271,0.021L12,19.427v0.002c-1,0.218-0.776,0.77-0.776,1.171C11.223,21.264,11.597,22,12.333,22z"/>
	<polygon points="14,39 11,42 39,42 36,39 	"/>
	<path d="M36,23v15h0.885l0.391,0.553l2.666,2.499L40.885,42H49V23H36z M42,35h-3v-3h3V35z M42,29h-3v-3h3V29z M46,35h-2v-3h2V35z
		 M46,29h-2v-3h2V29z"/>
	<path d="M13.114,38H14V23H1v19h8.114l0.942-0.848l2.667-2.6L13.114,38z M6,35H4v-3h2V35L6,35z M6,29H4v-3h2V29L6,29z M11,35H8v-3h3
		V35z M11,29H8v-3h3V29z"/>
</g>
</svg>
