<?xml version="1.0" encoding="utf-8"?>
<!-- Generator: Adobe Illustrator 15.1.0, SVG Export Plug-In . SVG Version: 6.00 Build 0)  -->
<svg version="1.2" baseProfile="tiny" id="Layer_1" xmlns="http://www.w3.org/2000/svg" xmlns:xlink="http://www.w3.org/1999/xlink"
	 x="0px" y="0px" width="50px" height="50px" viewBox="0 0 50 50" overflow="inherit" xml:space="preserve">
<path d="M47.505,20.554C47.273,7.916,39.979,2.894,39.68,2.694L38.55,1.92l-1.136,0.772c-1.889,1.288-3.847,1.942-5.817,1.942
	c-3.269,0-5.484-1.768-5.579-1.844l-1.272-1.026l-1.263,1.028c-0.092,0.075-2.31,1.843-5.577,1.843
	c-1.971,0-3.928-0.653-5.819-1.945l-1.132-0.768l-1.14,0.774C9.04,3.231,2.249,8.272,2.003,20.492
	c-0.098,1.063,2.823,21.176,22.751,27.011C46.425,41.139,47.615,21.882,47.505,20.554z M6.016,20.796l0.003,0.285
	C6.059,18.774,6.381,16,7.005,15h35.489c0.627,1,0.952,3.781,0.988,6.104l0.014-0.01c0.079,0.644-0.714,18.75-18.742,22.385
	C8.614,39.917,5.945,21.39,6.016,20.796z"/>
</svg>
