<?xml version="1.0" encoding="utf-8"?>
<!-- Generator: Adobe Illustrator 15.1.0, SVG Export Plug-In . SVG Version: 6.00 Build 0)  -->
<svg version="1.2" baseProfile="tiny" id="Layer_1" xmlns="http://www.w3.org/2000/svg" xmlns:xlink="http://www.w3.org/1999/xlink"
	 x="0px" y="0px" width="50px" height="50px" viewBox="0 0 50 50" overflow="inherit" xml:space="preserve">
<g>
	<path d="M30,8v33H6V8H30 M34,4H2v42h32V4L34,4z"/>
	<rect x="9" y="12" width="18" height="4"/>
	<rect x="9" y="19" width="18" height="4"/>
	<rect x="9" y="26" width="18" height="4"/>
	<rect x="9" y="33" width="18" height="4"/>
	<rect x="40" y="12" width="8" height="28"/>
	<path d="M44.006,1C41.812,1,40,2.765,40,4.937V9h8V4.937C48,2.765,46.191,1,44.006,1z"/>
	<polygon points="39.938,43 43.979,49.387 48,43 	"/>
</g>
</svg>
