<?xml version="1.0" encoding="utf-8"?>
<!-- Generator: Adobe Illustrator 15.1.0, SVG Export Plug-In . SVG Version: 6.00 Build 0)  -->
<svg version="1.2" baseProfile="tiny" id="Layer_1" xmlns="http://www.w3.org/2000/svg" xmlns:xlink="http://www.w3.org/1999/xlink"
	 x="0px" y="0px" width="50px" height="50px" viewBox="0 0 50 50" overflow="inherit" xml:space="preserve">
<g>
	<path d="M47.231,41c0,0-7.231,0-16.231,0v3.978V45c4,0,6.531,0,6.531,0c2.828,0,4.054,0,5.536,0h4.33
		C48.745,45,49,43.825,49,43.825v-0.97C49,42.855,48.988,41,47.231,41z"/>
	<path d="M44.986,40.21C47.2,40.21,49,38.408,49,36.188c0-2.227-1.8-4.023-4.014-4.023c-2.211,0-4.006,1.797-4.006,4.023
		C40.98,38.407,42.775,40.21,44.986,40.21z"/>
	<path d="M36.532,40c2.106,0,3.8-1.484,3.8-3.587c-0.001-2.099-1.701-3.2-3.791-3.216L31,33.899V40H36.532L36.532,40z"/>
	<path d="M18.523,13.933c2.459,0,4.448-2,4.448-4.467C22.971,6.999,20.982,5,18.523,5c-2.457,0-4.449,1.999-4.449,4.466
		C14.074,11.933,16.066,13.933,18.523,13.933z"/>
	<path d="M13.981,28.389c-0.011-0.021-0.029-0.033-0.04-0.058l-2.016-4.694L11.922,33h6.025l1.316-1.4l-3.569-1.374
		C14.848,29.908,14.247,29.188,13.981,28.389z"/>
	<path d="M15.258,27.968c0.195,0.438,0.556,0.793,1.01,0.956l6.877,2.549c0.88,0.389,1.908-0.015,2.294-0.898
		c0.386-0.889-0.015-1.924-0.896-2.311l-6.345-2.396l-1.96-4.701l1.278-0.476l1.661,4.028L24,26.507v-4.922l2.56,1.523l1.276,6.428
		c0.313,0.918,1.304,1.401,2.218,1.084c0.905-0.314,1.386-1.315,1.075-2.229l-1.43-6.191c-0.094-0.347-0.293-0.65-0.562-0.877
		c-0.733-0.812-4.44-4.957-4.704-5.234C24.046,15.701,23.161,15,21.489,15h-6c-3.41,0-4.066,3.48-3.369,5.25L15.258,27.968z"/>
	<path d="M30,34H2.967C1.983,34,1,34.555,1,35.776c0,0.283,0,0.801,0,0.801V45c0,0,1.759,0,2.33,0H30V34z"/>
</g>
</svg>
