<?xml version="1.0" encoding="utf-8"?>
<!-- Generator: Adobe Illustrator 15.1.0, SVG Export Plug-In . SVG Version: 6.00 Build 0)  -->
<svg version="1.2" baseProfile="tiny" id="Layer_1" xmlns="http://www.w3.org/2000/svg" xmlns:xlink="http://www.w3.org/1999/xlink"
	 x="0px" y="0px" width="50px" height="50px" viewBox="0 0 50 50" overflow="inherit" xml:space="preserve">
<g>
	<path d="M50,50l-0.015-25.059c0-13.781-11.186-24.946-24.967-24.946c-13.781,0-24.967,11.173-24.967,24.955l0.201,25.085L6,50.021
		v-25.07C6,14.21,14.262,5.504,25,5.504c10.74,0,19,8.707,19,19.448V50H50z"/>
	<path d="M33.197,40.926c0-0.027-0.029-0.076-0.092-0.168c0-0.026,0.016-0.045,0.048-0.062c0.026-0.014,0.044-0.03,0.044-0.062
		c0.86-0.355,1.641-0.79,2.339-1.31c0.698-0.522,1.106-1.286,1.348-2.296C36.911,36.911,37,36.639,37,36.224V15.371
		c0-0.503-0.089-1.025-0.387-1.556c-0.296-0.54-0.637-1.023-1.09-1.452c-0.439-0.425-0.921-0.721-1.472-1.006
		C33.501,11.075,32.987,11,32.48,11H31H19h-1.442c-0.476,0-0.988,0.067-1.54,0.335c-0.551,0.267-1.058,0.577-1.516,0.995
		c-0.459,0.413-0.798,0.865-1.096,1.382C13.112,14.239,13,14.73,13,15.24v21.164c0,0.353,0.054,0.728,0.228,1.11
		c0.179,0.389,0.381,0.752,0.648,1.088c0.268,0.348,0.549,0.661,0.862,0.941c0.312,0.282,0.608,0.512,0.908,0.688
		c0.145,0.061,0.403,0.154,0.777,0.271c0.369,0.119,0.539,0.19,0.511,0.246L10.829,50h3.561l4.458-6H31.15l4.452,6h3.606
		L33.197,40.926z M20,13c0-0.55,0.45-1,1-1h8c0.55,0,1,0.45,1,1v1c0,0.55-0.45,1-1,1h-8c-0.55,0-1-0.45-1-1V13z M16.064,17.885
		c0.133-0.282,0.237-0.538,0.444-0.779c0.211-0.238,0.422-0.58,0.703-0.729C17.492,16.227,17.751,16,18.048,16H19h12h0.905
		c0.267,0,0.532,0.215,0.801,0.328c0.268,0.12,0.512,0.363,0.737,0.569c0.222,0.207,0.31,0.472,0.448,0.709
		C34.022,17.838,34,18.132,34,18.399v4.724c0,0.27,0.013,0.521-0.133,0.775c-0.148,0.26-0.298,0.484-0.538,0.677
		c-0.239,0.189-0.466,0.238-0.733,0.353C32.328,25.054,32.082,25,31.818,25H18.137c-0.033,0-0.107,0.093-0.225,0.069
		c-0.118-0.032-0.21-0.009-0.27-0.039c-0.503-0.088-0.812-0.329-1.2-0.775C16.057,23.806,16,23.348,16,22.812v-4.054
		C16,18.461,15.932,18.169,16.064,17.885z M19.851,37.16c-0.459,0.475-1.034,0.712-1.714,0.712c-0.683,0-1.241-0.237-1.673-0.712
		c-0.432-0.474-0.646-1.058-0.646-1.739c0-0.624,0.225-1.165,0.669-1.624c0.445-0.462,0.996-0.693,1.65-0.693
		c0.68,0,1.254,0.219,1.714,0.643c0.461,0.438,0.692,1.002,0.692,1.721C20.543,36.122,20.312,36.687,19.851,37.16z M30.054,37.16
		c-0.458-0.474-0.689-1.058-0.689-1.739c0-0.686,0.243-1.237,0.734-1.675c0.493-0.424,1.063-0.643,1.72-0.643
		c0.678,0,1.236,0.231,1.666,0.693c0.433,0.459,0.649,1,0.649,1.624c0,0.682-0.221,1.266-0.671,1.739
		c-0.444,0.475-1.009,0.712-1.693,0.712C31.087,37.872,30.517,37.635,30.054,37.16z"/>
</g>
</svg>
