<?xml version="1.0" encoding="utf-8"?>
<!-- Generator: Adobe Illustrator 15.1.0, SVG Export Plug-In . SVG Version: 6.00 Build 0)  -->
<svg version="1.2" baseProfile="tiny" id="Layer_1" xmlns="http://www.w3.org/2000/svg" xmlns:xlink="http://www.w3.org/1999/xlink"
	 x="0px" y="0px" width="50px" height="50px" viewBox="0 0 50 50" overflow="inherit" xml:space="preserve">
<path d="M25,1l7.082,12.106L46,13.109l-6.958,11.89L46,36.893l-13.916,0.002L25,49l-7.083-12.105L4,36.893l6.958-11.894L4,13.109
	l13.918-0.003L25,1z M15.922,25.01L20.411,33h9.165l4.501-7.99L29.577,17h-9.151L15.922,25.01z M34.539,33h4.041l-2.019-3.453
	L34.539,33z M11.417,33h4.042l-2.022-3.454L11.417,33z M22.991,13h4.042l-2.021-3.452L22.991,13z M36.561,20.451L38.58,17h-4.041
	L36.561,20.451z M13.437,20.453L15.458,17h-4.042L13.437,20.453z M25.012,40.45L27.033,37H22.99L25.012,40.45z"/>
</svg>
