<?xml version="1.0" encoding="utf-8"?>
<!-- Generator: Adobe Illustrator 15.1.0, SVG Export Plug-In . SVG Version: 6.00 Build 0)  -->
<svg version="1.2" baseProfile="tiny" id="Layer_1" xmlns="http://www.w3.org/2000/svg" xmlns:xlink="http://www.w3.org/1999/xlink"
	 x="0px" y="0px" width="50px" height="50px" viewBox="0 0 50 50" overflow="inherit" xml:space="preserve">
<path d="M45.699,24.145l-7.89-13.293C37.495,10.268,36.737,10,36.088,10H29V4c0-1.1-0.9-2-2-2h-5c-1.1,0-2,0.9-2,2v6h-5.96
	c-0.65,0-1.44,0.268-1.754,0.852L4.365,24.25C3.064,24.25,2,25.237,2,26.572v12.139C2,40.046,3.064,41,4.365,41H7v3.78
	C7,46.784,8.328,48,10.279,48h1.183C13.413,48,15,46.784,15,44.78V41h20v3.78c0,2.004,1.714,3.22,3.665,3.22h1.184
	C41.8,48,43,46.784,43,44.78V41h2.763C47.063,41,48,40.046,48,38.711V26.572C48,25.237,47,24.145,45.699,24.145z M8.505,33.855
	c-1.633,0-2.958-1.358-2.958-3.034c0-1.677,1.324-3.035,2.958-3.035s2.957,1.358,2.957,3.035
	C11.462,32.497,10.139,33.855,8.505,33.855z M10.279,24l5.384-9.377C15.955,14.025,16.726,14,17.376,14h15.376
	c0.65,0,1.421,0.025,1.712,0.623L39.849,24H10.279z M41.622,33.855c-1.632,0-2.957-1.358-2.957-3.034
	c0-1.677,1.325-3.035,2.957-3.035c1.633,0,2.958,1.358,2.958,3.035C44.58,32.497,43.255,33.855,41.622,33.855z"/>
</svg>
