<?xml version="1.0" encoding="utf-8"?>
<!-- Generator: Adobe Illustrator 15.1.0, SVG Export Plug-In . SVG Version: 6.00 Build 0)  -->
<svg version="1.2" baseProfile="tiny" id="Layer_1" xmlns="http://www.w3.org/2000/svg" xmlns:xlink="http://www.w3.org/1999/xlink"
	 x="0px" y="0px" width="50px" height="50px" viewBox="0 0 50 50" overflow="inherit" xml:space="preserve">
<g>
	<path d="M6,47.5c0,1.233,0.768,2,2,2c1.235,0,2-0.767,2-2V29h2v18.5c0,1.231,0.767,2,2,2c1.233,0,2-0.767,2-2V16h1v11.314
		c0,2.395,3.006,2.395,3,0V15.161C20,12.515,18.094,11,15,11H7c-2.82,0-5,1.219-5,4.087V28c0,2,3,2,3,0V16h1V47.5z"/>
</g>
<circle cx="10.875" cy="5.125" r="4.125"/>
<circle cx="35.875" cy="5.125" r="4.125"/>
<g id="Your_Icon">
	<path d="M45.913,32.5l-5.909-16.237c-0.022-0.051-0.034-0.108-0.034-0.167c0-0.237,0.199-0.429,0.447-0.429
		c0.211,0,0.388,0.141,0.435,0.329L44.869,26.5c0.267,0.601,1.365,1,2.087,1c0.965,0,1.065-1.895,1.044-2l-4.017-10.107
		C43.634,13.072,41.29,11,38.615,11H33.38c-2.675,0-5.192,2.072-5.542,4.393l-3.837,10.232c-0.087,0.199,0,1.938,1.044,1.938
		c0.811,0,1.89-0.314,2.086-1.031l3.875-10.564c0.062-0.166,0.229-0.292,0.422-0.292c0.246,0,0.445,0.188,0.445,0.424
		c0,0.054-0.009,0.104-0.027,0.151l-5.758,16.251c-0.012,0.048,0,1.2,0,1.249c0,0.346,0.836,1.25,1.198,1.25H31v12.595
		c0,1.04,0.916,1.905,2,1.905s2-0.866,2-1.905V34.491c0-0.283,2-0.274,2,0.009v13c0,1.04,0.917,2,2,2c1.086,0,2-0.961,2-2V35h3.869
		c0.362,0,1.044-0.904,1.044-1.25C45.913,33.67,45.942,32.569,45.913,32.5z"/>
</g>
</svg>
