<?xml version="1.0" encoding="utf-8"?>
<!-- Generator: Adobe Illustrator 15.1.0, SVG Export Plug-In . SVG Version: 6.00 Build 0)  -->
<svg version="1.2" baseProfile="tiny" id="Layer_1" xmlns="http://www.w3.org/2000/svg" xmlns:xlink="http://www.w3.org/1999/xlink"
	 x="0px" y="0px" width="50px" height="50px" viewBox="0 0 50 50" overflow="inherit" xml:space="preserve">
<g>
	<path d="M34.641,37.807c0-0.034-0.039-0.104-0.113-0.216c0-0.032,0.021-0.061,0.057-0.081c0.035-0.021,0.057-0.043,0.057-0.081
		c1.051-0.434,2.006-0.971,2.861-1.604c0.854-0.64,1.426-1.574,1.721-2.809c0.031-0.146,0.109-0.479,0.215-0.988V6.507
		c0-0.616-0.184-1.255-0.547-1.905c-0.363-0.661-0.816-1.252-1.365-1.777c-0.543-0.52-1.148-0.961-1.824-1.311
		C35.027,1.17,34.383,1,33.764,1H15.499c-0.583,0-1.212,0.16-1.885,0.487c-0.675,0.328-1.294,0.747-1.854,1.257
		c-0.562,0.505-1.027,1.08-1.39,1.713c-0.364,0.645-0.547,1.267-0.547,1.89v25.901c0,0.436,0.115,0.891,0.327,1.363
		c0.22,0.474,0.492,0.917,0.818,1.331c0.326,0.426,0.685,0.807,1.067,1.15s0.753,0.627,1.118,0.844
		c0.176,0.074,0.499,0.188,0.957,0.333c0.448,0.144,0.658,0.251,0.624,0.321L7.258,48.936h4.361l5.457-7.909h15.055l5.451,7.909H42
		L34.641,37.807z M20.294,3.179c0-0.183,0.087-0.37,0.273-0.575c0.179-0.199,0.36-0.295,0.545-0.295h6.982
		c0.07,0,0.221,0.07,0.438,0.213c0.215,0.146,0.324,0.291,0.324,0.436v2.672c0,0.183-0.092,0.351-0.271,0.49
		c-0.184,0.15-0.35,0.226-0.49,0.226h-7.035c-0.114-0.076-0.183-0.13-0.222-0.173c-0.105-0.07-0.227-0.166-0.353-0.301
		c-0.128-0.122-0.191-0.256-0.191-0.401V3.179z M13.257,10.651c0-0.363,0.086-0.719,0.247-1.066c0.162-0.345,0.373-0.66,0.627-0.955
		c0.256-0.292,0.556-0.521,0.898-0.704c0.348-0.184,0.705-0.274,1.068-0.274h16.963c0.322,0,0.65,0.076,0.977,0.214
		c0.328,0.146,0.627,0.35,0.902,0.602C35.213,8.72,35.428,9,35.594,9.29c0.162,0.284,0.242,0.596,0.242,0.923v5.783
		c0,0.328-0.088,0.638-0.27,0.95c-0.182,0.317-0.418,0.591-0.709,0.827c-0.295,0.232-0.598,0.424-0.928,0.564
		c-0.326,0.155-0.654,0.22-0.979,0.22H16.206c-0.04,0-0.131-0.017-0.276-0.049c-0.144-0.038-0.256-0.074-0.329-0.113
		c-0.615-0.106-1.159-0.435-1.633-0.982c-0.474-0.546-0.711-1.144-0.711-1.797V10.651z M18.306,33.177
		c-0.563,0.581-1.268,0.871-2.1,0.871c-0.837,0-1.52-0.29-2.05-0.871c-0.526-0.58-0.789-1.294-0.789-2.131
		c0-0.763,0.274-1.424,0.821-1.986c0.544-0.565,1.217-0.851,2.018-0.851c0.832,0,1.536,0.27,2.1,0.789
		c0.564,0.533,0.845,1.226,0.845,2.105C19.151,31.904,18.87,32.597,18.306,33.177z M30.795,33.177
		c-0.562-0.58-0.848-1.294-0.848-2.131c0-0.838,0.299-1.515,0.9-2.048c0.602-0.52,1.301-0.789,2.104-0.789
		c0.83,0,1.516,0.285,2.043,0.851c0.525,0.562,0.793,1.224,0.793,1.986c0,0.837-0.275,1.551-0.82,2.131
		c-0.549,0.581-1.236,0.871-2.076,0.871C32.057,34.048,31.357,33.758,30.795,33.177z"/>
</g>
</svg>
