<?xml version="1.0" encoding="utf-8"?>
<!-- Generator: Adobe Illustrator 15.1.0, SVG Export Plug-In . SVG Version: 6.00 Build 0)  -->
<svg version="1.2" baseProfile="tiny" id="Layer_1" xmlns="http://www.w3.org/2000/svg" xmlns:xlink="http://www.w3.org/1999/xlink"
	 x="0px" y="0px" width="50px" height="50px" viewBox="0 0 50 50" overflow="inherit" xml:space="preserve">
<rect x="-16" y="1" width="0" height="0"/>
<g>
	<path d="M20.716,24H3.159c-0.512,0-0.933-0.314-0.933-0.815c0-0.083,0.015-0.115,0.032-0.19l0.935-6.006
		C3.271,16.565,3.652,17,4.11,17h15.657c0.454,0,0.838-0.412,0.915,0.012l0.936,6.399c0.015,0.077,0.033-0.124,0.033-0.038
		C21.651,23.87,21.227,24,20.716,24z M20.013,31.569c-0.987,0-1.791-0.781-1.791-1.75c0-0.964,0.803-1.74,1.791-1.74
		c0.982,0,1.785,0.776,1.785,1.74C21.798,30.788,20.996,31.569,20.013,31.569z M3.836,31.569c-0.979,0-1.782-0.781-1.782-1.75
		c0-0.964,0.802-1.74,1.782-1.74c0.993,0,1.794,0.776,1.794,1.74C5.63,30.788,4.829,31.569,3.836,31.569z M6,12h11v3H6
		C5,15,5,12,6,12z M22.698,14.703c-0.319-1.542-1.412-2.162-2.939-2.783c-1.524-0.619-5.133-1.36-7.788-1.36
		c-2.666,0-6.255,0.742-7.779,1.36c-1.525,0.621-2.635,1.241-2.954,2.783L0,23.289V35h1.785l0,0c0,5,3.361,5,3.361,0l0,0h13.441l0,0
		c0,5,3.36,5,3.36,0l0,0H24V23.289L22.698,14.703z"/>
</g>
<path d="M44.759,35.094c0-0.025-0.027-0.065-0.08-0.145c0-0.023,0.015-0.04,0.04-0.055c0.024-0.015,0.04-0.027,0.04-0.055
	c0.748-0.309,1.429-0.69,2.038-1.141c0.607-0.456,0.928-1.12,1.139-1.999C47.957,31.597,48,31.359,48,30.996V12.821
	c0-0.439-0.043-0.894-0.301-1.356c-0.26-0.471-0.539-0.892-0.93-1.266c-0.387-0.37-0.947-0.685-1.429-0.933
	C44.923,9.052,44,8.938,44,8.911V9h0.135H31.127H31V8.928c-1,0.046-0.756,0.15-1.102,0.318c-0.48,0.234-0.979,0.532-1.379,0.895
	c-0.4,0.36-0.801,0.769-1.06,1.22C27.2,11.82,27,12.263,27,12.707v18.446c0,0.31,0.123,0.634,0.273,0.971
	c0.158,0.337,0.372,0.652,0.604,0.947c0.232,0.304,0.498,0.575,0.771,0.819c0.271,0.245,0.542,0.447,0.802,0.602
	c0.125,0.053,0.357,0.133,0.684,0.236c0.318,0.103,0.47,0.16,0.446,0.211L25.258,43h3.106l3.886-6h10.722l3.882,6H50L44.759,35.094z
	 M35.757,10h3.561c0.783,0,1.425,0.216,1.425,1c0,0.783-0.642,1-1.425,1h-3.561c-0.784,0-1.425-0.217-1.425-1
	C34.332,10.216,34.973,10,35.757,10z M45,19.151C45,20.725,43.725,22,42.151,22H31.849C30.275,22,29,20.725,29,19.151v-2.303
	C29,15.275,30.275,14,31.849,14h10.303C43.725,14,45,15.275,45,16.849V19.151z M33.126,31.814c-0.401,0.414-0.903,0.62-1.495,0.62
	c-0.597,0-1.083-0.206-1.461-0.62c-0.374-0.413-0.562-0.922-0.562-1.518c0-0.543,0.195-1.015,0.585-1.415
	c0.387-0.402,0.867-0.605,1.438-0.605c0.592,0,1.094,0.192,1.495,0.562c0.401,0.38,0.602,0.873,0.602,1.5
	C33.728,30.908,33.527,31.401,33.126,31.814z M42.021,31.814c-0.401-0.413-0.604-0.922-0.604-1.518c0-0.597,0.213-1.079,0.642-1.459
	c0.429-0.369,0.927-0.562,1.498-0.562c0.591,0,1.079,0.203,1.455,0.605c0.374,0.4,0.564,0.872,0.564,1.415
	c0,0.596-0.196,1.104-0.584,1.518c-0.391,0.414-0.881,0.62-1.479,0.62C42.919,32.435,42.421,32.229,42.021,31.814z"/>
</svg>
