<?xml version="1.0" encoding="utf-8"?>
<!-- Generator: Adobe Illustrator 15.1.0, SVG Export Plug-In . SVG Version: 6.00 Build 0)  -->
<svg version="1.2" baseProfile="tiny" id="Layer_1" xmlns="http://www.w3.org/2000/svg" xmlns:xlink="http://www.w3.org/1999/xlink"
	 x="0px" y="0px" width="50px" height="50px" viewBox="0 0 50 50" overflow="inherit" xml:space="preserve">
<path d="M45.928,28.949l-0.109-0.294c-0.342-0.922-0.765-2.068-1.849-2.717c-0.755-0.452-1.633-0.609-2.407-0.747
	c-0.398-0.071-0.775-0.14-1.098-0.238c-0.095-0.028-0.189-0.064-0.284-0.1c-0.015-0.005-0.03-0.009-0.045-0.015
	c-3.108-2.496-9.401-2.564-13.321-6.094C21.197,13.688,16.688,8.604,11.617,1L5.281,6.07c-0.44,0.352-1.28,0.634-1.28,1.901
	c0,0.633,0.644,0.73,1.403,0.495l3.574-1.129L19,21.281c0,2.535,0,5.243,0,7.606c0,1.76-0.029,3.362,1.464,4.272L16.7,49h2.535
	l2.382-7.522L24,37.758v3.803V49h3V36.492c0,0-0.035-2.535,2.5-2.535s2.5,2.535,2.5,2.535v8.871V49h2V39l5.516,10h2.535
	C40.783,45,39,45.363,39,41.561v-2.535c0-2.658,3-5.07,3-7.605v-2.533c0-0.602-0.078-1.135-0.215-1.617
	c0.442,0.09,0.848,0.199,1.157,0.385c0.479,0.287,0.744,1.003,1,1.695l0.116,0.312c0.197,0.515,0.774,0.774,1.29,0.578l0.001-0.001
	C45.866,30.042,46.125,29.465,45.928,28.949z"/>
</svg>
