<?xml version="1.0" encoding="utf-8"?>
<!-- Generator: Adobe Illustrator 15.1.0, SVG Export Plug-In . SVG Version: 6.00 Build 0)  -->
<svg version="1.2" baseProfile="tiny" id="Layer_1" xmlns="http://www.w3.org/2000/svg" xmlns:xlink="http://www.w3.org/1999/xlink"
	 x="0px" y="0px" width="50px" height="50px" viewBox="0 0 50 50" overflow="inherit" xml:space="preserve">
<g>
	<path d="M18.855,10.597c2.242,0,4.041-1.854,4.041-4.138c0-2.285-1.799-4.139-4.041-4.139c-2.225,0-4.042,1.854-4.042,4.139
		C14.813,8.743,16.63,10.597,18.855,10.597z"/>
	<path d="M20,12H8c-2,0-2,3,0,3h12C22,15,22,12,20,12z"/>
	<path d="M39,13.254c0-4.587-1.605-8.969-4.53-12.422C34.483,0.82,33.732,0,33.732,0l-11.38,11.648l-0.194,0.192
		c0.035,0.052,0.086,0.087,0.108,0.146c0.175,0.319,0.272,0.674,0.312,1.028c0.012,0.146,0,0.297-0.017,0.448
		c-0.022,0.308-0.08,0.61-0.209,0.896l-0.012,0.029c-0.028,0.052-0.04,0.116-0.073,0.174c-0.022,0.041-0.046,0.112-0.074,0.146
		C21.693,15.493,20.837,16,19.797,16H13v15.085c0,0.012,0,0.902,0,0.915l-2.187,15.233c-0.239,1.255,0.717,2.476,1.943,2.72
		C13.982,50.21,15.75,49.268,16,48l2-17h1l3.39,17.128c0.25,1.268,2.002,2.082,3.239,1.825c1.216-0.244,1.894-1.465,1.655-2.72
		L24,30.969V17.357l9.326,9.135c0,0,0.953-0.825,0.953-0.836C37.19,22.206,39,17.823,39,13.254z M36.939,15
		c-0.334,3-2.082,6.628-4.273,9.282C30.641,22.215,26,18.322,24,15.771V15H36.939z M36.939,12H23.902
		c2.395-3,6.873-7.033,9.168-9.375C35.271,5.275,36.617,8,36.939,12z"/>
</g>
</svg>
