<?xml version="1.0" encoding="utf-8"?>
<!-- Generator: Adobe Illustrator 15.1.0, SVG Export Plug-In . SVG Version: 6.00 Build 0)  -->
<svg version="1.2" baseProfile="tiny" id="Layer_1" xmlns="http://www.w3.org/2000/svg" xmlns:xlink="http://www.w3.org/1999/xlink"
	 x="0px" y="0px" width="50px" height="50px" viewBox="0 0 50 50" overflow="inherit" xml:space="preserve">
<g>
	<path d="M29.334,13.609c1.897,0,3.441-1.688,3.441-3.764c0-2.077-1.544-3.765-3.441-3.765c-1.9,0-3.445,1.688-3.445,3.765
		C25.889,11.921,27.434,13.609,29.334,13.609z"/>
	<path d="M38.881,46.482L34,30V17c0-1.766-2.006-2-2.006-2h-5.19h-1.372c0,0-0.863,0.495-1.432,1l-3.229,1.48l-3.988-4.434
		c-0.65-0.844-1.797-1.001-2.569-0.291c-0.782,0.71-0.822,1.981-0.173,2.836l5.084,5.555c0.347,0.401,0.823,0.668,1.361,0.668
		c0.396,0-0.192-0.141,0.114-0.369L24,20v10l-5.176,16.45c-0.376,1.488,0.912,3.02,2.281,3.42c1.362,0.399,3.003-0.488,3.369-1.977
		l4.597-14.78l4.622,14.814c0.363,1.498,1.895,2.376,3.256,1.976C38.31,49.505,39.254,47.971,38.881,46.482z"/>
	<path d="M13.137,17.474c0.172,0.194,0.467,0.199,0.65,0l0.061-0.056c0.174-0.201,0.184-0.522,0-0.716l-0.995-1.116
		c-0.184-0.2-0.479-0.2-0.662-0.005l-0.05,0.061c-0.182,0.2-0.193,0.517-0.01,0.711L13.137,17.474z"/>
	<path d="M22.658,4.837l-5.875,6.946l0.713,0.794l6.555-6.18l4.358-4.392c0.174-0.211,0.284-0.488,0.284-0.789
		c0-0.666-0.488-1.21-1.087-1.216c-0.294-0.005-0.548,0.117-0.75,0.306L22.658,4.837z"/>
</g>
</svg>
