<?xml version="1.0" encoding="utf-8"?>
<!-- Generator: Adobe Illustrator 15.1.0, SVG Export Plug-In . SVG Version: 6.00 Build 0)  -->
<svg version="1.2" baseProfile="tiny" id="Layer_1" xmlns="http://www.w3.org/2000/svg" xmlns:xlink="http://www.w3.org/1999/xlink"
	 x="0px" y="0px" width="50px" height="50px" viewBox="0 0 50 50" overflow="inherit" xml:space="preserve">
<path d="M6.432,21.55c-0.217,0.445-0.375,0.938-0.458,1.468c-0.037,0.263-0.061,0.529-0.061,0.793l0.193,12.125L1.901,44.96
	c-0.145,0.266-0.253,0.576-0.301,0.902c-0.23,1.492,0.797,2.876,2.295,3.105c1.16,0.18,2.271-0.409,2.803-1.386l4.626-9.864
	c0.096-0.229,0.182-0.47,0.217-0.734c0.013-0.12,0.025-0.253,0.025-0.372l-0.036-7.496l7.109,3.092l1.148,7.326
	c0.229,1.071,1.111,1.927,2.259,2.106c1.498,0.216,2.887-0.807,3.118-2.285c0.035-0.253,0.035-0.506,0.011-0.746l-1.401-8.844
	c-0.169-0.854-0.736-1.588-1.534-1.962l-6.354-2.812l4.046-7.014l2.007,2.539c0.205,0.228,0.471,0.421,0.772,0.541l7.648,2.225
	c1.016,0.217,2.055-0.311,2.452-1.286c0.447-1.107-0.083-2.358-1.183-2.803c-0.037-0.012-0.073-0.024-0.109-0.036l-6.645-1.949
	l-5.002-5.979c-0.749-0.794-1.752-1.359-2.911-1.541c-2.03-0.3-3.957,0.662-4.972,2.298L6.432,21.55z"/>
<path d="M28.371,38.934l-0.483,3.633l-13.156,3.187L14.859,48h32.086C48.082,48,49,47.088,49,45.957L48.964,2.888l-4.396-1.022
	l-2.526,11.323l-4.223,1.768l-3.745,10.441l3.558,7.989l-1.002,3.067L28.371,38.934z"/>
<path d="M19.438,9.157c2.259,0,4.095-1.828,4.095-4.078C23.532,2.83,21.697,1,19.438,1s-4.096,1.83-4.096,4.079
	C15.341,7.329,17.178,9.157,19.438,9.157z"/>
<path d="M11.289,9.795c0.314-0.553,0.132-1.275-0.435-1.588L8.872,7.052C8.305,6.739,7.591,6.92,7.265,7.485L1.153,17.989
	c-0.314,0.553-0.133,1.263,0.434,1.588l1.994,1.144c0.555,0.324,1.269,0.132,1.594-0.422L11.289,9.795z"/>
</svg>
