<?xml version="1.0" encoding="utf-8"?>
<!-- Generator: Adobe Illustrator 15.1.0, SVG Export Plug-In . SVG Version: 6.00 Build 0)  -->
<svg version="1.2" baseProfile="tiny" id="Layer_1" xmlns="http://www.w3.org/2000/svg" xmlns:xlink="http://www.w3.org/1999/xlink"
	 x="0px" y="0px" width="50px" height="50px" viewBox="0 0 50 50" overflow="inherit" xml:space="preserve">
<g>
	<path d="M28.854,28.732c1.297,0.439,2.707-0.22,3.16-1.487c0.451-1.264-0.237-2.638-1.535-3.078
		c-1.299-0.44-2.709,0.231-3.16,1.495C26.878,26.921,27.556,28.305,28.854,28.732z"/>
	<path d="M49.202,12.977c0,0-8.396-0.984-25.833-0.984C10.507,11.993,0,12.977,0,12.977s4.357,1.869,3.601,7.663
		c0,0,6.252-0.726,8.871,4.49l11.743-3.469l-0.768,7.632L18.48,30.48c-0.44,0.099-0.812,0.308-1.116,0.571L6.467,41.298
		c-0.643,0.593-0.654,1.594-0.033,2.208c0.609,0.628,1.636,0.65,2.268,0.056l8.199-7.694l10.045-2.396l-0.068,0.021l1.67-0.418
		l1.535,1.705c0.237,0.252,0.575,0.406,0.937,0.406l5.406,0.021c0.678,0,1.241-0.538,1.241-1.209l0,0
		c0-0.583-0.417-1.033-0.97-1.166l-4.029-13.661l16.782-4.952C50.252,13.877,50.184,13.081,49.202,12.977z M35.49,32.777
		c-1.23,0-3.285-0.011-3.905-0.011c-0.587-0.648-2.913-3.21-2.913-3.21c-0.033-0.044-0.09-0.055-0.124-0.088
		c-0.587-0.67-1.523-1.021-2.459-0.803l-1.457,0.353l0.779-7.709l6.15-1.813L35.49,32.777z"/>
</g>
</svg>
