<?xml version="1.0" encoding="utf-8"?>
<!-- Generator: Adobe Illustrator 15.1.0, SVG Export Plug-In . SVG Version: 6.00 Build 0)  -->
<svg version="1.2" baseProfile="tiny" id="Layer_1" xmlns="http://www.w3.org/2000/svg" xmlns:xlink="http://www.w3.org/1999/xlink"
	 x="0px" y="0px" width="50px" height="50px" viewBox="0 0 50 50" overflow="inherit" xml:space="preserve">
<path d="M7.206,31.141c2.885,0,5.219-2.399,5.219-5.368c0-2.953-2.334-5.353-5.219-5.353C4.333,20.42,2,22.82,2,25.773
	C2,28.741,4.333,31.141,7.206,31.141z"/>
<path d="M36.436,40.357c0.243-0.172,0.564-0.12,0.741,0.117l0.965,1.372c0.164,0.238,0.114,0.58-0.116,0.766l-7.08,5.287
	c-0.229,0.172-0.562,0.118-0.743-0.118l-0.962-1.372c-0.165-0.238-0.113-0.579,0.116-0.764L36.436,40.357z"/>
<polygon points="28.433,33.54 25.625,28.477 24.151,29.584 26.959,34.674 "/>
<polygon points="21.882,21.713 10.962,2 8.873,2.014 20.395,22.834 "/>
<path d="M32.163,32.143C32.78,31.682,34.192,31,35,31h10c1.974,0,3,1.986,3,4.004C48,37.034,46.974,38,45,38h-9l-10.836,8.502
	c-3.808,2.819-6.116-0.278-6.116-0.278l-8.483-8.729c-1.423-1.753-1.115-5.089,0.591-6.566l11.739-8.597
	c1.166-1,2.897-0.843,3.885,0.343c0.976,1.2,0.822,2.994-0.346,3.996l-7.515,5.657l5.399,5.484L32.163,32.143z"/>
</svg>
