<?xml version="1.0" encoding="utf-8"?>
<!-- Generator: Adobe Illustrator 15.1.0, SVG Export Plug-In . SVG Version: 6.00 Build 0)  -->
<svg version="1.2" baseProfile="tiny" id="Layer_1" xmlns="http://www.w3.org/2000/svg" xmlns:xlink="http://www.w3.org/1999/xlink"
	 x="0px" y="0px" width="50px" height="50px" viewBox="0 0 50 50" overflow="inherit" xml:space="preserve">
<g>
	<ellipse cx="19.188" cy="47.606" rx="1.356" ry="1.394"/>
	<path d="M30.148,48.974c0.748,0,1.354-0.63,1.354-1.411c0-0.772-0.605-1.399-1.354-1.399c-0.75,0-1.355,0.627-1.355,1.399
		C28.793,48.344,29.398,48.974,30.148,48.974z"/>
	<path d="M27.809,8.404c1.988,0,3.604-1.663,3.604-3.708C31.412,2.652,29.797,1,27.809,1c-1.987,0-3.604,1.652-3.604,3.696
		C24.205,6.741,25.822,8.404,27.809,8.404z"/>
	<path d="M8.266,40.798C8.096,41.126,8,41.498,8,41.901c0,1.302,1.032,2.364,2.307,2.364c0.915,0,1.701-0.547,2.073-1.335
		l7.861-13.9l-3.264-3.358L8.266,40.798z"/>
	<path d="M25.299,40.174c-0.371,0.788-1.158,1.336-2.072,1.336c-1.265,0-2.295-1.062-2.295-2.364c0-0.404,0.095-0.775,0.266-1.104
		l3.423-6.189l-6.676-6.826c-2.562-2.646-0.733-5.511-0.733-5.511l3.593-6.529l-9.53,0.011c-1.052,0-1.892-0.933-1.892-2.005
		C9.382,9.932,10.222,9,11.274,9h28.843C41.16,9,42,9.934,42,11.005C42,12.077,41.16,13,40.117,13H29.115l-5.25,9.458l5.346,5.435
		c1.873,1.849,0.66,3.926,0.66,3.926L25.299,40.174z"/>
</g>
<path d="M34,44c0,0.553-0.447,1-1,1H16c-0.552,0-1-0.447-1-1l0,0c0-0.553,0.448-1,1-1h17C33.553,43,34,43.447,34,44L34,44z"/>
</svg>
