<?xml version="1.0" encoding="utf-8"?>
<!-- Generator: Adobe Illustrator 15.1.0, SVG Export Plug-In . SVG Version: 6.00 Build 0)  -->
<svg version="1.2" baseProfile="tiny" id="Layer_1" xmlns="http://www.w3.org/2000/svg" xmlns:xlink="http://www.w3.org/1999/xlink"
	 x="0px" y="0px" width="50px" height="50px" viewBox="0 0 50 50" overflow="inherit" xml:space="preserve">
<path d="M5.809,24.21c-1.011,0-1.838,0.827-1.838,1.835c0,1.007,0.828,1.82,1.838,1.82c1.01,0,1.826-0.813,1.826-1.82
	C7.635,25.037,6.819,24.21,5.809,24.21z"/>
<path d="M31.297,8.951c2.191,0,3.98-1.771,3.98-3.969c0-2.198-1.789-3.982-3.98-3.982c-2.203,0-3.993,1.784-3.993,3.982
	C27.304,7.18,29.094,8.951,31.297,8.951z"/>
<path d="M48.428,44.363l-6.477-7.626c0,0-2.023-11.774-2.023-11.799c0-0.011-0.303-1.335-0.303-1.335
	c0.012,0.013-0.814-3.714-1.447-6.627c1.01,0.582,1.922,1.104,1.971,1.129c0.049,0.108,3.432,6.53,3.432,6.53
	c0.258,0.475,0.686,0.827,1.195,0.983c0.523,0.158,1.072,0.11,1.547-0.146c0.475-0.242,0.828-0.667,0.984-1.189
	c0.174-0.509,0.121-1.057-0.135-1.529L43.463,15.7c0,0-0.148-0.255-0.342-0.448c-0.268-0.267-0.855-0.595-0.855-0.595l-7.205-4.092
	c-0.914-0.461-1.924-0.618-2.936-0.4c-0.416,0.085-0.803,0.243-1.24,0.486c-0.051,0.011-1.646,0.715-2.57,2.878l-3.7,7.429
	c0,0-5.638,1.092-5.833,1.129c-0.048,0.012-0.099,0.024-0.134,0.048l-5.266-3.715c-1.181-0.825-1.326-3.302-1.34-3.399
	c-0.145-1.699-1.12-3.302-2.678-4.407C7.953,9.619,6.247,9.195,4.688,9.448c-1.218,0.207-2.252,0.838-2.91,1.762
	C1.268,11.926,1,12.788,1,13.71c0,0.013,0.073,0.803,0.073,0.803c0.269,1.564,1.23,3.021,2.643,4.029
	c1.424,1.007,3.117,1.433,4.675,1.166l0.366-0.073c0.036-0.024,2.374-0.742,3.518,0.037c0,0.011,3.938,2.779,4.986,3.52
	c-0.109,0.17-0.304,0.545-0.292,0.935c0,0.122,0.013,0.242,0.037,0.363c0.207,1.094,1.277,1.822,2.374,1.604l6.987-1.361
	c0,0,0.598-0.182,0.854-0.365c0.33-0.23,0.572-0.715,0.572-0.715l1.838-3.691c0,0,1.268,5.96,1.289,6.069
	c-0.145,0.146-5.732,6.058-5.732,6.058l-0.215,0.122C24.422,32.707,24,33.362,24,34.056v12.526C24,47.92,25.167,49,26.506,49
	C27.834,49,29,47.92,29,46.582c0,0,0-10.292,0-10.463c1-0.533,4.844-5.036,5.988-6.229c0.123,0.704,1.252,7.056,1.252,7.056
	c0.098,0.559,0.379,1.068,0.781,1.479c0,0.014,7.699,9.071,7.699,9.071c0.428,0.482,1.013,0.788,1.657,0.848
	c0.646,0.049,1.269-0.156,1.769-0.568c0.559-0.475,0.853-1.167,0.853-1.848C48.999,45.371,48.818,44.824,48.428,44.363z
	 M10.022,17.049c-0.426,0.595-1.083,0.983-1.899,1.129c-1.145,0.193-2.424-0.134-3.494-0.911c-1.083-0.766-1.815-1.857-2.009-2.998
	L2.57,13.698c0-0.595,0.159-1.128,0.488-1.59c1.059-1.48,3.481-1.577,5.404-0.218C10.375,13.25,11.081,15.568,10.022,17.049z"/>
</svg>
