<?xml version="1.0" encoding="utf-8"?>
<!-- Generator: Adobe Illustrator 15.1.0, SVG Export Plug-In . SVG Version: 6.00 Build 0)  -->
<svg version="1.2" baseProfile="tiny" id="Layer_1" xmlns="http://www.w3.org/2000/svg" xmlns:xlink="http://www.w3.org/1999/xlink"
	 x="0px" y="0px" width="50px" height="50px" viewBox="0 0 50 50" overflow="inherit" xml:space="preserve">
<path d="M41,1H9C6.8,1,5,2.8,5,5v40c0,2.2,1.8,4,4,4h32c2.2,0,4-1.8,4-4V5C45,2.8,43.2,1,41,1z M17,41c0,1.1-0.9,2-2,2h-4
	c-1.1,0-2-0.9-2-2v-1c0-1.1,0.9-2,2-2h4c1.1,0,2,0.9,2,2V41z M17,33c0,1.1-0.9,2-2,2h-4c-1.1,0-2-0.9-2-2v-1c0-1.1,0.9-2,2-2h4
	c1.1,0,2,0.9,2,2V33z M17,25c0,1.1-0.9,2-2,2h-4c-1.1,0-2-0.9-2-2v-1c0-1.1,0.9-2,2-2h4c1.1,0,2,0.9,2,2V25z M29,41c0,1.1-0.9,2-2,2
	h-4c-1.1,0-2-0.9-2-2v-1c0-1.1,0.9-2,2-2h4c1.1,0,2,0.9,2,2V41z M29,33c0,1.1-0.9,2-2,2h-4c-1.1,0-2-0.9-2-2v-1c0-1.1,0.9-2,2-2h4
	c1.1,0,2,0.9,2,2V33z M29,25c0,1.1-0.9,2-2,2h-4c-1.1,0-2-0.9-2-2v-1c0-1.1,0.9-2,2-2h4c1.1,0,2,0.9,2,2V25z M41,41c0,1.1-0.9,2-2,2
	h-4c-1.1,0-2-0.9-2-2v-1c0-1.1,0.9-2,2-2h4c1.1,0,2,0.9,2,2V41z M41,33c0,1.1-0.9,2-2,2h-4c-1.1,0-2-0.9-2-2v-1c0-1.1,0.9-2,2-2h4
	c1.1,0,2,0.9,2,2V33z M41,25c0,1.1-0.9,2-2,2h-4c-1.1,0-2-0.9-2-2v-1c0-1.1,0.9-2,2-2h4c1.1,0,2,0.9,2,2V25z M41,16c0,1.1-0.9,2-2,2
	H11c-1.1,0-2-0.9-2-2V8c0-1.1,0.9-2,2-2h28c1.1,0,2,0.9,2,2V16z"/>
</svg>
