<?xml version="1.0" encoding="utf-8"?>
<!-- Generator: Adobe Illustrator 15.1.0, SVG Export Plug-In . SVG Version: 6.00 Build 0)  -->
<svg version="1.2" baseProfile="tiny" id="Layer_1" xmlns="http://www.w3.org/2000/svg" xmlns:xlink="http://www.w3.org/1999/xlink"
	 x="0px" y="0px" width="50px" height="50px" viewBox="0 0 50 50" overflow="inherit" xml:space="preserve">
<g id="layer1_3_" transform="translate(0,-952.362)">
	<path id="path11349-0" d="M25,958.362c-1.263,0-1.834,0.616-2.21,1.286L7.08,989.22H3.685c-1.482,0-2.685,1.145-2.685,2.571
		c0,1.423,1.203,2.57,2.685,2.57h4.895h32.842h4.895c1.481,0,2.685-1.147,2.685-2.57c0-1.427-1.203-2.571-2.685-2.571H42.92
		l-15.709-29.573C26.834,958.978,26.264,958.362,25,958.362L25,958.362z M25,971.219l8.842,18.001H16.158L25,971.219z"/>
</g>
</svg>
