<?xml version="1.0" encoding="utf-8"?>
<!-- Generator: Adobe Illustrator 15.1.0, SVG Export Plug-In . SVG Version: 6.00 Build 0)  -->
<svg version="1.2" baseProfile="tiny" id="Layer_1" xmlns="http://www.w3.org/2000/svg" xmlns:xlink="http://www.w3.org/1999/xlink"
	 x="0px" y="0px" width="50px" height="50px" viewBox="0 0 50 50" overflow="inherit" xml:space="preserve">
<path d="M47.783,11.883c-0.688-0.542-2.533-0.977-3.914-1.301L42,10.332V5.814c0,0.02,0.912-0.037,0.957-0.015
	C43.854,6.254,45.146,7,45.213,8h3.604c-0.067-2-1.586-3.262-2.938-4.264C44.982,3.071,44,2.716,42,2.501V0h-2v2.424
	c-2,0.192-2.646,0.69-3.549,1.503C35.27,4.99,34.744,6.324,34.744,7.93c0,1.76,0.503,3.053,1.712,3.881
	C37.132,12.28,38,12.716,40,13.12v4.895c-1-0.177-1.002-0.132-1.355-0.551C38.305,17.058,38.212,16,38.096,16H34.52
	c0,2,0.541,2.958,1.895,4.025C37.391,20.794,38,20.93,40,21.132V23h2v-1.836c2-0.193,3.699-0.702,4.676-1.536
	c1.268-1.083,2.305-2.444,2.305-4.082C48.98,13.948,48.852,12.728,47.783,11.883z M39.018,9.097
	c-0.582-0.317-0.806-0.797-0.806-1.438c0-0.698,0.193-1.244,0.783-1.634C39.306,5.82,39,5.671,40,5.572v3.94
	C39,9.36,39.238,9.222,39.018,9.097z M43.361,17.917C43.193,17.975,42,18.021,42,18.062v-4.167c2,0.172,1.846,0.357,2.178,0.558
	c0.521,0.324,0.783,0.786,0.783,1.377C44.961,16.846,44.426,17.543,43.361,17.917z"/>
<path d="M38.52,30h-0.553l-6.144-11.125C31.558,18.394,30.89,18,30.34,18H11.699c-0.55,0-1.218,0.394-1.483,0.875L4.072,30H3.52
	C2.419,30,1,30.9,1,32v10c0,1.1,1.419,2,2.52,2H5v3c0,1.65,1.87,3,3.52,3h1c1.65,0,2.48-1.35,2.48-3v-3h17v3c0,1.65,1.869,3,3.52,3
	h1c1.65,0,2.48-1.35,2.48-3v-3h2.52c1.1,0,1.48-0.9,1.48-2V32C40,30.9,39.619,30,38.52,30z M7.02,38c-1.381,0-2.5-1.119-2.5-2.5
	S5.639,33,7.02,33s2.5,1.119,2.5,2.5S8.4,38,7.02,38z M9.02,30l4.053-8.105C13.318,21.402,13.97,21,14.52,21h13
	c0.55,0,1.201,0.402,1.447,0.895L33.02,30H9.02z M35.02,38c-1.381,0-2.5-1.119-2.5-2.5s1.119-2.5,2.5-2.5s2.5,1.119,2.5,2.5
	S36.4,38,35.02,38z"/>
</svg>
