<?xml version="1.0" encoding="utf-8"?>
<!-- Generator: Adobe Illustrator 15.1.0, SVG Export Plug-In . SVG Version: 6.00 Build 0)  -->
<svg version="1.2" baseProfile="tiny" id="Layer_1" xmlns="http://www.w3.org/2000/svg" xmlns:xlink="http://www.w3.org/1999/xlink"
	 x="0px" y="0px" width="50px" height="50px" viewBox="0 0 50 50" overflow="inherit" xml:space="preserve">
<path d="M49,10.489c0.604-0.457,1-1.173,1-1.989C50,7.119,48.881,6,47.5,6S45,7.119,45,8.5c0,0.815,0.396,1.532,1,1.989V26h-9v8h10
	v-0.297c1.465-0.594,2.5-2.024,2.5-3.703c0-0.691-0.191-1.332-0.5-1.899V10.489z"/>
<path d="M6,17c1.021,0,1.73,0.172,3,0c0,0-4.016,2.666-4.016,6H10c0,0,0.006-5.554,3-9l-1-1c0,0-2,1-4,0c0,0-2,0-4,1v-1H3v6h1
	C4,19,4,17,6,17z"/>
<path d="M20,17c1.021,0,1.73,0.172,3,0c0,0-4.016,2.666-4.016,6H24c0,0,0.006-5.554,3-9l-1-1c0,0-2,1-4,0c0,0-2,0-4,1v-1h-1v6h1
	C18,19,18,17,20,17z"/>
<path d="M38,7V5H25.88c-0.456-2.002-2.239-3.5-4.38-3.5S17.576,2.998,17.12,5H5v2H0v41h44V7H38z M16,11h12v14H16V11z M2,11h12v14H2
	V11z M38,43H5v-7h33V43z M42,25H30V11h12V25z"/>
<path d="M34,17c1.021,0,1.73,0.172,3,0c0,0-4.016,2.666-4.016,6H38c0,0,0.006-5.554,3-9l-1-1c0,0-2,1-4,0c0,0-2,0-4,1v-1h-1v6h1
	C32,19,32,17,34,17z"/>
</svg>
