<?xml version="1.0" encoding="utf-8"?>
<!-- Generator: Adobe Illustrator 15.1.0, SVG Export Plug-In . SVG Version: 6.00 Build 0)  -->
<svg version="1.2" baseProfile="tiny" id="Layer_1" xmlns="http://www.w3.org/2000/svg" xmlns:xlink="http://www.w3.org/1999/xlink"
	 x="0px" y="0px" width="50px" height="50px" viewBox="0 0 50 50" overflow="inherit" xml:space="preserve">
<path d="M41,19h-0.272c-0.074-0.128-0.16-0.252-0.266-0.365L28.918,6.267C28.969,6.02,29,5.764,29,5.5C29,3.567,27.576,2,25.818,2
	c-0.678,0-2.959,0-3.637,0C20.424,2,19,3.567,19,5.5c0,0.264,0.032,0.52,0.082,0.767L7.538,18.635
	C7.433,18.748,7.347,18.872,7.272,19H2v7h2v15c0,2.762,2.239,5,5,5h32c2.762,0,5-2.238,5-5V26h2v-7H41z M22.182,9
	c0.678,0,2.959,0,3.637,0c0.056,0,0.107-0.015,0.163-0.018L35.331,19H12.669l9.35-10.018C22.074,8.985,22.126,9,22.182,9z M13,40
	c0,1.1-0.9,2-2,2s-2-0.9-2-2V28c0-1.1,0.9-2,2-2s2,0.9,2,2V40z M22,40c0,1.1-0.9,2-2,2s-2-0.9-2-2V28c0-1.1,0.9-2,2-2s2,0.9,2,2V40z
	 M32,40c0,1.1-0.9,2-2,2s-2-0.9-2-2V28c0-1.1,0.9-2,2-2s2,0.9,2,2V40z M41,40c0,1.1-0.9,2-2,2s-2-0.9-2-2V28c0-1.1,0.9-2,2-2
	s2,0.9,2,2V40z"/>
</svg>
