<?xml version="1.0" encoding="utf-8"?>
<!-- Generator: Adobe Illustrator 15.1.0, SVG Export Plug-In . SVG Version: 6.00 Build 0)  -->
<svg version="1.2" baseProfile="tiny" id="Layer_1" xmlns="http://www.w3.org/2000/svg" xmlns:xlink="http://www.w3.org/1999/xlink"
	 x="0px" y="0px" width="50px" height="50px" viewBox="0 0 50 50" overflow="inherit" xml:space="preserve">
<path d="M41,14h-5V2.919C36,1.859,35.105,1,34,1s-2,0.859-2,1.919V14H16V2.919C16,1.859,15.105,1,13.999,1
	C12.894,1,12,1.859,12,2.919V14H7c-0.553,0-1,0.869-1,1.399V20.2c0,5.759,10,12.446,10,21.696V45h4v4h8v-4h4v-3.104
	c0-9.25,10-15.938,10-21.696v-4.801C42,14.869,41.553,14,41,14 M22.907,30.388C22.972,30.178,22.84,30,22.611,30h-3.885
	c-0.23,0-0.295-0.13-0.149-0.299c0,0,8.005-10.159,8.161-10.355c0.118-0.186,0.248-0.121,0.207,0.093
	c-0.062,0.271-1.771,7.202-1.771,7.202C25.091,26.845,25.211,27,25.438,27h3.887c0.229,0,0.302,0.154,0.162,0.328
	c0,0-8.017,10.402-8.161,10.576c-0.145,0.174-0.279,0.121-0.206-0.175C21.193,37.432,22.907,30.388,22.907,30.388"/>
</svg>
