<?xml version="1.0" encoding="utf-8"?>
<!-- Generator: Adobe Illustrator 15.1.0, SVG Export Plug-In . SVG Version: 6.00 Build 0)  -->
<svg version="1.2" baseProfile="tiny" id="Layer_1" xmlns="http://www.w3.org/2000/svg" xmlns:xlink="http://www.w3.org/1999/xlink"
	 x="0px" y="0px" width="50px" height="50px" viewBox="0 0 50 50" overflow="inherit" xml:space="preserve">
<circle cx="22.875" cy="4.625" r="4.125"/>
<g id="Your_Icon">
	<path d="M32.913,32l-5.909-16.237c-0.022-0.051-0.034-0.108-0.034-0.167c0-0.237,0.199-0.429,0.447-0.429
		c0.211,0,0.388,0.141,0.435,0.329L31.869,26c0.267,0.601,1.365,1,2.087,1c0.965,0,1.065-1.895,1.044-2l-4.017-10.357
		C30.634,12.322,28.29,10,25.615,10H20.38c-2.675,0-5.193,2.322-5.542,4.643L11.001,25c-0.087,0.199,0,2,1.043,2
		c0.811,0,1.89-0.283,2.087-1l3.875-10.549c0.062-0.166,0.228-0.284,0.421-0.284c0.247,0,0.446,0.192,0.446,0.428
		c0,0.054-0.009,0.106-0.028,0.153L13.088,32c-0.011,0.048,0,0.951,0,1c0,0.346,0.835,1,1.198,1H18v13.095
		C18,48.135,18.916,49,20,49c1.084,0,2-0.866,2-1.905V33.991c0-0.283,2-0.274,2,0.009v13c0,1.04,0.917,2,2,2c1.086,0,2-0.961,2-2V34
		h3.869c0.362,0,1.044-0.654,1.044-1C32.913,32.92,32.942,32.069,32.913,32z"/>
</g>
</svg>
