<?xml version="1.0" encoding="utf-8"?>
<!-- Generator: Adobe Illustrator 15.1.0, SVG Export Plug-In . SVG Version: 6.00 Build 0)  -->
<svg version="1.2" baseProfile="tiny" id="Layer_1" xmlns="http://www.w3.org/2000/svg" xmlns:xlink="http://www.w3.org/1999/xlink"
	 x="0px" y="0px" width="50px" height="50px" viewBox="0 0 50 50" overflow="inherit" xml:space="preserve">
<g>
	<path d="M25.335,24.297c0,0-4.839,3.893-4.839,7.04c0,1.409,2.074,2.817,4.839,2.817c2.763,0,4.837-1.408,4.837-2.817
		C30.172,28.077,25.335,24.297,25.335,24.297z"/>
	<path d="M42.976,17.181c0.28-3.428,1.274-6.575,3.024-9.459L39.281,1c-2.122,1.828-4.54,2.84-7.28,3.019
		c-2.51,0.227-4.889-0.25-7.126-1.435c-2.302,1.146-4.672,1.625-7.143,1.435c-2.555-0.229-4.862-1.135-6.927-2.741L4.067,7.997
		c1.657,2.926,2.58,5.987,2.761,9.184c0.086,1.472-0.334,3.497-1.276,6.117c-0.493,1.452-0.865,2.711-1.12,3.764
		c-0.236,1.045-0.383,1.895-0.431,2.531c-0.035,2.79,0.748,5.311,2.353,7.55c1.254,1.635,3.322,3.441,6.194,5.415
		c3.143,1.6,5.574,2.638,7.277,3.082c0.487,0.228,0.966,0.446,1.412,0.656c0.445,0.212,0.921,0.42,1.417,0.647
		c1.071,0.641,1.823,1.337,2.221,2.056c0.485-0.777,1.254-1.456,2.278-2.056c0.722-0.315,1.331-0.589,1.822-0.828
		c0.489-0.217,0.855-0.378,1.066-0.476c0.364-0.181,0.843-0.388,1.419-0.616c0.581-0.229,1.302-0.509,2.16-0.821
		c1.659-0.587,2.869-1.143,3.635-1.645c2.786-1.974,4.823-3.75,6.118-5.34c1.663-2.248,2.47-4.779,2.433-7.625
		c-0.099-1.274-0.638-3.313-1.617-6.09C43.256,20.797,42.842,18.697,42.976,17.181z M25.335,36.97
		c-6.107,0-11.75-5.044-11.75-11.265c0-4.225,3.23-8.216,4.147-9.857l2.764,4.225l4.839-7.04l4.837,7.04l2.768-4.225
		c0.914,1.641,4.147,5.632,4.147,9.857C37.087,31.926,31.443,36.97,25.335,36.97z"/>
</g>
</svg>
