<?xml version="1.0" encoding="utf-8"?>
<!-- Generator: Adobe Illustrator 15.1.0, SVG Export Plug-In . SVG Version: 6.00 Build 0)  -->
<svg version="1.2" baseProfile="tiny" id="Layer_1" xmlns="http://www.w3.org/2000/svg" xmlns:xlink="http://www.w3.org/1999/xlink"
	 x="0px" y="0px" width="50px" height="50px" viewBox="0 0 50 50" overflow="inherit" xml:space="preserve">
<path d="M45.102,10.08c0.549-0.549,1.322-1.146,2.111-1.866l0.729-0.611l-1.987-2.23L45.306,5.98
	c-2.746,2.495-4.398,4.003-5.205,7.094c-0.801,3.073-0.833,6.184-0.749,9.092c0.088,2.998,0.201,4.976,1.039,7.182l0.316,0.813
	c0.804,2.023,2.021,5.079,2.021,9.01c0,4.749-1.924,7.158-5.718,7.158c-3.452,0-5.314-2.304-5.532-6.856
	c-0.099-2.017,0.467-4.507,1.062-7.138c0.503-2.221,1.021-4.519,1.276-6.958c0.282-2.689-0.071-4.611-1.104-5.765
	C31.386,18.131,29.345,18,27.547,18H27V4.139C27,2.939,26.129,2,24.936,2H4.295C3.104,2,2,2.939,2,4.139V48h25V21h0.548
	c1.23,0,2.504,0.138,2.937,0.621c0.232,0.26,0.588,1.102,0.353,3.373c-0.237,2.264-0.739,4.503-1.223,6.636
	c-0.641,2.839-1.249,5.539-1.129,7.973c0.295,6.179,3.404,9.73,8.524,9.73c5.457,0,8.715-3.798,8.715-10.168
	c0-4.509-1.395-8.022-2.232-10.127l-0.302-0.767c-0.602-1.589-0.737-3.062-0.82-5.632c0.963-0.022,2.129-0.045,2.653-0.045
	c1.199,0,1.802-0.703,2.059-1.921c0.15-0.71-0.082-1.641-0.082-3.331v-0.448C47,12.427,46.317,11.151,45.102,10.08z M24,19H5V6h19
	V19z M44,17.346c0,0.873,0.23,1.708,0.201,2.239c-0.598,0.009-1.286,0.025-1.986,0.041c0.026-1.929,0.24-3.893,0.733-5.784
	c0.134-0.504,0.094-0.948,0.296-1.362C43.777,12.993,44,13.762,44,16.896V17.346z"/>
</svg>
