<?xml version="1.0" encoding="utf-8"?>
<!-- Generator: Adobe Illustrator 15.1.0, SVG Export Plug-In . SVG Version: 6.00 Build 0)  -->
<svg version="1.2" baseProfile="tiny" id="Layer_1" xmlns="http://www.w3.org/2000/svg" xmlns:xlink="http://www.w3.org/1999/xlink"
	 x="0px" y="0px" width="50px" height="50px" viewBox="0 0 50 50" overflow="inherit" xml:space="preserve">
<g>
	<path d="M43.16,21H41v-8.632C41,6.69,35.304,1,29.626,1h-9.481C14.47,1,9,6.69,9,12.368V21H6.61C5.933,21,5,22.062,5,22.66v25.458
		C5,48.716,5.933,49,6.61,49h36.55c0.679,0,1.84-0.284,1.84-0.882V22.66C45,22.062,43.839,21,43.16,21z M29.713,45h-9.651
		l2.025-9.967c-1.224-0.867-2.025-2.501-2.025-4.105c0-2.643,2.161-4.894,4.825-4.894c2.664,0,4.826,2.089,4.826,4.73
		c0,1.605-0.801,3.429-2.023,4.297L29.713,45z M34,21H16v-8.632C16,9.79,17.693,8,20.241,8h9.289C32.078,8,34,9.79,34,12.368V21z"/>
</g>
</svg>
