<?xml version="1.0" encoding="utf-8"?>
<!-- Generator: Adobe Illustrator 15.1.0, SVG Export Plug-In . SVG Version: 6.00 Build 0)  -->
<svg version="1.2" baseProfile="tiny" id="Layer_1" xmlns="http://www.w3.org/2000/svg" xmlns:xlink="http://www.w3.org/1999/xlink"
	 x="0px" y="0px" width="50px" height="50px" viewBox="0 0 50 50" overflow="inherit" xml:space="preserve">
<g>
	<path d="M48.022,26.652c-1.396,6.519-6.192,11.874-12.516,13.976c-1.94,0.646-3.95,0.973-5.975,0.973
		c-8.149,0-15.354-5.19-17.93-12.914c-1.595-4.781-1.229-9.896,1.03-14.404c2.259-4.507,6.141-7.867,10.93-9.46
		c4.505-1.496,9.397-1.246,13.71,0.689l0.935-1.763C31.943-0.12,24.142-1.046,17.128,1.287C10.785,3.396,5.644,7.846,2.652,13.815
		c-2.992,5.97-3.476,12.746-1.364,19.08C4.7,43.126,14.243,50,25.035,50c2.682,0,5.343-0.433,7.911-1.286
		c9.573-3.184,16.266-11.73,17.052-21.774L48.022,26.652z"/>
	<polygon points="35.697,14.603 30.683,5.219 28.133,15.696 17.704,17.746 27.251,23.167 25.609,33.963 33.716,26.589 
		43.762,31.409 38.631,21.382 46.755,13.54 	"/>
</g>
</svg>
