<?xml version="1.0" encoding="utf-8"?>
<!-- Generator: Adobe Illustrator 15.1.0, SVG Export Plug-In . SVG Version: 6.00 Build 0)  -->
<svg version="1.2" baseProfile="tiny" id="Layer_1" xmlns="http://www.w3.org/2000/svg" xmlns:xlink="http://www.w3.org/1999/xlink"
	 x="0px" y="0px" width="50px" height="50px" viewBox="0 0 50 50" overflow="inherit" xml:space="preserve">
<g>
	<path d="M43.28,13.896L24.958,1l-4.125,2.908l0.062,0.048L4.76,15.426l0,0l0,0L1,18.033v6.103l3.839-2.587V49h0.388h4.185h0.621
		h29.613h1.292h3.854h0.37V21.304L49,24.136v-6.103L43.28,13.896z M39.4,43.152H9.96V17.858L25.017,7.019L39.4,17.37V43.152z"/>
	<path d="M18.235,20.766c1.072,0,1.958-0.883,1.958-1.987c0-1.102-0.886-1.994-1.958-1.994c-1.085,0-1.963,0.893-1.963,1.994
		C16.272,19.883,17.15,20.766,18.235,20.766z"/>
	<path d="M15.562,39.973c0,0.613,0.438,1.191,1.043,1.191c0.608,0,1.034-0.439,1.034-1.055v-9.301h1.281v9.301
		c0,0.615,0.375,1.123,0.98,1.123c0.608,0,1.049-0.646,1.049-1.26l-0.049-16.312h1.218v6.497c0,0.65,1.28,0.65,1.28,0v-6.352
		c0-1.323-1.03-2.615-2.562-2.615l-5.197-0.012c-1.389,0-2.48,1.158-2.48,2.595v6.384c0,0.65,1.279,0.65,1.279,0v-6.497h1.138
		L15.562,39.973z"/>
	<path d="M32.142,20.766c1.076,0,1.963-0.883,1.963-1.987c0-1.102-0.887-1.994-1.963-1.994c-1.079,0-1.967,0.893-1.967,1.994
		C30.175,19.883,31.062,20.766,32.142,20.766z"/>
	<path d="M29.474,39.973c0,0.613,0.514,1.191,1.119,1.191c0.613,0,1.127-0.439,1.127-1.055v-9.301h0.641v9.301
		c0,0.615,0.605,1.123,1.214,1.123c0.609,0,1.166-0.646,1.166-1.26l0.068-16.312h0.753v6.497c0,0.65,1.919,0.65,1.919,0v-6.352
		c0-1.323-1.117-2.615-2.647-2.615l-5.151-0.012c-1.392,0-2.441,1.158-2.441,2.595v6.384c0,0.65,1.28,0.65,1.28,0v-6.497h0.961
		L29.474,39.973z"/>
</g>
</svg>
