<?xml version="1.0" encoding="utf-8"?>
<!-- Generator: Adobe Illustrator 15.1.0, SVG Export Plug-In . SVG Version: 6.00 Build 0)  -->
<svg version="1.2" baseProfile="tiny" id="Layer_1" xmlns="http://www.w3.org/2000/svg" xmlns:xlink="http://www.w3.org/1999/xlink"
	 x="0px" y="0px" width="50px" height="50px" viewBox="0 0 50 50" overflow="inherit" xml:space="preserve">
<g>
	<path d="M45.971,44.396c0-1.994-3.638-7.567-3.638-7.567s-3.693,5.573-3.693,7.567c0,1.99,1.642,3.604,3.666,3.604
		C44.329,48,45.971,46.386,45.971,44.396z"/>
	<g>
		<path d="M19.666,13.171h-7.331V5.944h1.999V2H1v3.944h2v11.17c0,2.904,2.388,5.257,5.333,5.257h11.333v1.972h4.001V11.201h-4.001
			V13.171z"/>
		<path d="M46.998,29.599v-11.17c0-2.903-2.387-5.257-5.329-5.257H30.334v-1.97h-4.001v13.143h4.001v-1.973h7.332v7.227h-1.997
			v3.944H49v-3.944H46.998z"/>
	</g>
</g>
</svg>
