<?xml version="1.0" encoding="utf-8"?>
<!-- Generator: Adobe Illustrator 15.1.0, SVG Export Plug-In . SVG Version: 6.00 Build 0)  -->
<svg version="1.2" baseProfile="tiny" id="Layer_1" xmlns="http://www.w3.org/2000/svg" xmlns:xlink="http://www.w3.org/1999/xlink"
	 x="0px" y="0px" width="50px" height="50px" viewBox="0 0 50 50" overflow="inherit" xml:space="preserve">
<g>
	<path d="M34.438,17.552c3.498,0,6.346-2.801,6.346-6.271C40.784,7.812,37.937,5,34.438,5c-3.512,0-6.365,2.812-6.365,6.281
		C28.073,14.751,30.927,17.552,34.438,17.552z"/>
	<path d="M49,32.857v-7.94L40.435,20.1c-1.451-0.728-3.064-0.975-4.676-0.635c-0.66,0.135-1.281,0.387-1.979,0.771
		c-0.076,0.021-2.619,1.13-4.097,4.541L23.785,36.51c0,0-5.811,1.113-8.243,1.577c-0.192,0.127-0.398,0.23-0.595,0.351l-1.505-5.381
		c-0.623-2.188,1.701-5.36,1.788-5.489c1.538-2.225,1.959-5.156,1.151-8.059c-0.736-2.625-2.412-4.838-4.594-6.083
		c-1.707-0.959-3.626-1.223-5.368-0.749c-1.353,0.367-2.559,1.154-3.491,2.285c-0.012,0.011-0.721,1.05-0.721,1.05
		c-1.254,2.183-1.543,4.919-0.818,7.558c0.736,2.65,2.393,4.854,4.586,6.082l0.525,0.275c0.07,0.005,3.682,1.461,4.31,3.55
		c-0.008,0.011,0.948,3.427,1.728,6.211c-0.2,0.086-0.392,0.19-0.594,0.27c0.029,0.021,0.083,0.054,0.116,0.077
		c-0.176,0.269-0.485,0.865-0.463,1.475c0,0.194,0.016,0.388,0.053,0.576c0.333,1.725,2.042,2.877,3.788,2.526l11.145-2.144
		c0,0,0.948-0.285,1.354-0.571c0.523-0.367,0.917-1.137,0.917-1.137l2.929-5.823c0,0,2.019,9.41,2.058,9.584
		c-0.034,0.026-0.198,0.205-0.465,0.479h15.203c-0.229-1.336-0.381-2.193-0.381-2.203c0-0.022-0.479-2.111-0.479-2.111
		c0.016,0.015-1.304-5.862-2.313-10.462c1.608,0.92,3.065,1.738,3.146,1.782C48.564,32.032,48.737,32.361,49,32.857z M10.687,28.031
		c-1.129,0.3-2.335,0.118-3.491-0.519c-1.61-0.9-2.854-2.575-3.387-4.596c-0.568-2.014-0.361-4.077,0.556-5.667l0.512-0.738
		c0.604-0.733,1.336-1.223,2.214-1.466c2.804-0.753,5.892,1.541,6.89,5.124C14.964,23.736,13.492,27.276,10.687,28.031z"/>
</g>
</svg>
