<?xml version="1.0" encoding="utf-8"?>
<!-- Generator: Adobe Illustrator 15.1.0, SVG Export Plug-In . SVG Version: 6.00 Build 0)  -->
<svg version="1.2" baseProfile="tiny" id="Layer_1" xmlns="http://www.w3.org/2000/svg" xmlns:xlink="http://www.w3.org/1999/xlink"
	 x="0px" y="0px" width="50px" height="50px" viewBox="0 0 50 50" overflow="inherit" xml:space="preserve">
<path fill="#231F20" d="M17.437,12.885c2.464,0,4.45-1.993,4.45-4.446C21.887,5.987,19.9,4,17.437,4
	c-2.459,0-4.451,1.987-4.451,4.439C12.985,10.892,14.978,12.885,17.437,12.885z"/>
<path fill="#231F20" d="M1,37.167c1,0,2.049-0.24,2.947-0.643c0.922-0.426,1.967-0.676,3.048-0.676c1.082,0,2.125,0.25,3.042,0.676
	c0.904,0.402,1.913,0.637,2.965,0.637c1.047,0,2.055-0.234,2.954-0.637c0.916-0.426,1.958-0.676,3.046-0.676
	c1.081,0,2.116,0.25,3.044,0.676c0.894,0.402,1.907,0.637,2.954,0.637c1.047,0,2.06-0.234,2.953-0.637
	c0.928-0.426,1.965-0.676,3.051-0.676c1.082,0,2.117,0.25,3.039,0.676c0.904,0.402,1.913,0.637,2.961,0.637
	c1.05,0,2.055-0.234,2.959-0.637c0.916-0.426,1.957-0.676,3.038-0.676c0.928,0,1.828,0.177,2.64,0.494
	c1.322-1.441,2.142-3.36,2.142-5.461c0-4.474-3.631-8.096-8.11-8.096l-0.909,0.097c-0.997,4.037-5.044,4.207-5.044,4.207
	L15.2,27.084l-1.548-0.909l3.733-6.25l4.087,2.356c2.447,1.583,3.721-0.636,3.721-0.636l4.098-6.666
	c1.781-2.896-1.997-5.218-3.767-2.311l-2.869,4.672l-6.818-3.764c-4.725-2.629-6.727,1.726-6.727,1.726l-5.355,9.152
	c-0.911,1.902-0.104,2.719-0.104,2.719L1,27.169V37.167z"/>
<path fill="#231F20" d="M49,46c-1.048,0-2.055-0.232-2.948-0.636c-0.927-0.426-1.964-0.675-3.051-0.675
	c-1.081,0-2.122,0.249-3.038,0.675C39.059,45.768,38.054,46,37.004,46c-1.048,0-2.057-0.232-2.961-0.636
	c-0.922-0.426-1.957-0.675-3.039-0.675c-1.086,0-2.123,0.249-3.051,0.675C27.06,45.768,26.047,46,25,46
	c-1.046,0-2.06-0.232-2.954-0.636c-0.928-0.426-1.963-0.675-3.044-0.675c-1.087,0-2.129,0.249-3.045,0.675
	C15.058,45.768,14.05,46,13.003,46c-1.053,0-2.061-0.232-2.965-0.636c-0.917-0.426-1.958-0.675-3.04-0.675
	c-1.081,0-2.123,0.249-3.044,0.675C3.055,45.768,2.047,46,1,46v-4.417c1.047,0,2.055-0.238,2.954-0.642
	c0.922-0.425,1.963-0.675,3.044-0.675c1.082,0,2.124,0.25,3.04,0.675c0.904,0.403,1.912,0.642,2.965,0.642
	c1.047,0,2.055-0.238,2.954-0.642c0.916-0.425,1.958-0.675,3.045-0.675c1.081,0,2.116,0.25,3.044,0.675
	c0.894,0.403,1.907,0.642,2.954,0.642c1.047,0,2.06-0.238,2.953-0.642c0.928-0.425,1.965-0.675,3.051-0.675
	c1.082,0,2.117,0.25,3.039,0.675c0.904,0.403,1.913,0.642,2.961,0.642c1.05,0,2.055-0.238,2.959-0.642
	c0.916-0.425,1.957-0.675,3.038-0.675c1.087,0,2.124,0.25,3.051,0.675c0.894,0.403,1.9,0.642,2.948,0.642V46z"/>
</svg>
