<?xml version="1.0" encoding="utf-8"?>
<!-- Generator: Adobe Illustrator 15.1.0, SVG Export Plug-In . SVG Version: 6.00 Build 0)  -->
<svg version="1.2" baseProfile="tiny" id="Layer_1" xmlns="http://www.w3.org/2000/svg" xmlns:xlink="http://www.w3.org/1999/xlink"
	 x="0px" y="0px" width="50px" height="50px" viewBox="0 0 50 50" overflow="inherit" xml:space="preserve">
<g>
	<path d="M2.425,33.614L2.425,33.614c-0.033-0.037-0.045-0.071-0.045-0.119c0-0.097,0.068-0.179,0.169-0.179l4.862,0.013
		c0.247,0,0.438-0.203,0.438-0.454c0-0.191-0.09-0.323-0.27-0.43l-4.414-2.232c-0.078-0.059-0.135-0.154-0.135-0.263
		c0-0.084,0.034-0.168,0.079-0.216l0,0c0,0,11.584-10.886,37.208-0.332l7.041-3.654c0.067-0.037,0.147-0.061,0.236-0.061
		c0.291,0,0.54,0.264,0.54,0.574c0,0.119-0.034,0.215-0.08,0.297l-4.154,5.491l4.154,5.493c0.046,0.083,0.08,0.19,0.08,0.297
		c0,0.322-0.249,0.585-0.54,0.585c-0.089,0-0.169-0.024-0.236-0.059l-7.041-3.665C40.318,34.701,15.817,45.062,2.425,33.614z
		 M10.241,31.371c0.932,0,1.668-0.79,1.668-1.772c0-0.999-0.736-1.785-1.668-1.785c-0.92,0-1.656,0.786-1.656,1.785
		C8.585,30.581,9.321,31.371,10.241,31.371z"/>
	<path d="M32,13v6h14.17C47.73,19,49,17.659,49,16c0-1.672-1.27-3-2.83-3H32z"/>
	<path d="M5.896,17.32l1.292-0.573l0.808,1.469l0,0l1.303-1.003l0.932,1.385l1.247-1.075l1.011,1.314l1.179-1.146l1.072,1.252
		l1.135-1.205l1.134,1.205l1.134-1.205l1.123,1.205l1.135-1.205l1.13,1.205l1.135-1.205l1.134,1.205l1.123-1.205l1.135,1.205
		l1.135-1.205l1.134,1.205l1.327-1.205L31,18.944V13H1v0.036C2,14.766,4.021,16.235,5.896,17.32z"/>
</g>
</svg>
