<?xml version="1.0" encoding="utf-8"?>
<!-- Generator: Adobe Illustrator 15.1.0, SVG Export Plug-In . SVG Version: 6.00 Build 0)  -->
<svg version="1.2" baseProfile="tiny" id="Layer_1" xmlns="http://www.w3.org/2000/svg" xmlns:xlink="http://www.w3.org/1999/xlink"
	 x="0px" y="0px" width="50px" height="50px" viewBox="0 0 50 50" overflow="inherit" xml:space="preserve">
<path d="M16.48,11.888c2.132-0.257,3.645-2.231,3.393-4.403c-0.252-2.173-2.189-3.714-4.321-3.458
	c-2.132,0.271-3.639,2.231-3.387,4.403C12.429,10.604,14.348,12.145,16.48,11.888z"/>
<path d="M48.422,30.55c-0.206-0.105-16.047-8.303-16.047-8.303l-4.022-5.279l-0.249-0.059C27.555,16.396,27,16.443,26,17.003v0.012
	c0,0.42-0.222,1.039,0.055,1.542l3.08,3.923l0.061,0.036l-2.45,5.78l-6.552-1.671l-0.28-2.395l5.399-0.664
	c0.241-0.011,0.494-0.082,0.723-0.21c0.895-0.478,1.239-1.612,0.769-2.522c-0.367-0.701-1.1-1.075-1.822-0.993l-5.499,0.677
	l-0.493-4.157c-0.263-2.161-2.201-3.714-4.321-3.457c-2.125,0.269-3.65,2.244-3.398,4.415l1.146,9.611
	c0.138,1.227,0.854,2.289,1.805,2.908l-8.637,1.051l-2.693,6.796c0.103-0.046,0.217-0.058,0.309-0.104
	c1.112-0.526,2.35-0.807,3.565-0.807c1.215,0,2.441,0.28,3.542,0.794c0.699,0.326,1.467,0.49,2.212,0.49
	c0.751,0,1.507-0.164,2.195-0.478c1.112-0.526,2.338-0.807,3.565-0.807c1.215,0,2.438,0.28,3.528,0.794
	c0.71,0.326,1.478,0.49,2.224,0.49c0.756,0,1.501-0.164,2.2-0.478c1.112-0.526,2.351-0.807,3.565-0.807s2.441,0.28,3.53,0.794
	c0.264,0.116,0.551,0.198,0.837,0.28c4.413-1.182,12.23-3.457,14.338-5.384C49.121,31.904,49.237,30.958,48.422,30.55z"/>
<path d="M1,46c1.009,0,1.983-0.233,2.843-0.63c0.882-0.421,1.88-0.665,2.923-0.665s2.029,0.244,2.923,0.665
	C10.548,45.767,11.511,46,12.52,46c1.003,0,1.966-0.233,2.837-0.63c0.882-0.421,1.879-0.665,2.923-0.665
	c1.032,0,2.029,0.244,2.92,0.665c0.86,0.396,1.823,0.63,2.832,0.63c1.008,0,1.971-0.233,2.842-0.63
	c0.884-0.421,1.88-0.665,2.924-0.665c1.031,0,2.029,0.244,2.911,0.665C33.579,45.767,34.542,46,35.55,46
	c1.01,0,1.972-0.233,2.832-0.63c0.895-0.421,1.892-0.665,2.923-0.665c1.042,0,2.006,0.244,2.887,0.665C45.052,45.767,46,46,47,46
	v-4.333c-1,0-1.948-0.231-2.809-0.629c-0.881-0.422-1.862-0.655-2.904-0.655c-1.031,0-2.02,0.233-2.914,0.655
	c-0.86,0.397-1.818,0.629-2.828,0.629c-1.008,0-1.968-0.231-2.839-0.629c-0.882-0.422-1.879-0.655-2.91-0.655
	c-1.044,0-2.04,0.233-2.924,0.655c-0.871,0.397-1.833,0.629-2.841,0.629c-1.009,0-1.971-0.231-2.831-0.629
	c-0.891-0.422-1.888-0.655-2.92-0.655c-1.043,0-2.041,0.233-2.923,0.655c-0.871,0.397-1.834,0.629-2.837,0.629
	c-1.009,0-1.972-0.231-2.831-0.629c-0.894-0.422-1.88-0.655-2.923-0.655s-2.041,0.233-2.923,0.655
	C2.983,41.436,2.009,41.667,1,41.667V46z"/>
</svg>
