<?xml version="1.0" encoding="utf-8"?>
<!-- Generator: Adobe Illustrator 15.1.0, SVG Export Plug-In . SVG Version: 6.00 Build 0)  -->
<svg version="1.2" baseProfile="tiny" id="Layer_1" xmlns="http://www.w3.org/2000/svg" xmlns:xlink="http://www.w3.org/1999/xlink"
	 x="0px" y="0px" width="50px" height="50px" viewBox="0 0 50 50" overflow="inherit" xml:space="preserve">
<path d="M41.446,30.82c-0.997,0-1.949,0.238-2.793,0.648c-0.834,0.375-1.753,0.602-2.718,0.602c-0.962,0-1.882-0.227-2.715-0.602
	c-0.845-0.41-1.797-0.648-2.793-0.648c-0.986,0-1.939,0.238-2.794,0.648c-0.823,0.375-1.741,0.602-2.705,0.602
	c-0.965,0-1.896-0.227-2.72-0.602c-0.844-0.41-1.796-0.648-2.794-0.648c-0.996,0-1.948,0.238-2.792,0.648
	c-0.833,0.375-1.752,0.602-2.711,0.602c-0.964,0-1.884-0.227-2.717-0.602c-0.843-0.41-1.785-0.648-2.781-0.648
	c-0.998,0-1.902,0.238-2.747,0.648C4.835,31.844,4,32.07,3,32.07v4.212c1,0,1.835-0.229,2.668-0.603
	c0.844-0.409,1.773-0.647,2.771-0.647c0.996,0,1.926,0.238,2.769,0.647c0.702,0.318,1.473,0.498,2.273,0.557l-3.376,3.483
	c-1.074-0.691-2.5-0.567-3.431,0.399l-3.867,4.006c-1.074,1.113-1.075,2.916,0,4.04c1.084,1.113,2.826,1.113,3.898,0l3.868-4.005
	c0.877-0.911,1.029-2.271,0.481-3.35l4.65-4.812c0.318-0.104,0.624-0.182,0.92-0.318c0.844-0.409,1.797-0.647,2.792-0.647
	c0.998,0,1.95,0.238,2.794,0.647c0.824,0.374,1.755,0.603,2.72,0.603c0.964,0,1.881-0.229,2.705-0.603
	c0.854-0.409,1.808-0.647,2.794-0.647c0.996,0,1.948,0.238,2.793,0.647c0.833,0.374,1.753,0.603,2.715,0.603
	c0.965,0,1.884-0.229,2.718-0.603c0.844-0.409,1.796-0.647,2.793-0.647c0.995,0,1.961,0.238,2.815,0.647
	C45.083,36.054,46,36.282,47,36.282V32.07c-1,0-1.917-0.227-2.738-0.602C43.407,31.059,42.441,30.82,41.446,30.82z"/>
<path d="M43.319,10.224l3.867-4.007c1.084-1.123,1.084-2.929,0-4.042c-1.074-1.123-2.827-1.123-3.9,0L39.42,6.182
	c-0.932,0.965-1.051,2.441-0.372,3.542l-4.809,4.99l-9.552-3.667c-0.251-0.148-0.515-0.272-0.81-0.364
	c-2.084-0.646-4.286,0.579-4.911,2.737l-2.935,10.225C15.993,23.764,15.983,24,15.972,24H3v5.407c1,0,1.403-0.171,2.05-0.465
	c1.062-0.511,2.224-0.784,3.386-0.784c1.16,0,2.322,0.273,3.363,0.774c0.689,0.317,1.396,0.475,2.119,0.475
	c0.729,0,1.437-0.157,2.095-0.465c1.073-0.511,2.245-0.784,3.404-0.784c1.173,0,2.322,0.261,3.387,0.774
	c0.668,0.317,1.402,0.475,2.125,0.475c0.724,0,1.433-0.157,2.101-0.465c1.063-0.511,2.246-0.784,3.397-0.784
	c1.182,0,2.322,0.261,3.383,0.774c0.68,0.317,1.415,0.475,2.125,0.475c0.725,0,1.447-0.157,2.104-0.465
	c1.063-0.511,2.246-0.784,3.407-0.784c0.195,0,0.995,0.063,1.786-0.481c1.401-0.635,1.928-0.998,3.153-1.776
	C47.395,25.26,48.193,24,46,24c-1,0-19,0-19,0l5.869-5.802l0.745,0.294c0.942,0.352,1.993-0.147,2.344-1.124
	c0.241-0.691,0.056-1.441-0.405-1.94l4.535-4.717C41.128,11.28,42.441,11.131,43.319,10.224z M25.333,24h-1.171l2.365-8.199
	l4.886,1.889L25.333,24z"/>
<path d="M25.301,5.913l-0.504,1.016C24.468,7.62,23.79,8,23.011,8h-1.185c0.681,1,1.989,1.632,3.248,1.632
	C27.133,9.632,29,7.891,29,5.756V6h-3.523C25.4,6,25.323,5.833,25.301,5.913z"/>
<path d="M23.011,7c0.406,0,0.768-0.253,0.932-0.615l0.493-0.897C24.622,5.067,25.016,5,25.477,5h3.854
	c-0.505-2-2.311-3.782-4.446-3.782c-2.533,0-4.582,2.018-4.582,4.65c0,0.42,0.044,1.132,0.154,1.132H23.011z"/>
</svg>
