<?xml version="1.0" encoding="utf-8"?>
<!-- Generator: Adobe Illustrator 15.1.0, SVG Export Plug-In . SVG Version: 6.00 Build 0)  -->
<svg version="1.2" baseProfile="tiny" id="Layer_1" xmlns="http://www.w3.org/2000/svg" xmlns:xlink="http://www.w3.org/1999/xlink"
	 x="0px" y="0px" width="50px" height="50px" viewBox="0 0 50 50" overflow="inherit" xml:space="preserve">
<g>
	<polygon fill="#231F20" points="1,5 8.617,12.893 11.544,10.229 8.894,5.024 	"/>
	<path fill="#231F20" d="M35.336,27.108c1.439,0.402,2.988-0.424,3.396-1.909c0.395-1.458-0.445-2.991-1.898-3.405l-1.127-0.315
		l-1.463,5.302L35.336,27.108z"/>
	<path fill="#231F20" d="M34.449,21.138l-9.115-2.603c-0.6-0.158-1.205,0.208-1.374,0.815l-0.852,3.089
		c-0.167,0.608,0.156,1.228,0.768,1.411l9.122,2.579L34.449,21.138z"/>
	<path fill="#231F20" d="M35.887,29.919c-0.695-0.669-1.559-1.204-2.564-1.484l-11.053-3.137l0,0l-6.79-12.21
		c-0.36-0.632-0.936-1.131-1.68-1.338c-1.488-0.425-3.036,0.462-3.443,1.97c-0.204,0.718-0.108,1.447,0.216,2.067l8.494,15.104
		c0,0,0.696,1.131,2.447,1.716l15.442,4.391l7.162,7.369c0.24,0.255,0.553,0.449,0.924,0.56c1.08,0.304,2.207-0.354,2.52-1.437
		c0.205-0.765-0.035-1.568-0.576-2.067L35.887,29.919z"/>
	<path fill="#231F20" d="M44.131,32.972l1.605,2.128L49,31.487l-2.758-1.558c0.262-1.958-0.938-3.854-2.857-4.401
		c-2.111-0.597-4.307,0.644-4.893,2.785c-0.602,2.153,0.635,4.365,2.746,4.962C42.246,33.566,43.266,33.408,44.131,32.972z"/>
</g>
</svg>
