<?xml version="1.0" encoding="utf-8"?>
<!-- Generator: Adobe Illustrator 15.1.0, SVG Export Plug-In . SVG Version: 6.00 Build 0)  -->
<svg version="1.2" baseProfile="tiny" id="Layer_1" xmlns="http://www.w3.org/2000/svg" xmlns:xlink="http://www.w3.org/1999/xlink"
	 x="0px" y="0px" width="50px" height="50px" viewBox="0 0 50 50" overflow="inherit" xml:space="preserve">
<g>
	<path d="M29.609,43.438c0.344-0.058,0.688-0.079,1.043-0.079c1.072,0,2.1,0.244,3.012,0.668c0.887,0.386,1.879,0.62,2.918,0.62
		s2.045-0.234,2.932-0.62c0.908-0.424,1.936-0.668,3-0.668c1.076,0,1.884,0.244,2.792,0.668c0.887,0.386,1.694,0.62,2.694,0.62V49
		c-1,0-1.808-0.234-2.694-0.636c-0.908-0.406-1.827-0.656-2.903-0.656c-1.064,0-2.036,0.25-2.944,0.656
		C38.571,48.766,37.594,49,36.555,49s-2.018-0.234-2.904-0.636c-0.912-0.406-1.933-0.656-3.005-0.656
		c-1.064,0-2.091,0.25-3.013,0.656C26.747,48.766,25.755,49,24.716,49c-1.04,0-2.032-0.234-2.918-0.636
		c-0.908-0.406-1.933-0.656-3.008-0.656c-1.076,0-2.104,0.25-3.014,0.656C14.891,48.766,13.897,49,12.864,49
		c-1.04,0-2.033-0.234-2.918-0.636c-0.922-0.406-1.951-0.656-3.014-0.656c-1.075,0-2.104,0.25-3.012,0.656
		C3.033,48.766,2.04,49,1,49v-4.353c1.04,0,2.033-0.234,2.92-0.62c0.908-0.424,1.937-0.668,3.012-0.668
		c1.063,0,2.091,0.244,3.014,0.668c0.885,0.386,1.879,0.62,2.918,0.62c1.033,0,2.027-0.234,2.912-0.62
		c0.522-0.234,1.064-0.424,1.631-0.527l27.648-4.893c0.896-0.211,2.115-0.831,2.539-1.899c0.084-0.203,0.377-0.261,0.625-0.25
		C48.67,36.484,49,36.87,49,37.317c0,0.704-0.545,2.675-3.566,3.284L29.609,43.438z"/>
	<path d="M5.62,8.941c2.209,0,4.006-1.783,4.006-3.977C9.626,2.771,7.829,1,5.62,1C3.412,1,1.627,2.771,1.627,4.964
		C1.627,7.159,3.412,8.941,5.62,8.941z"/>
	<path d="M17.252,41.035c0.202,0.881,1.277,1.725,2.4,1.725l-0.013,0.012c1.403,0,2.55-1.127,2.55-2.533l-0.047-0.412l-3.046-12.984
		c-0.26-0.833-1.053-1.62-1.868-1.949l0,0l-4.483-2.674l-2.044-8.75l12.598-0.023c1.029,0,1.857-0.695,1.857-1.717
		c0-1.02-0.828-1.729-1.857-1.729H5.111c-1.817,0-2.658,1.166-2.444,2.292l2.576,11.539c0.202,1.091,0.921,1.975,1.892,2.457
		l0.058,0.007l7.498,4.369L17.252,41.035z"/>
	<rect x="26" y="12" width="23" height="1"/>
</g>
</svg>
