<?xml version="1.0" encoding="utf-8"?>
<!-- Generator: Adobe Illustrator 15.1.0, SVG Export Plug-In . SVG Version: 6.00 Build 0)  -->
<svg version="1.2" baseProfile="tiny" id="Layer_1" xmlns="http://www.w3.org/2000/svg" xmlns:xlink="http://www.w3.org/1999/xlink"
	 x="0px" y="0px" width="50px" height="50px" viewBox="0 0 50 50" overflow="inherit" xml:space="preserve">
<polygon points="2,15.758 2,2 16.299,2 21.561,6 12.792,6 22,15.758 16.299,21 7,12.251 7,21.02 "/>
<polygon points="33.752,2 48,2 48,15.809 44,21.07 44,12.302 33.997,21.51 28.633,16.054 37.259,7 28.49,7 "/>
<polygon points="48,33.752 48,48 33.701,48 28.439,44 37.208,44 28,33.997 33.701,28.633 43,37.259 43,28.49 "/>
<polygon points="16.248,48 2,48 2,33.701 6,28.439 6,37.208 16.003,28 21.367,33.701 12.741,43 21.51,43 "/>
</svg>
