<?xml version="1.0" encoding="utf-8"?>
<!-- Generator: Adobe Illustrator 15.1.0, SVG Export Plug-In . SVG Version: 6.00 Build 0)  -->
<svg version="1.2" baseProfile="tiny" id="Layer_1" xmlns="http://www.w3.org/2000/svg" xmlns:xlink="http://www.w3.org/1999/xlink"
	 x="0px" y="0px" width="50px" height="50px" viewBox="0 0 50 50" overflow="inherit" xml:space="preserve">
<g>
	<path d="M47,48.001c-0.963,0-1.885-0.219-2.706-0.59c-0.845-0.393-1.799-0.621-2.793-0.621c-0.995,0-1.939,0.229-2.794,0.621
		c-0.82,0.371-1.739,0.59-2.706,0.59c-0.963,0-1.885-0.219-2.707-0.59c-0.854-0.393-1.795-0.621-2.794-0.621
		c-0.996,0-1.948,0.229-2.794,0.621c-0.819,0.371-1.741,0.59-2.704,0.59c-0.966,0-1.886-0.219-2.718-0.59
		c-0.844-0.393-1.794-0.621-2.781-0.621c-0.996,0-1.95,0.229-2.792,0.621c-0.822,0.371-1.743,0.59-2.702,0.59
		c-0.963,0-1.883-0.219-2.717-0.59c-0.843-0.393-1.796-0.621-2.782-0.621c-0.998,0-1.95,0.229-2.794,0.621
		c-0.822,0.371-1.753,0.59-2.717,0.59V43.95c0.963,0,1.895-0.219,2.717-0.59c0.844-0.381,1.797-0.611,2.794-0.611
		c0.985,0,1.938,0.23,2.782,0.611c0.834,0.371,1.754,0.59,2.717,0.59c0.959,0,1.879-0.219,2.702-0.59
		c0.843-0.381,1.796-0.611,2.792-0.611c0.986,0,1.937,0.23,2.781,0.611c0.832,0.371,1.752,0.59,2.718,0.59
		c0.963,0,1.884-0.219,2.704-0.59c0.846-0.381,1.798-0.611,2.794-0.611c0.999,0,1.939,0.23,2.794,0.611
		c0.822,0.371,1.744,0.59,2.707,0.59c0.967,0,1.886-0.219,2.706-0.59c0.854-0.381,1.799-0.611,2.794-0.611
		c0.994,0,1.948,0.23,2.793,0.611c0.821,0.371,1.743,0.59,2.706,0.59V48.001z"/>
	<path d="M15.451,28.142c2.049,0,3.713-1.659,3.713-3.702c0-2.042-1.664-3.691-3.713-3.691c-2.044,0-3.708,1.649-3.708,3.691
		C11.743,26.482,13.407,28.142,15.451,28.142z"/>
	<path d="M15.977,40.937c-0.581,0.994-1.863,1.333-2.854,0.744c-0.996-0.578-1.336-1.857-0.756-2.852l8.606-14.771
		c0.314-0.557,0.775-1.016,1.322-1.321l11.066-6.682l7.515-12.751l0,0c0.713-1.245,2.3-1.67,3.551-0.961
		c1.236,0.721,1.664,2.304,0.95,3.538l0,0l-9.004,15.273c-0.307,0.558-0.767,1.016-1.325,1.321l-13.059,8.091L15.977,40.937z"/>
</g>
</svg>
