<?xml version="1.0" encoding="utf-8"?>
<!-- Generator: Adobe Illustrator 15.1.0, SVG Export Plug-In . SVG Version: 6.00 Build 0)  -->
<svg version="1.2" baseProfile="tiny" id="Layer_1" xmlns="http://www.w3.org/2000/svg" xmlns:xlink="http://www.w3.org/1999/xlink"
	 x="0px" y="0px" width="50px" height="50px" viewBox="0 0 50 50" overflow="inherit" xml:space="preserve">
<g>
	<path d="M25.076,7.556c1.773,0,3.203-1.426,3.203-3.194c0-1.755-1.43-3.193-3.203-3.193s-3.203,1.438-3.203,3.193
		C21.873,6.129,23.303,7.556,25.076,7.556z"/>
	<path d="M45.164,44.164c-0.883-0.41-1.877-0.649-2.918-0.649c-1.029,0-2.023,0.239-2.918,0.649
		c-0.857,0.377-1.818,0.605-2.824,0.605s-1.979-0.229-2.838-0.605c-0.881-0.41-1.875-0.649-2.916-0.649s-2.037,0.239-2.918,0.649
		c-0.869,0.377-1.83,0.605-2.836,0.605c-1.007,0-1.968-0.229-2.837-0.605c-0.881-0.41-1.876-0.649-2.917-0.649
		c-1.029,0-2.024,0.239-2.917,0.649c-0.858,0.377-1.816,0.605-2.817,0.605c-1.006,0-1.979-0.229-2.837-0.605
		c-0.881-0.41-1.876-0.649-2.917-0.649c-1.041,0-2.036,0.239-2.917,0.649C3.968,44.541,3.007,44.77,2,44.77V49
		c1.007,0,1.968-0.217,2.837-0.605c0.881-0.41,1.876-0.649,2.917-0.649c1.041,0,2.036,0.239,2.917,0.649
		C11.528,48.783,12.502,49,13.508,49c1.001,0,1.959-0.217,2.817-0.605c0.893-0.41,1.887-0.649,2.917-0.649
		c1.041,0,2.036,0.239,2.917,0.649C23.028,48.783,23.989,49,24.996,49c1.006,0,1.967-0.217,2.836-0.605
		c0.881-0.41,1.877-0.649,2.918-0.649s2.035,0.239,2.916,0.649C34.525,48.783,35.498,49,36.504,49s1.967-0.217,2.824-0.605
		c0.895-0.41,1.889-0.649,2.918-0.649c1.041,0,2.035,0.239,2.918,0.649C46.031,48.783,46.994,49,48,49v-4.23
		C46.994,44.77,46.031,44.541,45.164,44.164z"/>
	<path d="M45.428,1.043c-0.23-0.091-0.578-0.035-0.762,0.137L32.949,12.976C32.766,12.896,32.523,13,32.305,13c0,0-3.432,0-4.426,0
		c-0.756-1-4.759-4.906-4.759-4.906c-0.205-0.206-0.469-0.395-0.732-0.463c-0.915-0.799-2.299-0.825-3.18,0.053l-6.848,6.87
		C12.097,14.816,12,15.162,12,15.55V20H2v2h10v11.523c0,1.426,1.068,2.578,2.493,2.578c1.416,0,2.507-1.152,2.507-2.578V22h7v15H2v3
		h24V22h3v-2H17v-0.824l6.475-6.431l2.643,2.711C26.402,15.752,26.814,16,27.238,16h5.066C33.176,16,34,15.867,34,15
		c0-0.206,0.066-0.817,0-1c2.768-2.76,10-9.547,11-10.927C45,5.799,45,40,45,40h1V1.613C46,1.362,45.656,1.146,45.428,1.043z"/>
</g>
</svg>
