<?xml version="1.0" encoding="utf-8"?>
<!-- Generator: Adobe Illustrator 15.1.0, SVG Export Plug-In . SVG Version: 6.00 Build 0)  -->
<svg version="1.2" baseProfile="tiny" id="Layer_1" xmlns="http://www.w3.org/2000/svg" xmlns:xlink="http://www.w3.org/1999/xlink"
	 x="0px" y="0px" width="50px" height="50px" viewBox="0 0 50 50" overflow="inherit" xml:space="preserve">
<path d="M21.493,8.001l-0.542,0.97C20.597,9.689,19.865,10,19.028,10h-1.274c0.731,1,1.901,1.819,3.257,1.819
	c2.218,0,3.989-1.676,3.989-3.888V8h-3.318C21.599,8,21.516,7.918,21.493,8.001z"/>
<path d="M19.028,9c0.437,0,0.825-0.152,1.003-0.528l0.53-0.948C20.762,7.089,21.187,7,21.682,7h4.153
	c-0.543-2-2.489-3.848-4.791-3.848c-2.725,0-4.931,2.018-4.931,4.748c0,0.436,0.047,1.1,0.165,1.1H19.028z"/>
<path d="M32.684,31c3.699,0,13.361-1.133,16.021-3.676c-1.197-3.676-5.916-3.97-10.246-2.098c-0.744,0.322-1.734,0.56-2.867,0.772
	l-0.885-3.426c0.707-0.365,1.174-1.113,1.131-1.954c-0.045-1.148-1.008-2.045-2.156-1.998l-0.65-2.509
	c0.639-0.482,0.975-1.295,0.785-2.124c-0.26-1.124-1.375-1.836-2.502-1.583c0,0-9.161,0.082-12.034,0.853
	c-2.867,0.771-3.834,5.589-3.834,5.589L12.928,27H1v4H32.684z M24.449,16.804l7.108-0.293l0.566,2.177
	c-1.922,0.094-5.338,0.271-8.388,0.441L24.449,16.804z M22.467,23.3l10.724-0.482l0.891,3.413
	c-4.377,0.629-10.052,0.719-12.736,0.73L22.467,23.3z"/>
<path d="M42.506,35.609c0,0,6.494-0.082,6.494-6.42c0-0.254-0.025-0.445-0.047-0.68C44.9,31.438,34.07,32,32.701,32H1v4.904
	c0.767,0,1.558-0.178,2.253-0.482c1.145-0.529,2.419-0.812,3.67-0.812c1.25,0,2.513,0.283,3.633,0.801
	c0.743,0.33,1.51,0.494,2.289,0.494c0.791,0,1.557-0.164,2.265-0.482c1.156-0.529,2.418-0.812,3.669-0.812
	c1.262,0,2.501,0.271,3.646,0.801c0.719,0.33,1.509,0.494,2.289,0.494c0.778,0,1.545-0.164,2.264-0.482
	c1.145-0.529,2.42-0.812,3.658-0.812c1.273,0,2.502,0.271,3.645,0.801c0.732,0.33,1.521,0.494,2.289,0.494
	c0.096,0,0.184-0.012,0.277-0.012l0.945,3.623c-0.408,0.07-0.814,0.119-1.234,0.119c-1.037,0-2.041-0.225-2.926-0.625
	c-0.908-0.424-1.934-0.67-3.008-0.67c-1.072,0-2.1,0.246-3.008,0.67c-0.885,0.4-1.877,0.625-2.915,0.625s-2.041-0.225-2.926-0.625
	c-0.908-0.424-1.934-0.67-3.008-0.67c-1.074,0-2.1,0.246-3.008,0.67c-0.885,0.4-1.876,0.625-2.914,0.625
	c-1.026,0-2.029-0.225-2.914-0.625c-0.909-0.424-1.935-0.67-3.008-0.67c-1.062,0-2.089,0.246-2.997,0.67
	C3.03,40.41,2.038,40.635,1,40.635V45c1.038,0,2.03-0.223,2.926-0.623c0.908-0.424,1.935-0.672,2.997-0.672
	c1.073,0,2.099,0.248,3.008,0.672c0.885,0.4,1.888,0.623,2.914,0.623c1.038,0,2.029-0.223,2.914-0.623
	c0.908-0.424,1.935-0.672,3.008-0.672c1.075,0,2.1,0.248,3.008,0.672c0.885,0.4,1.888,0.623,2.926,0.623s2.03-0.223,2.915-0.623
	c0.908-0.424,1.936-0.672,3.008-0.672c1.074,0,2.1,0.248,3.008,0.672c0.885,0.4,1.889,0.623,2.926,0.623
	c1.025,0,2.031-0.223,2.914-0.623c0.91-0.424,1.936-0.672,3.01-0.672c1.072,0,1.892,0.248,2.8,0.672C46.167,44.777,47,45,48,45
	v-4.365c-1,0-1.833-0.225-2.718-0.625c-0.908-0.424-1.831-0.67-2.903-0.67c-1.074,0-2.048,0.246-2.958,0.67
	c-0.07,0.031-0.115,0.053-0.188,0.082l-0.895-3.482c0.166-0.059,0.332-0.117,0.49-0.188C39.974,35.893,41.256,35.609,42.506,35.609z
	"/>
</svg>
