<?xml version="1.0" encoding="utf-8"?>
<!-- Generator: Adobe Illustrator 15.1.0, SVG Export Plug-In . SVG Version: 6.00 Build 0)  -->
<svg version="1.2" baseProfile="tiny" id="Layer_1" xmlns="http://www.w3.org/2000/svg" xmlns:xlink="http://www.w3.org/1999/xlink"
	 x="0px" y="0px" width="50px" height="50px" viewBox="0 0 50 50" overflow="inherit" xml:space="preserve">
<path d="M49,40c-1.051,0-2.052-0.232-2.952-0.641c-0.917-0.414-1.956-0.664-3.042-0.664c-1.091,0-2.131,0.252-3.049,0.664
	C39.058,39.768,38.056,40,37.004,40c-1.05,0-2.056-0.232-2.95-0.641c-0.933-0.414-1.974-0.664-3.048-0.664
	c-1.087,0-2.128,0.252-3.049,0.664C27.062,39.768,26.045,40,25.004,40c-1.052,0-2.053-0.232-2.96-0.641
	c-0.921-0.414-1.958-0.664-3.036-0.664c-1.087,0-2.127,0.252-3.048,0.664C15.065,39.768,14.048,40,12.996,40
	c-1.036,0-2.053-0.232-2.948-0.641C9.127,38.945,8.086,38.695,7,38.695c-1.079,0-2.114,0.252-3.037,0.664
	C3.054,39.768,2.052,40,1,40v-4.396c1.051,0,2.053-0.238,2.963-0.631C4.886,34.549,5.921,34.299,7,34.299
	c1.086,0,2.127,0.25,3.048,0.674c0.895,0.393,1.912,0.631,2.948,0.631c1.051,0,2.069-0.238,2.964-0.631
	c0.92-0.424,1.961-0.674,3.048-0.674c1.078,0,2.114,0.25,3.036,0.674c0.907,0.393,1.908,0.631,2.96,0.631
	c1.041,0,2.057-0.238,2.953-0.631c0.921-0.424,1.962-0.674,3.049-0.674c1.073,0,2.113,0.25,3.048,0.674
	c0.895,0.393,1.9,0.631,2.95,0.631c1.052,0,2.054-0.238,2.953-0.631c0.918-0.424,1.958-0.674,3.049-0.674
	c1.086,0,2.125,0.25,3.042,0.674c0.9,0.393,1.901,0.631,2.952,0.631V40z"/>
<path d="M42.048,27.564c3.152,0,5.71-2.55,5.71-5.678c0-3.131-2.558-5.668-5.71-5.668c-3.157,0-5.712,2.538-5.712,5.668
	C36.336,25.014,38.664,27.564,42.048,27.564z"/>
<path d="M8.791,30.756c0.443,0.105,0.861,0.258,1.258,0.436c0.895,0.402,1.912,0.641,2.949,0.641c1.05,0,2.069-0.238,2.963-0.641
	c0.921-0.414,1.961-0.676,3.048-0.676c1.078,0,2.116,0.262,3.036,0.676c0.906,0.402,1.908,0.641,2.96,0.641
	c1.04,0,2.058-0.238,2.952-0.641c0.922-0.414,1.962-0.676,3.049-0.676c1.074,0,2.115,0.262,3.048,0.676
	c0.896,0.402,1.9,0.641,2.952,0.641c0.765,0,1.502-0.129,2.197-0.346l-9.525-17.056l11.079-2.007
	c1.626-0.308,2.806-1.576,2.806-3.199c0-1.79-1.467-3.225-3.262-3.225c-0.129,0-0.249,0-0.37,0.011L22.817,9.103
	c-1.201,0.273-2.792,2.019-1.886,4.161c0.05,0.118,0.095,0.228,0.146,0.345l4.466,8.003L8.791,30.756z"/>
</svg>
