<?xml version="1.0" encoding="utf-8"?>
<!-- Generator: Adobe Illustrator 15.1.0, SVG Export Plug-In . SVG Version: 6.00 Build 0)  -->
<svg version="1.2" baseProfile="tiny" id="Layer_1" xmlns="http://www.w3.org/2000/svg" xmlns:xlink="http://www.w3.org/1999/xlink"
	 x="0px" y="0px" width="50px" height="50px" viewBox="0 0 50 50" overflow="inherit" xml:space="preserve">
<g>
	<path d="M48,49c-1.006,0-1.971-0.23-2.83-0.622c-0.893-0.415-1.889-0.657-2.92-0.657c-1.041,0-2.039,0.242-2.92,0.657
		C38.471,48.77,37.496,49,36.501,49c-1.009,0-1.981-0.23-2.841-0.622c-0.883-0.415-1.879-0.657-2.92-0.657
		c-1.031,0-2.028,0.242-2.91,0.657C26.972,48.77,25.998,49,24.99,49c-1.008,0-1.97-0.23-2.829-0.622
		c-0.883-0.415-1.876-0.657-2.918-0.657c-1.031,0-2.029,0.242-2.921,0.657C15.463,48.77,14.502,49,13.499,49
		c-1.008,0-1.97-0.23-2.829-0.622c-0.881-0.415-1.879-0.657-2.92-0.657c-1.031,0-2.027,0.242-2.92,0.657C3.97,48.77,3.008,49,2,49
		v-4.276c1.008,0,1.97-0.231,2.829-0.625c0.894-0.401,1.889-0.644,2.92-0.644c1.042,0,2.039,0.242,2.92,0.644
		c0.859,0.394,1.821,0.625,2.829,0.625c1.003,0,1.964-0.231,2.824-0.625c0.892-0.401,1.89-0.644,2.921-0.644
		c1.042,0,2.035,0.242,2.918,0.644c0.859,0.394,1.821,0.625,2.829,0.625c1.007,0,1.981-0.231,2.84-0.625
		c0.882-0.401,1.879-0.644,2.91-0.644c1.041,0,2.037,0.242,2.92,0.644c0.859,0.394,1.832,0.625,2.841,0.625
		c0.995,0,1.97-0.231,2.829-0.625c0.881-0.401,1.879-0.644,2.92-0.644c1.031,0,2.027,0.242,2.92,0.644
		c0.859,0.394,1.824,0.625,2.83,0.625V49z"/>
	<path d="M29.422,40.17c0.436-0.092,0.871-0.138,1.318-0.138c1.041,0,2.037,0.241,2.92,0.644c0.859,0.394,1.832,0.624,2.841,0.624
		c0.995,0,1.97-0.23,2.829-0.624c0.607-0.274,1.26-0.495,1.959-0.587C40.91,28.616,29.021,18.38,28.461,17.85
		c-0.584-0.531-1.123-1.694-0.744-3.067l2.839-9.453c0.505-1.465,0.253-3.424-0.445-4.012c-0.401-0.323-1.249-0.554-1.823,0.104
		l-7.682,8.772c-1.684,1.799-0.274,3.724-0.308,3.713c-2.613-0.946-5.681-0.312-7.542,0.46l-6.346,3.241
		c-0.63,0.265-0.904,1.071-0.572,1.613c1.054,1.696,4.547,1.707,11.825,0.911C29.422,18.863,29.434,37.83,29.422,40.17z"/>
</g>
</svg>
