<?xml version="1.0" encoding="utf-8"?>
<!-- Generator: Adobe Illustrator 15.1.0, SVG Export Plug-In . SVG Version: 6.00 Build 0)  -->
<svg version="1.2" baseProfile="tiny" id="Layer_1" xmlns="http://www.w3.org/2000/svg" xmlns:xlink="http://www.w3.org/1999/xlink"
	 x="0px" y="0px" width="50px" height="50px" viewBox="0 0 50 50" overflow="inherit" xml:space="preserve">
<g>
	<path fill="#231F20" d="M48,49c-0.996,0-1.97-0.227-2.83-0.609c-0.883-0.406-1.878-0.643-2.92-0.643
		c-1.031,0-2.027,0.236-2.91,0.643C38.471,48.773,37.507,49,36.5,49c-1.006,0-1.97-0.227-2.831-0.609
		c-0.883-0.406-1.879-0.643-2.921-0.643c-1.03,0-2.026,0.236-2.915,0.643C26.974,48.773,26.007,49,24.999,49
		c-1.002,0-1.971-0.227-2.829-0.609c-0.889-0.406-1.879-0.643-2.92-0.643c-1.037,0-2.027,0.236-2.915,0.643
		C15.47,48.773,14.507,49,13.5,49c-1.009,0-1.971-0.227-2.834-0.609c-0.881-0.406-1.879-0.643-2.916-0.643
		c-1.042,0-2.034,0.236-2.915,0.643C3.971,48.773,3.008,49,2,49v-4.18c1.008,0,1.971-0.227,2.834-0.609
		c0.881-0.396,1.874-0.633,2.915-0.633c1.037,0,2.034,0.236,2.916,0.633c0.864,0.383,1.826,0.609,2.834,0.609
		c1.008,0,1.97-0.227,2.834-0.609c0.888-0.396,1.878-0.633,2.915-0.633c1.042,0,2.032,0.236,2.92,0.633
		c0.858,0.383,1.827,0.609,2.829,0.609c1.008,0,1.975-0.227,2.834-0.609c0.889-0.396,1.885-0.633,2.915-0.633
		c1.042,0,2.038,0.236,2.921,0.633c0.861,0.383,1.825,0.609,2.831,0.609c1.007,0,1.971-0.227,2.84-0.609
		c0.883-0.396,1.879-0.633,2.91-0.633c1.042,0,2.037,0.236,2.92,0.633c0.86,0.383,1.834,0.609,2.83,0.609V49z"/>
	<path fill="#231F20" d="M6.937,24.813c1.54,0,2.789-1.228,2.789-2.739c0-1.509-1.249-2.738-2.789-2.738
		c-1.536,0-2.784,1.229-2.784,2.738C4.153,23.586,5.401,24.813,6.937,24.813z"/>
	<path fill="#231F20" d="M19.186,37h-7.972c-1.173,0-2.192-0.563-2.651-1.558l-2.949-6.554c-0.057-0.225-0.086-0.419-0.086-0.657
		c0-1.588,1.306-2.858,2.916-2.858l6.476-0.004l4.444-1.98c0.069-0.044,0.251-0.087,0.447-0.087c0.761,0,1.386,0.621,1.386,1.365
		c0,0.463-0.241,0.88-0.596,1.128l-4.833,2.032C15.447,28.074,14.84,28,14.84,28h-2.91l2.44,6h5.389l0,0
		c0.532,0,0.905-0.045,1.23,0.236l5.282,4.826l0,0c0.738,0.674,0.778,1.756,0.091,2.488c-0.692,0.721-1.85,0.615-2.589-0.061l0,0
		L19.186,37z"/>
	<path fill="#231F20" d="M44.027,28.285c0.102,0.17,0.352,0.236,0.584,0.236c0.443,0,0.812-0.361,0.812-0.811
		c0-0.215-0.105-0.406-0.207-0.588c-4.982-9.353-18.432-6.57-20.081-5.961c-0.274,0.102-0.435,0.406-0.435,0.711
		c0,0.438,0.366,0.8,0.812,0.8c0.138,0,0.206-0.012,0.326-0.045C39.031,19.708,43.327,27.102,44.027,28.285z M46.318,29.131
		L29.448,39.6L14.089,1C27.833,2.792,45.308,13.296,46.318,29.131z"/>
</g>
</svg>
