<?xml version="1.0" encoding="utf-8"?>
<!-- Generator: Adobe Illustrator 15.1.0, SVG Export Plug-In . SVG Version: 6.00 Build 0)  -->
<svg version="1.2" baseProfile="tiny" id="Layer_1" xmlns="http://www.w3.org/2000/svg" xmlns:xlink="http://www.w3.org/1999/xlink"
	 x="0px" y="0px" width="50px" height="50px" viewBox="0 0 50 50" overflow="inherit" xml:space="preserve">
<g>
	<path d="M35.009,25.542c-0.327-1.293-1.973-2.314-3.21-1.716L27,26v-8.584l8.433-13.243c0.612-0.967,0.376-2.249-0.609-2.869
		c-0.973-0.609-2.24-0.326-2.787,0.62L24.97,13.179l-4.261,0.011c-0.273,0-0.544,0.044-0.818,0.152l-7.366,2.869L8.73,10.496
		C8.106,9.54,6.816,9.257,5.843,9.876s-1.257,1.912-0.633,2.879l4.736,7.127c0.536,0.826,1.662,1.195,2.613,0.804L18,18.589V28
		l-7.397,16.387c-0.558,1.251,0.054,2.625,1.356,3.354c1.302,0.729,2.801,0.304,3.342-0.945l5.951-13.582
		c0.524,0.152,1.093,0.219,1.673,0.219c0.536,0,1.061-0.098,1.531-0.272l6.681-3.108l1.464,5.857
		c0.326,1.303,1.656,2.097,2.97,1.771c1.312-0.326,2.098-1.642,1.77-2.945L35.009,25.542z"/>
	<path d="M29,22.088v1.553C39,18.623,42.878,1.435,42.878,0h-1.399C40.954,3.585,37,17.926,29,22.088z"/>
	<path d="M21.908,12.43c2.046,0,3.708-1.64,3.708-3.672c0-2.031-1.662-3.684-3.708-3.684c-2.046,0-3.708,1.652-3.708,3.684
		C18.2,10.79,19.862,12.43,21.908,12.43z"/>
	<polygon points="25,50 27,50 27,33.432 25,35 	"/>
</g>
</svg>
