<?xml version="1.0" encoding="utf-8"?>
<!-- Generator: Adobe Illustrator 15.1.0, SVG Export Plug-In . SVG Version: 6.00 Build 0)  -->
<svg version="1.2" baseProfile="tiny" id="Layer_1" xmlns="http://www.w3.org/2000/svg" xmlns:xlink="http://www.w3.org/1999/xlink"
	 x="0px" y="0px" width="50px" height="50px" viewBox="0 0 50 50" overflow="inherit" xml:space="preserve">
<path d="M48.049,36.31C48.572,36.479,49,36.168,49,35.618v-3.494c0-0.55-0.387-1.23-0.859-1.512L29.859,19.717
	C29.387,19.436,29,18.755,29,18.206V6c0-0.55-0.168-1.417-0.374-1.928c0,0-1.091-2.708-3-3.01C25.422,1.026,25.215,1,25.007,1
	C25.005,1,25.002,1,25,1c-0.001,0-0.002,0-0.003,0c-0.241-0.002-0.479,0.028-0.713,0.072C24.21,1.085,24.14,1.103,24.068,1.12
	c-0.112,0.029-0.221,0.062-0.328,0.102c-1.588,0.53-2.406,2.835-2.406,2.835C21.15,4.576,21,5.45,21,6v12.206
	c0,0.55-0.387,1.23-0.859,1.512L1.859,30.612C1.387,30.894,1,31.574,1,32.124v3.494c0,0.55,0.428,0.861,0.951,0.691l18.098-5.875
	C20.572,30.265,21,30.576,21,31.126v9.533c0,0.55-0.36,1.271-0.8,1.601l-2.4,1.802c-0.44,0.33-0.8,1.051-0.8,1.601V48
	c0,0.55,0.433,0.876,0.961,0.724l6.075-1.745c0.528-0.152,1.394-0.152,1.922,0l6.081,1.745C32.567,48.876,33,48.55,33,48v-2.338
	c0-0.55-0.36-1.271-0.8-1.601l-2.4-1.802c-0.439-0.33-0.8-1.051-0.8-1.601v-9.533c0-0.55,0.428-0.861,0.951-0.691L48.049,36.31z"/>
</svg>
