<?xml version="1.0" encoding="utf-8"?>
<!-- Generator: Adobe Illustrator 15.1.0, SVG Export Plug-In . SVG Version: 6.00 Build 0)  -->
<svg version="1.2" baseProfile="tiny" id="Layer_1" xmlns="http://www.w3.org/2000/svg" xmlns:xlink="http://www.w3.org/1999/xlink"
	 x="0px" y="0px" width="50px" height="50px" viewBox="0 0 50 50" overflow="inherit" xml:space="preserve">
<g id="layer1_2_" transform="translate(0,-952.362)">
	<path id="path6511" d="M21.211,958.362C8.579,958.362,1,968.495,1,973.562c0,5.067,2.526,8.867,7.579,8.867
		c5.053,0,7.58,1.266,7.58,5.066c0,5.066,3.789,8.866,8.842,8.866c16.422,0,24-8.866,24-17.732
		C49,963.429,36.366,958.362,21.211,958.362L21.211,958.362z M18.053,963.429c1.744,0,3.158,1.418,3.158,3.166
		c0,1.75-1.414,3.167-3.158,3.167s-3.158-1.418-3.158-3.167C14.895,964.847,16.309,963.429,18.053,963.429z M28.157,963.429
		c1.744,0,3.158,1.418,3.158,3.166c0,1.75-1.414,3.167-3.158,3.167c-1.743,0-3.157-1.418-3.157-3.167
		C25,964.847,26.414,963.429,28.157,963.429z M38.263,968.495c1.745,0,3.159,1.417,3.159,3.167c0,1.75-1.414,3.166-3.159,3.166
		c-1.744,0-3.157-1.417-3.157-3.166C35.105,969.913,36.519,968.495,38.263,968.495z M9.211,971.029c1.744,0,3.157,1.417,3.157,3.165
		c0,1.75-1.414,3.167-3.157,3.167s-3.158-1.418-3.158-3.167C6.053,972.446,7.467,971.029,9.211,971.029z M25,983.695
		c2.093,0,3.789,1.7,3.789,3.801c0,2.098-1.696,3.799-3.789,3.799s-3.789-1.701-3.789-3.799
		C21.211,985.395,22.907,983.695,25,983.695L25,983.695z"/>
</g>
</svg>
