<?xml version="1.0" encoding="utf-8"?>
<!-- Generator: Adobe Illustrator 15.1.0, SVG Export Plug-In . SVG Version: 6.00 Build 0)  -->
<svg version="1.2" baseProfile="tiny" id="Layer_1" xmlns="http://www.w3.org/2000/svg" xmlns:xlink="http://www.w3.org/1999/xlink"
	 x="0px" y="0px" width="50px" height="50px" viewBox="0 0 50 50" overflow="inherit" xml:space="preserve">
<path d="M24.8,24.921"/>
<path d="M24.8,24.921"/>
<path d="M24.8,24.921"/>
<path d="M24.064,15h0.966c5.4,0,8.504,5.271,8.525,8.753c-0.021,0.678-0.189,1.319-0.956,1.304
	c-1.618,0.015-1.041-2.691-2.379-4.903C29.59,19.062,27.562,17,25.251,17h-0.851c-1.24,0-3.572,0.825-5.137,3.184
	c-1.959,2.842-0.672,4.987-2.317,4.977c-0.252,0.011-0.977-0.147-0.966-1.325C16.054,18.489,20.955,15,24.064,15L24.064,15z"/>
<path d="M24.8,45c2.027,0,3.2-2.257,3.2-3.669v-2.942c0-6.009,6.504-8.382,6.482-14.402c0.021-5.641-4.975-9.895-9.786-9.885
	c-3.992-0.01-6.667,2.564-7.696,3.897c-3.089,3.819-1.288,7.459-3.472,7.459c-0.62,0-1.217-0.352-1.227-1.586
	c-0.096-5.977,4.839-12.302,12.607-12.312c6.266,0.011,12.36,5.001,12.36,12.654c0,7.091-6.27,8.578-6.27,14.796v2.658
	c0,2.736-2.379,5.861-6.381,5.878c-0.146-0.043-0.282-0.095-0.471-0.116c-0.735-0.22-1.234-0.882-1.055-1.638
	C23.303,45.135,23.928,45,24.748,45H24.8L24.8,45z"/>
<g>
	<path d="M44.609,1h-2.846l-9.692,10.626c1.019,0.527,1.959,1.279,2.795,2.075c1.38,1.31,2.207,2.95,2.834,4.716L49,7.129V1
		C45.422,1,46.751,1,44.609,1z"/>
</g>
<g>
	<path d="M1,49h9.077l13.547-14.697l-8.093-5.392L1,44.164v0.226C1,46.67,1,46.143,1,49z"/>
</g>
</svg>
