<?xml version="1.0" encoding="utf-8"?>
<!-- Generator: Adobe Illustrator 15.1.0, SVG Export Plug-In . SVG Version: 6.00 Build 0)  -->
<svg version="1.2" baseProfile="tiny" id="Layer_1" xmlns="http://www.w3.org/2000/svg" xmlns:xlink="http://www.w3.org/1999/xlink"
	 x="0px" y="0px" width="50px" height="50px" viewBox="0 0 50 50" overflow="inherit" xml:space="preserve">
<path fill="#FFFFFF" d="M24.786,24.298"/>
<path d="M24.786,24.298"/>
<path d="M24.786,24.298"/>
<g>
	<path d="M25.776,20H25v9h0.776c2.383,0,4.301-2.124,4.301-4.507C30.077,22.123,28.159,20,25.776,20z"/>
	<path d="M40,7H10C4.5,7,0,11.5,0,17v14c0,5.5,4.5,10,10,10h30c5.5,0,10-4.5,10-10V17C50,11.5,45.5,7,40,7z M20,32h-4v-2h-5.89
		l-1.369,2H3.547l11.609-16H20V32z M27,32h-1h-5V16h5.204h0.049c4.46,0,7.999,3.627,7.999,8.1C34.252,28.561,31.461,32,27,32z
		 M35.76,32h-0.867h-0.514c1.784-2,2.799-4.774,2.799-7.597c0-3.177-1.284-6.403-3.532-8.403h0.502h0.978h0.514
		c2.003,3,3.128,5.287,3.128,8.403c0,2.773-0.88,5.597-2.494,7.597H35.76z M39.841,32h-0.879h-0.514
		c1.796-2,2.811-4.774,2.811-7.597c0-3.177-1.296-6.403-3.544-8.403h0.514h0.966h0.512c2.005,3,3.142,5.287,3.142,8.403
		c0,2.773-0.893,5.597-2.506,7.597H39.841z M44.424,32H43.91h-0.879h-0.514c1.796-2,2.811-4.774,2.811-7.597
		c0-3.177-1.296-6.403-3.544-8.403h0.514h0.966h0.512c2.005,3,3.142,5.287,3.142,8.403C46.917,27.177,46.024,30,44.424,32z"/>
	<polygon points="16,27 16,21.097 12.334,27 	"/>
</g>
</svg>
