<?xml version="1.0" encoding="utf-8"?>
<!-- Generator: Adobe Illustrator 15.1.0, SVG Export Plug-In . SVG Version: 6.00 Build 0)  -->
<svg version="1.2" baseProfile="tiny" id="Layer_1" xmlns="http://www.w3.org/2000/svg" xmlns:xlink="http://www.w3.org/1999/xlink"
	 x="0px" y="0px" width="50px" height="50px" viewBox="0 0 50 50" overflow="inherit" xml:space="preserve">
<path d="M37.833,14.812c0.333,5.205-2.192,8.854-2.192,8.854c0.328-4.009-1.297-9.55-1.297-9.55c-1.388-0.272-3.606,0.02-3.606,0.02
	c0.32,4.324-1.879,8.1-3.503,9.49c0.803-4.795-0.475-8.423-0.475-8.423c-2.197-0.554-5.346-0.215-5.346-0.215
	c0.684,5.101-2.13,8.854-2.13,8.854c0.466-3.556-1.434-8.117-1.434-8.117c-1.613-0.105-4.183,0.42-4.183,0.42
	c1.355,2.421,0.273,7.742,0.273,7.742c-0.739-4.351-3.223-6.917-3.223-6.917C-3.527,23.036,0.225,31.393,7.19,33.882
	c6.571,2.344,27.744,3.499,37.217-0.611C53.881,29.159,47.21,17.604,37.833,14.812z"/>
</svg>
