<?xml version="1.0" encoding="utf-8"?>
<!-- Generator: Adobe Illustrator 15.1.0, SVG Export Plug-In . SVG Version: 6.00 Build 0)  -->
<svg version="1.2" baseProfile="tiny" id="Layer_1" xmlns="http://www.w3.org/2000/svg" xmlns:xlink="http://www.w3.org/1999/xlink"
	 x="0px" y="0px" width="50px" height="50px" viewBox="0 0 50 50" overflow="inherit" xml:space="preserve">
<g>
	<path d="M34.781,6.664H27.83c-1.256,0.004-1.209,1.876,0,1.865h6.951v0.957H27.83c-1.249-0.011-1.203,1.86,0,1.865h6.951v0.932
		v0.046H27.83c-1.249,0-1.203,1.87,0,1.865h6.951v0.932H27.83c-1.223,0.009-1.203,1.881,0,1.887h6.951v0.934H27.83
		c-1.223-0.004-1.228,1.865,0,1.865h6.951v0.932H27.83c-1.223,0.004-1.228,1.875,0,1.866h6.951v0.955H27.83
		c-1.223-0.011-1.228,1.858,0,1.865h6.951v0.93H27.83c-1.223-0.001-1.203,1.872,0,1.866h6.951v18.159
		c0.004,2.767,4.207,2.717,4.219,0V3.89c-0.012-1.264-1.05-2.862-2.758-2.867H27.83c-1.256,0.001-1.209,1.873,0,1.865l6.951,0.023
		v0.93H27.83c-1.254-0.006-1.207,1.865,0,1.866h6.951V6.664L34.781,6.664z"/>
	<path d="M27.352,38.858C27.348,35.628,24,32.154,20,34.404V22.05L17.413,1.675C17.359,1.136,16.902,1.009,16.595,1
		c-0.317,0.009-0.952,0.136-1.021,0.675L13,22.05v12.354c-4-2.25-7.24,1.246-7.241,4.429c0.001,2.832,2.181,5.158,5.131,5.151
		c2.972,0.007,5.11-2.6,5.11-5.151V26h1v12.833c0,2.856,2.212,4.97,4.67,5.104c-0.041,1.566,0.47,3.8,1.432,4.686
		c1.128,1.04,2.471-0.29,1.92-1.373c-0.532-1.008-1.054-1.605-0.63-3.806C26.164,42.624,27.348,40.898,27.352,38.858z
		 M11.004,41.399c-1.396-0.009-2.524-1.141-2.526-2.541c0.002-1.399,1.13-2.536,2.526-2.544c1.386,0.008,2.515,1.145,2.525,2.544
		C13.519,40.259,12.39,41.391,11.004,41.399z M19.575,38.858c0.009-1.399,1.136-2.536,2.526-2.544
		c1.392,0.008,2.521,1.145,2.525,2.544c-0.004,1.4-1.132,2.532-2.525,2.541C20.711,41.391,19.583,40.259,19.575,38.858z"/>
</g>
</svg>
