<?xml version="1.0" encoding="utf-8"?>
<!-- Generator: Adobe Illustrator 15.1.0, SVG Export Plug-In . SVG Version: 6.00 Build 0)  -->
<svg version="1.2" baseProfile="tiny" id="Layer_1" xmlns="http://www.w3.org/2000/svg" xmlns:xlink="http://www.w3.org/1999/xlink"
	 x="0px" y="0px" width="50px" height="50px" viewBox="0 0 50 50" overflow="inherit" xml:space="preserve">
<g>
	<path fill="#231F20" d="M8.5,7.092l9.565,2.639L23.374,6l1.847,0.455l-5.259,3.742l28.985,8.053l-2.121,7.882l-29.093-8.031
		C6.462,14.702,8.517,7.092,8.517,7.092"/>
	<path fill="#231F20" d="M33.957,27.258c-0.035-0.658-0.16-1.285-0.375-1.877l13.281,3.697l-0.426,1.639L33.957,27.258z"/>
	<path fill="#231F20" d="M21.891,23.926c0.358-0.521,0.782-0.991,1.264-1.398L1,16.408v1.763L21.891,23.926z"/>
	<path fill="#231F20" d="M27.377,29.762c1.191,0,2.158-0.969,2.158-2.16c0-1.195-0.967-2.162-2.158-2.162
		c-1.195,0-2.161,0.967-2.161,2.162C25.216,28.793,26.182,29.762,27.377,29.762z M49,43c-1.051,0-2.051-0.238-2.943-0.648
		c-0.928-0.42-1.963-0.672-3.047-0.672c-1.08,0-2.121,0.252-3.035,0.672C39.07,42.762,38.072,43,37.02,43
		c-1.051,0-2.053-0.238-2.955-0.648c-0.92-0.42-1.953-0.672-3.035-0.672c-1.086,0-2.119,0.252-3.045,0.672
		C27.092,42.762,26.08,43,25.034,43c-1.045,0-2.051-0.238-2.949-0.648c-0.926-0.42-1.967-0.672-3.046-0.672
		c-1.08,0-2.12,0.252-3.035,0.672C15.106,42.762,14.095,43,13.048,43c-1.045,0-2.051-0.238-2.955-0.648
		c-0.916-0.42-1.956-0.672-3.036-0.672c-1.079,0-2.119,0.252-3.04,0.672C3.12,42.762,2.108,43,1.068,43L1,25.395l24.227,6.686
		c-1.67-0.807-2.83-2.5-2.83-4.479c0-2.754,2.227-4.983,4.979-4.983c2.744,0,4.977,2.229,4.977,4.983c0,2.752-2.232,4.98-4.977,4.98
		c-0.166,0-0.33-0.033-0.49-0.047l22.078,6.088L49,43z"/>
</g>
</svg>
