<?xml version="1.0" encoding="utf-8"?>
<!-- Generator: Adobe Illustrator 15.1.0, SVG Export Plug-In . SVG Version: 6.00 Build 0)  -->
<svg version="1.2" baseProfile="tiny" id="Layer_1" xmlns="http://www.w3.org/2000/svg" xmlns:xlink="http://www.w3.org/1999/xlink"
	 x="0px" y="0px" width="50px" height="50px" viewBox="0 0 50 50" overflow="inherit" xml:space="preserve">
<path fill="#231F20" d="M48,41c-1,0-1.854-0.226-2.734-0.615c-0.916-0.411-1.852-0.652-2.923-0.652
	c-1.066,0-2.052,0.241-2.954,0.652C38.497,40.774,37.53,41,36.492,41c-1.032,0-2.017-0.226-2.908-0.615
	c-0.909-0.411-1.925-0.652-2.991-0.652c-1.07,0-2.091,0.241-3.007,0.652c-0.88,0.39-1.877,0.615-2.91,0.615
	c-1.033,0-2.03-0.226-2.912-0.615c-0.915-0.411-1.936-0.652-3.002-0.652c-1.072,0-2.099,0.241-3.002,0.652
	C14.873,40.774,13.88,41,12.847,41c-1.038,0-2.031-0.226-2.923-0.615c-0.904-0.411-1.931-0.652-2.997-0.652
	c-1.066,0-2.099,0.241-3.008,0.652C3.031,40.774,2,41,1,41v-4.27c1,0,2.031-0.23,2.918-0.621c0.91-0.41,1.939-0.652,3.005-0.652
	c1.066,0,2.095,0.242,2.999,0.652c0.893,0.391,1.886,0.621,2.924,0.621c1.034,0,2.026-0.23,2.913-0.621
	c0.903-0.41,1.931-0.652,3.003-0.652c1.066,0,2.087,0.242,3.002,0.652c0.881,0.391,1.88,0.621,2.913,0.621
	c1.033,0,2.032-0.23,2.912-0.621c0.916-0.41,1.938-0.652,3.009-0.652c1.066,0,2.088,0.242,2.997,0.652
	c0.892,0.391,1.887,0.621,2.919,0.621c1.038,0,2.026-0.23,2.918-0.621c0.902-0.41,1.931-0.652,2.997-0.652
	c1.071,0,1.921,0.242,2.837,0.652C46.146,36.5,47,36.73,48,36.73V41z"/>
<path fill="#231F20" d="M1.028,23l-0.017,9.91c1.033,0,2.026-0.311,2.913-0.701c0.91-0.412,1.937-0.697,3.002-0.697
	c1.066,0,2.093,0.219,2.997,0.631c0.893,0.391,1.885,0.604,2.923,0.604c1.034,0,2.026-0.229,2.913-0.619
	c0.903-0.412,1.931-0.656,3.002-0.656c1.066,0,2.087,0.239,3.002,0.651c0.881,0.391,1.88,0.614,2.913,0.614
	c1.033,0,2.032-0.225,2.912-0.615c0.916-0.412,1.938-0.653,3.009-0.653c1.066,0,2.088,0.241,2.997,0.653
	c0.892,0.391,1.887,0.614,2.919,0.614c0.292,0,0.572-0.061,0.858-0.093c0.521-0.109,1.049-0.159,1.555-0.356
	c0.011-0.005,0.023-0.011,0.034-0.017c3.76-1.492,7.003-5.011,9.028-7.766L49,23H1.028z"/>
<path fill="#231F20" d="M27.804,12h6.937h0.062h0.045c0.079,0,1.902-0.281,2.514,1.053L40.009,19c-1.273,0-4.399,0-9.023,0
	L27.804,12z M9,18.382C9,18.848,8.616,19,8.145,19H4.272C3.8,19,3,18.848,3,18.382v-5.729C3,12.193,3.8,12,4.272,12h3.872
	C8.616,12,9,12.193,9,12.653V18.382z M25,18.382C25,18.848,24.582,19,24.105,19h-3.867C19.761,19,19,18.848,19,18.382v-5.729
	C19,12.193,19.761,12,20.238,12h3.867C24.582,12,25,12.193,25,12.653V18.382z M17,18.382C17,18.848,16.584,19,16.108,19h-3.844
	C11.786,19,11,18.848,11,18.382v-5.729C11,12.193,11.786,12,12.264,12h3.844C16.584,12,17,12.193,17,12.653V18.382z M38.545,11.305
	C37.394,8.803,34.279,9,34.279,9H1.005L1,21h41.715L38.545,11.305z"/>
</svg>
