<?xml version="1.0" encoding="utf-8"?>
<!-- Generator: Adobe Illustrator 15.1.0, SVG Export Plug-In . SVG Version: 6.00 Build 0)  -->
<svg version="1.2" baseProfile="tiny" id="Layer_1" xmlns="http://www.w3.org/2000/svg" xmlns:xlink="http://www.w3.org/1999/xlink"
	 x="0px" y="0px" width="50px" height="50px" viewBox="0 0 50 50" overflow="inherit" xml:space="preserve">
<g>
	<path d="M50,40c-1,0-2.007-0.236-2.876-0.637c-0.893-0.424-1.901-0.674-2.944-0.674c-1.057,0-2.063,0.25-2.958,0.674
		c-0.88,0.4-1.854,0.637-2.875,0.637c-1.008,0-1.995-0.236-2.863-0.637c-0.895-0.424-1.902-0.674-2.956-0.674
		c-1.045,0-2.054,0.25-2.945,0.674C28.7,39.764,27.726,40,26.706,40c-1.02,0-1.995-0.236-2.864-0.637
		c-0.893-0.424-1.902-0.674-2.954-0.674c-1.056,0-2.052,0.25-2.946,0.674C17.062,39.764,16.089,40,15.068,40
		c-1.021,0-1.988-0.236-2.858-0.637c-0.904-0.424-1.902-0.674-2.957-0.674c-1.055,0-1.768,0.25-2.673,0.674C5.711,39.764,5,40,4,40
		v-4.378c1,0,1.711-0.236,2.58-0.637c0.904-0.413,1.76-0.663,2.815-0.663c1.055,0,1.981,0.25,2.886,0.663
		c0.87,0.4,1.802,0.637,2.823,0.637c1.021,0,1.976-0.236,2.857-0.637c0.894-0.413,1.881-0.663,2.937-0.663
		c1.052,0,2.056,0.25,2.949,0.663c0.869,0.4,1.841,0.637,2.861,0.637c1.02,0,1.993-0.236,2.875-0.637
		c0.892-0.413,1.899-0.663,2.944-0.663c1.054,0,2.062,0.25,2.956,0.663c0.868,0.4,1.855,0.637,2.863,0.637
		c1.021,0,1.995-0.236,2.875-0.637c0.895-0.413,1.901-0.663,2.958-0.663c1.043,0,2.052,0.25,2.944,0.663
		c0.869,0.4,1.876,0.637,2.876,0.637V40z"/>
	<path d="M38.288,21.714l8.466,0.673l-0.639-4.403L39.9,17.537c-1.68-0.083-1.438,1.629-1.438,1.629L38.288,21.714z"/>
	<path d="M22.589,20.711c1.555,0,2.807-1.274,2.807-2.855c0-1.582-1.251-2.855-2.807-2.855c-1.553,0-2.802,1.274-2.802,2.855
		C19.787,19.437,21.036,20.711,22.589,20.711z"/>
	<path d="M5.265,31.716c0.359-0.106,0.708-0.247,1.032-0.401c0.905-0.424,1.902-0.673,2.957-0.673c1.055,0,2.053,0.249,2.957,0.673
		c0.87,0.401,1.837,0.637,2.858,0.637c1.021,0,1.994-0.235,2.875-0.637c0.894-0.424,1.89-0.673,2.946-0.673
		c1.052,0,2.061,0.249,2.954,0.673c0.869,0.401,1.844,0.637,2.864,0.637c1.02,0,1.994-0.235,2.876-0.637
		c0.892-0.424,1.9-0.673,2.945-0.673c1.054,0,2.062,0.249,2.956,0.673c0.868,0.401,1.855,0.637,2.863,0.637
		c1.021,0,1.995-0.235,2.875-0.637c0.895-0.424,1.901-0.673,2.958-0.673c1.043,0,2.052,0.249,2.944,0.673
		c0.869,0.401,1.844,0.637,2.865,0.637l-0.952-7.807L13.85,21.147l5.311-5.452l-2.331-0.212l-5.304,5.464L0.001,19.979
		C-0.069,23.979,4.313,30.63,5.265,31.716L5.265,31.716z"/>
</g>
</svg>
