<?xml version="1.0" encoding="utf-8"?>
<!-- Generator: Adobe Illustrator 15.1.0, SVG Export Plug-In . SVG Version: 6.00 Build 0)  -->
<svg version="1.2" baseProfile="tiny" id="Layer_1" xmlns="http://www.w3.org/2000/svg" xmlns:xlink="http://www.w3.org/1999/xlink"
	 x="0px" y="0px" width="50px" height="50px" viewBox="0 0 50 50" overflow="inherit" xml:space="preserve">
<path d="M41,40V6c0-2.2-1.8-4-4-4H13c-2.2,0-4,1.8-4,4v38c0,2.2,1.8,4,4,4h24c1.858,0,4,0,4-2c0-0.416,0,0,0-1H14c-1.1,0-2-0.9-2-2
	v-3H41z M14,10c0-0.55,0.45-1,1-1h20c0.55,0,1,0.45,1,1v2c0,0.55-0.45,1-1,1H15c-0.55,0-1-0.45-1-1V10z M14,18c0-0.55,0.45-1,1-1h20
	c0.55,0,1,0.45,1,1v2c0,0.55-0.45,1-1,1H15c-0.55,0-1-0.45-1-1V18z"/>
</svg>
