<?xml version="1.0" encoding="utf-8"?>
<!-- Generator: Adobe Illustrator 15.1.0, SVG Export Plug-In . SVG Version: 6.00 Build 0)  -->
<svg version="1.2" baseProfile="tiny" id="Layer_1" xmlns="http://www.w3.org/2000/svg" xmlns:xlink="http://www.w3.org/1999/xlink"
	 x="0px" y="0px" width="50px" height="50px" viewBox="0 0 50 50" overflow="inherit" xml:space="preserve">
<g>
	<path d="M31.57,30.157c0,0-1.877-4.693-3.698-9.174c0,0-0.61-2.693-0.133-6.267c0,0,1.296-5.463,0.575-8.046
		c0,0-1.107-2.213-3.407-2.367c0,0-3.174,0.224-3.767,3.312c0,0-0.155,1.78,0.338,3.834c0,0,1.777,6.797-0.172,11.233
		c0,0-2.719,5.681-2.935,6.982c0,0-1.018,5.566-0.016,9.665c0,0,2.104,7.013,3.644,9.336c0,0,3.124,0.797,5.804-0.071
		c0,0,3.213-5.202,3.855-9.903C31.66,38.691,32.462,33.724,31.57,30.157z"/>
	<path d="M41.579,26.853c0,0-1.876-4.694-3.705-9.173c0,0-0.609-2.694-0.134-6.262c0,0,1.298-5.463,0.575-8.052
		c0,0-1.102-2.213-3.404-2.365c0,0-3.175,0.223-3.767,3.31c0,0-0.156,1.781,0.343,3.835c0,0,1.778,6.803-0.177,11.232
		c0,0-0.422,0.891-0.948,2.033c1.707,4.195,3.347,8.293,3.347,8.293l0.026,0.071l0.017,0.07c0.938,3.731,0.14,8.747,0.111,8.933
		c-0.304,2.234-1.146,4.518-1.977,6.38c0.037,0.067,0.083,0.144,0.123,0.203c0,0,3.121,0.798,5.804-0.076
		c0,0,3.211-5.195,3.854-9.899C41.667,35.385,42.472,30.419,41.579,26.853z"/>
	<path d="M19.225,22.256c0.106-0.233,0.194-0.49,0.277-0.742c-0.488-1.212-1.02-2.514-1.545-3.812c0,0-0.616-2.7-0.134-6.267
		c0,0,1.297-5.458,0.577-8.047c0,0-1.107-2.214-3.408-2.366c0,0-3.177,0.229-3.766,3.304c0,0-0.154,1.788,0.344,3.836
		c0,0,1.778,6.801-0.177,11.237c0,0-2.719,5.682-2.936,6.982c0,0-1.019,5.567-0.016,9.665c0,0,2.104,7.014,3.643,9.331
		c0,0,3.125,0.804,5.804-0.072c0,0,0.062-0.097,0.167-0.278c-0.98-2.578-1.782-5.232-1.843-5.446c-1.042-4.272-0.039-9.871,0-10.085
		C16.438,28.112,18.771,23.196,19.225,22.256z"/>
</g>
</svg>
