<?xml version="1.0" encoding="utf-8"?>
<!-- Generator: Adobe Illustrator 15.1.0, SVG Export Plug-In . SVG Version: 6.00 Build 0)  -->
<svg version="1.2" baseProfile="tiny" id="Layer_1" xmlns="http://www.w3.org/2000/svg" xmlns:xlink="http://www.w3.org/1999/xlink"
	 x="0px" y="0px" width="50px" height="50px" viewBox="0 0 50 50" overflow="inherit" xml:space="preserve">
<rect x="-16" y="1" width="0" height="0"/>
<g>
	<path d="M21.434,7.689L19,11h-5.684c0.701,2,2.996,3.886,6.201,3.26c0.95-0.064,4.155-0.573,5.483-0.26
		c1.768,0.424,1.031,0.426,4.201,2.97L45,30c0.968,0.855,2.206,0.505,3.063-0.461C48.92,28.571,48.968,26.855,48,26L28,10
		c-1.252-1.005-1.568-2.397-2-4c-0.84-2.755-3.929-4.965-6.961-4.965C16.596,1.035,13.967,3.148,13,5h6L21.434,7.689z"/>
	<path d="M35.154,32L35.154,32l-6.182-10.73C28.728,20.825,28.111,20,27.604,20H10.396c-0.507,0-1.124,0.825-1.369,1.27L3,32H2.846
		C1.831,32,1,32.369,1,33.385v9.23C1,43.631,1.831,44,2.846,44H5v3.23C5,48.754,5.938,50,7.461,50h0.923
		C9.908,50,11,48.754,11,47.23V44h16v3.23c0,1.523,1.092,2.77,2.615,2.77h0.923C32.062,50,33,48.754,33,47.23V44h2.154
		C36.169,44,37,43.631,37,42.615v-9.23C37,32.369,36.169,32,35.154,32z M6.077,38.923c-1.275,0-2.308-1.033-2.308-2.308
		s1.033-2.308,2.308-2.308c1.274,0,2.308,1.033,2.308,2.308S7.352,38.923,6.077,38.923z M7.923,32l3.741-7.828
		C11.891,23.718,12.493,23,13,23h12c0.507,0,1.108,0.718,1.336,1.172L30.077,32H7.923z M31.923,38.923
		c-1.274,0-2.308-1.033-2.308-2.308s1.033-2.308,2.308-2.308s2.308,1.033,2.308,2.308S33.197,38.923,31.923,38.923z"/>
</g>
</svg>
