<?xml version="1.0" encoding="utf-8"?>
<!-- Generator: Adobe Illustrator 15.1.0, SVG Export Plug-In . SVG Version: 6.00 Build 0)  -->
<svg version="1.2" baseProfile="tiny" id="Layer_1" xmlns="http://www.w3.org/2000/svg" xmlns:xlink="http://www.w3.org/1999/xlink"
	 x="0px" y="0px" width="50px" height="50px" viewBox="0 0 50 50" overflow="inherit" xml:space="preserve">
<g>
	<path d="M41,4H22.077c-1.503-2-3.966-3.752-6.752-3.752c-4.577,0-8.287,3.576-8.287,8.153c0,4.578,3.71,8.037,8.287,8.037
		c3.481,0,6.459-2.438,7.688-5.438h2.755l1.997-1.998L29.761,11h1.245l1.996-1.998L34.999,11h1.244l1.997-1.998L40.237,11H41v0.281
		l-0.174,0.041l3.94-3.862L41,4z M12.643,10.61c-1.324,0-2.399-1.075-2.399-2.401s1.075-2.4,2.399-2.4
		c1.326,0,2.401,1.074,2.401,2.4S13.969,10.61,12.643,10.61z"/>
</g>
<path d="M43,30h-0.553l-6.144-11.125C36.038,18.394,35.37,18,34.82,18H16.18c-0.55,0-1.218,0.394-1.483,0.875L8.552,30H8
	c-1.1,0-2,0.9-2,2v10c0,1.1,0.9,2,2,2h2v3c0,1.65,1.35,3,3,3h1c1.65,0,3-1.35,3-3v-3h17v3c0,1.65,1.35,3,3,3h1c1.65,0,3-1.35,3-3v-3
	h2c1.1,0,2-0.9,2-2V32C45,30.9,44.1,30,43,30z M11.5,38C10.119,38,9,36.881,9,35.5s1.119-2.5,2.5-2.5s2.5,1.119,2.5,2.5
	S12.881,38,11.5,38z M13.5,30l4.053-8.105C17.799,21.402,18.45,21,19,21h13c0.55,0,1.201,0.402,1.447,0.895L37.5,30H13.5z M39.5,38
	c-1.381,0-2.5-1.119-2.5-2.5s1.119-2.5,2.5-2.5s2.5,1.119,2.5,2.5S40.881,38,39.5,38z"/>
</svg>
