<?xml version="1.0" encoding="utf-8"?>
<!-- Generator: Adobe Illustrator 15.1.0, SVG Export Plug-In . SVG Version: 6.00 Build 0)  -->
<svg version="1.2" baseProfile="tiny" id="Layer_1" xmlns="http://www.w3.org/2000/svg" xmlns:xlink="http://www.w3.org/1999/xlink"
	 x="0px" y="0px" width="50px" height="50px" viewBox="0 0 50 50" overflow="inherit" xml:space="preserve">
<g>
	<path d="M25,49C11.766,49,1,38.233,1,25C1,11.766,11.766,1,25,1c13.233,0,24,10.766,24,24C49,38.233,38.233,49,25,49z M25,5
		C13.972,5,5,13.972,5,25c0,11.028,8.972,20,20,20c11.028,0,20-8.972,20-20C45,13.972,36.028,5,25,5z"/>
</g>
<path d="M25.045,8.25C25.045,8.25,18,20.321,18,24c0,0.389,0,1.616,0,2c0,3.678,7.066,16,7.066,16S32,29.934,32,26.256
	c0-0.387,0-1.877,0-2.262C32,20.315,25.045,8.25,25.045,8.25z M25,29c-2.209,0-4-1.791-4-4c0-2.209,1.791-4,4-4c2.209,0,4,1.791,4,4
	C29,27.209,27.209,29,25,29z"/>
</svg>
