<?xml version="1.0" encoding="utf-8"?>
<!-- Generator: Adobe Illustrator 15.1.0, SVG Export Plug-In . SVG Version: 6.00 Build 0)  -->
<svg version="1.2" baseProfile="tiny" id="Layer_1" xmlns="http://www.w3.org/2000/svg" xmlns:xlink="http://www.w3.org/1999/xlink"
	 x="0px" y="0px" width="50px" height="50px" viewBox="0 0 50 50" overflow="inherit" xml:space="preserve">
<g>
	<g>
		<polygon points="18.1,24.543 8.896,19.353 12.095,13.743 21.301,18.93 		"/>
		<polygon points="36.47,29.331 20.918,20.571 19.319,23.379 34.869,32.14 		"/>
		<polygon points="38.358,30.396 36.754,33.202 44.774,37.716 46.378,34.913 		"/>
		<path d="M36.198,33.202c-0.123,0.219-0.459,0.271-0.751,0.111l0,0c-0.291-0.164-0.42-0.475-0.296-0.697l1.875-3.285
			c0.129-0.223,0.465-0.277,0.754-0.111l0,0c0.287,0.164,0.417,0.482,0.293,0.705L36.198,33.202z"/>
		<path d="M48.03,35.001c-0.319-0.176-0.671-0.258-1.011-0.248l-2.051,3.592c0.165,0.301,0.411,0.564,0.735,0.74
			c0.904,0.512,2.041,0.217,2.538-0.652l0.526-0.93C49.265,36.628,48.937,35.513,48.03,35.001z"/>
		<path d="M22.191,17.849c-0.241,0.436-0.79,0.582-1.225,0.342l-8.056-4.542c-0.436-0.242-0.583-0.787-0.339-1.223l0,0
			c0.245-0.428,0.795-0.581,1.23-0.334l8.054,4.536C22.287,16.875,22.441,17.421,22.191,17.849L22.191,17.849z"/>
		<path d="M23.32,15.877c-0.248,0.435-0.797,0.582-1.227,0.34l-8.059-4.541c-0.433-0.242-0.585-0.788-0.337-1.217l0,0
			c0.242-0.435,0.792-0.586,1.23-0.341l8.056,4.537C23.418,14.9,23.566,15.447,23.32,15.877L23.32,15.877z"/>
		<path d="M16.512,27.821c-0.248,0.43-0.797,0.576-1.229,0.334l-8.062-4.542c-0.432-0.24-0.583-0.787-0.338-1.223l0,0
			c0.245-0.422,0.802-0.581,1.229-0.334l8.058,4.542C16.603,26.839,16.753,27.386,16.512,27.821L16.512,27.821z"/>
		<path d="M17.638,25.842c-0.245,0.435-0.794,0.581-1.234,0.335L8.348,21.64c-0.43-0.247-0.583-0.793-0.339-1.223l0,0
			c0.249-0.434,0.798-0.581,1.231-0.335l8.055,4.537C17.727,24.865,17.883,25.413,17.638,25.842L17.638,25.842z"/>
	</g>
	<g>
		<rect x="4.119" y="33.921" width="14.204" height="1.633"/>
		<path d="M21.425,37.327c-0.091-0.545-0.562-0.963-1.135-0.963H2.156c-0.572,0-1.046,0.418-1.135,0.963H1v2.674h20.446v-2.674
			H21.425z"/>
	</g>
</g>
</svg>
