<?xml version="1.0" encoding="utf-8"?>
<!-- Generator: Adobe Illustrator 15.1.0, SVG Export Plug-In . SVG Version: 6.00 Build 0)  -->
<svg version="1.2" baseProfile="tiny" id="Layer_1" xmlns="http://www.w3.org/2000/svg" xmlns:xlink="http://www.w3.org/1999/xlink"
	 x="0px" y="0px" width="50px" height="50px" viewBox="0 0 50 50" overflow="inherit" xml:space="preserve">
<path d="M43,12H7H0v7v12v7h7h36h7v-7V19v-7H43z M48,31.271c-2.328,0.643-4.086,2.399-4.729,4.729H6.729
	c-0.644-2.328-2.4-4.086-4.729-4.729V18.729c2.329-0.644,4.085-2.4,4.729-4.729h36.565c0.672,2.257,2.449,4.034,4.706,4.706V31.271z
	"/>
<g>
	<path d="M27.116,27.055C26.886,26.915,27,26.786,26,26.667v2.897c0-0.028,0.432-0.062,0.548-0.102
		c0.742-0.26,1.114-0.745,1.114-1.451C27.662,27.602,27.479,27.28,27.116,27.055z"/>
	<path d="M22.615,22.328c0,0.445,0.203,0.78,0.607,1c0.155,0.087,0.416,0.184,0.777,0.289v-2.741
		c-0.294,0.069-0.552,0.173-0.769,0.315C22.82,21.463,22.615,21.843,22.615,22.328z"/>
	<path d="M25,15c-4.971,0-9,4.478-9,10c0,5.521,4.029,10,9,10c4.971,0,9-4.479,9-10C34,19.478,29.971,15,25,15z M28.854,30.654
		C28.175,31.234,27,31.589,26,31.723V33h-2v-1.3c-1.044-0.142-1.909-0.3-2.588-0.835C20.47,30.123,20,29,20,28h2.488
		c0.081,0,0.239,0.801,0.475,1.084c0.245,0.291,0.593,0.325,1.037,0.448v-3.405c-1.217-0.281-2.065-0.584-2.536-0.91
		c-0.841-0.575-1.261-1.476-1.261-2.7c0-1.117,0.411-2.045,1.234-2.784c0.628-0.565,1.484-0.912,2.563-1.046V17h2v1.74
		c1,0.149,1.676,0.613,2.3,1.076C29.239,20.513,29.9,21,29.945,23h-2.506c-0.047-1-0.549-1.432-1.172-1.748
		C26.234,21.236,26,21.059,26,21.045v3.143l0.902,0.174c0.959,0.226,1.846,0.528,2.324,0.905c0.744,0.588,1.032,1.437,1.032,2.547
		C30.26,28.954,29.734,29.9,28.854,30.654z"/>
</g>
</svg>
