<?xml version="1.0" encoding="utf-8"?>
<!-- Generator: Adobe Illustrator 15.1.0, SVG Export Plug-In . SVG Version: 6.00 Build 0)  -->
<svg version="1.2" baseProfile="tiny" id="Layer_1" xmlns="http://www.w3.org/2000/svg" xmlns:xlink="http://www.w3.org/1999/xlink"
	 x="0px" y="0px" width="50px" height="50px" viewBox="0 0 50 50" overflow="inherit" xml:space="preserve">
<g>
	<path id="path4906" d="M48.894,15.154L44.959,46H31.668l-3.919-31h16.226l3.207-11.077L49,4.471l-3.077,10.66L48.894,15.154z"/>
	<path id="path4908" d="M25.87,33c0,0,0.497-4-6.395-4H8.499c-6.882,0-6.395,4-6.395,4H25.87z"/>
	<path id="path4910" d="M2.104,42c0,0-0.487,4,6.395,4h10.977c6.892,0,6.395-4,6.395-4H2.104z"/>
	<path id="path4912" d="M24.839,40c1.128,0,2.039-1.114,2.039-2.499c0-1.393-0.911-2.501-2.039-2.501H3.04
		C1.917,35,1,36.108,1,37.501C1,38.886,1.917,40,3.04,40H24.839z"/>
</g>
</svg>
