<?xml version="1.0" encoding="utf-8"?>
<!-- Generator: Adobe Illustrator 15.1.0, SVG Export Plug-In . SVG Version: 6.00 Build 0)  -->
<svg version="1.2" baseProfile="tiny" id="Layer_1" xmlns="http://www.w3.org/2000/svg" xmlns:xlink="http://www.w3.org/1999/xlink"
	 x="0px" y="0px" width="50px" height="50px" viewBox="0 0 50 50" overflow="inherit" xml:space="preserve">
<path d="M46.476,20.662l-0.013-0.101c-0.028-0.141-0.08-0.283-0.127-0.362L40,10c0,0-0.808-1-1-1c-3,0-24,0-27,0L3.88,19.853
	l-0.096,0.1L3.771,20c-0.064,0.101-0.119,0.215-0.168,0.35L3.57,20.447c-0.048,0.166-0.07,0.31-0.064,0.526
	c0.007,0.14,0.032,0.279,0.077,0.424l0.038,0.109c0.051,0.129,0.114,0.247,0.188,0.352l19.631,24.867l0.04,0.057
	c0.101,0.13,0.224,0.245,0.374,0.35l0.114,0.071c0.112,0.07,0.229,0.126,0.399,0.188l0.111,0.037C24.67,47.477,24.837,47.5,25,47.5
	c0.165,0,0.326-0.022,0.543-0.078l0.133-0.047c0.13-0.046,0.247-0.103,0.388-0.19l0.088-0.055c0.151-0.107,0.272-0.223,0.339-0.314
	l19.656-24.893c0.088-0.114,0.162-0.242,0.25-0.469c0.048-0.126,0.069-0.248,0.08-0.321c0.009-0.051,0.015-0.103,0.015-0.129
	l0.008-0.102C46.5,20.802,46.489,20.702,46.476,20.662z M35.936,20l2.798-5.063L41.53,20H35.936z M34.258,23h6.638L29.832,37.015
	L34.258,23z M32.616,18.482L28.575,13h7.07L32.616,18.482z M19.672,23h10.659L25,39.877L19.672,23z M20.729,20L25,14.204L29.271,20
	H20.729z M17.721,18.028L15.869,13h5.557L17.721,18.028z M20.17,37.016L9.105,23h6.639L20.17,37.016z M12.665,14.972L14.518,20H8.96
	L12.665,14.972z"/>
</svg>
