<?xml version="1.0" encoding="utf-8"?>
<!-- Generator: Adobe Illustrator 15.1.0, SVG Export Plug-In . SVG Version: 6.00 Build 0)  -->
<svg version="1.2" baseProfile="tiny" id="Layer_1" xmlns="http://www.w3.org/2000/svg" xmlns:xlink="http://www.w3.org/1999/xlink"
	 x="0px" y="0px" width="50px" height="50px" viewBox="0 0 50 50" overflow="inherit" xml:space="preserve">
<g>
	<path d="M6,11v33.74C6,46.21,7.237,48,8.76,48h33.218C43.497,48,45,46.21,45,44.74V11H6z M25.46,37.776
		c-5.86,0-10.611-4.594-10.611-10.263c0-5.669,4.751-10.263,10.611-10.263s10.611,4.594,10.611,10.263
		C36.071,33.183,31.32,37.776,25.46,37.776z"/>
	<path d="M41.978,1H8.76C7.237,1,6,2.033,6,3.505V9h39V3.505C45,2.033,43.497,1,41.978,1z M19,7H8V3h11V7z M38.146,6.72
		c-1.249,0-2.258-0.979-2.258-2.188c0-1.207,1.009-2.186,2.258-2.186s2.261,0.979,2.261,2.186C40.406,5.74,39.395,6.72,38.146,6.72z
		"/>
</g>
</svg>
