<?xml version="1.0" encoding="utf-8"?>
<!-- Generator: Adobe Illustrator 15.1.0, SVG Export Plug-In . SVG Version: 6.00 Build 0)  -->
<svg version="1.2" baseProfile="tiny" id="Layer_1" xmlns="http://www.w3.org/2000/svg" xmlns:xlink="http://www.w3.org/1999/xlink"
	 x="0px" y="0px" width="50px" height="50px" viewBox="0 0 50 50" overflow="inherit" xml:space="preserve">
<rect x="-16" y="1" width="0" height="0"/>
<g>
	<path d="M14,16c3,1,5,3.548,5,6.908v25.817C19,49.519,19.803,50,18.983,50H4.182C3.364,50,3,49.519,3,48.726V22.908
		C3,19.54,5,16.754,8,16V4h6V16z"/>
	<rect x="8" width="6" height="2"/>
	<path d="M35.255,4.785c-0.457-0.065-0.808-0.436-0.808-0.883c0-0.327,0.196-0.612,0.481-0.774c-0.285-0.15-0.481-0.678-0.481-1.008
		C34.447,1.624,34.865,1,35.383,1h4.684c0.521,0,0.936,0.624,0.936,1.119c0,0.345-0.195,0.747-0.492,0.892
		c0.285,0.155,0.492,0.494,0.492,0.833c0,0.448-0.338,0.847-0.793,0.907l5.965,14.6C46.525,20.3,47,21.367,47,22.415V48
		c0,0.976,0.026,2-1,2H30.911C29.869,50,30,48.976,30,48V22c0-1.047,0.195-1.686,0.547-2.636L35.255,4.785z"/>
</g>
</svg>
