<?xml version="1.0" encoding="utf-8"?>
<!-- Generator: Adobe Illustrator 15.1.0, SVG Export Plug-In . SVG Version: 6.00 Build 0)  -->
<svg version="1.2" baseProfile="tiny" id="Layer_1" xmlns="http://www.w3.org/2000/svg" xmlns:xlink="http://www.w3.org/1999/xlink"
	 x="0px" y="0px" width="50px" height="50px" viewBox="0 0 50 50" overflow="inherit" xml:space="preserve">
<g>
	<polygon points="46,29 46,49 31,49 31,45 18,45 18,49 4,49 4,29 	"/>
	<path d="M36.949,25.355c-0.574-2.509-1.869-4.715-3.91-6.401C31.062,17.311,28.723,17,26.01,16H26V9.672
		c0-0.028,0.271-0.05,0.524-0.141c0.359-0.125,0.698-0.269,1.147-0.425c0.441-0.149,0.84-0.274,1.256-0.362
		c0.408-0.097,0.691-0.138,0.885-0.138c0.377,0,0.854,0.06,1.412,0.182c0.568,0.138,1.173,0.287,1.788,0.456
		c0.641,0.194,1.213,0.341,1.768,0.466c0.529,0.121,0.972,0.171,1.339,0.171C36.703,9.882,37,9.801,38,9.623V2.381
		c-1,0.238-1.177,0.369-1.882,0.369c-0.367,0-0.821-0.056-1.351-0.19c-0.553-0.106-1.123-0.271-1.764-0.457
		c-0.615-0.187-1.196-0.328-1.733-0.446c-0.543-0.129-0.896-0.191-1.28-0.191c-1.273,0-2.99,0.301-3.99,0.856V1h-2v15h-0.063
		c-2.692,1-5.049,1.368-7.024,3.011c-2.002,1.688-3.302,3.751-3.917,6.261c0,0-1.917-0.272-1.917,1.728h27.97
		C39.049,25,36.949,25.355,36.949,25.355z"/>
</g>
</svg>
