<?xml version="1.0" encoding="utf-8"?>
<!-- Generator: Adobe Illustrator 15.1.0, SVG Export Plug-In . SVG Version: 6.00 Build 0)  -->
<svg version="1.2" baseProfile="tiny" id="Layer_1" xmlns="http://www.w3.org/2000/svg" xmlns:xlink="http://www.w3.org/1999/xlink"
	 x="0px" y="0px" width="50px" height="50px" viewBox="0 0 50 50" overflow="inherit" xml:space="preserve">
<g>
	<path d="M18,47c0,1.233,0.768,2,2,2c1.235,0,2-0.767,2-2V28h2v19c0,1.231,0.767,2,2,2c1.233,0,2-0.767,2-2V15h1v11.814
		c0,2.395,3.006,2.395,3,0V14.661C32,12.015,30.094,10,27,10h-8c-2.82,0-5,1.719-5,4.587V27c0,2,3,2,3,0V15h1V47z"/>
</g>
<circle cx="22.875" cy="4.625" r="4.125"/>
</svg>
