<?xml version="1.0" encoding="utf-8"?>
<!-- Generator: Adobe Illustrator 15.1.0, SVG Export Plug-In . SVG Version: 6.00 Build 0)  -->
<svg version="1.2" baseProfile="tiny" id="Layer_1" xmlns="http://www.w3.org/2000/svg" xmlns:xlink="http://www.w3.org/1999/xlink"
	 x="0px" y="0px" width="50px" height="50px" viewBox="0 0 50 50" overflow="inherit" xml:space="preserve">
<path fill="#231F20" d="M25.117,10.335c-1.475,0-2.691-1.222-2.691-2.72c0-1.508,1.216-2.719,2.691-2.719
	c1.501,0,2.705,1.211,2.705,2.719C27.822,9.113,26.618,10.335,25.117,10.335z M46.953,34.141l-1.441-9.027
	c-0.164-0.844-0.898-1.486-1.771-1.486c-0.531,0-1.004,0.226-1.347,0.595l-6.639,6.26c-0.104,0.095-0.211,0.201-0.307,0.333
	c-0.624,0.854-0.446,2.066,0.404,2.708c0.162,0.117,0.342,0.201,0.519,0.273l1.663,0.559C36.432,38.915,31.818,43.039,27,44V14
	c2.361-1.01,4.695-3.652,4.695-6.385C31.695,3.957,28.753,1,25.117,1c-3.623,0-6.576,2.957-6.576,6.615
	c0,2.733,2.108,5.375,4.458,6.385v30c-4.924-0.891-9.406-5-11.048-9.645l1.678-0.559c0.177-0.072,0.353-0.156,0.519-0.273
	c0.849-0.642,1.038-1.854,0.402-2.708c-0.096-0.132-0.189-0.238-0.308-0.333l-6.638-6.26c-0.331-0.369-0.815-0.595-1.335-0.595
	c-0.885,0-1.63,0.642-1.783,1.486l-1.441,9.027C3.012,34.283,3,34.437,3,34.593c0,1.066,0.862,1.936,1.926,1.936
	c0.2,0,0.389-0.025,0.566-0.085l1.559-0.51C9.531,43.512,16.626,49,25,49c8.373,0,15.471-5.488,17.951-13.078l1.56,0.521
	c0.175,0.06,0.367,0.085,0.565,0.085c1.063,0,1.925-0.869,1.925-1.936C47,34.437,46.989,34.283,46.953,34.141z"/>
</svg>
