<?xml version="1.0" encoding="utf-8"?>
<!-- Generator: Adobe Illustrator 15.1.0, SVG Export Plug-In . SVG Version: 6.00 Build 0)  -->
<svg version="1.2" baseProfile="tiny" id="Layer_1" xmlns="http://www.w3.org/2000/svg" xmlns:xlink="http://www.w3.org/1999/xlink"
	 x="0px" y="0px" width="50px" height="50px" viewBox="0 0 50 50" overflow="inherit" xml:space="preserve">
<g id="Your_Icon_3_">
	<g>
		<path d="M8.524,30.795c-1.978,0-3.585,1.617-3.585,3.604C4.939,36.387,6.547,38,8.524,38c1.982,0,3.59-1.613,3.59-3.602
			C12.114,32.412,10.507,30.795,8.524,30.795z M8.524,36.256c-0.988,0-1.792-0.807-1.792-1.803c0-0.992,0.804-1.801,1.792-1.801
			c0.993,0,1.797,0.809,1.797,1.801C10.322,35.449,9.518,36.256,8.524,36.256z"/>
	</g>
	<g>
		<path d="M40.067,30.795c-1.981,0-3.587,1.617-3.587,3.604c0,1.988,1.605,3.602,3.587,3.602c1.98,0,3.59-1.613,3.59-3.602
			C43.657,32.412,42.048,30.795,40.067,30.795z M40.067,36.256c-0.989,0-1.794-0.807-1.794-1.803
			c0.001-0.992,0.805-1.801,1.794-1.801c0.992,0,1.797,0.809,1.797,1.801C41.864,35.449,41.06,36.256,40.067,36.256z"/>
	</g>
	<g>
		<path d="M48.007,14H16.461c-0.547,0-0.993,0.446-0.993,0.997v9.042h-1.987v-5.551c0-0.552-0.445-0.997-0.994-0.997H5.719
			c-1.18,0-2.234,0.872-2.423,2.12v-0.065l-1.056,5.987l0.002,0.021C1.525,25.676,1,26.299,1,27.03c0,0.107,0.012,0.217,0.033,0.32
			L1,27.341l1.49,6.735h1.552v-0.061c0-2.414,1.975-4.369,4.41-4.369c2.433,0,4.409,1.955,4.409,4.369v0.061h22.726v-0.061
			c0-2.414,1.976-4.369,4.407-4.369c2.435,0,4.411,1.955,4.411,4.369c0,0.02,0,0.041-0.004,0.061h0.004H49V14.997
			C49,14.447,48.556,14,48.007,14z M10.003,19.111v4.928h-5.96l0.745-4.181c0.062-0.5,0.497-0.869,0.931-0.869h4.284V19.111z"/>
	</g>
</g>
</svg>
