<?xml version="1.0" encoding="utf-8"?>
<!-- Generator: Adobe Illustrator 15.1.0, SVG Export Plug-In . SVG Version: 6.00 Build 0)  -->
<svg version="1.2" baseProfile="tiny" id="Layer_1" xmlns="http://www.w3.org/2000/svg" xmlns:xlink="http://www.w3.org/1999/xlink"
	 x="0px" y="0px" width="50px" height="50px" viewBox="0 0 50 50" overflow="inherit" xml:space="preserve">
<g>
	<path d="M25.507,22.572c-1.512,0-2.741,1.229-2.741,2.74c0,1.511,1.229,2.74,2.741,2.74c1.511,0,2.741-1.229,2.741-2.74
		C28.248,23.801,27.018,22.572,25.507,22.572z"/>
	<path d="M41.824,4.073C41.824,2.928,40.896,2,39.752,2H10.073C8.928,2,8,2.928,8,4.073v41.856C8,47.073,8.928,48,10.073,48h29.679
		c1.145,0,2.072-0.927,2.072-2.071V4.073z M25.507,38.415c-7.225,0-13.103-5.877-13.103-13.103c0-7.224,5.878-13.102,13.103-13.102
		c7.224,0,13.101,5.878,13.101,13.102C38.607,32.538,32.73,38.415,25.507,38.415z"/>
</g>
</svg>
