<?xml version="1.0" encoding="utf-8"?>
<!-- Generator: Adobe Illustrator 15.1.0, SVG Export Plug-In . SVG Version: 6.00 Build 0)  -->
<svg version="1.2" baseProfile="tiny" id="Layer_1" xmlns="http://www.w3.org/2000/svg" xmlns:xlink="http://www.w3.org/1999/xlink"
	 x="0px" y="0px" width="50px" height="50px" viewBox="0 0 50 50" overflow="inherit" xml:space="preserve">
<g>
	<path d="M9.27,19h3.916l0.602,18H8.749L9.27,19L9.27,19z M6,38h38v2h3v3h2v2H1v-2h2v-3h3V38L6,38z M46,13.812L25.002,5L4,13.812V15
		h42V13.812L46,13.812z M8,16h34v2H8V16z M36.736,19h3.914l0.607,18h-5.046L36.736,19z M27.584,19h3.914l0.6,18h-5.041L27.584,19
		L27.584,19z M18.43,19h3.915l0.596,18h-5.039L18.43,19z"/>
</g>
</svg>
