<?xml version="1.0" encoding="utf-8"?>
<!-- Generator: Adobe Illustrator 15.1.0, SVG Export Plug-In . SVG Version: 6.00 Build 0)  -->
<svg version="1.2" baseProfile="tiny" id="Layer_1" xmlns="http://www.w3.org/2000/svg" xmlns:xlink="http://www.w3.org/1999/xlink"
	 x="0px" y="0px" width="50px" height="50px" viewBox="0 0 50 50" overflow="inherit" xml:space="preserve">
<g>
	<rect x="12" y="1" width="9" height="7"/>
	<path d="M30.723,29.822c-0.873,0-1.723-0.891-1.723-1.77V10h14.187l5.829,24.878L49,36.354V47.41c0,0.85-0.707,1.59-1.549,1.59
		H34.03C33.197,49,33,48.26,33,47.41V30h-2"/>
	<path d="M19.281,29.842c0.866,0,1.719-0.859,1.719-1.744V10H6.822L0.986,34.892L1,36.4v11.053C1,48.307,1.707,49,2.548,49h13.405
		C16.807,49,17,48.307,17,47.453V30h2"/>
	<rect x="23" y="10" width="4" height="17"/>
	<rect x="29" y="1" width="10" height="7"/>
</g>
</svg>
