<?xml version="1.0" encoding="utf-8"?>
<!-- Generator: Adobe Illustrator 15.1.0, SVG Export Plug-In . SVG Version: 6.00 Build 0)  -->
<svg version="1.2" baseProfile="tiny" id="Layer_1" xmlns="http://www.w3.org/2000/svg" xmlns:xlink="http://www.w3.org/1999/xlink"
	 x="0px" y="0px" width="50px" height="50px" viewBox="0 0 50 50" overflow="inherit" xml:space="preserve">
<rect x="-16" y="1" width="0" height="0"/>
<path d="M47,9H32c0,0-1,8,1,16c0.804,1.34,2.79,2.062,5,2.245V37h-0.333L34,40h11l-3.584-3H41v-9.828
	c2.12-0.275,4.063-1.014,5-2.172C48,18,47,9,47,9z M46,15H33v-5h13V15z"/>
<path d="M21.5,37H16v-8.5L27,12H1l11,16.5V37H6.5C5.671,37,5,37.672,5,38.5S5.671,40,6.5,40h15c0.829,0,1.5-0.672,1.5-1.5
	S22.329,37,21.5,37z"/>
</svg>
