<?xml version="1.0" encoding="utf-8"?>
<!-- Generator: Adobe Illustrator 15.1.0, SVG Export Plug-In . SVG Version: 6.00 Build 0)  -->
<svg version="1.2" baseProfile="tiny" id="Layer_1" xmlns="http://www.w3.org/2000/svg" xmlns:xlink="http://www.w3.org/1999/xlink"
	 x="0px" y="0px" width="50px" height="50px" viewBox="0 0 50 50" overflow="inherit" xml:space="preserve">
<path d="M48.759,8.229C48.517,7.141,48.502,7,46.059,7h-2.456l-0.491-1.349c-0.648-1.957-2.826-3.822-4.996-4.366
	c-1.256-0.314-5.73-0.369-16.649-0.293C7.74,1.088,6.417,1.166,5.059,1.777C2.019,3.143,0.344,6.587,1.242,9.62
	c0.627,2.114,1.945,3.679,3.817,4.52c1.357,0.61,2.68,0.674,16.407,0.769c10.918,0.077,15.393-0.01,16.648-0.325
	c2.177-0.545,4.349-2.477,5.003-4.452c0.493-1.485,0.515-1.5,2.125-1.394l1.625,0.107l0.108,5.126l0.107,5.125l-4.763,1.125
	c-2.616,0.619-5.893,1.41-7.28,1.759c-1.386,0.348-4.745,1.165-7.464,1.815l-4.944,1.183l-0.001,2.596
	c-0.001,2.58,0.225,2.604-1.316,3.892L20,32.761v8.12l0,0V49h3.404H27v-8.119v-8.12l-1.431-1.312
	c-1.526-1.276-1.498-1.369-1.382-3.332l0.151-2.018l1.764-0.439c0.961-0.243,4.022-0.987,6.795-1.658
	c2.773-0.669,7.534-1.818,10.575-2.554L49,20.112v-5.328C49,11.856,48.891,8.833,48.759,8.229z M24.775,44.636
	c0,0.842-0.159,1.016-1.015,1.105c-1.078,0.11-1.544-0.424-1.314-1.504c0.09-0.421,0.461-0.603,1.229-0.603
	C24.651,43.635,24.775,43.749,24.775,44.636z"/>
</svg>
