<?xml version="1.0" encoding="utf-8"?>
<!-- Generator: Adobe Illustrator 15.1.0, SVG Export Plug-In . SVG Version: 6.00 Build 0)  -->
<svg version="1.2" baseProfile="tiny" id="Layer_1" xmlns="http://www.w3.org/2000/svg" xmlns:xlink="http://www.w3.org/1999/xlink"
	 x="0px" y="0px" width="50px" height="50px" viewBox="0 0 50 50" overflow="inherit" xml:space="preserve">
<path d="M25,21.473c2.804,0,5.158,1.9,5.823,4.469c0.836,3.221,0.723,6.751,4.398,8.584c3.262,1.11,4.496,2.505,4.496,6.245
	c0,2.985-2.554,6.158-5.847,6.554c-3.682,0.553-6.548-0.17-8.871-1.494c-2.323,1.324-5.19,2.048-8.867,1.494
	c-3.295-0.396-5.848-3.58-5.848-6.554c0-3.66,1.317-5.209,4.573-6.27c4.007-2.047,3.469-5.635,4.363-8.717
	C19.943,23.294,22.257,21.473,25,21.473L25,21.473z M43.357,19.249c-0.993-0.863-5.046,2.506-6.321,4.172
	c-0.775,0.889-1.257,2.111-1.257,3.459c0,2.711,1.94,4.909,4.327,4.909c1.816,0,3.37-1.263,4.013-3.059
	C45.368,25.5,45.437,21.055,43.357,19.249L43.357,19.249z M6.641,19.249C4.564,21.055,4.631,25.5,5.882,28.73
	c0.643,1.796,2.196,3.059,4.011,3.059c2.389,0,4.327-2.198,4.327-4.909c0-1.348-0.481-2.57-1.256-3.459
	C11.688,21.755,7.636,18.386,6.641,19.249L6.641,19.249z M30.335,1.542c10.088,1.712,9.38,18.702,1.303,17.333
	c-2.33-0.396-4.06-2.518-4.323-5.053C27.048,11.244,26.447,0.884,30.335,1.542L30.335,1.542z M19.665,1.542
	c3.889-0.659,3.287,9.701,3.02,12.279c-0.263,2.536-1.991,4.657-4.321,5.053C10.285,20.245,9.578,3.254,19.665,1.542z"/>
</svg>
