<?xml version="1.0" encoding="utf-8"?>
<!-- Generator: Adobe Illustrator 15.1.0, SVG Export Plug-In . SVG Version: 6.00 Build 0)  -->
<svg version="1.2" baseProfile="tiny" id="Layer_1" xmlns="http://www.w3.org/2000/svg" xmlns:xlink="http://www.w3.org/1999/xlink"
	 x="0px" y="0px" width="50px" height="50px" viewBox="0 0 50 50" overflow="inherit" xml:space="preserve">
<g>
	<path d="M31,25.002c-3.309,0-5.996,2.685-5.996,5.998c0,3.316,2.688,6,5.996,6c3.31,0,5.998-2.684,5.998-6
		C36.998,27.688,34.31,25.002,31,25.002z"/>
	<path d="M43.001,12.997L38.06,3.03C37.661,1.848,36.542,1,35.221,1h-8.241c-1.344,0-2.465,0.872-2.854,2.075L19.007,13H6.999
		C3.691,13,1,15.688,1,19.001V49h48V19.001C49,15.688,46.311,12.997,43.001,12.997z M10,25.002c-1.66,0-3.001-1.342-3.001-2.998
		c0-1.662,1.342-3.003,3.001-3.003s2.999,1.341,2.999,3.003C12.999,23.66,11.66,25.002,10,25.002z M31,43.006
		c-6.625,0-12.001-5.377-12.001-12.006c0-6.626,5.375-11.999,12.001-11.999c6.626,0,12.001,5.372,12.001,11.999
		C43.001,37.629,37.626,43.006,31,43.006z"/>
</g>
</svg>
