<?xml version="1.0" encoding="utf-8"?>
<!-- Generator: Adobe Illustrator 15.1.0, SVG Export Plug-In . SVG Version: 6.00 Build 0)  -->
<svg version="1.2" baseProfile="tiny" id="Layer_1" xmlns="http://www.w3.org/2000/svg" xmlns:xlink="http://www.w3.org/1999/xlink"
	 x="0px" y="0px" width="50px" height="50px" viewBox="0 0 50 50" overflow="inherit" xml:space="preserve">
<g>
	<path d="M28.581,20.544c0,3.369-2.789,3.369-4.292,3.369h-1.874v-6.369h2.355C26.087,17.544,28.581,17.544,28.581,20.544z"/>
	<path d="M42.977,17.181c0.278-3.428,1.271-6.574,3.023-9.458L39.281,1c-2.123,1.828-4.539,2.84-7.279,3.019
		c-2.509,0.227-4.891-0.25-7.127-1.434c-2.301,1.146-4.671,1.625-7.142,1.434c-2.556-0.229-4.862-1.135-6.928-2.741L4.067,7.998
		c1.657,2.925,2.58,5.987,2.762,9.183c0.086,1.472-0.334,3.498-1.276,6.117C5.06,24.75,4.687,26.01,4.433,27.062
		c-0.235,1.045-0.382,1.895-0.431,2.531c-0.035,2.791,0.748,5.311,2.353,7.55c1.254,1.635,3.322,3.44,6.194,5.415
		c3.142,1.6,5.574,2.639,7.277,3.081c0.487,0.229,0.966,0.448,1.412,0.656c0.444,0.214,0.92,0.421,1.417,0.647
		c1.071,0.642,1.824,1.339,2.22,2.057c0.486-0.777,1.255-1.456,2.277-2.057c0.722-0.314,1.333-0.588,1.823-0.828
		c0.49-0.215,0.855-0.377,1.067-0.476c0.363-0.181,0.84-0.387,1.417-0.615c0.583-0.229,1.302-0.51,2.161-0.82
		c1.66-0.589,2.868-1.144,3.636-1.646c2.785-1.975,4.821-3.75,6.117-5.339c1.662-2.249,2.469-4.78,2.432-7.626
		c-0.098-1.274-0.637-3.313-1.616-6.091C43.255,20.797,42.841,18.697,42.977,17.181z M30.627,26.391
		c-1.595,1.044-3.788,1.044-4.933,1.044h-3.145v8.606h-4.729V13.965h6.713c3.12,0,5.729,0.201,7.541,2.41
		c1.131,1.406,1.322,3.003,1.322,4.138C33.394,23.084,32.335,25.254,30.627,26.391z"/>
</g>
</svg>
