<?xml version="1.0" encoding="utf-8"?>
<!-- Generator: Adobe Illustrator 15.1.0, SVG Export Plug-In . SVG Version: 6.00 Build 0)  -->
<svg version="1.2" baseProfile="tiny" id="Layer_1" xmlns="http://www.w3.org/2000/svg" xmlns:xlink="http://www.w3.org/1999/xlink"
	 x="0px" y="0px" width="50px" height="50px" viewBox="0 0 50 50" overflow="inherit" xml:space="preserve">
<g>
	<path d="M22,1.932V13h-2V2c0-0.552-0.448-1-1-1s-1,0.448-1,1v11h-2V1.964c0-1.287-2-1.243-2-0.033V13h-2V2.01
		c0-1.363-2-1.313-2-0.054v14.472c0,2.087,2,3.463,4,3.463V46c0,4,6,4,6,0V19.892c2,0,4-1.662,4-3.227V1.964
		C24,0.689,22,0.738,22,1.932z"/>
	<path d="M31,5v25h2v16c0,4,7,4,7,0V5C40,0,31,0,31,5z"/>
</g>
</svg>
