<?xml version="1.0" encoding="utf-8"?>
<!-- Generator: Adobe Illustrator 15.1.0, SVG Export Plug-In . SVG Version: 6.00 Build 0)  -->
<svg version="1.2" baseProfile="tiny" id="Layer_1" xmlns="http://www.w3.org/2000/svg" xmlns:xlink="http://www.w3.org/1999/xlink"
	 x="0px" y="0px" width="50px" height="50px" viewBox="0 0 50 50" overflow="inherit" xml:space="preserve">
<g id="Your_Icon_2_">
	<path d="M27.984,30.729c-2.251,0-4.078,1.85-4.078,4.135c0,2.284,1.828,4.137,4.078,4.137c2.252,0,4.077-1.853,4.077-4.137
		C32.062,32.578,30.236,30.729,27.984,30.729z M27.984,37.053c-1.195,0-2.16-0.979-2.16-2.189c0-1.209,0.965-2.193,2.16-2.193
		c1.191,0,2.161,0.984,2.161,2.193C30.146,36.074,29.176,37.053,27.984,37.053z"/>
	<path d="M44.857,12.494C43.414,11.996,34.102,11,27.972,11c-6.129,0-16,1.009-17.461,1.441C10.36,12.485,6,13.687,6,18.414V31.03
		C6,31.887,6.321,33,6.795,33H1v2h21.965c0-3,2.262-5.122,5.048-5.122c2.79,0,5.051,2.122,5.051,5.122h12.231
		C47.344,35,49,33.104,49,31.03V17.743C49,15.668,47.44,13.387,44.857,12.494z M20.036,22.373c0,0.394-0.281,0.627-0.667,0.627
		h-6.583C12.397,23,12,22.852,12,22.458v-4.662C12,17.404,12.397,17,12.785,17h6.583C19.754,17,20,17.404,20,17.796v4.662
		L20.036,22.373z M44,22.458C44,22.852,43.69,23,43.3,23H28.734C28.345,23,28,22.852,28,22.458v-4.662
		C28,17.404,28.345,17,28.734,17H43.3c0.391,0,0.7,0.404,0.7,0.796V22.458z"/>
</g>
</svg>
