<?xml version="1.0" encoding="utf-8"?>
<!-- Generator: Adobe Illustrator 15.1.0, SVG Export Plug-In . SVG Version: 6.00 Build 0)  -->
<svg version="1.2" baseProfile="tiny" id="Layer_1" xmlns="http://www.w3.org/2000/svg" xmlns:xlink="http://www.w3.org/1999/xlink"
	 x="0px" y="0px" width="50px" height="50px" viewBox="0 0 50 50" overflow="inherit" xml:space="preserve">
<g>
	<path fill="#231F20" d="M47,49c-0.952,0-1.884-0.22-2.705-0.597c-0.843-0.397-1.795-0.63-2.794-0.63
		c-0.986,0-1.938,0.232-2.781,0.63C37.886,48.78,36.964,49,36.002,49c-0.954,0-1.884-0.22-2.708-0.597
		c-0.841-0.397-1.795-0.63-2.792-0.63c-0.987,0-1.939,0.232-2.785,0.63C26.889,48.78,25.963,49,25.005,49
		c-0.964,0-1.884-0.22-2.712-0.597c-0.843-0.397-1.797-0.63-2.787-0.63c-0.997,0-1.951,0.232-2.794,0.63
		C15.889,48.78,14.964,49,13.999,49c-0.958,0-1.884-0.22-2.71-0.597c-0.844-0.397-1.797-0.63-2.789-0.63
		c-0.992,0-1.945,0.232-2.789,0.63C4.884,48.78,3.964,49,3,49v-4.102c0.964,0,1.884-0.22,2.711-0.597
		c0.844-0.387,1.797-0.619,2.789-0.619c0.991,0,1.944,0.232,2.789,0.619c0.827,0.377,1.752,0.597,2.71,0.597
		c0.965,0,1.89-0.22,2.712-0.597c0.843-0.387,1.797-0.619,2.794-0.619c0.99,0,1.944,0.232,2.787,0.619
		c0.829,0.377,1.748,0.597,2.712,0.597c0.958,0,1.884-0.22,2.712-0.597c0.846-0.387,1.798-0.619,2.785-0.619
		c0.997,0,1.951,0.232,2.792,0.619c0.824,0.377,1.754,0.597,2.708,0.597c0.962,0,1.884-0.22,2.718-0.597
		c0.843-0.387,1.795-0.619,2.781-0.619c0.999,0,1.951,0.232,2.794,0.619c0.821,0.377,1.753,0.597,2.705,0.597V49z"/>
	<polygon fill="#231F20" points="29,1 29,32 4.287,32 	"/>
	<path fill="#231F20" d="M32,8.119C32,11.58,47.847,21,46.693,32H32V8.119L32,8.119z"/>
	<path fill="#231F20" d="M43.527,34h-6.835H10v6.2c1,0.1,0.846,0.211,1.187,0.377c0.827,0.365,1.804,0.585,2.762,0.585
		c0.965,0,1.916-0.22,2.738-0.585c0.843-0.398,1.81-0.63,2.807-0.63c0.99,0,1.95,0.231,2.793,0.63
		c0.829,0.365,1.751,0.585,2.715,0.585c0.958,0,1.885-0.22,2.713-0.585c0.846-0.398,1.799-0.63,2.786-0.63
		c0.997,0,1.952,0.231,2.793,0.63c0.824,0.365,1.754,0.585,2.708,0.585c0.187,0,0.36-0.044,0.536-0.066
		c0.022,0,0.022,0.022,0.045,0.022c0.119,0,0.207-0.055,0.328-0.055c0.219-0.033,0.437-0.056,0.657-0.11
		c1.97-0.409,3.244-2.006,3.244-2.006L44.647,34H43.527z"/>
</g>
</svg>
