<?xml version="1.0" encoding="utf-8"?>
<!-- Generator: Adobe Illustrator 15.1.0, SVG Export Plug-In . SVG Version: 6.00 Build 0)  -->
<svg version="1.2" baseProfile="tiny" id="Layer_1" xmlns="http://www.w3.org/2000/svg" xmlns:xlink="http://www.w3.org/1999/xlink"
	 x="0px" y="0px" width="50px" height="50px" viewBox="0 0 50 50" overflow="inherit" xml:space="preserve">
<path id="zoom_in" d="M35.66,29.539c1.661-2.739,2.632-5.948,2.632-9.385c0-10.029-8.115-18.15-18.146-18.154
	C10.124,2.003,2,10.125,2,20.152c0,10.018,8.125,18.139,18.152,18.139c3.44,0,6.645-0.972,9.384-2.633L41.879,48L48,41.876
	L35.66,29.539z M20.15,31.38c-6.202-0.015-11.216-5.027-11.227-11.216C8.935,13.962,13.95,8.949,20.15,8.935
	c6.199,0.016,11.215,5.028,11.228,11.229C31.365,26.346,26.347,31.365,20.15,31.38z"/>
</svg>
