<?xml version="1.0" encoding="utf-8"?>
<!-- Generator: Adobe Illustrator 15.1.0, SVG Export Plug-In . SVG Version: 6.00 Build 0)  -->
<svg version="1.2" baseProfile="tiny" id="Layer_1" xmlns="http://www.w3.org/2000/svg" xmlns:xlink="http://www.w3.org/1999/xlink"
	 x="0px" y="0px" width="50px" height="50px" viewBox="0 0 50 50" overflow="inherit" xml:space="preserve">
<g>
	<path d="M25.577,8.938c2.297,0.169,4.306-1.468,4.488-3.648c0.184-2.191-1.53-4.108-3.827-4.277c-2.3-0.167-4.309,1.46-4.487,3.651
		C21.572,6.854,23.287,8.767,25.577,8.938z"/>
	<path d="M42.783,41l-1.388-12h-2.252c0.021-1,0.018-1.111-0.051-1.718c-0.067-0.621-0.264-1.075-0.585-1.218
		c0.263-0.28,0.438-0.636,0.472-1.037c0.051-0.632-0.245-1.223-0.74-1.575l-5.732-3.768l-4.22-7.946
		c-0.699-1.04-1.883-1.879-3.312-1.999c-1.098-0.076-2.108,0.287-2.925,0.827l-8.374,6.482c-0.276,0.222-0.483,0.514-0.577,0.865
		l-1.951,7.851C11.131,25.839,11,25.923,11,25.997c0,0.001,0,0.002,0,0.003h-0.016c-0.327,0-0.625,0.312-0.739,0.725
		C10.135,27.13,10,27.665,10,28.098C10,28.41,10,29,10,29H7.826L6.438,41h5.609l-2.459,3.935c-0.16,0.305-0.348,0.736-0.381,1.152
		c-0.121,1.49,1.039,2.785,2.594,2.904c1.111,0.074,2.067-0.462,2.648-1.318L18.599,41h0.543l-0.085-0.737l1.151-1.852
		c0.125-0.248,0.522-0.855,0.566-1.143l1.406-6.11l6.001,6.273l1.884,9.431c0.301,1.115,1.263,2.035,2.543,2.129
		c1.557,0.118,2.92-0.981,3.044-2.468c0.011-0.186-0.022-0.326-0.017-0.548L34.651,41h1.778H42.783z M10.957,27.99
		c0.056-0.473,0.233-0.742,0.545-0.742c0.041,0,0.076-0.001,0.117-0.002c0.315,0.381,0.783,0.642,1.323,0.686
		c0.619,0.048,1.175-0.219,1.553-0.633c0.084,0.071,0.151,0.178,0.197,0.326c0.083,0.287,0.131,0.616,0.131,0.887
		c0,0.162-0.008,0.488-0.019,0.488h-2.016h-1.86C10.915,29,10.919,28.357,10.957,27.99z M16.688,29h-1.185
		c0.025-1,0.018-1.111-0.047-1.718c-0.056-0.52-0.203-0.922-0.436-1.128l1.479-6.442l2.917-2.257L16.688,29z M38.446,29H36.43
		h-1.863c-0.016,0-0.011-0.643,0.029-1.01c0.052-0.473,0.232-0.742,0.545-0.742c0.449,0,0.856-0.014,1.217-0.022
		c0.363-0.013,0.858-0.031,1.481-0.031c0.239,0,0.401,0.142,0.491,0.431c0.086,0.287,0.132,0.616,0.132,0.887
		C38.462,28.674,38.453,29,38.446,29z M25.9,26.717l1.88-7.936l1.581,2.983c0.125,0.205,0.273,0.374,0.468,0.533L35.476,26h-0.853
		c-0.327,0-0.447,0.312-0.56,0.725C33.956,27.13,34,27.665,34,28.098C34,28.41,34,29,34,29h-2.532l-0.409,3.53L25.9,26.717z"/>
</g>
</svg>
