<?xml version="1.0" encoding="utf-8"?>
<!-- Generator: Adobe Illustrator 15.1.0, SVG Export Plug-In . SVG Version: 6.00 Build 0)  -->
<svg version="1.2" baseProfile="tiny" id="Layer_1" xmlns="http://www.w3.org/2000/svg" xmlns:xlink="http://www.w3.org/1999/xlink"
	 x="0px" y="0px" width="50px" height="50px" viewBox="0 0 50 50" overflow="inherit" xml:space="preserve">
<g>
	<path d="M34.617,8.735c2.114,0,3.821-1.734,3.821-3.868C38.438,2.734,36.731,1,34.617,1c-2.116,0-3.836,1.734-3.836,3.868
		C30.781,7.001,32.501,8.735,34.617,8.735z"/>
	<path d="M44.897,23.488c-0.667,1.551-2.091,1.085-2.091,1.085l-5.996-2.283c-0.601-0.217-1.063-0.719-1.223-1.335l-1.356-3.993
		l-2.116,5.876l6.222,6.583C39.116,30.803,39,31.817,39,31.817v9.082l0,0c0,0,4.063,1.814,4.063,4.05
		c0,2.237-1.774,4.051-3.991,4.051c-0.316,0-0.611-0.034-0.916-0.114L25,45.932v-1.963l10-2.214v-8.271l-6.719-6.698l-1.053,7.018
		c-0.168,0.891-0.819,1.723-1.183,2.134l-4.62,5.396c-0.067-0.058-0.161-0.058-0.251-0.046l0.245,0.046
		c1.196,0.947,1.818,2.532,1.445,4.119c-0.506,2.179-2.679,3.525-4.829,3.012c-0.316-0.079-0.61-0.183-0.893-0.319L5,42.188
		l0.453-1.906l11.135,0.16l5.294-6.171L23.52,22.13l3.437-9.185l-4.758,2.761L19.36,21.32c-0.86,1.78-2.409,0.844-2.409,0.844
		c-1.403-0.81-0.86-2.179-0.86-2.179l2.907-5.933c0.781-1.506,1.403-1.734,1.403-1.734l6.794-3.754
		c1.481-1.027,3.201-0.228,3.201-0.228l3.913,1.495c1.957,0.708,2.037,1.814,2.037,1.814l2.421,7.816l5.214,1.859
		C43.981,21.32,45.384,21.925,44.897,23.488z M38.789,47.163c0.104,0.012,0.204,0.023,0.307,0.023c1.222,0,2.169-1.004,2.169-2.237
		c0-1.231-1.265-2.235-2.265-2.235v0.468c0,1.175-0.9,2.133-2.068,2.133c-1.028,0-1.82-0.753-2.01-1.734l-6.145,1.369L38.789,47.163
		z M18.161,46.604c0.091,0.046,0.181,0.067,0.282,0.092c1.199,0.284,2.387-0.458,2.67-1.655c0.214-0.913-0.159-1.826-0.872-2.339
		l-0.905,1.062c-0.769,0.889-2.104,0.991-2.986,0.216c-0.52-0.457-0.723-1.105-0.689-1.745l-6.736-0.115L18.161,46.604z"/>
</g>
</svg>
