<?xml version="1.0" encoding="utf-8"?>
<!-- Generator: Adobe Illustrator 15.1.0, SVG Export Plug-In . SVG Version: 6.00 Build 0)  -->
<svg version="1.2" baseProfile="tiny" id="Layer_1" xmlns="http://www.w3.org/2000/svg" xmlns:xlink="http://www.w3.org/1999/xlink"
	 x="0px" y="0px" width="50px" height="50px" viewBox="0 0 50 50" overflow="inherit" xml:space="preserve">
<g>
	<path d="M9.416,35.465c13.419,5.673,23.611,8.981,37.967,13.529c0.294,0.045,0.565-0.159,0.61-0.466
		c0.045-0.295-0.157-0.58-0.452-0.637C24.928,40.74,7.177,32.816,3.127,30.974c-0.419-0.169-0.906,0.023-1.063,0.434
		c-0.17,0.421,0.011,0.875,0.418,1.034c1.007,0.454,2.002,0.897,2.964,1.318l-3.19,2.444c-0.362,0.534-0.204,1.217,0.328,1.58
		c0.396,0.273,0.962,0.239,1.346-0.012L9.416,35.465z"/>
	<path d="M46.454,21.146l-10.445-9.642c0.078,0.005,0.152,0.023,0.231,0.023c2.115,0,3.823-1.728,3.823-3.854
		S38.355,3.82,36.24,3.82c-2.127,0-3.835,1.728-3.835,3.854c0,0.812,0.253,1.564,0.68,2.187l-7.082-2.539l-3.824-5.559
		c-0.294-0.41-0.747-0.683-1.276-0.751c-0.995-0.113-1.912,0.614-2.024,1.626c-0.045,0.421,0.057,0.83,0.26,1.171l3.899,5.684
		c0.181,0.227,0.408,0.42,0.679,0.546l4.525,1.785l-7.429,3.82c-1.04,0.591-1.776,1.637-1.979,2.854l0.034,6.833l-6.872,3.114
		c-0.769,0.375-1.323,1.148-1.357,2.07c-0.056,1.319,0.962,2.421,2.274,2.479c0.407,0.021,0.803-0.068,1.143-0.24l8.408-3.818
		c0.6-0.319,1.052-0.898,1.199-1.604l-0.011-4.252l5.836,5.253l-1.075,8.946c0,0.057-0.011,0.113-0.011,0.171
		c-0.057,1.318,0.963,2.433,2.274,2.49c1.232,0.045,2.284-0.853,2.454-2.069l1.256-10.21c0-0.045,0.011-0.09,0.011-0.137
		c0.022-0.716-0.259-1.364-0.735-1.818l-5.406-4.832l8.145-4.025l7.557,6.992c0.339,0.33,0.803,0.534,1.301,0.534
		c1.018-0.011,1.832-0.841,1.822-1.853C47.078,21.976,46.828,21.487,46.454,21.146z"/>
</g>
</svg>
