<?xml version="1.0" encoding="utf-8"?>
<!-- Generator: Adobe Illustrator 15.1.0, SVG Export Plug-In . SVG Version: 6.00 Build 0)  -->
<svg version="1.2" baseProfile="tiny" id="Layer_1" xmlns="http://www.w3.org/2000/svg" xmlns:xlink="http://www.w3.org/1999/xlink"
	 x="0px" y="0px" width="50px" height="50px" viewBox="0 0 50 50" overflow="inherit" xml:space="preserve">
<path d="M46,14H34v-3.976C34,7.173,32.159,4,29.311,4h-9.592C16.868,4,15,7.173,15,10.024V14H4c-1.1,0-2,0.9-2,2v29c0,1.1,0.9,2,2,2
	h42c1.1,0,2-0.9,2-2V16C48,14.9,47.1,14,46,14z M30,44H19v-1.067c0-0.023,0.613-0.053,0.906-0.088s0.55-0.094,0.761-0.176
	c0.375-0.141,0.795-0.343,0.948-0.606S22,41.45,22,41.017v-10.23c0-0.41-0.248-0.771-0.436-1.081s-0.499-0.56-0.78-0.747
	c-0.211-0.141-0.359-0.275-0.787-0.404S19,28.343,19,28.308v-1.283l8.175-0.457L27,26.831v13.957c0,0.41,0.316,0.759,0.492,1.046
	s0.542,0.501,0.87,0.642c0.234,0.105,0.485,0.199,0.767,0.281S30,42.897,30,42.933V44z M20.619,20.239
	c0-0.891,0.343-1.652,1.028-2.285s1.503-0.949,2.452-0.949s1.764,0.316,2.443,0.949s1.02,1.395,1.02,2.285s-0.343,1.649-1.028,2.276
	s-1.497,0.94-2.435,0.94c-0.949,0-1.767-0.313-2.452-0.94S20.619,21.13,20.619,20.239z M31,14H18v-3.976C18,8.957,19.08,7,20.147,7
	h8.052C29.264,7,31,8.957,31,10.024V14z"/>
</svg>
