<?xml version="1.0" encoding="utf-8"?>
<!-- Generator: Adobe Illustrator 15.1.0, SVG Export Plug-In . SVG Version: 6.00 Build 0)  -->
<svg version="1.2" baseProfile="tiny" id="Layer_1" xmlns="http://www.w3.org/2000/svg" xmlns:xlink="http://www.w3.org/1999/xlink"
	 x="0px" y="0px" width="50px" height="50px" viewBox="0 0 50 50" overflow="inherit" xml:space="preserve">
<circle cx="22.875" cy="4.625" r="4.125"/>
<path d="M22,10h-3c-2.82,0-5,1.719-5,4.587V27c0,2,3,2,3,0V15h1v32c0,1.233,0.768,2,2,2c1.235,0,2-0.767,2-2V28V10z"/>
<path d="M35,25l-4.017-10.357C30.634,12.322,28.29,10,25.615,10H23v23.783c0.5,0.002,1,0.075,1,0.217v13c0,1.04,0.917,2,2,2
	c1.086,0,2-0.961,2-2V34h3.869c0.362,0,1.044-0.654,1.044-1c0-0.08,0.029-0.931,0-1l-5.909-16.237
	c-0.022-0.051-0.034-0.108-0.034-0.167c0-0.237,0.199-0.429,0.447-0.429c0.211,0,0.388,0.141,0.435,0.329L31.869,26
	c0.267,0.601,1.365,1,2.087,1C34.921,27,35.021,25.105,35,25z"/>
</svg>
