<?xml version="1.0" encoding="utf-8"?>
<!-- Generator: Adobe Illustrator 15.1.0, SVG Export Plug-In . SVG Version: 6.00 Build 0)  -->
<svg version="1.2" baseProfile="tiny" id="Layer_1" xmlns="http://www.w3.org/2000/svg" xmlns:xlink="http://www.w3.org/1999/xlink"
	 x="0px" y="0px" width="50px" height="50px" viewBox="0 0 50 50" overflow="inherit" xml:space="preserve">
<g>
	<path d="M24.999,27.381c-5.406,0-9.999,1.572-12.999,4.036V36h26v-4.583C35,28.953,30.406,27.381,24.999,27.381z"/>
	<path d="M48.87,25.029L24.936,14L1.012,25.029L5,26.854v2.807c-1,0.207-1.003,0.731-1.003,1.354c0,0.368,0.122,0.799,0.354,1.057
		L2.983,35h4.88l-1.356-2.93c0.228-0.258,0.415-0.638,0.415-1.006C6.922,30.442,6,29.867,6,29.66v-2.337l5,2.246V29.37
		c3-2.609,8.271-4.265,13.998-4.265C30.727,25.105,36,26.761,39,29.37v0.199L48.87,25.029z"/>
</g>
</svg>
