<?xml version="1.0" encoding="utf-8"?>
<!-- Generator: Adobe Illustrator 15.1.0, SVG Export Plug-In . SVG Version: 6.00 Build 0)  -->
<svg version="1.2" baseProfile="tiny" id="Layer_1" xmlns="http://www.w3.org/2000/svg" xmlns:xlink="http://www.w3.org/1999/xlink"
	 x="0px" y="0px" width="50px" height="50px" viewBox="0 0 50 50" overflow="inherit" xml:space="preserve">
<g>
	<path d="M18.48,18.875c2.33-0.396,4.058-2.518,4.321-5.053c0.267-2.578,0.869-12.938-3.02-12.279
		C9.693,3.254,10.401,20.245,18.48,18.875z"/>
	<path d="M31.753,18.875c8.077,1.37,8.785-15.621-1.303-17.333c-3.888-0.659-3.287,9.701-3.021,12.279
		C27.693,16.357,29.423,18.479,31.753,18.875z"/>
	<path d="M14.336,26.88c0-1.348-0.481-2.57-1.256-3.459c-1.275-1.666-5.328-5.035-6.323-4.172C4.68,21.055,4.747,25.5,5.998,28.73
		c0.643,1.796,2.196,3.059,4.011,3.059C12.398,31.789,14.336,29.591,14.336,26.88z"/>
	<path d="M43.473,19.249c-0.993-0.863-5.046,2.506-6.321,4.172c-0.775,0.889-1.257,2.111-1.257,3.459
		c0,2.711,1.94,4.909,4.327,4.909c1.816,0,3.37-1.263,4.013-3.059C45.483,25.5,45.552,21.055,43.473,19.249z"/>
	<path d="M35.337,34.526c-3.676-1.833-3.562-5.363-4.398-8.584c-0.665-2.569-3.02-4.469-5.823-4.469
		c-2.743,0-5.057,1.821-5.779,4.312c-0.895,3.082-0.356,6.67-4.363,8.717c-3.255,1.061-4.573,2.609-4.573,6.27
		c0,2.974,2.553,6.158,5.848,6.554c3.676,0.554,6.544-0.17,8.867-1.494c2.323,1.324,5.189,2.047,8.871,1.494
		c3.293-0.396,5.847-3.568,5.847-6.554C39.833,37.031,38.599,35.637,35.337,34.526z M31,39h-3.811l0.005,4h-4.156l0.006-4H19v-4
		h4.045l-0.006-4h4.156l-0.005,4H31V39z"/>
</g>
</svg>
