<?xml version="1.0" encoding="utf-8"?>
<!-- Generator: Adobe Illustrator 15.1.0, SVG Export Plug-In . SVG Version: 6.00 Build 0)  -->
<svg version="1.2" baseProfile="tiny" id="Layer_1" xmlns="http://www.w3.org/2000/svg" xmlns:xlink="http://www.w3.org/1999/xlink"
	 x="0px" y="0px" width="50px" height="50px" viewBox="0 0 50 50" overflow="inherit" xml:space="preserve">
<g>
	<path d="M35.179,1c-2.256,0-4.087,1.859-4.087,4.139c0,2.289,1.831,4.137,4.087,4.137c2.269,0,4.107-1.848,4.107-4.137
		C39.286,2.859,37.447,1,35.179,1z"/>
	<path d="M4.237,29.54c-0.354-0.576-1.098-0.751-1.664-0.395c-0.571,0.359-0.743,1.109-0.388,1.686
		c0.356,0.565,1.097,0.739,1.676,0.389C4.42,30.859,4.591,30.11,4.237,29.54z"/>
	<path d="M5.079,32.916c-0.354-0.565-1.098-0.74-1.675-0.381c-0.56,0.352-0.731,1.107-0.377,1.672
		c0.355,0.585,1.099,0.751,1.658,0.395C5.256,34.242,5.429,33.491,5.079,32.916z"/>
	<path d="M5.916,36.303c-0.349-0.582-1.108-0.75-1.669-0.391c-0.577,0.356-0.743,1.105-0.387,1.686
		c0.349,0.564,1.107,0.736,1.668,0.38C6.1,37.623,6.271,36.867,5.916,36.303z"/>
	<path d="M6.748,39.679c-0.354-0.565-1.098-0.739-1.657-0.396c-0.578,0.37-0.744,1.119-0.395,1.69
		c0.355,0.576,1.099,0.75,1.675,0.391C6.931,41.005,7.103,40.254,6.748,39.679z"/>
	<path d="M26.417,46.56c-0.643,0.216-0.999,0.901-0.793,1.547c0.212,0.649,0.894,0.995,1.527,0.795
		c0.637-0.209,0.991-0.896,0.792-1.534C27.736,46.722,27.054,46.37,26.417,46.56z"/>
	<path d="M29.861,46.59c-0.64,0.195-0.987,0.891-0.783,1.527c0.206,0.65,0.892,1.008,1.526,0.799
		c0.631-0.204,0.985-0.899,0.781-1.538C31.175,46.74,30.506,46.381,29.861,46.59z"/>
	<path d="M33.326,46.601c-0.648,0.206-1.004,0.891-0.792,1.54c0.204,0.637,0.887,0.995,1.526,0.787
		c0.632-0.195,0.984-0.887,0.773-1.537C34.641,46.752,33.957,46.391,33.326,46.601z"/>
	<path d="M36.765,46.615c-0.631,0.209-0.986,0.896-0.783,1.536c0.211,0.644,0.895,0.995,1.526,0.791
		c0.636-0.21,0.984-0.887,0.783-1.531C38.085,46.762,37.399,46.415,36.765,46.615z"/>
	<path d="M44.998,17h-7.156l-3.539-5.787c-0.611-1.307-1.891-2.206-3.403-2.267c-0.295-0.015-0.562,0.029-0.833,0.089l-17.988,4.273
		c-1.088,0.257-1.77,1.347-1.51,2.455c0.244,1.098,1.315,1.777,2.402,1.529l12.011-2.188L15.853,31H9.21H9.2H6.088l2.162,7.893
		c0.073,0.256,0.073-0.026,0.157,0.109c0.304,0.502,0.954,0.491,1.44,0.185c0.266-0.157,0.439-0.518,0.488-0.804l1.293-4.019
		l0.049-0.184c0,0,5.972-0.035,6.017-0.035c1.198,0,2.224-0.335,2.833-1.35l2.768-4.633l6.161,6.323L26.845,45c0,0,9.005,0,9.043,0
		c0.582,0,1.059-0.609,1.059-1.189c0-0.459-0.281-0.841-0.63-1.036l-3.904-2.216l1.874-7.475c0,0,0.465-1.589-1.009-3.044
		l-5.04-5.103c0,0,2.693-4.472,4.419-7.345L35,21c1,0,1.134,0,1.542,0h8.419c1.123,0,2.028-0.873,2.039-1.993
		C47.01,17.873,46.107,17,44.998,17z"/>
</g>
</svg>
