<?xml version="1.0" encoding="utf-8"?>
<!-- Generator: Adobe Illustrator 15.1.0, SVG Export Plug-In . SVG Version: 6.00 Build 0)  -->
<svg version="1.2" baseProfile="tiny" id="Layer_1" xmlns="http://www.w3.org/2000/svg" xmlns:xlink="http://www.w3.org/1999/xlink"
	 x="0px" y="0px" width="50px" height="50px" viewBox="0 0 50 50" overflow="inherit" xml:space="preserve">
<path d="M47.495,21.575C47.27,9.417,40.217,4.586,39.928,4.395l-1.091-0.746l-1.099,0.744c-1.826,1.239-3.719,1.868-5.626,1.868
	c-3.158,0-5.302-1.7-5.393-1.774L25.489,3.5l-1.221,0.99c-0.09,0.072-2.233,1.771-5.392,1.771c-1.905,0-3.797-0.628-5.626-1.871
	l-1.094-0.738l-1.102,0.745C10.306,4.911,3.74,9.761,3.502,21.515C3.407,22.539,6.231,41.889,25.499,47.5
	C46.447,41.378,47.603,22.852,47.495,21.575z"/>
</svg>
