<?xml version="1.0" encoding="utf-8"?>
<!-- Generator: Adobe Illustrator 15.1.0, SVG Export Plug-In . SVG Version: 6.00 Build 0)  -->
<svg version="1.2" baseProfile="tiny" id="Layer_1" xmlns="http://www.w3.org/2000/svg" xmlns:xlink="http://www.w3.org/1999/xlink"
	 x="0px" y="0px" width="50px" height="50px" viewBox="0 0 50 50" overflow="inherit" xml:space="preserve">
<path d="M42.56,17.108c0.278-3.306,1.275-6.341,3.03-9.124L38.856,1.5c-2.127,1.763-4.551,2.74-7.295,2.912
	c-2.516,0.219-4.9-0.241-7.144-1.383c-2.306,1.104-4.681,1.567-7.156,1.383c-2.562-0.22-4.873-1.095-6.943-2.644L3.567,8.25
	c1.661,2.822,2.586,5.775,2.767,8.858c0.086,1.419-0.334,3.375-1.279,5.9c-0.494,1.4-0.867,2.615-1.123,3.63
	c-0.236,1.009-0.383,1.827-0.433,2.442c-0.034,2.691,0.75,5.121,2.358,7.282c1.257,1.577,3.33,3.319,6.208,5.224
	c3.148,1.543,5.585,2.544,7.292,2.971c0.49,0.221,0.968,0.432,1.416,0.635c0.445,0.204,0.922,0.405,1.419,0.623
	c1.075,0.62,1.828,1.291,2.225,1.984c0.488-0.751,1.259-1.404,2.283-1.984c0.722-0.304,1.335-0.565,1.826-0.797
	c0.491-0.21,0.857-0.365,1.069-0.46c0.365-0.173,0.842-0.373,1.422-0.594c0.582-0.221,1.305-0.491,2.164-0.791
	c1.663-0.566,2.874-1.103,3.643-1.587c2.792-1.904,4.833-3.619,6.132-5.15c1.665-2.168,2.475-4.61,2.438-7.354
	c-0.099-1.23-0.64-3.196-1.622-5.875C42.838,20.596,42.425,18.57,42.56,17.108z"/>
</svg>
