<?xml version="1.0" encoding="utf-8"?>
<!-- Generator: Adobe Illustrator 15.1.0, SVG Export Plug-In . SVG Version: 6.00 Build 0)  -->
<svg version="1.2" baseProfile="tiny" id="Layer_1" xmlns="http://www.w3.org/2000/svg" xmlns:xlink="http://www.w3.org/1999/xlink"
	 x="0px" y="0px" width="50px" height="50px" viewBox="0 0 50 50" overflow="inherit" xml:space="preserve">
<path d="M12.788,34.705c-6.205,0-10.985-3.488-10.985-9.985c0-6.574,4.625-10.355,10.985-10.355c6.358,0,10.984,3.782,10.984,10.355
	C23.771,31.217,18.992,34.705,12.788,34.705z M12.788,29.566c2.241,0,3.345-1.91,3.345-4.808c0-2.28-0.475-5.255-3.345-5.255
	c-2.871,0-3.346,2.975-3.346,5.255C9.442,27.656,10.546,29.566,12.788,29.566z"/>
<path d="M40.066,22c-0.033-1-0.331-1.378-0.806-1.853c-0.475-0.514-1.137-0.708-1.988-0.708c-2.858,0-3.333,3.007-3.333,5.287
	c0,2.898,1.104,4.973,3.333,4.973c1.988,0,2.761-1.699,2.981-2.699h7.717c-0.662,6-5.365,7.854-10.698,7.854
	c-6.203,0-10.973-3.563-10.973-10.06c0-6.574,4.626-10.522,10.973-10.522c5.146,0,9.992,2.728,10.543,7.728H40.066z"/>
</svg>
