<?xml version="1.0" encoding="utf-8"?>
<!-- Generator: Adobe Illustrator 15.1.0, SVG Export Plug-In . SVG Version: 6.00 Build 0)  -->
<svg version="1.2" baseProfile="tiny" id="Layer_1" xmlns="http://www.w3.org/2000/svg" xmlns:xlink="http://www.w3.org/1999/xlink"
	 x="0px" y="0px" width="50px" height="50px" viewBox="0 0 50 50" overflow="inherit" xml:space="preserve">
<g>
	<path d="M4,40h4.894c1.838,0,3.087,0.654,3.087,2.464c0,0.948-0.471,1.644-1.308,2.05c1.178,0.336,1.779,1.358,1.779,2.567
		c0,1.967-1.673,2.919-3.429,2.919H4V40z M6,44h2.623c0.742,0,1.295-0.207,1.295-1.021C9.918,42.055,9.211,42,8.458,42H6V44z M6,48
		h2.741c0.848,0,1.579-0.439,1.579-1.447c0-0.988-0.625-1.553-1.532-1.553H6V48z"/>
	<path d="M14,43h2v1h0.022c0.354-1,1.459-1.448,2.402-1.448c0.13,0,0.576,0.077,0.576,0.118v1.792c-1-0.042-0.663-0.065-0.887-0.065
		c-1.414,0-2.113,1.014-2.113,2.251V50h-2V43z"/>
	<path d="M19.829,45c0.106-2,1.625-2.376,3.192-2.376c1.402,0,2.979,0.288,2.979,1.973v3.653c0,0.636,0.273,1.75,0.451,1.75h-1.944
		c-0.071,0-0.13-0.542-0.142-0.772c-0.613,0.637-1.508,0.819-2.356,0.819c-1.332,0-2.392-0.689-2.392-2.127
		c0-1.592,1.189-1.968,2.392-2.145c1.179-0.165,2.274-0.141,2.274-0.926c0-0.83-0.565-0.933-1.249-0.933
		c-0.73,0-1.202,0.083-1.272,1.083H19.829z M24,46.377c0,0.282-0.859,0.294-1.461,0.405c-0.601,0.124-1.073,0.324-1.073,1.032
		c0,0.718,0.46,0.895,1.084,0.895c1.508,0,1.449-1.195,1.449-1.614V46.377z"/>
	<path d="M30.164,41.704H28.23v-1.585h1.934V41.704z M28,43h2v7h-2V43z"/>
	<path d="M32,40h2v10h-2V40z"/>
	<path d="M36,40h2v10h-2V40z"/>
	<path d="M41.699,47c0.06,1,0.647,1.84,1.721,1.84c0.778,0,1.402-0.84,1.52-0.84h1.696c-0.541,1-1.696,2.182-3.275,2.182
		c-2.214,0-3.582-1.61-3.582-3.786c0-2.102,1.45-3.636,3.582-3.636c2.381,0,3.536,2.24,3.405,4.24H41.699z M44.834,46
		c-0.177-1-0.589-1.49-1.532-1.49c-1.226,0-1.579,0.49-1.603,1.49H44.834z"/>
</g>
<circle cx="14.5" cy="32.5" r="3.5"/>
<circle cx="14.5" cy="18.5" r="3.5"/>
<circle cx="14.5" cy="4.5" r="3.5"/>
<circle cx="35.5" cy="32.5" r="3.5"/>
<circle cx="35.5" cy="18.5" r="3.5"/>
<circle cx="35.5" cy="4.5" r="3.5"/>
</svg>
