<?xml version="1.0" encoding="utf-8"?>
<!-- Generator: Adobe Illustrator 15.1.0, SVG Export Plug-In . SVG Version: 6.00 Build 0)  -->
<svg version="1.2" baseProfile="tiny" id="Layer_1" xmlns="http://www.w3.org/2000/svg" xmlns:xlink="http://www.w3.org/1999/xlink"
	 x="0px" y="0px" width="50px" height="50px" viewBox="0 0 50 50" overflow="inherit" xml:space="preserve">
<path d="M15.599,23c-0.033-1-0.32-1.731-0.806-2.206c-0.475-0.513-1.137-0.885-1.976-0.885c-2.871,0-3.345,2.919-3.345,5.199
	c0,2.897,1.104,4.783,3.345,4.783c1.976,0,2.749-0.892,2.969-2.892h7.717c-0.662,6-5.365,8.002-10.686,8.002
	c-6.205,0-10.985-3.49-10.985-9.987c0-6.574,4.625-10.131,10.985-10.131c5.133,0,9.991,2.117,10.532,8.117H15.599z"/>
<path d="M40.096,23c-0.033-1-0.331-1.731-0.806-2.206c-0.475-0.513-1.137-0.885-1.988-0.885c-2.858,0-3.333,2.919-3.333,5.199
	c0,2.897,1.104,4.783,3.333,4.783c1.988,0,2.761-0.892,2.981-2.892H48c-0.662,6-5.365,8.002-10.698,8.002
	c-6.204,0-10.973-3.49-10.973-9.987c0-6.574,4.626-10.131,10.973-10.131c5.146,0,9.991,2.117,10.544,8.117H40.096z"/>
</svg>
