<?xml version="1.0" encoding="utf-8"?>
<!-- Generator: Adobe Illustrator 15.1.0, SVG Export Plug-In . SVG Version: 6.00 Build 0)  -->
<svg version="1.2" baseProfile="tiny" id="Layer_1" xmlns="http://www.w3.org/2000/svg" xmlns:xlink="http://www.w3.org/1999/xlink"
	 x="0px" y="0px" width="50px" height="50px" viewBox="0 0 50 50" overflow="inherit" xml:space="preserve">
<g>
	<path d="M22.132,4.262c0.022-2.056-1.668-3.758-3.729-3.736c-2.106-0.022-3.808,1.68-3.797,3.736
		c-0.011,2.105,1.691,3.791,3.797,3.796C20.463,8.053,22.154,6.367,22.132,4.262L22.132,4.262z"/>
	<path d="M32.974,24.892L20.912,10.259c-0.627-0.93-4.122-1.321-5.6-0.134L9.443,20.804l1.444,9.027
		c1.468,2.357,4.38-0.028,3.562-1.316l-0.985-6.395L16,17v12l-6,16c-1.042,3.494,3.969,5.365,5,2l7-18v-9l-2.937-4.062
		c-0.146-0.174-0.124-0.437,0.056-0.588c0.179-0.146,0.437-0.123,0.583,0.05l10.034,11.866
		C31.351,29.473,34.587,27.126,32.974,24.892z"/>
	<path d="M28.359,45.19l-5.925-14.743L20,37l3.477,10.169C24.876,50.444,29.793,48.528,28.359,45.19z"/>
	<path d="M44.072,48.573c0.012,0.012,0.022,0.028,0.022,0.034c0.235,0.28,0.65,0.308,0.93,0.078
		c0.246-0.213,0.292-0.588,0.123-0.856L33.981,28.442c-0.012-0.012-0.022-0.023-0.033-0.039c-0.225-0.27-0.639-0.309-0.919-0.073
		c-0.246,0.213-0.269,0.571-0.111,0.856L44.072,48.573z"/>
</g>
</svg>
