<?xml version="1.0" encoding="utf-8"?>
<!-- Generator: Adobe Illustrator 15.1.0, SVG Export Plug-In . SVG Version: 6.00 Build 0)  -->
<svg version="1.2" baseProfile="tiny" id="Layer_1" xmlns="http://www.w3.org/2000/svg" xmlns:xlink="http://www.w3.org/1999/xlink"
	 x="0px" y="0px" width="50px" height="50px" viewBox="0 0 50 50" overflow="inherit" xml:space="preserve">
<g>
	<path fill-rule="evenodd" d="M35.88,42.563c-0.324,0.44-0.476,0.533-0.881,1.101c-0.674,0.87,0.185,2.191,0.613,1.983
		c0.499-0.187,0.823-1.183,1.368-1.508c0.279-0.15,1.021-1.24,1.716-1.981c0.511-0.581,0.882-0.836,1.368-1.438
		c0.823-1.021,0.997-1.797,1.716-2.887c0.441-0.568,0.755-0.742,1.16-1.438c2.145-4.058,1.518-5.877,3.571-8.775
		c0.625-0.857,1.332-1.066,2.329-1.576c0.928-6.76-2.145-10.539-2.121-10.551c-2.586,1.507-3.977,2.122-6.655,1.982
		c-1.008-0.011-1.542-0.44-2.538-0.348c-0.929,0.035-1.402,0.382-2.331,0.696c-1.425,0.44-2.202,0.834-3.697,1.298
		c-0.951,0.267-1.554,0.278-2.54,0.614c-0.846,0.36-0.44,0.07-1.031,0.754c-0.766,0.847-0.58,1.507-1.299,2.957
		c-0.893,1.901-0.788,2.156-0.278,2.388c-0.336,0.973-0.417,1.623-0.336,2.678c0.093,0.8-0.244,1.356,0.614,1.994
		c1.171,0.869,3.629,2.91,4.255,2.944c0.939-0.034,3.675,0.07,5.065-0.893c0.313-0.196,0.406-0.395,0.14,0.348
		c-0.058,0.094-3.467,2.748-3.837,2.736c-4.336,0.14-2.887,0.383-3.153,0.279c-0.221,0-2.308-2.552-3.571-1.647
		c-0.476,0.29-0.696,0.568-0.881,1.091c0.162,0.336,0.927,0.868,1.635,1.31c1.021,0.649,1.113,1.333,2.133,1.576
		c1.241,0.279,2.562,0.093,3.351,0.198c0.302,0.081,3.037-0.72,4.741-1.635c1.578-0.812-2.167,1.564-3.083,2.735
		c-2.76,0.869-1.982,0.904-3.293,1.171c-1.217,0.278-1.159,0.208-1.994,0.476c-0.857,0.208-1.564,1.38-0.753,1.994
		c0.487,0.405,2.006-0.163,3.501-0.208c0.661-0.012,3.361-1.253,3.977-1.578c1.53-0.822,2.655-1.959,3.56-2.608
		C39.67,37.926,37.004,41.195,35.88,42.563L35.88,42.563z M27.521,25.903c0.916,0.73,1.38,2.91,1.368,2.887
		c1.681,0.533,2.747,1.646,2.747,1.646c2.586-1.438,2.645-0.789,3.769-1.646c0.928-0.638,0.882-0.835,1.368-2.538
		c0.452-1.381-1.148-1.253-2.47-3.769c-2.295,0.869-3.535,0.476-4.312,0.406C29.643,22.843,29.7,24.245,27.521,25.903L27.521,25.903
		z"/>
	<path fill-rule="evenodd" d="M14.084,8.015c0.325-0.464,0.475-0.557,0.893-1.102c0.649-0.893-0.197-2.214-0.615-2.052
		c-0.51,0.232-0.834,1.229-1.449,1.577c-0.221,0.127-0.962,1.217-1.646,1.983c-0.51,0.557-0.881,0.812-1.368,1.449
		c-0.834,0.985-0.997,1.762-1.716,2.806c-0.44,0.625-0.765,0.788-1.16,1.507c-2.144,4.035-1.53,5.854-3.571,8.707
		c-0.625,0.916-1.333,1.113-2.33,1.646c-0.927,6.748,2.134,10.516,2.122,10.493c2.585-1.474,3.965-2.088,6.655-1.995
		c1.008,0.059,1.542,0.487,2.539,0.417c0.928-0.058,1.403-0.405,2.33-0.684c1.426-0.475,2.203-0.869,3.629-1.31
		c1.02-0.29,1.623-0.302,2.608-0.685c0.847-0.312,0.441-0.022,1.032-0.685c0.753-0.869,0.58-1.529,1.229-2.943
		c0.962-1.938,0.858-2.191,0.348-2.4c0.325-0.997,0.417-1.635,0.336-2.678c-0.104-0.812,0.244-1.38-0.614-1.982
		c-1.171-0.905-3.629-2.945-4.243-2.957c-0.951,0.012-3.687-0.093-5.078,0.823c-0.313,0.243-0.406,0.44-0.139-0.267
		c0.058-0.127,3.467-2.782,3.837-2.817c4.336-0.093,2.887-0.336,3.154-0.208c0.22-0.023,2.307,2.527,3.571,1.646
		c0.463-0.312,0.695-0.591,0.893-1.089c-0.174-0.359-0.939-0.894-1.646-1.299c-1.02-0.683-1.124-1.367-2.133-1.588
		c-1.241-0.301-2.574-0.116-3.351-0.267c-0.301-0.035-3.038,0.766-4.73,1.646c-1.6,0.847,2.157-1.53,3.083-2.747
		c2.748-0.824,1.96-0.858,3.293-1.16c1.206-0.244,1.148-0.174,1.983-0.417c0.846-0.232,1.564-1.392,0.753-2.052
		c-0.498-0.371-2.005,0.197-3.489,0.208c-0.672,0.046-3.374,1.287-3.988,1.635c-1.53,0.8-2.655,1.936-3.559,2.539
		C10.281,12.629,12.959,9.371,14.084,8.015L14.084,8.015z M22.443,24.674c-0.916-0.753-1.38-2.932-1.368-2.944
		c-1.681-0.499-2.748-1.612-2.748-1.577c-2.585,1.403-2.654,0.754-3.768,1.577c-0.939,0.673-0.881,0.881-1.368,2.528
		c-0.453,1.438,1.136,1.298,2.469,3.779c2.296-0.836,3.537-0.441,4.313-0.349C20.321,27.712,20.263,26.309,22.443,24.674
		L22.443,24.674z"/>
</g>
</svg>
