<?xml version="1.0" encoding="utf-8"?>
<!-- Generator: Adobe Illustrator 15.1.0, SVG Export Plug-In . SVG Version: 6.00 Build 0)  -->
<svg version="1.2" baseProfile="tiny" id="Layer_1" xmlns="http://www.w3.org/2000/svg" xmlns:xlink="http://www.w3.org/1999/xlink"
	 x="0px" y="0px" width="50px" height="50px" viewBox="0 0 50 50" overflow="inherit" xml:space="preserve">
<g>
	<path d="M17,21h2.682C20.486,21,21,19.818,21,19.02v-8.444C21,9.777,20.486,10,19.682,10H17V21z"/>
	<path d="M17,37h2.682C20.486,37,21,37.928,21,38.728v8.442c0,0.794-0.514,1.83-1.318,1.83H17V37z"/>
	<path d="M13.46,29c-0.023-7.717,1.428-8,2.255-8C15.806,21,16,21,16,21V10c0,0-0.262,0-0.342,0C14.185,10,7,12.421,7,29.499
		C7,46.578,14.185,49,15.658,49C15.738,49,16,49,16,49V37c0,0-0.194,0-0.285,0C14.888,37,13.482,36.713,13.46,29z"/>
	<path d="M23.196,12.379c0.487,0.583,0.747,1.32,0.747,2.079c0,0.759-0.26,1.496-0.747,2.08l1.597,1.314
		c0.781-0.952,1.214-2.158,1.214-3.394c0-1.235-0.433-2.443-1.214-3.394L23.196,12.379z"/>
	<path d="M28.33,21.643c1.744-1.91,2.708-4.386,2.708-6.976c0-2.578-0.952-5.054-2.697-6.958l-1.553,1.354
		c1.405,1.53,2.187,3.518,2.187,5.604c0,2.091-0.781,4.086-2.21,5.622L28.33,21.643z"/>
	<path d="M31.864,25.434c2.709-2.861,4.205-6.612,4.205-10.551c0-3.927-1.483-7.667-4.17-10.528l-1.53,1.394
		c2.334,2.477,3.627,5.724,3.627,9.135c0,3.423-1.293,6.675-3.65,9.157L31.864,25.434z"/>
	<path d="M35.412,29.226c3.66-3.82,5.678-8.84,5.678-14.133c0-5.275-2.004-10.28-5.645-14.093l-1.494,1.428
		c3.274,3.428,5.076,7.927,5.076,12.665c0,4.76-1.813,9.271-5.11,12.697L35.412,29.226z"/>
</g>
</svg>
