<?xml version="1.0" encoding="utf-8"?>
<!-- Generator: Adobe Illustrator 15.1.0, SVG Export Plug-In . SVG Version: 6.00 Build 0)  -->
<svg version="1.2" baseProfile="tiny" id="Layer_1" xmlns="http://www.w3.org/2000/svg" xmlns:xlink="http://www.w3.org/1999/xlink"
	 x="0px" y="0px" width="50px" height="50px" viewBox="0 0 50 50" overflow="inherit" xml:space="preserve">
<path fill="#231F20" d="M16.783,9c2.219,0,4-1.805,4-4c0-2.219-1.781-4-4-4c-2.206,0-4,1.782-4,4C12.783,7.195,14.577,9,16.783,9z"
	/>
<path fill="#231F20" d="M19.607,45.675c-6.812,0-12.336-5.601-12.336-12.537c0-3.797,1.689-7.185,4.324-9.489l-0.219-3.922
	C6.964,22.529,4,27.458,4,33.138C4,41.89,10.983,49,19.607,49C25.953,49,31.562,44.529,34,39l-2.376-3.272
	C30.45,41.393,25.534,45.675,19.607,45.675z"/>
<path fill="#231F20" d="M44,38h-2l-8-11c-0.433-0.761-2-3-4-3h-9v-4h8c1.036,0,2.154-0.441,2.154-1.506
	C31.154,17.437,30.065,17,29,17h-8v-4c-0.147-2.218-2-3-3.99-2.954C15,10.092,14,11,14,13v14c0.19,2.246,1.807,3,4,3h12l7,9
	c0.451,0.746,2,3,2,3h5c1.032,0,2-0.938,2-2C46,38.943,45.064,38,44,38z"/>
</svg>
